<svg width="416" height="430" viewBox="0 0 416 430" fill="none" xmlns="http://www.w3.org/2000/svg">
    <path
        d="M247.092 246.544C247.168 246.612 247.241 246.683 247.309 246.757L247.928 247.384L250.314 249.859L259.317 259.302L291.219 292.987H290.851L327.037 252.398L327.287 252.121L327.493 252.429L330.129 256.317L357.508 296.684L357.128 296.62L383.444 276.033L383.596 275.916L383.726 276.055L403.815 298.362L409.239 304.449L410.649 306.043C410.964 306.404 411.115 306.595 411.115 306.595C411.115 306.595 410.931 306.425 410.606 306.085L409.174 304.449L403.642 298.437L383.422 276.288H383.704L357.453 297.013L357.236 297.183L357.074 296.95L329.662 256.647L327.016 252.748H327.46C314.292 267.514 301.904 281.377 291.23 293.338L291.046 293.54L290.861 293.338C277.758 279.38 266.791 267.716 259.1 259.515L250.205 249.954L247.873 247.426C247.624 247.139 247.429 246.927 247.277 246.768C247.125 246.608 247.081 246.555 247.092 246.544Z"
        fill="#E6E6E6" />
    <path
        d="M287.477 293.263C287.471 294.001 287.689 294.725 288.103 295.341C288.518 295.957 289.111 296.439 289.806 296.724C290.501 297.009 291.267 297.086 292.006 296.943C292.746 296.801 293.425 296.446 293.958 295.924C294.491 295.402 294.853 294.737 294.999 294.013C295.144 293.289 295.066 292.538 294.775 291.858C294.483 291.177 293.992 290.597 293.363 290.191C292.733 289.784 291.995 289.571 291.241 289.577C290.245 289.583 289.29 289.973 288.586 290.663C287.881 291.353 287.483 292.287 287.477 293.263Z"
        fill="#E0E0E0" />
    <path
        d="M353.939 297.693C353.943 298.429 354.17 299.147 354.591 299.756C355.013 300.365 355.609 300.838 356.305 301.116C357.001 301.393 357.765 301.462 358.501 301.313C359.237 301.165 359.912 300.806 360.439 300.282C360.966 299.758 361.323 299.092 361.464 298.37C361.605 297.647 361.524 296.899 361.231 296.222C360.938 295.544 360.447 294.967 359.819 294.563C359.19 294.16 358.454 293.947 357.703 293.954C356.698 293.962 355.737 294.361 355.032 295.061C354.326 295.762 353.933 296.709 353.939 297.693Z"
        fill="#E0E0E0" />
    <path
        d="M379.788 277.223C379.795 277.956 380.023 278.671 380.444 279.277C380.866 279.883 381.461 280.353 382.155 280.628C382.849 280.903 383.611 280.97 384.344 280.821C385.077 280.671 385.749 280.313 386.274 279.79C386.798 279.267 387.153 278.603 387.293 277.883C387.433 277.162 387.351 276.418 387.059 275.743C386.766 275.068 386.276 274.493 385.65 274.091C385.024 273.689 384.29 273.477 383.541 273.484C382.538 273.495 381.58 273.894 380.877 274.595C380.174 275.296 379.782 276.24 379.788 277.223Z"
        fill="#E0E0E0" />
    <path
        d="M323.458 252.897C323.462 253.632 323.689 254.35 324.11 254.96C324.532 255.569 325.128 256.042 325.824 256.319C326.52 256.596 327.284 256.665 328.02 256.517C328.756 256.368 329.43 256.009 329.958 255.485C330.485 254.961 330.842 254.296 330.983 253.573C331.124 252.85 331.043 252.103 330.75 251.425C330.457 250.748 329.966 250.171 329.338 249.767C328.709 249.363 327.973 249.151 327.222 249.157C326.217 249.166 325.256 249.564 324.551 250.265C323.845 250.966 323.452 251.912 323.458 252.897Z"
        fill="#E0E0E0" />
    <path
        d="M408.121 306.701C408.126 307.437 408.353 308.155 408.774 308.764C409.195 309.373 409.792 309.846 410.488 310.123C411.184 310.401 411.948 310.469 412.684 310.321C413.42 310.172 414.094 309.814 414.622 309.29C415.149 308.766 415.506 308.1 415.647 307.377C415.788 306.655 415.707 305.907 415.414 305.23C415.121 304.552 414.629 303.975 414.001 303.571C413.373 303.167 412.637 302.955 411.885 302.962C410.88 302.97 409.92 303.368 409.214 304.069C408.509 304.77 408.116 305.717 408.121 306.701Z"
        fill="#E0E0E0" />
    <path d="M75.6062 25.3887H51.2321V120.325H75.6062V25.3887Z" fill="#E6E6E6" />
    <path d="M111.457 46.0928H87.0827V120.314H111.457V46.0928Z" fill="#E6E6E6" />
    <path d="M147.86 63.0469H123.486V120.314H147.86V63.0469Z" fill="#E6E6E6" />
    <path d="M181.563 86.3105H157.189V120.325H181.563V86.3105Z" fill="#E6E6E6" />
    <path
        d="M162.049 1.69971C162.049 1.69971 161.821 1.98652 161.376 2.49642L159.348 4.78032L151.635 13.3848L123.823 44.1909L123.671 44.3502L123.497 44.2227L105.35 30.6043H105.718L80.3356 62.1115L80.0319 62.494L79.8475 62.7277L79.6197 62.5258L45.4396 32.9626H45.8193C32.4011 50.214 21.0331 64.9478 12.8975 75.3688L3.42776 87.4894L0.900334 90.6762L0.238643 91.4942C0.16479 91.5908 0.0850986 91.683 0 91.7704C0.0616181 91.6667 0.130485 91.5673 0.206103 91.4729L0.835244 90.6231L3.2976 87.3619L12.6372 75.1563L45.3962 32.6014L45.5698 32.3783L45.7759 32.5589L79.9994 62.0478H79.5872L79.8909 61.6654L105.306 30.1794L105.469 29.9776L105.675 30.1369L123.79 43.7447H123.465L151.418 13.1829C154.792 9.51808 157.439 6.63931 159.25 4.68471L161.322 2.45392C161.799 1.92278 162.049 1.69971 162.049 1.69971Z"
        fill="#E6E6E6" />
    <path
        d="M158.024 23.7207C158.016 23.5595 158.034 23.398 158.079 23.2427L158.35 21.883C158.632 20.6188 159.012 18.9404 159.435 16.8902C160.4 12.6411 161.767 6.84108 163.34 0.339929L163.687 0.658612L162.461 1.03041C155.66 3.08061 149.498 4.89711 145.029 6.19309L139.725 7.6909L138.271 8.07332C138.105 8.13419 137.929 8.16653 137.751 8.16893C137.906 8.08614 138.07 8.01854 138.239 7.96709L139.66 7.48907L144.91 5.82129C149.347 4.4297 155.497 2.54947 162.266 0.509894L163.492 0.148718L163.969 0L163.85 0.478022C162.342 7.01104 160.964 12.7898 159.879 16.9858C159.348 19.0148 158.914 20.6826 158.599 21.9361C158.448 22.4566 158.317 22.9027 158.22 23.2639C158.178 23.4247 158.112 23.5787 158.024 23.7207Z"
        fill="#E6E6E6" />
    <path
        d="M350.305 162.221C355.148 162.144 359.906 163.475 363.977 166.046C368.048 168.617 371.249 172.312 373.176 176.665C375.102 181.017 375.668 185.831 374.801 190.498C373.933 195.165 371.673 199.476 368.304 202.885C364.935 206.294 360.61 208.648 355.875 209.649C351.14 210.651 346.209 210.255 341.703 208.512C337.198 206.769 333.322 203.757 330.565 199.857C327.807 195.957 326.293 191.343 326.213 186.6C326.114 180.241 328.595 174.103 333.112 169.533C337.628 164.962 343.811 162.333 350.305 162.221ZM350.891 197.68C353.206 197.638 355.457 196.924 357.359 195.63C359.26 194.335 360.728 192.518 361.575 190.407C362.422 188.296 362.612 185.987 362.12 183.771C361.627 181.554 360.475 179.531 358.809 177.956C357.143 176.38 355.037 175.324 352.759 174.92C350.48 174.516 348.129 174.783 346.005 175.686C343.881 176.59 342.078 178.09 340.824 179.996C339.569 181.903 338.92 184.131 338.959 186.398C338.985 187.906 339.315 189.395 339.93 190.778C340.544 192.161 341.43 193.412 342.538 194.46C343.646 195.507 344.954 196.331 346.387 196.883C347.821 197.436 349.351 197.707 350.891 197.68Z"
        fill="#E0E0E0" />
    <path
        d="M350.262 159.236C357.566 159.133 364.613 161.871 369.86 166.85C375.106 171.828 378.122 178.64 378.248 185.793L361.543 186.218C361.434 179.111 356.52 176.222 350.695 175.86C349.264 175.777 347.83 175.984 346.485 176.469C345.139 176.954 343.91 177.707 342.876 178.68C341.842 179.653 341.025 180.824 340.476 182.122C339.926 183.419 339.657 184.814 339.685 186.218L323.154 186.653C323.041 179.498 325.832 172.592 330.915 167.452C335.997 162.311 342.956 159.356 350.262 159.236Z"
        fill="#F0F0F0" />
    <path
        d="M151.972 267.917C160.404 259.252 171.973 254.174 184.19 253.777C196.406 253.38 208.293 257.694 217.295 265.793C221.716 269.784 225.285 274.594 227.794 279.946C230.303 285.297 231.703 291.083 231.912 296.968C232.12 302.853 231.134 308.72 229.011 314.23C226.887 319.739 223.668 324.78 219.54 329.062C211.107 337.727 199.538 342.805 187.322 343.202C175.106 343.6 163.218 339.285 154.217 331.187C149.795 327.196 146.227 322.385 143.718 317.034C141.209 311.682 139.809 305.896 139.6 300.011C139.391 294.126 140.377 288.259 142.501 282.75C144.625 277.241 147.844 272.199 151.972 267.917ZM201.87 313.107C203.849 311.06 205.392 308.649 206.41 306.013C207.428 303.377 207.9 300.569 207.8 297.752C207.699 294.935 207.026 292.167 205.822 289.607C204.618 287.047 202.905 284.748 200.785 282.842C196.476 278.975 190.789 276.919 184.948 277.118C179.107 277.316 173.579 279.754 169.555 283.905C167.576 285.951 166.033 288.362 165.015 290.998C163.997 293.635 163.524 296.443 163.625 299.259C163.726 302.076 164.398 304.845 165.603 307.404C166.807 309.964 168.519 312.264 170.64 314.169C174.948 318.046 180.641 320.107 186.488 319.908C192.335 319.71 197.868 317.267 201.891 313.107H201.87Z"
        fill="#F5F5F5" />
    <path
        d="M151.972 267.917C160.404 259.252 171.973 254.174 184.19 253.777C196.406 253.38 208.293 257.694 217.295 265.793L200.828 282.874C196.52 279.007 190.833 276.951 184.992 277.149C179.15 277.348 173.623 279.785 169.599 283.937C167.62 285.983 166.076 288.394 165.058 291.03C164.04 293.666 163.568 296.475 163.669 299.291C163.77 302.108 164.442 304.877 165.646 307.436C166.85 309.996 168.563 312.295 170.683 314.201L154.195 331.219C149.77 327.226 146.199 322.412 143.689 317.057C141.179 311.702 139.78 305.912 139.573 300.023C139.366 294.134 140.356 288.264 142.484 282.752C144.612 277.241 147.837 272.198 151.972 267.917Z"
        fill="#E0E0E0" />
    <path
        d="M215.407 258.453C238.187 279.093 240.953 312.629 219.638 334.767L196.5 315.231C206.686 304.662 208.899 290.544 197.997 280.676L215.407 258.453Z"
        fill="#EBEBEB" />
    <path
        d="M194.092 316.634L207.836 343.255C213.519 341.215 218.639 337.909 222.794 333.598L198.106 314.074L194.092 316.634Z"
        fill="#E0E0E0" />
    <path
        d="M245.942 70.9071C245.742 58.9747 249.16 47.2521 255.765 37.2225C262.369 27.1929 271.862 19.3069 283.044 14.562C294.226 9.81719 306.593 8.42675 318.582 10.5666C330.571 12.7065 341.642 18.2805 350.396 26.5835C359.149 34.8865 365.191 45.5455 367.757 57.2119C370.323 68.8783 369.299 81.028 364.812 92.124C360.326 103.22 352.58 112.764 342.554 119.548C332.529 126.331 320.673 130.051 308.488 130.235C292.169 130.463 276.422 124.346 264.699 113.226C252.975 102.106 246.231 86.888 245.942 70.9071ZM336.984 69.473C336.889 63.7699 335.069 58.2225 331.755 53.5322C328.441 48.8419 323.78 45.2193 318.364 43.1226C312.947 41.0258 307.017 40.549 301.324 41.7525C295.631 42.956 290.43 45.7856 286.378 49.8837C282.327 53.9817 279.608 59.1642 278.564 64.7757C277.52 70.3872 278.199 76.1759 280.514 81.4096C282.83 86.6434 286.678 91.0873 291.572 94.1794C296.467 97.2715 302.187 98.873 308.011 98.7813C315.819 98.6499 323.256 95.4901 328.688 89.9954C334.119 84.5007 337.103 77.1199 336.984 69.473Z"
        fill="#FAFAFA" />
    <path
        d="M245.942 70.9069C245.696 54.9144 251.939 39.4794 263.301 27.9899C274.663 16.5004 290.217 9.89515 306.547 9.62402L307.067 41.0994C299.257 41.2219 291.815 44.378 286.381 49.8734C280.946 55.3688 277.964 62.7533 278.089 70.4023C278.214 78.0514 281.437 85.3385 287.048 90.6606C292.66 95.9826 300.2 98.9037 308.011 98.7811L308.488 130.235C292.167 130.468 276.417 124.354 264.693 113.232C252.968 102.11 246.225 86.8897 245.942 70.9069Z"
        fill="#E0E0E0" />
    <path
        d="M301.015 4.78062C340.748 4.15387 372.455 34.2164 373.084 73.1277L335.477 73.7225C335.173 55.1114 320.648 43.3945 301.655 43.7025L301.015 4.78062Z"
        fill="#F0F0F0" />
    <path
        d="M373.573 429.724C373.573 429.873 292.467 430 192.422 430C92.3762 430 11.2704 429.873 11.2704 429.724C11.2704 429.575 92.3545 429.437 192.422 429.437C292.489 429.437 373.573 429.564 373.573 429.724Z"
        fill="#263238" />
    <path d="M122.423 282.428L323.425 281.016V283.778L122.423 285.541V282.428Z" fill="#263238" />
    <path d="M118.041 82.3057L122.619 284.075L323.425 282.545V78.917L118.041 82.3057Z" fill="white" />
    <path
        d="M118.041 82.3055L323.425 78.6831H323.675V78.9274C323.675 137.215 323.675 205.997 323.675 279.38V282.832H323.393L122.586 284.33H122.347V284.096C119.755 163.166 118.063 84.3875 118.009 82.3161C118.009 84.3557 119.939 163.166 122.825 284.075L122.586 283.841L323.393 282.28L323.111 282.556V279.369C323.111 205.987 323.111 137.204 323.111 78.9168L323.36 79.1611L118.041 82.3055Z"
        fill="#263238" />
    <path d="M117.238 83.6545L324.304 82.4966L324.564 73.9878L117.238 75.2519V83.6545Z"
        fill="#263238" />
    <path
        d="M216.362 289.577C216.015 289.577 215.646 287.995 215.548 286.019C215.45 284.043 215.667 282.428 216.015 282.407C216.362 282.386 216.73 283.979 216.828 285.955C216.926 287.931 216.72 289.577 216.362 289.577Z"
        fill="#263238" />
    <path
        d="M216.286 288.122C216.286 288.048 216.633 288.026 217.175 288.239C217.503 288.374 217.809 288.552 218.086 288.77C218.46 289.064 218.773 289.424 219.008 289.832C219.33 290.397 219.492 291.035 219.477 291.682C219.461 292.328 219.27 292.958 218.922 293.508C218.713 293.839 218.449 294.133 218.141 294.379C217.819 294.632 217.451 294.823 217.056 294.942C216.217 295.169 215.325 295.105 214.529 294.761C214.126 294.586 213.759 294.341 213.444 294.039C213.131 293.736 212.883 293.375 212.717 292.977C212.417 292.252 212.352 291.454 212.533 290.693C212.666 290.058 212.979 289.472 213.435 289.003C213.891 288.533 214.473 288.199 215.114 288.037C215.935 287.817 216.808 287.893 217.577 288.249C218.097 288.504 218.293 288.77 218.249 288.834C218.206 288.897 217.913 288.834 217.414 288.706C216.735 288.582 216.033 288.641 215.385 288.876C214.968 289.035 214.596 289.29 214.301 289.62C213.962 290.008 213.741 290.482 213.662 290.986C213.584 291.491 213.651 292.008 213.856 292.477C214.092 292.982 214.515 293.38 215.038 293.593C215.56 293.821 216.145 293.87 216.698 293.731C217.207 293.602 217.648 293.291 217.935 292.86C218.217 292.453 218.386 291.98 218.423 291.489C218.456 291.267 218.456 291.042 218.423 290.82C218.387 290.612 218.325 290.408 218.238 290.215C217.96 289.59 217.523 289.045 216.969 288.632C216.568 288.356 216.286 288.207 216.286 288.122Z"
        fill="#263238" />
    <path
        d="M246.159 192.719C246.159 192.719 246.159 192.719 246.029 192.719H245.66L244.229 192.782L238.707 193.016L218.401 193.76C201.251 194.376 177.55 195.194 151.386 196.076L142.383 196.373H142.177V196.171C140.354 172.727 138.705 151.715 137.566 136.609C137.002 129.067 136.558 123.001 136.243 118.827C136.102 116.702 135.983 115.119 135.907 114.025C135.907 113.473 135.842 113.058 135.831 112.772C135.82 112.485 135.831 112.527 135.831 112.453C135.831 112.379 135.831 112.347 135.831 112.347C135.836 112.382 135.836 112.418 135.831 112.453C135.831 112.527 135.831 112.633 135.831 112.772C135.831 112.91 135.896 113.473 135.95 114.014C136.037 115.077 136.178 116.723 136.362 118.816C136.699 122.991 137.198 129.056 137.816 136.577C139.031 151.64 140.701 172.599 142.545 196.139L142.328 195.948L151.332 195.64C177.496 194.769 201.23 193.993 218.347 193.462L238.664 192.846L244.185 192.697H245.617H246.116L246.159 192.719Z"
        fill="#455A64" />
    <path d="M173.45 105.814V108.522L202.065 107.184V104.911L173.45 105.814Z" fill="#263238" />
    <path d="M151.787 190.403H161.734L160.172 163.963H150.421L151.787 190.403Z" fill="#004AAD" />
    <path d="M169.816 190.414H179.752L178.201 153.457H168.449L169.816 190.414Z" fill="#004AAD" />
    <path d="M186.694 189.234H196.641L195.079 140.847H185.338L186.694 189.234Z" fill="#004AAD" />
    <path d="M225.419 187.354H235.355L233.804 121.408H224.052L225.419 187.354Z" fill="#004AAD" />
    <path d="M206.577 187.578H216.514L214.952 130.831H205.211L206.577 187.578Z" fill="#004AAD" />
    <path
        d="M145.539 157.111C145.279 156.718 163.047 145.118 185.208 131.202C207.369 117.286 225.571 106.323 225.831 106.769C226.092 107.216 208.324 118.763 186.152 132.678C163.98 146.594 145.778 157.504 145.539 157.111Z"
        fill="#004AAD" />
    <path
        d="M215.993 106.728C215.906 106.26 222.339 104.688 230.387 103.201L232.427 102.829L231.266 104.518L231.201 104.614C226.602 111.306 222.523 116.522 222.143 116.299C221.764 116.076 225.159 110.403 229.737 103.7L229.802 103.605L230.691 104.922C222.653 106.356 216.08 107.184 215.993 106.728Z"
        fill="#004AAD" />
    <path d="M150.421 199.337H160.812L161.138 201.143H150.421V199.337Z" fill="#263238" />
    <path d="M168.818 198.594H179.209L179.535 200.4H168.818V198.594Z" fill="#263238" />
    <path d="M187.757 198.062H198.149L198.474 199.868H187.757V198.062Z" fill="#263238" />
    <path d="M205.503 197.626H215.895L216.221 199.443H205.503V197.626Z" fill="#263238" />
    <path d="M227.491 196.989H237.883L238.208 198.806H227.491V196.989Z" fill="#263238" />
    <path
        d="M274.102 268.991C292.422 268.991 307.273 254.447 307.273 236.506C307.273 218.566 292.422 204.022 274.102 204.022C255.782 204.022 240.931 218.566 240.931 236.506C240.931 254.447 255.782 268.991 274.102 268.991Z"
        fill="#004AAD" />
    <path opacity="0.3"
        d="M274.102 268.991C292.422 268.991 307.273 254.447 307.273 236.506C307.273 218.566 292.422 204.022 274.102 204.022C255.782 204.022 240.931 218.566 240.931 236.506C240.931 254.447 255.782 268.991 274.102 268.991Z"
        fill="black" />
    <path d="M274.102 236.464L241.745 243.591C236.538 220.221 255.781 203.979 274.102 203.979"
        fill="#004AAD" />
    <path
        d="M274.146 236.464L273.929 203.979C298.357 203.979 310.463 225.851 306.558 243.379L274.146 236.464Z"
        fill="#004AAD" />
    <path
        d="M274.146 236.464L273.929 203.979C298.357 203.979 310.463 225.851 306.558 243.379L274.146 236.464Z"
        fill="#004AAD" />
    <path opacity="0.1"
        d="M274.146 236.464L273.929 203.979C298.357 203.979 310.463 225.851 306.558 243.379L274.146 236.464Z"
        fill="black" />
    <path
        d="M308.13 159.587C307.486 159.165 306.799 158.809 306.08 158.524C304.077 157.924 301.928 157.984 299.962 158.694C297.424 159.47 294.908 161.446 292.467 163.921C290.026 166.396 287.412 169.391 283.594 171.144C281.751 172.041 279.678 172.377 277.639 172.111C275.799 171.737 274.021 171.115 272.356 170.262C270.89 169.515 269.323 168.975 267.702 168.658C266.293 168.442 264.849 168.618 263.537 169.168C261.606 169.971 260.027 171.416 259.079 173.247C258.774 173.936 258.524 174.646 258.33 175.372C258.364 174.604 258.552 173.849 258.883 173.152C259.792 171.217 261.388 169.673 263.374 168.807C264.735 168.214 266.237 168.004 267.713 168.202C269.388 168.506 271.009 169.042 272.529 169.795C274.151 170.619 275.881 171.22 277.671 171.58C279.601 171.815 281.558 171.49 283.301 170.645C286.967 168.966 289.538 165.992 292.044 163.559C294.55 161.127 297.142 159.077 299.778 158.322C301.826 157.623 304.055 157.623 306.102 158.322C306.648 158.529 307.163 158.807 307.631 159.151C307.816 159.276 307.983 159.422 308.13 159.587Z"
        fill="#263238" />
    <path
        d="M310.94 180.577C310.94 180.737 299.16 180.854 284.635 180.854C270.11 180.854 258.33 180.737 258.33 180.577C258.33 180.418 270.11 180.301 284.635 180.301C299.16 180.301 310.94 180.429 310.94 180.577Z"
        fill="#263238" />
    <path
        d="M308.011 180.577C307.859 180.577 307.729 174.012 307.729 165.907C307.729 157.802 307.859 151.248 308.011 151.248C308.163 151.248 308.293 157.812 308.293 165.907C308.293 174.002 308.174 180.577 308.011 180.577Z"
        fill="#263238" />
    <path
        d="M263.635 168.222C263.635 168.222 263.559 168.116 263.635 167.925C263.684 167.791 263.764 167.669 263.867 167.568C263.97 167.467 264.094 167.39 264.231 167.341C264.437 167.251 264.665 167.219 264.888 167.247C265.112 167.275 265.324 167.363 265.5 167.5C265.691 167.71 265.804 167.977 265.82 168.258C265.836 168.539 265.754 168.817 265.588 169.046C265.422 169.276 265.181 169.443 264.905 169.521C264.629 169.599 264.334 169.583 264.068 169.476C263.882 169.367 263.728 169.211 263.623 169.024C263.518 168.837 263.466 168.627 263.472 168.414C263.47 168.272 263.496 168.131 263.55 168C263.604 167.869 263.685 167.749 263.786 167.649C263.949 167.521 264.068 167.521 264.079 167.543C264.09 167.564 263.786 167.851 263.862 168.392C263.877 168.532 263.926 168.666 264.003 168.784C264.08 168.902 264.184 169 264.307 169.072C264.459 169.11 264.619 169.102 264.767 169.049C264.914 168.996 265.042 168.901 265.133 168.776C265.224 168.651 265.275 168.502 265.279 168.348C265.282 168.194 265.239 168.043 265.153 167.914C265.044 167.827 264.915 167.767 264.777 167.739C264.639 167.711 264.497 167.717 264.361 167.755C263.808 167.84 263.71 168.244 263.635 168.222Z"
        fill="#263238" />
    <path
        d="M299.105 157.568C299.105 157.568 299.105 157.441 299.301 157.335C299.553 157.211 299.845 157.188 300.114 157.271C300.328 157.328 300.522 157.441 300.675 157.599C300.828 157.756 300.934 157.951 300.982 158.163C300.999 158.437 300.921 158.709 300.761 158.934C300.6 159.159 300.367 159.325 300.099 159.405C299.831 159.485 299.543 159.474 299.282 159.374C299.021 159.274 298.802 159.091 298.661 158.854C298.583 158.649 298.562 158.427 298.603 158.212C298.643 157.997 298.741 157.797 298.888 157.632C299.072 157.42 299.333 157.286 299.615 157.26C299.811 157.26 299.908 157.324 299.897 157.356C299.886 157.388 299.485 157.409 299.214 157.866C299.139 157.98 299.092 158.109 299.077 158.244C299.062 158.378 299.079 158.514 299.127 158.641C299.222 158.756 299.351 158.84 299.495 158.883C299.64 158.926 299.794 158.926 299.938 158.883C300.083 158.839 300.211 158.755 300.306 158.64C300.401 158.525 300.459 158.385 300.472 158.238C300.443 158.105 300.383 157.982 300.297 157.877C300.21 157.771 300.099 157.688 299.973 157.632C299.496 157.398 299.16 157.643 299.105 157.568Z"
        fill="#263238" />
    <path
        d="M307.078 122.8C307.078 122.948 295.667 123.076 281.598 123.076C267.529 123.076 256.117 122.948 256.117 122.8C256.117 122.651 267.518 122.523 281.598 122.523C295.678 122.523 307.078 122.672 307.078 122.8Z"
        fill="#263238" />
    <path
        d="M307.078 129.758C307.078 129.917 295.667 130.034 281.598 130.034C267.529 130.034 256.117 129.917 256.117 129.758C256.117 129.598 267.518 129.481 281.598 129.481C295.678 129.481 307.078 129.609 307.078 129.758Z"
        fill="#263238" />
    <path
        d="M307.078 136.694C307.078 136.842 295.667 136.97 281.598 136.97C267.529 136.97 256.117 136.842 256.117 136.694C256.117 136.545 267.518 136.417 281.598 136.417C295.678 136.417 307.078 136.534 307.078 136.694Z"
        fill="#263238" />
    <path
        d="M307.078 143.62C307.078 143.78 295.667 143.897 281.598 143.897C267.529 143.897 256.117 143.78 256.117 143.62C256.117 143.461 267.518 143.344 281.598 143.344C295.678 143.344 307.078 143.472 307.078 143.62Z"
        fill="#263238" />
    <path d="M283.236 110.148H256.117V112.389H283.236V110.148Z" fill="#263238" />
    <path d="M171.291 221.433H144.172V223.674H171.291V221.433Z" fill="#263238" />
    <path
        d="M218.379 234.424C218.379 234.583 201.924 234.7 181.628 234.7C161.333 234.7 144.867 234.583 144.867 234.424C144.867 234.265 161.322 234.148 181.628 234.148C201.935 234.148 218.379 234.275 218.379 234.424Z"
        fill="#263238" />
    <path
        d="M218.813 240.713C218.813 240.861 202.065 240.989 181.411 240.989C160.758 240.989 144.01 240.861 144.01 240.713C144.01 240.564 160.747 240.437 181.411 240.437C202.076 240.437 218.813 240.585 218.813 240.713Z"
        fill="#263238" />
    <path
        d="M219.67 246.64C219.67 246.789 202.824 246.916 182.051 246.916C161.279 246.916 144.433 246.789 144.433 246.64C144.433 246.491 161.279 246.364 182.051 246.364C202.824 246.364 219.67 246.481 219.67 246.64Z"
        fill="#263238" />
    <path
        d="M183.559 252.95C183.559 253.099 174.881 253.227 164.208 253.227C153.534 253.227 144.867 253.099 144.867 252.95C144.867 252.802 153.545 252.674 164.208 252.674C174.871 252.674 183.559 252.802 183.559 252.95Z"
        fill="#263238" />
    <path
        d="M65.4313 424.912V415.351L47.0667 415.192L46.9149 429.246L47.9996 429.32C53.0653 429.628 73.7729 430.531 77.1682 429.554C81.0081 428.449 65.4313 424.912 65.4313 424.912Z"
        fill="#004AAD" />
    <path
        d="M77.6563 428.672C77.6563 428.842 70.7899 428.98 62.3181 428.98C53.8463 428.98 46.9691 428.842 46.9691 428.672C46.9691 428.502 53.8463 428.364 62.3181 428.364C70.7899 428.364 77.6563 428.502 77.6563 428.672Z"
        fill="#263238" />
    <path
        d="M65.7567 426.877C65.6049 426.792 65.7568 426.271 66.1256 425.814C66.4944 425.357 67.0042 425.06 67.1127 425.177C67.2211 425.294 66.9825 425.729 66.6245 426.239C66.2666 426.749 65.9086 426.961 65.7567 426.877Z"
        fill="#263238" />
    <path
        d="M66.9283 427.503C66.7656 427.44 66.8524 426.866 67.2103 426.271C67.5683 425.676 68.0456 425.315 68.1757 425.421C68.3059 425.528 68.089 426.027 67.7527 426.579C67.4164 427.132 67.091 427.567 66.9283 427.503Z"
        fill="#263238" />
    <path
        d="M52.4904 428.609C52.4145 428.662 52.1325 428.407 51.7311 427.982C51.2426 427.427 50.7014 426.918 50.1148 426.463C49.5299 426.042 48.8482 425.768 48.1298 425.666C47.5766 425.592 47.2186 425.666 47.1861 425.581C47.1535 425.496 47.5006 425.273 48.1406 425.231C48.984 425.207 49.8105 425.465 50.4837 425.963C51.1253 426.445 51.6697 427.039 52.0891 427.716C52.4253 428.216 52.5772 428.555 52.4904 428.609Z"
        fill="#263238" />
    <path
        d="M65.8109 425.071C65.8977 425.209 65.5723 425.549 65.0516 425.729C64.5309 425.91 64.0645 425.846 64.0428 425.676C64.0211 425.506 64.3791 425.315 64.8455 425.156C65.312 424.996 65.7133 424.922 65.8109 425.071Z"
        fill="#263238" />
    <path
        d="M65.5072 424.137C65.5072 424.307 65.03 424.455 64.4225 424.466C63.8151 424.477 63.3378 424.338 63.3378 424.168C63.3378 423.998 63.8367 423.86 64.4225 423.85C65.0083 423.839 65.5072 423.967 65.5072 424.137Z"
        fill="#004AAD" />
    <path
        d="M77.6563 428.672C77.6563 428.842 70.7899 428.98 62.3181 428.98C53.8463 428.98 46.9691 428.842 46.9691 428.672C46.9691 428.502 53.8463 428.364 62.3181 428.364C70.7899 428.364 77.6563 428.502 77.6563 428.672Z"
        fill="#263238" />
    <path
        d="M65.7567 426.877C65.6049 426.792 65.7568 426.271 66.1256 425.814C66.4944 425.357 67.0042 425.06 67.1127 425.177C67.2211 425.294 66.9825 425.729 66.6245 426.239C66.2666 426.749 65.9086 426.961 65.7567 426.877Z"
        fill="#263238" />
    <path
        d="M66.9283 427.503C66.7656 427.44 66.8524 426.866 67.2103 426.271C67.5683 425.676 68.0456 425.315 68.1757 425.421C68.3059 425.528 68.089 426.027 67.7527 426.579C67.4164 427.132 67.091 427.567 66.9283 427.503Z"
        fill="#263238" />
    <path
        d="M52.4904 428.609C52.4145 428.662 52.1325 428.407 51.7311 427.982C51.2426 427.427 50.7014 426.918 50.1148 426.463C49.5299 426.042 48.8482 425.768 48.1298 425.666C47.5766 425.592 47.2186 425.666 47.1861 425.581C47.1535 425.496 47.5006 425.273 48.1406 425.231C48.984 425.207 49.8105 425.465 50.4837 425.963C51.1253 426.445 51.6697 427.039 52.0891 427.716C52.4253 428.216 52.5772 428.555 52.4904 428.609Z"
        fill="#263238" />
    <path
        d="M65.8109 425.071C65.8977 425.209 65.5723 425.549 65.0516 425.729C64.5309 425.91 64.0645 425.846 64.0428 425.676C64.0211 425.506 64.3791 425.315 64.8455 425.156C65.312 424.996 65.7133 424.922 65.8109 425.071Z"
        fill="#263238" />
    <path
        d="M65.5072 424.137C65.5072 424.307 65.03 424.455 64.4225 424.466C63.8151 424.477 63.3378 424.338 63.3378 424.168C63.3378 423.998 63.8367 423.86 64.4225 423.85C65.0083 423.839 65.5072 423.967 65.5072 424.137Z"
        fill="#263238" />
    <path
        d="M84.8047 421.513L87.701 412.345L70.1933 406.906L65.8544 420.28L66.9391 420.684C71.6794 422.447 91.1938 429.31 94.7301 429.363C98.6134 429.405 84.8047 421.513 84.8047 421.513Z"
        fill="#004AAD" />
    <path
        d="M95.3483 428.641C95.3483 428.811 88.688 426.952 80.5959 424.487C72.5038 422.023 65.9845 419.909 66.0387 419.749C66.093 419.59 72.6882 421.449 80.7911 423.903C88.8941 426.357 95.4025 428.481 95.3483 428.641Z"
        fill="#263238" />
    <path
        d="M84.5227 423.478C84.4034 423.35 84.6854 422.904 85.2061 422.532C85.7268 422.16 86.2908 422.065 86.3451 422.214C86.3993 422.362 86.0522 422.702 85.5749 423.042C85.0976 423.382 84.642 423.594 84.5227 423.478Z"
        fill="#263238" />
    <path
        d="M85.4447 424.423C85.3145 424.317 85.564 423.786 86.0955 423.361C86.627 422.936 87.1803 422.692 87.2779 422.83C87.3755 422.968 87.0067 423.382 86.5186 423.818C86.0304 424.253 85.5857 424.487 85.4447 424.423Z"
        fill="#263238" />
    <path
        d="M71.3431 421.3C71.2563 421.3 71.0719 421.013 70.8224 420.482C70.5245 419.812 70.1612 419.171 69.7377 418.57C69.307 417.999 68.7412 417.54 68.0889 417.231C67.5791 417.008 67.2103 416.966 67.2103 416.881C67.2103 416.796 67.6008 416.668 68.2299 416.817C69.039 417.042 69.7464 417.529 70.2367 418.198C70.7011 418.841 71.0429 419.56 71.2455 420.323C71.3865 420.896 71.419 421.3 71.3431 421.3Z"
        fill="#455A64" />
    <path
        d="M85.1193 421.767C85.1193 421.927 84.7505 422.16 84.1972 422.182C83.644 422.203 83.2101 422.001 83.2427 421.831C83.2752 421.661 83.6874 421.587 84.1756 421.565C84.6637 421.544 85.0325 421.597 85.1193 421.767Z"
        fill="#263238" />
    <path
        d="M85.1193 420.801C85.1193 420.96 84.577 420.96 83.9803 420.801C83.3837 420.641 82.9607 420.354 83.0149 420.195C83.0692 420.036 83.5898 420.046 84.1539 420.195C84.718 420.344 85.1627 420.631 85.1193 420.801Z"
        fill="#263238" />
    <path
        d="M97.2684 235.008L73.1655 233.192L36.6533 230.292L40.7319 422.362L72.4387 421.959C72.4387 421.959 72.4387 419.834 72.3628 416.074L90.9552 421.056C90.9552 421.056 109.07 361.122 115.242 336.53C120.395 316.039 97.2684 235.008 97.2684 235.008ZM72.0157 386.245C71.5384 341.905 70.9852 266.505 71.6469 257.284C71.6469 257.284 89.3064 323.666 89.4691 328.903C89.5776 332.068 79.739 362.705 72.0157 386.245Z"
        fill="#455A64" />
    <path
        d="M72.6123 414.682C72.6123 414.852 65.5181 414.99 56.7751 414.99C48.0322 414.99 40.9271 414.852 40.9271 414.682C40.9271 414.512 48.0213 414.374 56.7751 414.374C65.529 414.374 72.6123 414.512 72.6123 414.682Z"
        fill="#455A64" />
    <path
        d="M72.3302 407.777C73.322 408.007 74.2939 408.313 75.2373 408.69L82.4942 411.166L89.7511 413.651C90.7774 413.939 91.7728 414.323 92.7233 414.799C91.6636 414.654 90.6209 414.409 89.6101 414.066C87.7226 413.524 85.1301 412.716 82.2881 411.75C79.4461 410.783 76.8644 409.827 75.0854 409.094C74.1092 408.782 73.1819 408.339 72.3302 407.777Z"
        fill="#455A64" />
    <path
        d="M101.38 328.308C99.4185 328.756 97.4157 329.005 95.4026 329.052C93.4061 329.301 91.3886 329.348 89.3823 329.19C91.3422 328.734 93.3455 328.481 95.3592 328.436C97.3559 328.186 99.3738 328.143 101.38 328.308Z"
        fill="#455A64" />
    <path
        d="M99.3076 331.792C97.7483 331.663 96.213 331.335 94.7409 330.815C93.2088 330.487 91.7279 329.962 90.3369 329.253C91.9006 329.37 93.4408 329.695 94.9144 330.22C97.3876 330.921 99.3619 331.622 99.3076 331.792Z"
        fill="#455A64" />
    <path
        d="M74.5648 233.436C74.7105 234.648 74.7649 235.869 74.7275 237.09C74.7275 239.352 74.7275 242.476 74.7275 245.928C74.7275 247.638 74.7275 249.274 74.6624 250.783C74.7021 252.141 74.4432 253.493 73.9031 254.745C73.5183 255.598 72.9033 256.333 72.1241 256.869C71.8584 257.085 71.5412 257.231 71.2021 257.294C71.2021 257.294 71.5058 257.103 71.9939 256.699C72.6789 256.125 73.2112 255.396 73.5451 254.575C73.9974 253.358 74.2001 252.066 74.1417 250.772C74.1417 249.253 74.1417 247.585 74.1417 245.907C74.1417 242.454 74.2285 239.331 74.2936 237.079C74.2901 235.86 74.3808 234.642 74.5648 233.436Z"
        fill="#455A64" />
    <path
        d="M56.4172 232.353C56.4288 232.508 56.4288 232.664 56.4172 232.82C56.4172 233.16 56.4172 233.617 56.4172 234.201C56.4172 235.433 56.3195 237.218 56.2436 239.512C56.0917 244.133 55.8748 250.772 55.6036 258.963C55.0938 275.385 54.5731 298.086 54.4429 323.146C54.3128 348.205 54.6057 370.948 54.9419 387.36C55.1263 395.55 55.2673 402.232 55.3758 406.811C55.3758 409.095 55.4626 410.869 55.4951 412.122C55.4951 412.706 55.4951 413.184 55.4951 413.503C55.5068 413.659 55.5068 413.815 55.4951 413.97C55.4835 413.815 55.4835 413.659 55.4951 413.503C55.4951 413.174 55.4951 412.717 55.4192 412.133C55.4192 410.89 55.2999 409.116 55.2023 406.821C55.0179 402.232 54.8009 395.582 54.584 387.371C54.1392 370.937 53.7921 348.237 53.9223 323.146C54.0524 298.055 54.6382 275.343 55.2456 258.952C55.5494 250.741 55.8314 244.08 56.0701 239.502C56.1894 237.228 56.287 235.454 56.3521 234.19C56.3521 233.606 56.4172 233.128 56.4389 232.809C56.4205 232.658 56.4132 232.505 56.4172 232.353Z"
        fill="#455A64" />
    <path
        d="M89.3715 237.186C89.4374 237.327 89.4917 237.472 89.5342 237.622C89.6318 237.94 89.7728 238.365 89.9464 238.918C90.2935 240.054 90.8467 241.733 91.4542 243.921C92.7016 248.287 94.383 254.629 96.2596 262.521C98.1362 270.414 100.219 279.826 102.388 290.321C104.558 300.817 106.847 312.374 108.897 324.569C109.157 326.099 109.396 327.618 109.602 329.137C109.602 329.541 109.678 329.955 109.678 330.348L109.483 331.474C109.341 332.228 109.233 332.982 109.059 333.715C108.441 336.668 107.747 339.558 106.998 342.384C105.523 348.035 103.961 353.442 102.421 358.583C99.3619 368.866 96.4114 378.066 93.9057 385.788C91.3999 393.511 89.3064 399.725 87.8312 404.017L86.1173 408.957L85.6509 410.242C85.6104 410.39 85.5521 410.532 85.4773 410.667C85.5056 410.515 85.5455 410.366 85.5966 410.221C85.7051 409.902 85.8352 409.477 86.0088 408.925L87.6251 403.953L93.526 385.671C95.9775 377.938 98.8846 368.728 101.922 358.445C103.441 353.304 104.992 347.886 106.467 342.245C107.205 339.43 107.899 336.552 108.517 333.609C108.691 332.876 108.788 332.133 108.918 331.389L109.114 330.274C109.114 329.912 109.059 329.562 109.038 329.211C108.832 327.713 108.604 326.194 108.344 324.675C106.283 312.491 104.005 300.933 101.835 290.438C99.6657 279.943 97.7023 270.457 95.8799 262.606C94.0576 254.756 92.4196 248.351 91.2372 243.974C90.6732 241.786 90.1525 240.097 89.8379 238.949L89.48 237.643C89.4267 237.495 89.3903 237.342 89.3715 237.186Z"
        fill="#455A64" />
    <path
        d="M71.918 382.346C72.0054 382.84 72.0381 383.342 72.0156 383.844C72.0156 384.906 72.0156 386.297 72.0699 387.944C72.0699 391.503 72.2001 396.23 72.276 401.445C72.3519 406.661 72.558 411.388 72.6556 414.947C72.6556 416.594 72.7424 417.975 72.775 419.047C72.824 419.546 72.824 420.047 72.775 420.545C72.6553 420.058 72.5898 419.559 72.5797 419.058C72.4929 418.091 72.3953 416.7 72.2868 414.968C72.0699 411.516 71.8638 406.736 71.7445 401.456C71.6251 396.177 71.6468 391.396 71.7445 387.944C71.7445 386.212 71.8204 384.757 71.8638 383.844C71.8418 383.344 71.8599 382.843 71.918 382.346Z"
        fill="#455A64" />
    <path
        d="M97.2684 235.008L73.1655 233.192L36.6533 230.292L40.7319 422.362L72.4387 421.959C72.4387 421.959 72.4387 419.834 72.3628 416.074L90.9552 421.056C90.9552 421.056 109.07 361.122 115.242 336.53C120.395 316.039 97.2684 235.008 97.2684 235.008ZM72.0157 386.245C71.5384 341.905 70.9852 266.505 71.6469 257.284C71.6469 257.284 89.3064 323.666 89.4691 328.903C89.5776 332.068 79.739 362.705 72.0157 386.245Z"
        fill="#263238" />
    <path
        d="M72.6123 414.682C72.6123 414.852 65.5181 414.99 56.7751 414.99C48.0322 414.99 40.9271 414.852 40.9271 414.682C40.9271 414.512 48.0213 414.374 56.7751 414.374C65.529 414.374 72.6123 414.512 72.6123 414.682Z"
        fill="#455A64" />
    <path
        d="M72.3302 407.777C73.322 408.007 74.2939 408.313 75.2373 408.69L82.4942 411.166L89.7511 413.651C90.7774 413.939 91.7728 414.323 92.7233 414.799C91.6636 414.654 90.6209 414.409 89.6101 414.066C87.7226 413.524 85.1301 412.716 82.2881 411.75C79.4461 410.783 76.8644 409.827 75.0854 409.094C74.1092 408.782 73.1819 408.339 72.3302 407.777Z"
        fill="#455A64" />
    <path
        d="M101.38 328.308C99.4185 328.756 97.4157 329.005 95.4026 329.052C93.4061 329.301 91.3886 329.348 89.3823 329.19C91.3422 328.734 93.3455 328.481 95.3592 328.436C97.3559 328.186 99.3738 328.143 101.38 328.308Z"
        fill="#455A64" />
    <path
        d="M99.3076 331.792C97.7483 331.663 96.213 331.335 94.7409 330.815C93.2088 330.487 91.7279 329.962 90.3369 329.253C91.9006 329.37 93.4408 329.695 94.9144 330.22C97.3876 330.921 99.3619 331.622 99.3076 331.792Z"
        fill="#455A64" />
    <path
        d="M74.5648 233.436C74.7105 234.648 74.7649 235.869 74.7275 237.09C74.7275 239.352 74.7275 242.476 74.7275 245.928C74.7275 247.638 74.7275 249.274 74.6624 250.783C74.7021 252.141 74.4432 253.493 73.9031 254.745C73.5183 255.598 72.9033 256.333 72.1241 256.869C71.8584 257.085 71.5412 257.231 71.2021 257.294C71.2021 257.294 71.5058 257.103 71.9939 256.699C72.6789 256.125 73.2112 255.396 73.5451 254.575C73.9974 253.358 74.2001 252.066 74.1417 250.772C74.1417 249.253 74.1417 247.585 74.1417 245.907C74.1417 242.454 74.2285 239.331 74.2936 237.079C74.2901 235.86 74.3808 234.642 74.5648 233.436Z"
        fill="#455A64" />
    <path
        d="M56.4172 232.353C56.4288 232.508 56.4288 232.664 56.4172 232.82C56.4172 233.16 56.4172 233.617 56.4172 234.201C56.4172 235.433 56.3195 237.218 56.2436 239.512C56.0917 244.133 55.8748 250.772 55.6036 258.963C55.0938 275.385 54.5731 298.086 54.4429 323.146C54.3128 348.205 54.6057 370.948 54.9419 387.36C55.1263 395.55 55.2673 402.232 55.3758 406.811C55.3758 409.095 55.4626 410.869 55.4951 412.122C55.4951 412.706 55.4951 413.184 55.4951 413.503C55.5068 413.659 55.5068 413.815 55.4951 413.97C55.4835 413.815 55.4835 413.659 55.4951 413.503C55.4951 413.174 55.4951 412.717 55.4192 412.133C55.4192 410.89 55.2999 409.116 55.2023 406.821C55.0179 402.232 54.8009 395.582 54.584 387.371C54.1392 370.937 53.7921 348.237 53.9223 323.146C54.0524 298.055 54.6382 275.343 55.2456 258.952C55.5494 250.741 55.8314 244.08 56.0701 239.502C56.1894 237.228 56.287 235.454 56.3521 234.19C56.3521 233.606 56.4172 233.128 56.4389 232.809C56.4205 232.658 56.4132 232.505 56.4172 232.353Z"
        fill="#455A64" />
    <path
        d="M89.3715 237.186C89.4374 237.327 89.4917 237.472 89.5342 237.622C89.6318 237.94 89.7728 238.365 89.9464 238.918C90.2935 240.054 90.8467 241.733 91.4542 243.921C92.7016 248.287 94.383 254.629 96.2596 262.521C98.1362 270.414 100.219 279.826 102.388 290.321C104.558 300.817 106.847 312.374 108.897 324.569C109.157 326.099 109.396 327.618 109.602 329.137C109.602 329.541 109.678 329.955 109.678 330.348L109.483 331.474C109.341 332.228 109.233 332.982 109.059 333.715C108.441 336.668 107.747 339.558 106.998 342.384C105.523 348.035 103.961 353.442 102.421 358.583C99.3619 368.866 96.4114 378.066 93.9057 385.788C91.3999 393.511 89.3064 399.725 87.8312 404.017L86.1173 408.957L85.6509 410.242C85.6104 410.39 85.5521 410.532 85.4773 410.667C85.5056 410.515 85.5455 410.366 85.5966 410.221C85.7051 409.902 85.8352 409.477 86.0088 408.925L87.6251 403.953L93.526 385.671C95.9775 377.938 98.8846 368.728 101.922 358.445C103.441 353.304 104.992 347.886 106.467 342.245C107.205 339.43 107.899 336.552 108.517 333.609C108.691 332.876 108.788 332.133 108.918 331.389L109.114 330.274C109.114 329.912 109.059 329.562 109.038 329.211C108.832 327.713 108.604 326.194 108.344 324.675C106.283 312.491 104.005 300.933 101.835 290.438C99.6657 279.943 97.7023 270.457 95.8799 262.606C94.0576 254.756 92.4196 248.351 91.2372 243.974C90.6732 241.786 90.1525 240.097 89.8379 238.949L89.48 237.643C89.4267 237.495 89.3903 237.342 89.3715 237.186Z"
        fill="#455A64" />
    <path
        d="M71.918 382.346C72.0054 382.84 72.0381 383.342 72.0156 383.844C72.0156 384.906 72.0156 386.297 72.0699 387.944C72.0699 391.503 72.2001 396.23 72.276 401.445C72.3519 406.661 72.558 411.388 72.6556 414.947C72.6556 416.594 72.7424 417.975 72.775 419.047C72.824 419.546 72.824 420.047 72.775 420.545C72.6553 420.058 72.5898 419.559 72.5797 419.058C72.4929 418.091 72.3953 416.7 72.2868 414.968C72.0699 411.516 71.8638 406.736 71.7445 401.456C71.6251 396.177 71.6468 391.396 71.7445 387.944C71.7445 386.212 71.8204 384.757 71.8638 383.844C71.8418 383.344 71.8599 382.843 71.918 382.346Z"
        fill="#455A64" />
    <path
        d="M55.7446 142.823L74.1851 144.162C74.4346 142.037 74.7926 133.953 74.7926 133.953C74.7926 133.953 82.4834 133.263 83.0474 125.806C83.6115 118.348 83.3729 101.129 83.3729 101.129C79.1569 99.0421 74.4482 98.0964 69.7338 98.3896C65.0194 98.6828 60.4707 100.204 56.5582 102.797L55.3758 103.583L55.7446 142.823Z"
        fill="#E5BAAB" />
    <path
        d="M80.7478 113.844C80.6017 113.694 80.5039 113.504 80.4665 113.3C80.4291 113.095 80.4538 112.884 80.5375 112.694C80.6212 112.503 80.7602 112.34 80.9374 112.226C81.1146 112.111 81.3221 112.05 81.5343 112.05C81.7464 112.05 81.9539 112.111 82.1311 112.226C82.3083 112.34 82.4473 112.503 82.531 112.694C82.6147 112.884 82.6394 113.095 82.602 113.3C82.5646 113.504 82.4668 113.694 82.3207 113.844C82.2194 113.949 82.0974 114.032 81.9622 114.089C81.827 114.146 81.6814 114.175 81.5343 114.175C81.3871 114.175 81.2415 114.146 81.1063 114.089C80.9711 114.032 80.8492 113.949 80.7478 113.844Z"
        fill="#263238" />
    <path
        d="M82.7003 112.251C82.5702 112.379 81.8651 111.773 80.8129 111.699C79.7607 111.624 78.9688 112.113 78.8603 111.975C78.7519 111.837 78.9363 111.688 79.2942 111.465C79.7558 111.168 80.3064 111.033 80.8563 111.083C81.4103 111.115 81.9373 111.328 82.3532 111.688C82.6678 111.954 82.7654 112.177 82.7003 112.251Z"
        fill="#263238" />
    <path
        d="M70.5513 112.421C70.723 112.544 70.8541 112.713 70.9282 112.909C71.0023 113.104 71.0162 113.316 70.968 113.519C70.9199 113.722 70.8119 113.906 70.6575 114.05C70.5031 114.193 70.309 114.289 70.0995 114.325C69.89 114.361 69.6743 114.336 69.4792 114.253C69.2841 114.17 69.1182 114.033 69.0022 113.858C68.8862 113.683 68.8252 113.479 68.8267 113.271C68.8283 113.063 68.8923 112.859 69.0109 112.686C69.0924 112.568 69.1974 112.466 69.3199 112.388C69.4423 112.31 69.5795 112.257 69.7234 112.232C69.8672 112.208 70.0147 112.211 70.1569 112.244C70.2992 112.276 70.4333 112.336 70.5513 112.421Z"
        fill="#263238" />
    <path
        d="M71.2455 112.474C71.1153 112.591 70.4103 111.986 69.3581 111.911C68.3059 111.837 67.514 112.336 67.4055 112.198C67.2971 112.06 67.4815 111.901 67.8286 111.678C68.2988 111.392 68.8491 111.258 69.4014 111.295C69.9538 111.335 70.4786 111.547 70.8984 111.901C71.213 112.177 71.3106 112.421 71.2455 112.474Z"
        fill="#263238" />
    <path
        d="M74.9228 121.206C75.4776 121.038 76.0559 120.955 76.6366 120.962C76.9187 120.962 77.1465 120.908 77.179 120.76C77.2064 120.485 77.1538 120.209 77.0271 119.963L76.3329 117.838C75.6649 116.022 75.1746 114.147 74.8685 112.24C75.7091 113.984 76.3809 115.802 76.8753 117.668L77.5261 119.793C77.6827 120.145 77.7133 120.538 77.6129 120.908C77.5673 121.008 77.4983 121.095 77.4116 121.164C77.3249 121.232 77.2229 121.279 77.1139 121.301C76.9591 121.321 76.8023 121.321 76.6475 121.301C76.0711 121.36 75.4888 121.328 74.9228 121.206Z"
        fill="#263238" />
    <path
        d="M71.4407 122.13C70.356 121.429 74.3478 123.883 76.4956 123.914C76.1055 124.432 75.5473 124.804 74.9126 124.97C74.2779 125.136 73.6045 125.086 73.0028 124.828C70.7682 123.861 71.4407 122.13 71.4407 122.13Z"
        fill="white" />
    <path
        d="M74.7492 133.847C71.227 133.701 67.8287 132.533 64.9866 130.49C64.9866 130.49 66.9933 136.003 74.6407 135.802L74.7492 133.847Z"
        fill="#D78776" />
    <path
        d="M56.8294 110.201C56.6558 110.137 51.167 109.436 51.6877 115.788C52.2084 122.141 58.5866 119.517 58.5758 119.336C58.5649 119.156 56.8294 110.201 56.8294 110.201Z"
        fill="#E5BAAB" />
    <path
        d="M56.3521 117.265C56.3521 117.265 56.2544 117.35 56.07 117.456C55.8088 117.587 55.5069 117.617 55.2239 117.541C54.7847 117.312 54.4151 116.973 54.1523 116.559C53.8895 116.145 53.7428 115.67 53.727 115.183C53.6672 114.64 53.734 114.092 53.9223 113.579C53.9657 113.376 54.0583 113.186 54.1923 113.025C54.3263 112.864 54.4978 112.737 54.6924 112.655C54.8205 112.614 54.9588 112.617 55.0849 112.664C55.2109 112.71 55.3173 112.797 55.3866 112.909C55.4843 113.079 55.4626 113.207 55.4951 113.218C55.5277 113.228 55.6253 113.101 55.4951 112.846C55.4499 112.69 55.35 112.554 55.2131 112.463C55.0207 112.351 54.7925 112.313 54.5731 112.357C54.3147 112.429 54.0794 112.564 53.8895 112.75C53.6996 112.936 53.5615 113.166 53.4884 113.419C53.2544 113.988 53.1687 114.605 53.2389 115.215C53.2509 115.782 53.4346 116.333 53.7668 116.799C54.0989 117.264 54.5645 117.622 55.1046 117.828C55.2824 117.864 55.4663 117.861 55.6428 117.819C55.8192 117.777 55.9838 117.696 56.1243 117.584C56.3521 117.424 56.3846 117.275 56.3521 117.265Z"
        fill="#D78776" />
    <path
        d="M83.861 98.4414C84.3 98.4299 84.7305 98.3196 85.119 98.1192C85.5076 97.9188 85.8439 97.6335 86.1019 97.2854C86.3599 96.9373 86.5327 96.5358 86.6069 96.1119C86.6812 95.688 86.6548 95.2531 86.53 94.8407C86.4051 94.4283 86.1851 94.0496 85.8869 93.7339C85.5887 93.4181 85.2203 93.1737 84.8103 93.0197C84.4002 92.8656 83.9595 92.8059 83.5222 92.8453C83.0848 92.8847 82.6626 93.0221 82.2881 93.2468C83.1952 92.5094 83.9343 91.5938 84.4576 90.5593C84.7106 90.0375 84.7943 89.4522 84.6974 88.8824C84.6004 88.3126 84.3274 87.7856 83.9152 87.3724C83.4379 87.0631 82.8857 86.8826 82.3143 86.849C81.743 86.8154 81.1727 86.93 80.661 87.1812C79.0447 87.8611 77.7647 89.1995 76.1051 89.7626C74.4455 90.3256 72.5905 90.0494 70.8116 90.1237C68.8154 90.1586 66.8821 90.8133 65.2903 91.9933C63.9339 93.037 63.056 94.5653 62.8496 96.2425C62.6364 95.9558 62.4007 95.6859 62.1445 95.4351C61.3009 94.4491 60.1628 93.7469 58.8903 93.4274C58.8144 93.5655 60.3005 94.3729 61.7215 95.8176C62.1083 96.1801 62.4707 96.5668 62.8062 96.9754C60.333 96.678 57.6103 96.6567 55.6578 98.1652C54.8668 98.8557 54.2416 99.709 53.8272 100.664C53.4127 101.619 53.2192 102.652 53.2605 103.689C53.2605 105.75 54.1283 107.715 54.7466 109.691C54.8962 110.251 55.1539 110.777 55.5059 111.242L56.4388 116.553L59.834 116.49L59.6171 105.346C59.6171 105.346 59.27 100.651 63.392 101.097C67.514 101.543 73.1546 106.058 81.16 104.911C82.4735 104.839 83.7532 104.476 84.9023 103.848C85.4585 103.503 85.9106 103.019 86.2119 102.446C86.5132 101.873 86.6528 101.231 86.6162 100.587C86.5373 99.9466 86.2039 99.3623 85.6882 98.9606C85.1725 98.559 84.5161 98.3725 83.861 98.4414Z"
        fill="#263238" />
    <path
        d="M152.85 153.435L153.349 150.057C153.859 148.209 154.179 146.316 154.304 144.406C154.386 143.456 154.297 142.5 154.043 141.58C153.788 140.422 153.364 139.306 152.785 138.266C152.156 137.363 152.98 136.141 153.87 136.513C154.759 136.885 156.614 139.286 157.211 142.749C157.808 146.212 160.595 141.41 161.637 139.679C162.678 137.947 166.182 132.732 166.984 132.625C168.156 132.466 168.546 133.688 167.451 135.377C166.355 137.066 163.47 142.43 164.435 142.919C165.158 142.806 165.897 142.842 166.605 143.025C166.719 143.058 166.82 143.124 166.894 143.216C166.967 143.307 167.011 143.419 167.017 143.535C167.013 144.071 167.071 144.605 167.19 145.128C167.19 145.128 168.611 144.81 168.904 145.415C169.102 146.037 169.194 146.687 169.176 147.338C169.176 147.338 170.26 146.977 170.781 147.338C171.866 148.198 170.477 149.675 170.477 149.675C167.283 153.406 163.852 156.936 160.205 160.245L152.731 153.191"
        fill="#E5BAAB" />
    <path
        d="M166.757 145.362C166.438 146.019 166.009 146.618 165.487 147.136C165.054 147.646 164.511 148.199 163.871 148.868C163.537 149.216 163.175 149.535 162.786 149.824C162.547 150.01 162.259 150.125 161.955 150.155C161.651 150.185 161.345 150.129 161.073 149.994C160.924 149.909 160.798 149.79 160.706 149.648C160.614 149.505 160.557 149.344 160.541 149.176C160.519 148.877 160.587 148.577 160.736 148.315C161.004 147.921 161.293 147.541 161.604 147.179C162.157 146.499 162.613 145.862 162.993 145.309C163.357 144.685 163.774 144.091 164.24 143.535C164.059 144.242 163.751 144.911 163.329 145.511C162.935 146.194 162.5 146.854 162.027 147.487C161.739 147.826 161.471 148.18 161.224 148.549C161.029 148.9 161.04 149.335 161.355 149.495C161.532 149.568 161.725 149.593 161.916 149.569C162.107 149.545 162.287 149.472 162.439 149.356C162.799 149.09 163.14 148.798 163.459 148.485C164.11 147.89 164.674 147.327 165.14 146.849C165.626 146.301 166.168 145.803 166.757 145.362Z"
        fill="#D78776" />
    <path
        d="M168.655 147.54C168.336 148.106 167.926 148.619 167.44 149.059C166.95 149.573 166.417 150.045 165.845 150.471C165.503 150.725 165.14 150.953 164.761 151.151C164.535 151.262 164.294 151.337 164.045 151.374C163.894 151.398 163.74 151.391 163.592 151.352C163.444 151.314 163.307 151.245 163.188 151.151C162.988 150.948 162.861 150.687 162.828 150.406C162.794 150.126 162.856 149.843 163.003 149.6C163.223 149.222 163.481 148.866 163.774 148.538C164.251 147.996 164.696 147.476 165.14 146.955C165.932 146.063 166.453 145.542 166.518 145.585C166.232 146.168 165.867 146.711 165.433 147.2L164.218 148.889C163.962 149.189 163.73 149.509 163.524 149.845C163.44 149.98 163.402 150.138 163.413 150.296C163.425 150.454 163.486 150.604 163.589 150.726C163.784 150.907 164.197 150.833 164.555 150.663C164.911 150.482 165.255 150.28 165.585 150.057C166.149 149.663 166.688 149.238 167.201 148.782C167.632 148.312 168.121 147.894 168.655 147.54Z"
        fill="#D78776" />
    <path
        d="M169.1 150.578C169.154 150.578 169.1 151.056 168.59 151.64C168.435 151.821 168.245 151.97 168.031 152.077C167.817 152.185 167.583 152.25 167.342 152.267C167.032 152.27 166.729 152.168 166.485 151.98C166.351 151.87 166.243 151.732 166.17 151.575C166.097 151.419 166.06 151.249 166.062 151.077C166.148 150.536 166.372 150.024 166.713 149.59C166.942 149.239 167.192 148.903 167.462 148.581C167.928 148.029 168.264 147.742 168.329 147.795C168.395 147.848 168.156 148.209 167.787 148.857C167.57 149.229 167.353 149.569 167.158 149.919C166.897 150.294 166.716 150.717 166.626 151.162C166.635 151.343 166.714 151.513 166.847 151.638C166.981 151.762 167.158 151.832 167.342 151.831C167.702 151.82 168.046 151.68 168.308 151.438C168.796 150.929 169.024 150.536 169.1 150.578Z"
        fill="#D78776" />
    <path
        d="M152.037 149.049C152.037 149.049 123.584 176.466 119.592 176.668C115.036 176.88 101.022 157.419 101.022 157.419C92.0508 143.865 80.2163 141.676 75.8991 141.337V139.658L54.6925 137.958C54.6925 137.958 54.6925 139.743 54.6925 141.305H45.3312C45.3312 141.305 28.5177 140.55 26.0012 162.667L38.0851 172.026L43.0424 190.085C44.7671 196.373 38.6058 206.391 35.6662 222.612C35.2128 225.316 35.6737 228.091 36.9787 230.515L98.2121 237.409L94.9579 191.561L93.9708 180.938C99.0148 187.684 108.072 197.223 119.169 197.011C138.098 196.66 164.392 157.706 164.392 157.706L152.037 149.049Z"
        fill="#E0E0E0" />
    <path
        d="M68.7615 139.36C68.8666 140.302 68.8666 141.254 68.7615 142.196C68.6033 144.556 68.2771 146.902 67.7852 149.218L67.7093 149.568L67.3838 149.398C66.6462 149.016 65.8761 148.612 65.095 148.166C62.0578 146.413 59.4653 144.608 57.5019 143.354C56.442 142.722 55.4206 142.031 54.4429 141.283C54.7676 141.375 55.0778 141.511 55.365 141.686C55.929 141.994 56.7426 142.44 57.7188 143.025C59.6931 144.193 62.3181 145.957 65.312 147.688C66.0713 148.124 66.8306 148.538 67.5682 148.92L67.1669 149.101C67.796 146.36 68.0998 143.906 68.3276 142.164C68.4141 141.222 68.559 140.285 68.7615 139.36Z"
        fill="#FAFAFA" />
    <path
        d="M75.9641 141.453C75.8278 142.365 75.6248 143.267 75.3566 144.151C75.1505 144.99 74.9336 145.988 74.5648 147.072C74.3728 147.645 74.1446 148.205 73.8814 148.75C73.8056 148.946 73.669 149.113 73.4909 149.228C73.3674 149.303 73.2218 149.334 73.0779 149.316C72.934 149.299 72.8005 149.234 72.699 149.133C72.4958 148.839 72.3317 148.522 72.2109 148.187C71.1262 145.776 70.2692 143.588 69.6401 141.984C69.2444 141.143 68.9425 140.264 68.7397 139.36C69.2464 140.141 69.6716 140.97 70.0089 141.835C70.7357 143.397 71.7011 145.564 72.7316 147.975C72.8316 148.243 72.955 148.503 73.1004 148.75C73.1546 148.75 73.1004 148.75 73.198 148.75C73.2797 148.686 73.3432 148.602 73.3824 148.506C73.642 147.984 73.8737 147.448 74.0767 146.902C74.4563 145.84 74.7167 144.862 74.9661 144.045C75.1818 143.142 75.5173 142.27 75.9641 141.453Z"
        fill="#FAFAFA" />
    <path
        d="M72.0157 215.643C71.9638 215.394 71.9348 215.142 71.9289 214.888C71.9289 214.336 71.8855 213.628 71.7987 212.764C71.712 210.809 71.5818 208.1 71.4299 204.775C71.1696 197.977 70.8008 188.682 70.4103 178.42C70.0198 168.159 69.7703 158.864 69.5533 152.065C69.4774 148.73 69.4123 146.021 69.3581 144.066C69.3581 143.174 69.3581 142.451 69.3581 141.942C69.33 141.687 69.33 141.431 69.3581 141.177C69.4081 141.425 69.4335 141.678 69.434 141.931C69.434 142.483 69.5208 143.206 69.575 144.056C69.6618 145.999 69.792 148.708 69.9438 152.033C70.2042 158.832 70.5621 168.127 70.9635 178.388C71.3648 188.65 71.5926 197.945 71.8204 204.754C71.8964 208.079 71.9614 210.788 72.0157 212.743C72.0157 213.645 72.0157 214.368 72.0157 214.92C72.0412 215.16 72.0412 215.402 72.0157 215.643Z"
        fill="#F5F5F5" />
    <path d="M68.1541 146.074L69.933 150.875L71.4625 145.723L69.0869 140.561L68.1541 146.074Z"
        fill="#EDA464" />
    <path d="M70.2584 149.441L69.0869 203.49L77.4177 220.55L80.7044 201.355L70.2584 149.441Z"
        fill="#EDA464" />
    <path
        d="M119.896 183.349C119.896 183.349 119.896 183.509 119.896 183.774L119.831 184.178L119.646 183.774C119.227 182.7 118.985 181.566 118.931 180.417C118.751 179.136 118.908 177.831 119.386 176.625C119.549 176.625 119.386 178.325 119.495 180.385C119.581 181.851 119.82 183.105 119.896 183.71H119.646C119.744 183.424 119.853 183.349 119.896 183.349Z"
        fill="#FAFAFA" />
    <path
        d="M122.337 183.169C121.528 182.337 120.926 181.334 120.579 180.237C120.057 179.224 119.772 178.11 119.744 176.976C120.296 177.963 120.747 179.002 121.089 180.077C121.606 181.066 122.024 182.101 122.337 183.169Z"
        fill="#FAFAFA" />
    <path
        d="M162.613 160.287C160.267 159.072 158.012 157.695 155.866 156.166C153.617 154.791 151.471 153.261 149.444 151.587C151.789 152.812 154.044 154.197 156.191 155.73C158.44 157.098 160.585 158.621 162.613 160.287Z"
        fill="#FAFAFA" />
    <path
        d="M44.344 168.966C44.344 168.966 39.8315 199.772 41.9684 201.493C53.7704 211.213 70.1716 216.312 76.0292 217.916C76.8861 217.714 77.8841 217.449 79.0339 217.087C80.0306 216.777 80.966 216.303 81.8 215.685C82.8648 214.954 83.8212 214.082 84.642 213.093C84.7659 212.881 84.9541 212.712 85.1804 212.609C85.4067 212.507 85.66 212.475 85.9054 212.52C86.1507 212.564 86.3759 212.682 86.5499 212.857C86.7239 213.032 86.838 213.256 86.8765 213.497C86.9308 214.559 85.1952 217.289 81.9301 219.286C81.9301 219.286 89.4474 231.131 91.8446 232.204C94.2419 233.277 101.097 236.293 99.9368 236.867C98.7761 237.441 90.4345 235.072 90.4345 235.072L73.5126 230.642C73.5126 230.642 17.5401 222.048 21.2608 196.904C23.5496 181.49 26.0445 167.606 26.9448 164.09L44.344 168.966Z"
        fill="#E5BAAB" />
    <path
        d="M26.0011 162.656L21.033 196.234C19.8724 206.57 26.9448 214.782 36.458 219.403C50.9392 226.424 72.4387 231.438 72.2543 231.406C72.0699 231.375 73.7079 216.418 73.7079 216.418C73.7079 216.418 43.563 203.67 42.6193 198.147C41.6756 192.623 46.4484 169.677 46.4484 169.677L26.0011 162.656Z"
        fill="#E0E0E0" />
    <path
        d="M72.2109 231.407C72.1996 231.319 72.1996 231.23 72.2109 231.141C72.2109 230.929 72.2109 230.674 72.2652 230.366C72.3194 229.633 72.3953 228.645 72.5038 227.381C72.7316 224.746 73.0679 221.007 73.4692 216.408L73.5885 216.599L58.4022 209.407L54.0633 207.283C52.5989 206.518 51.1236 205.679 49.6592 204.754C48.1735 203.815 46.7463 202.79 45.3854 201.684C44.702 201.121 44.0186 200.526 43.3678 199.9C43.0008 199.584 42.7052 199.197 42.5 198.763C42.385 198.553 42.301 198.327 42.2505 198.094C42.1793 197.872 42.1285 197.645 42.0986 197.414C41.6105 193.738 42.6085 190.275 43.1834 186.972C43.7583 183.668 44.3332 180.449 44.8756 177.411C45.9603 171.314 46.9474 165.832 47.7718 161.201C48.2169 159.149 48.4711 157.062 48.5311 154.965C48.5521 153.388 48.2188 151.825 47.5549 150.387C47.129 149.48 46.5244 148.664 45.7759 147.986C45.2552 147.529 44.9406 147.349 44.9515 147.317C45.2742 147.476 45.5764 147.672 45.8518 147.901C46.6483 148.559 47.2949 149.373 47.7501 150.291C48.4621 151.751 48.8326 153.348 48.8348 154.965C48.8107 157.081 48.5818 159.191 48.1515 161.265C47.3596 165.907 46.4159 171.399 45.3745 177.507C44.843 180.556 44.2898 183.764 43.7149 187.067C43.5739 187.896 43.422 188.735 43.2701 189.585C43.1183 190.435 42.9556 191.263 42.8362 192.113C42.551 193.831 42.5036 195.578 42.6952 197.308C42.7296 197.519 42.7767 197.728 42.8362 197.934C42.8789 198.139 42.952 198.335 43.0532 198.519C43.2319 198.894 43.4908 199.227 43.8125 199.496C44.4525 200.112 45.1142 200.696 45.7867 201.249C47.1295 202.344 48.5386 203.358 50.0064 204.287C51.4491 205.211 52.9026 206.04 54.3453 206.805L58.6843 208.929L73.7513 216.28L73.8706 216.344V216.471C73.3825 221.071 72.9919 224.8 72.7207 227.434C72.5689 228.687 72.4604 229.686 72.3736 230.408C72.3303 230.72 72.2977 230.975 72.276 231.173C72.2621 231.253 72.2403 231.331 72.2109 231.407Z"
        fill="#FAFAFA" />
    <path
        d="M69.4123 214.367C69.4445 215.136 69.3826 215.907 69.2279 216.662C69.0435 218.064 68.7398 219.997 68.3384 222.122C67.9371 224.246 67.4815 226.158 67.1127 227.529C66.9638 228.284 66.7121 229.017 66.3642 229.707C66.402 228.939 66.522 228.177 66.7222 227.433C67.0404 225.833 67.4019 224.027 67.8069 222.016C68.1865 219.437 68.7226 216.883 69.4123 214.367Z"
        fill="#FAFAFA" />
    <path
        d="M72.2109 231.407C72.0303 231.406 71.8509 231.377 71.6794 231.322L70.1933 230.971L64.7696 229.569C60.1812 228.358 53.8029 226.765 46.9691 224.311C43.7532 223.159 40.6218 221.793 37.5969 220.221C35.1258 218.934 32.7675 217.449 30.5461 215.781C29.0473 214.657 27.6335 213.429 26.3157 212.105C25.8492 211.638 25.513 211.266 25.2309 211.043C25.1018 210.918 24.9921 210.775 24.9055 210.618C24.9055 210.618 25.4479 211.117 26.4242 211.999C27.7994 213.253 29.2482 214.427 30.7631 215.515C33.0063 217.095 35.3626 218.515 37.8139 219.764C40.8312 221.3 43.9473 222.641 47.1426 223.78C53.9331 226.223 60.3005 227.87 64.8564 229.187L70.2801 230.748L71.7445 231.205C71.9082 231.252 72.0649 231.32 72.2109 231.407Z"
        fill="#FAFAFA" />
    <path
        d="M72.5797 217.958C72.5862 218.148 72.5347 218.336 72.4319 218.497C72.3292 218.658 72.1797 218.785 72.0026 218.863C71.8255 218.941 71.6289 218.965 71.4377 218.932C71.2466 218.9 71.0696 218.813 70.9294 218.681C70.7892 218.55 70.6921 218.381 70.6505 218.195C70.6089 218.01 70.6246 217.816 70.6958 217.639C70.767 217.463 70.8903 217.311 71.05 217.203C71.2097 217.095 71.3986 217.036 71.5926 217.034C71.8479 217.031 72.0941 217.126 72.2786 217.299C72.4632 217.472 72.5712 217.709 72.5797 217.958Z"
        fill="#FAFAFA" />
</svg>