<svg width="117" height="59" viewBox="0 0 117 59" fill="none" xmlns="http://www.w3.org/2000/svg">
    <path
        d="M93.7454 17.6984C97.3521 20.2749 99.6198 23.9482 100.599 28.2627C101.057 33.3754 100.436 38.0118 97.3214 42.1651C94.5519 45.4672 91.2424 47.574 86.9237 48.1546C82.5442 48.4845 79.4593 47.5127 75.7345 45.2537C75.7345 44.9802 75.7345 44.7067 75.7345 44.4249C75.461 44.4249 75.1875 44.4249 74.9057 44.4249C74.9057 49.2114 74.9057 53.9979 74.9057 58.9294C71.8971 58.9294 68.8884 58.9294 65.7886 58.9294C65.7886 44.7067 65.7886 30.484 65.7886 15.8303C68.6605 15.8303 71.5324 15.8303 74.4913 15.8303C74.4913 16.9243 74.4913 18.0184 74.4913 19.1456C74.6873 18.9806 74.8833 18.8153 75.0856 18.6454C80.4945 14.3118 87.8251 14.0711 93.7454 17.6984Z"
        fill="#FBFCFD" />
    <path
        d="M19.7886 6.2989C22.934 6.2989 26.0794 6.2989 29.3201 6.2989C29.3239 7.08049 29.328 7.86249 29.3317 8.6677C29.3467 11.2648 29.369 13.8616 29.3964 16.4587C29.4125 18.0314 29.4262 19.6041 29.4324 21.1772C29.4387 22.6981 29.4532 24.219 29.4726 25.7399C29.4789 26.3168 29.4822 26.8941 29.4826 27.4714C29.4867 31.0474 29.5058 34.8326 32.0064 37.6602C34.4174 39.7754 37.078 39.6572 40.1061 39.5914C42.2437 39.4107 43.6141 38.9755 45.0679 37.38C46.7745 34.8832 47.1827 32.3863 47.2249 29.3988C47.2332 28.8845 47.2415 28.3702 47.2502 27.8406C47.2573 27.2836 47.2643 26.7267 47.2709 26.1697C47.2797 25.5966 47.2883 25.0234 47.2971 24.4503C47.3198 22.9468 47.3406 21.4433 47.3605 19.9398C47.3816 18.4036 47.4044 16.8673 47.4272 15.3311C47.4719 12.3204 47.5138 9.30963 47.5544 6.2989C50.6998 6.2989 53.8452 6.2989 57.086 6.2989C57.1332 9.75761 57.1709 13.2163 57.1933 16.6754C57.2041 18.2821 57.2186 19.8888 57.2422 21.4955C57.265 23.0512 57.2774 24.6069 57.2824 26.1631C57.2865 26.7511 57.2936 27.3396 57.3052 27.9276C57.4046 33.3063 56.5493 38.6374 52.8883 42.8259C48.3944 47.2916 43.0808 48.2754 36.945 48.2862C32.4506 48.2166 28.4859 47.159 25.176 44.0107C24.8859 43.7372 24.5958 43.4636 24.297 43.1818C20.8259 39.615 19.7322 35.3755 19.7418 30.4809C19.7418 29.9417 19.7418 29.4025 19.7418 28.8472C19.7438 28.265 19.7459 27.6827 19.748 27.1005C19.7488 26.5004 19.7496 25.8999 19.7501 25.2994C19.7513 23.7259 19.7554 22.1519 19.76 20.578C19.7646 18.9696 19.7662 17.3613 19.7683 15.7525C19.7728 12.6013 19.7799 9.45011 19.7886 6.2989Z"
        fill="#FCFCFE" />
    <path
        d="M106.816 15.8294C109.825 15.8294 112.833 15.8294 115.933 15.8294C115.933 26.2229 115.933 36.6164 115.933 47.3249C112.924 47.3249 109.916 47.3249 106.816 47.3249C106.816 36.9314 106.816 26.5379 106.816 15.8294Z"
        fill="#FDFDFE" />
    <path
        d="M1.5542 15.8294C4.56285 15.8294 7.57151 15.8294 10.6713 15.8294C10.6713 26.2229 10.6713 36.6164 10.6713 47.3249C7.66268 47.3249 4.65402 47.3249 1.5542 47.3249C1.5542 36.9314 1.5542 26.5379 1.5542 15.8294Z"
        fill="white" />
    <path
        d="M86.6648 23.367C88.7833 24.8299 90.063 26.3065 91.068 28.677C91.4455 31.6098 91.4741 34.567 89.9105 37.153C88.7738 38.6097 87.3747 39.5827 85.6806 40.2806C83.3275 40.545 80.7623 40.7302 78.6094 39.6071C76.5995 37.9818 75.4963 36.16 74.9058 33.6499C74.6389 30.6139 74.919 27.9119 76.8743 25.4652C79.5675 22.5913 82.9794 22.0703 86.6648 23.367Z"
        fill="#004AAD" />
    <path
        d="M8.23185 1.22832C9.79046 1.94609 11.1758 2.61039 11.9148 4.22619C12.1551 6.3882 11.8377 7.78063 10.6715 9.61359C8.93303 11.1892 7.25838 11.4155 4.9878 11.3894C3.16645 11.1623 2.07073 10.0956 0.777344 8.88837C0.0773969 7.48847 0.09646 6.15571 0.311127 4.64061C0.982894 2.90172 2.01562 2.06502 3.67328 1.2134C5.27499 0.59343 6.62723 0.646894 8.23185 1.22832Z"
        fill="#F8FAFC" />
    <path
        d="M113.032 0.911165C114.458 1.69151 115.73 2.54935 116.762 3.81207C117.15 5.84685 116.958 7.54885 116.062 9.40667C114.518 11.0755 113.221 11.3246 111.012 11.4787C108.975 11.4452 107.967 10.8327 106.516 9.45019C105.466 8.13069 105.43 6.69391 105.458 5.05366C105.646 3.69935 106.242 3.06447 107.23 2.15441C109.107 0.917381 110.831 0.50711 113.032 0.911165Z"
        fill="#F9FBFD" />
</svg>