<svg width="273" height="136" viewBox="0 0 273 136" fill="none" xmlns="http://www.w3.org/2000/svg">
    <path
        d="M218.594 39.5703C227.02 45.5895 232.318 54.1715 234.607 64.2512C235.675 76.1957 234.226 87.0277 226.949 96.7308C220.478 104.445 212.746 109.368 202.657 110.724C192.425 111.495 185.218 109.224 176.516 103.947C176.516 103.308 176.516 102.669 176.516 102.01C175.877 102.01 175.238 102.01 174.58 102.01C174.58 113.193 174.58 124.375 174.58 135.897C167.551 135.897 160.522 135.897 153.28 135.897C153.28 102.669 153.28 69.4407 153.28 35.2058C159.989 35.2058 166.699 35.2058 173.612 35.2058C173.612 37.7618 173.612 40.3178 173.612 42.9512C174.07 42.5659 174.527 42.1796 175 41.7826C187.637 31.6583 204.763 31.0958 218.594 39.5703Z"
        fill="#004AAD" />
    <path
        d="M45.8115 12.9373C53.16 12.9373 60.5085 12.9373 68.0796 12.9373C68.0884 14.7632 68.0981 16.5902 68.1068 18.4714C68.1416 24.539 68.1939 30.6056 68.2578 36.6732C68.2955 40.3475 68.3275 44.0217 68.342 47.6969C68.3565 51.2501 68.3904 54.8034 68.4359 58.3566C68.4505 59.7043 68.4582 61.053 68.4592 62.4017C68.4688 70.7561 68.5134 79.5995 74.3554 86.2054C79.9883 91.147 86.204 90.871 93.2785 90.7171C98.2724 90.295 101.474 89.2784 104.871 85.5509C108.858 79.7176 109.811 73.8843 109.91 66.9047C109.929 65.7032 109.949 64.5017 109.969 63.2643C109.985 61.9631 110.002 60.6618 110.017 59.3606C110.038 58.0216 110.058 56.6826 110.078 55.3436C110.132 51.8311 110.18 48.3185 110.227 44.8059C110.276 41.2169 110.329 37.6278 110.382 34.0388C110.487 27.0049 110.585 19.9711 110.68 12.9373C118.028 12.9373 125.377 12.9373 132.948 12.9373C133.058 21.0177 133.146 29.0981 133.199 37.1796C133.224 40.9332 133.258 44.6868 133.313 48.4405C133.366 52.075 133.395 55.7096 133.407 59.3451C133.416 60.719 133.433 62.0938 133.46 63.4676C133.692 76.0337 131.694 88.4883 123.141 98.2738C112.642 108.707 100.228 111.005 85.8932 111.031C75.3933 110.868 66.1307 108.397 58.3978 101.042C57.7201 100.403 57.0424 99.7638 56.3443 99.1054C48.2348 90.7723 45.6798 80.8678 45.702 69.4326C45.702 68.173 45.702 66.9134 45.702 65.616C45.7069 64.2557 45.7117 62.8954 45.7166 61.5351C45.7185 60.1332 45.7205 58.7303 45.7214 57.3274C45.7243 53.6512 45.734 49.9741 45.7447 46.2969C45.7553 42.5394 45.7592 38.7819 45.764 35.0234C45.7747 27.6614 45.7911 20.2993 45.8115 12.9373Z"
        fill="#004AAD" />
    <path
        d="M249.13 35.2053C256.159 35.2053 263.188 35.2053 270.43 35.2053C270.43 59.4873 270.43 83.7693 270.43 108.787C263.401 108.787 256.372 108.787 249.13 108.787C249.13 84.5051 249.13 60.2231 249.13 35.2053Z"
        fill="#004AAD" />
    <path
        d="M3.21155 35.2053C10.2405 35.2053 17.2695 35.2053 24.5115 35.2053C24.5115 59.4873 24.5115 83.7693 24.5115 108.787C17.4825 108.787 10.4535 108.787 3.21155 108.787C3.21155 84.5051 3.21155 60.2231 3.21155 35.2053Z"
        fill="#004AAD" />
    <path
        d="M202.052 52.8138C207.001 56.2315 209.991 59.6811 212.339 65.2191C213.221 72.0709 213.287 78.9799 209.635 85.0213C206.979 88.4245 203.71 90.6978 199.752 92.3282C194.255 92.9459 188.262 93.3787 183.232 90.7549C178.537 86.9577 175.959 82.7016 174.58 76.8373C173.956 69.7444 174.611 63.4319 179.178 57.7157C185.471 51.0014 193.442 49.7844 202.052 52.8138Z"
        fill="none" />
    <path
        d="M18.8119 1.09304C22.4533 2.76993 25.6899 4.32192 27.4162 8.09686C27.9777 13.1479 27.2361 16.401 24.5116 20.6832C20.4501 24.3642 16.5377 24.8929 11.233 24.8319C6.97785 24.3013 4.41798 21.8092 1.39628 18.9889C-0.238977 15.7184 -0.194441 12.6047 0.307077 9.06504C1.8765 5.00255 4.28922 3.04778 8.16194 1.05817C11.904 -0.390229 15.0631 -0.265323 18.8119 1.09304Z"
        fill="#004AAD" />
    <path
        d="M263.652 0.350847C266.984 2.17393 269.956 4.17807 272.366 7.12812C273.274 11.8819 272.825 15.8582 270.732 20.1986C267.125 24.0974 264.095 24.6793 258.932 25.0395C254.175 24.9611 251.819 23.5301 248.43 20.3002C245.977 17.2175 245.893 13.8609 245.957 10.0288C246.396 6.86478 247.79 5.38152 250.098 3.25539C254.483 0.36537 258.509 -0.59313 263.652 0.350847Z"
        fill="#004AAD" />
</svg>