<svg width="437" height="325" viewBox="0 0 437 325" fill="none" xmlns="http://www.w3.org/2000/svg">
    <path
        d="M218.086 325C311.498 325 387.224 320.579 387.224 315.125C387.224 309.671 311.498 305.25 218.086 305.25C124.673 305.25 48.9471 309.671 48.9471 315.125C48.9471 320.579 124.673 325 218.086 325Z"
        fill="#F5F5F5" />
    <path d="M436.171 285.605H0V285.823H436.171V285.605Z" fill="#EBEBEB" />
    <path d="M64.2655 293.91H45.7631V294.128H64.2655V293.91Z" fill="#EBEBEB" />
    <path d="M223.416 291.546H149.293V291.764H223.416V291.546Z" fill="#EBEBEB" />
    <path d="M92.2764 302.014H59.0314V302.232H92.2764V302.014Z" fill="#EBEBEB" />
    <path d="M392.467 300.548H354.79V300.766H392.467V300.548Z" fill="#EBEBEB" />
    <path d="M351.938 300.548H341.496V300.766H351.938V300.548Z" fill="#EBEBEB" />
    <path d="M323.543 296.867H303.479V297.085H323.543V296.867Z" fill="#EBEBEB" />
    <path d="M293.395 296.867H251.139V297.085H293.395V296.867Z" fill="#EBEBEB" />
    <path
        d="M206.745 246.699H38.3046C36.985 246.696 35.7203 246.17 34.7881 245.237C33.8558 244.303 33.3322 243.037 33.3322 241.717V4.93746C33.3437 3.62548 33.8724 2.37101 34.8034 1.44653C35.7344 0.522061 36.9925 0.00224749 38.3046 0H206.745C208.066 0 209.333 0.524791 210.267 1.45892C211.202 2.39306 211.726 3.66001 211.726 4.98108V241.717C211.726 243.038 211.202 244.305 210.267 245.24C209.333 246.174 208.066 246.699 206.745 246.699ZM38.3046 0.174469C37.0429 0.17678 35.8336 0.679612 34.9423 1.5726C34.0509 2.46558 33.5503 3.67575 33.5503 4.93746V241.717C33.5503 242.979 34.0509 244.189 34.9423 245.082C35.8336 245.975 37.0429 246.478 38.3046 246.48H206.745C208.007 246.476 209.216 245.973 210.108 245.08C211 244.188 211.504 242.979 211.508 241.717V4.93746C211.504 3.67565 211 2.46684 210.108 1.5746C209.216 0.682356 208.007 0.179066 206.745 0.174469H38.3046Z"
        fill="#EBEBEB" />
    <path
        d="M395.442 246.699H226.992C225.673 246.694 224.408 246.168 223.475 245.235C222.542 244.301 222.016 243.037 222.011 241.717V4.93746C222.025 3.62468 222.556 2.37022 223.488 1.44599C224.42 0.521756 225.679 0.00222298 226.992 0H395.442C396.752 0.0045401 398.008 0.525368 398.937 1.4496C399.866 2.37382 400.394 3.62698 400.405 4.93746V241.717C400.406 242.37 400.279 243.017 400.03 243.621C399.781 244.225 399.416 244.773 398.955 245.236C398.494 245.699 397.947 246.066 397.344 246.317C396.741 246.568 396.095 246.697 395.442 246.699ZM226.992 0.174469C225.73 0.179066 224.522 0.682356 223.629 1.5746C222.737 2.46684 222.234 3.67565 222.229 4.93746V241.717C222.234 242.979 222.737 244.188 223.629 245.08C224.522 245.973 225.73 246.476 226.992 246.48H395.442C396.703 246.476 397.912 245.973 398.805 245.08C399.697 244.188 400.2 242.979 400.205 241.717V4.93746C400.2 3.67565 399.697 2.46684 398.805 1.5746C397.912 0.682356 396.703 0.179066 395.442 0.174469H226.992Z"
        fill="#EBEBEB" />
    <path d="M275.023 198.083H271.307V285.771H275.023V198.083Z" fill="#F0F0F0" />
    <path d="M233.413 200.586H129.613V219.525H233.413V200.586Z" fill="#E0E0E0" />
    <path
        d="M172.898 285.84H128.409C128.238 285.84 128.073 285.772 127.952 285.651C127.831 285.53 127.763 285.366 127.763 285.195C127.763 285.024 127.831 284.86 127.952 284.738C128.073 284.617 128.238 284.549 128.409 284.549H172.898C179.327 284.549 180.191 282.674 180.191 275.224V181.281C180.181 181.191 180.189 181.099 180.217 181.012C180.244 180.926 180.289 180.845 180.35 180.777C180.411 180.709 180.485 180.655 180.568 180.618C180.651 180.58 180.741 180.561 180.832 180.561C180.923 180.561 181.013 180.58 181.097 180.618C181.18 180.655 181.254 180.709 181.314 180.777C181.375 180.845 181.421 180.926 181.448 181.012C181.475 181.099 181.484 181.191 181.473 181.281V275.224C181.447 283.189 180.235 285.84 172.898 285.84Z"
        fill="#E0E0E0" />
    <path d="M274.012 198.423H133.608V205H274.012V198.423Z" fill="#F0F0F0" />
    <path d="M134.62 198.083H89.5372V285.771H134.62V198.083Z" fill="#F5F5F5" />
    <path d="M134.611 198.083H130.895V285.771H134.611V198.083Z" fill="#F0F0F0" />
    <path d="M102.692 99.6389H56.5802V285.779H102.692V99.6389Z" fill="#FAFAFA" />
    <path d="M100.162 105.073H59.11V146.126H100.162V105.073Z" fill="#F5F5F5" />
    <path
        d="M70.5464 104.524H88.7522C88.7522 105.653 88.3037 106.736 87.5053 107.534C86.707 108.333 85.6242 108.781 84.4951 108.781H74.8296C74.2705 108.785 73.7163 108.678 73.1985 108.467C72.6807 108.256 72.2095 107.946 71.8117 107.553C71.414 107.16 71.0975 106.693 70.8804 106.177C70.6633 105.662 70.5498 105.109 70.5464 104.55V104.524Z"
        fill="#E0E0E0" />
    <path d="M100.154 149.807H59.1012V190.86H100.154V149.807Z" fill="#F5F5F5" />
    <path d="M100.162 194.55H59.11V235.602H100.162V194.55Z" fill="#F5F5F5" />
    <path d="M100.162 239.292H59.11V280.345H100.162V239.292Z" fill="#F5F5F5" />
    <path
        d="M70.5464 149.267H88.7522C88.7499 150.396 88.3009 151.478 87.5033 152.277C86.7057 153.077 85.6243 153.528 84.4951 153.532H74.8296C74.2698 153.536 73.7149 153.429 73.1965 153.218C72.6781 153.006 72.2065 152.695 71.8087 152.301C71.4108 151.907 71.0945 151.439 70.8779 150.923C70.6613 150.406 70.5487 149.853 70.5464 149.293V149.267Z"
        fill="#E0E0E0" />
    <path
        d="M70.5464 194H88.7522C88.7533 194.56 88.644 195.114 88.4305 195.631C88.2169 196.148 87.9034 196.617 87.5079 197.013C87.1124 197.409 86.6426 197.722 86.1256 197.936C85.6086 198.149 85.0545 198.258 84.4951 198.257H74.8296C73.702 198.264 72.6178 197.824 71.8148 197.032C71.0118 196.24 70.5556 195.163 70.5464 194.035V194Z"
        fill="#E0E0E0" />
    <path
        d="M70.5464 238.734H88.7522C88.7533 239.293 88.644 239.848 88.4305 240.365C88.2169 240.882 87.9034 241.351 87.5079 241.747C87.1124 242.142 86.6426 242.456 86.1256 242.669C85.6086 242.883 85.0545 242.992 84.4951 242.991H74.8296C73.702 242.998 72.6178 242.557 71.8148 241.766C71.0118 240.974 70.5556 239.897 70.5464 238.769V238.734Z"
        fill="#E0E0E0" />
    <path d="M56.5801 99.6389H33.5503V285.779H56.5801V99.6389Z" fill="#F0F0F0" />
    <path d="M175.533 198.083H165.815L168.17 179.153H177.906L175.533 198.083Z" fill="#F0F0F0" />
    <path d="M177.687 198.083H167.961L170.334 179.153H180.051L177.687 198.083Z" fill="#F5F5F5" />
    <path d="M198.554 198.083H191.514L190.171 195.937H197.202L198.554 198.083Z" fill="#F0F0F0" />
    <path d="M236.23 198.083H193.669L192.325 195.937H230.49L236.23 198.083Z" fill="#FAFAFA" />
    <path
        d="M144.695 192.648H147.775C148.488 192.648 149.194 192.789 149.853 193.062C150.512 193.335 151.111 193.736 151.615 194.241C152.119 194.745 152.518 195.344 152.79 196.004C153.062 196.663 153.202 197.37 153.201 198.083H139.243C139.243 196.642 139.816 195.259 140.835 194.24C141.854 193.221 143.237 192.648 144.678 192.648H144.695Z"
        fill="#F0F0F0" />
    <path d="M178.865 188.618H169.147L170.334 179.153H180.052L178.865 188.618Z" fill="#F0F0F0" />
    <path
        d="M143.117 186.35H211.979C212.104 186.351 212.229 186.327 212.345 186.28C212.46 186.232 212.566 186.162 212.654 186.074C212.743 185.985 212.813 185.88 212.86 185.764C212.907 185.648 212.931 185.524 212.93 185.399C212.934 185.358 212.934 185.317 212.93 185.277L207.618 142.864C207.6 142.626 207.493 142.404 207.318 142.242C207.143 142.08 206.914 141.991 206.675 141.991H137.83C137.578 141.991 137.336 142.091 137.158 142.27C136.979 142.448 136.879 142.69 136.879 142.942C136.875 142.983 136.875 143.024 136.879 143.064L142.192 185.521C142.223 185.746 142.333 185.953 142.502 186.105C142.671 186.257 142.889 186.344 143.117 186.35Z"
        fill="#F0F0F0" />
    <path
        d="M144.155 186.35H212.956C213.082 186.351 213.206 186.327 213.322 186.28C213.437 186.232 213.543 186.162 213.631 186.074C213.72 185.985 213.79 185.88 213.837 185.764C213.885 185.648 213.908 185.524 213.907 185.399C213.911 185.358 213.911 185.317 213.907 185.277L208.612 142.864C208.587 142.627 208.476 142.409 208.301 142.248C208.126 142.088 207.899 141.996 207.661 141.991H138.851C138.599 141.991 138.357 142.091 138.178 142.27C138 142.448 137.9 142.69 137.9 142.942C137.896 142.983 137.896 143.024 137.9 143.064L143.204 185.486C143.224 185.724 143.333 185.945 143.509 186.105C143.686 186.265 143.916 186.353 144.155 186.35Z"
        fill="#F5F5F5" />
    <path
        d="M211.683 184.003L206.745 144.303C206.737 144.238 206.704 144.179 206.654 144.137C206.604 144.095 206.54 144.073 206.475 144.076H140.395C140.361 144.074 140.327 144.078 140.295 144.089C140.263 144.1 140.233 144.118 140.208 144.141C140.182 144.163 140.162 144.191 140.148 144.222C140.133 144.253 140.126 144.286 140.124 144.32V144.373L145.088 184.064C145.095 184.129 145.125 184.189 145.173 184.233C145.222 184.276 145.285 184.3 145.35 184.3H211.421C211.457 184.299 211.491 184.291 211.524 184.276C211.556 184.261 211.585 184.24 211.61 184.214C211.634 184.189 211.653 184.158 211.666 184.125C211.678 184.092 211.684 184.056 211.683 184.021V184.003Z"
        fill="#E0E0E0" />
    <path
        d="M186.542 198.083H170.7V197.882C170.7 197.465 170.865 197.065 171.159 196.769C171.454 196.473 171.853 196.306 172.27 196.303H184.937C185.355 196.303 185.757 196.47 186.053 196.766C186.349 197.062 186.516 197.463 186.516 197.882V198.083H186.542Z"
        fill="#FAFAFA" />
    <path
        d="M172.541 198.083H161.802V197.882C161.801 197.675 161.841 197.47 161.919 197.279C161.997 197.087 162.113 196.913 162.259 196.766C162.405 196.619 162.578 196.503 162.769 196.424C162.96 196.344 163.165 196.303 163.372 196.303H170.979C171.396 196.306 171.796 196.473 172.09 196.769C172.384 197.065 172.549 197.465 172.549 197.882V198.083H172.541Z"
        fill="#F0F0F0" />
    <path
        d="M76.0683 78.6155C76.2428 78.0223 76.4085 77.4204 76.5568 76.8272C76.8161 77.2408 77.1692 77.5875 77.5875 77.8391C78.0058 78.0907 78.4776 78.2401 78.9645 78.2752H79.1738C80.4562 78.1531 81.6774 76.9057 82.4538 74.9516C82.4707 74.9178 82.4795 74.8804 82.4795 74.8426C82.4795 74.8047 82.4707 74.7674 82.4538 74.7335C82.436 74.6985 82.4114 74.6673 82.3815 74.6419C82.3515 74.6164 82.3168 74.5972 82.2794 74.5852C81.3595 74.3522 80.4009 74.3156 79.466 74.478C78.531 74.6403 77.6408 74.9979 76.8534 75.5274C76.9755 74.9604 77.0715 74.3846 77.1587 73.7827C77.3595 73.825 77.5642 73.8455 77.7694 73.8437C78.4845 73.779 79.1797 73.5729 79.8146 73.2375C80.4495 72.9021 81.0115 72.444 81.4681 71.8897C81.5178 71.8364 81.5454 71.7663 81.5454 71.6934C81.5454 71.6206 81.5178 71.5504 81.4681 71.4972H81.3983C80.9133 71.2558 80.3825 71.1201 79.8412 71.0991C79.2998 71.078 78.7602 71.1721 78.2579 71.375C77.7221 71.6476 77.2879 72.0848 77.0191 72.6225C76.6302 71.4089 75.9108 70.3277 74.9416 69.5002C73.9723 68.6727 72.7917 68.1318 71.5321 67.938C71.4942 67.9287 71.4546 67.9285 71.4167 67.9376C71.3788 67.9468 71.3435 67.9648 71.314 67.9903C71.2819 68.0138 71.2552 68.0438 71.2356 68.0784C71.2161 68.113 71.2041 68.1514 71.2006 68.191C71.0959 70.084 71.2006 72.4131 72.5789 73.5123C73.1701 73.9504 73.8938 74.1721 74.6289 74.1404C75.2913 74.1305 75.9491 74.0277 76.583 73.835C76.3803 75.2046 76.0889 76.5596 75.7106 77.8914C74.3166 76.005 72.3484 74.6215 70.1015 73.9484C70.0341 73.9409 69.9661 73.9568 69.909 73.9933C69.8518 74.0298 69.8089 74.0848 69.7874 74.1491C69.36 75.7891 69.5781 77.115 70.4242 77.9874C70.8552 78.3699 71.3578 78.6632 71.9028 78.8503C72.4478 79.0375 73.0245 79.1148 73.5996 79.0778C74.2177 79.071 74.8339 79.0067 75.4402 78.8859C75.0913 80.0025 74.6725 81.1016 74.28 82.1397C73.4076 81.3721 70.9215 79.4704 68.1736 80.2729C68.1017 80.2998 68.0425 80.3527 68.0078 80.4212C67.9909 80.4551 67.9821 80.4924 67.9821 80.5303C67.9821 80.5681 67.9909 80.6054 68.0078 80.6393C68.7755 82.4538 69.5955 83.457 70.6249 83.7972C70.9061 83.8909 71.2008 83.9381 71.4972 83.9368C72.3082 83.9042 73.0989 83.6736 73.8002 83.2651C73.2157 84.6521 72.5964 85.9431 72.0119 87.0946C71.31 86.3795 70.4284 85.8667 69.4597 85.6104C68.491 85.354 67.4711 85.3635 66.5074 85.6378C66.4419 85.6525 66.3843 85.691 66.3456 85.7458C66.3069 85.8006 66.2899 85.8678 66.298 85.9344C66.3639 86.5143 66.5817 87.0665 66.9294 87.5352C67.2771 88.0039 67.7424 88.3725 68.2783 88.6038C68.6837 88.7765 69.1199 88.8655 69.5606 88.8655C70.1698 88.8543 70.7677 88.6988 71.3053 88.4119C70.7034 89.5198 70.1538 90.4532 69.7176 91.151H64.5534C63.681 89.7378 62.8087 87.9757 61.8229 85.9955C62.2586 86.1273 62.7112 86.1949 63.1663 86.1961C63.6448 86.203 64.1199 86.1155 64.5644 85.9385C65.009 85.7615 65.4143 85.4986 65.757 85.1647C66.0998 84.8309 66.3734 84.4326 66.562 83.9929C66.7506 83.5532 66.8507 83.0805 66.8563 82.6021C66.8624 82.2814 66.8243 81.9615 66.7429 81.6512C66.7247 81.589 66.6848 81.5354 66.6303 81.5001C66.5759 81.4649 66.5106 81.4504 66.4463 81.4593C65.3812 81.5627 64.3566 81.9211 63.4592 82.5042C62.5618 83.0873 61.8181 83.8778 61.2908 84.8091C60.6802 83.4308 60.0782 81.9653 59.5461 80.4474C60.2111 80.8237 60.955 81.0389 61.7182 81.0755C62.0153 81.0759 62.3103 81.0258 62.5906 80.9272C64.1259 80.4212 65.007 78.5719 65.7572 76.6614C65.7742 76.626 65.783 76.5873 65.783 76.548C65.783 76.5088 65.7742 76.47 65.7572 76.4346C65.7394 76.3996 65.7148 76.3684 65.6848 76.3429C65.6549 76.3175 65.6202 76.2982 65.5827 76.2863C62.5121 75.414 59.991 78.3799 59.2059 79.4442C58.7964 78.1665 58.4556 76.8677 58.1853 75.5535C58.8324 75.6773 59.4892 75.7444 60.148 75.7542C60.7999 75.802 61.4545 75.7151 62.0714 75.499C62.6882 75.2829 63.2539 74.9422 63.7334 74.498C64.658 73.5123 64.8849 72.038 64.3876 70.2497C64.3795 70.2145 64.3643 70.1813 64.3431 70.1521C64.3219 70.1228 64.2951 70.0981 64.2642 70.0794C64.2333 70.0607 64.199 70.0484 64.1632 70.0432C64.1275 70.038 64.0911 70.04 64.0561 70.0491C61.5963 70.7918 59.4501 72.3248 57.9497 74.4108L57.8276 73.7129C57.8227 73.6542 57.7981 73.5989 57.7578 73.5559C57.6296 73.1021 57.4083 72.68 57.1079 72.3165C56.8075 71.953 56.4347 71.6562 56.0131 71.4448C55.4595 71.2322 54.8673 71.1387 54.2751 71.1703C53.6829 71.2018 53.104 71.3578 52.5761 71.628C52.5363 71.6462 52.501 71.6728 52.4724 71.7059C52.4438 71.739 52.4226 71.7779 52.4104 71.8199C52.4007 71.8626 52.4012 71.9069 52.4118 71.9493C52.4224 71.9917 52.4428 72.0311 52.4714 72.0642C52.9721 72.6615 53.5859 73.1539 54.2776 73.5132C54.9692 73.8725 55.7251 74.0916 56.5016 74.1578C56.7474 74.1489 56.9923 74.1226 57.2344 74.0793C57.3304 74.7248 57.4525 75.3791 57.5921 76.0246C56.7178 75.45 55.7319 75.0667 54.6991 74.8999C53.6663 74.733 52.6098 74.7863 51.5991 75.0563C51.5223 75.0823 51.4573 75.1349 51.4159 75.2046C51.3899 75.278 51.3899 75.358 51.4159 75.4314C52.2882 77.5687 53.6665 78.9208 55.0797 79.0342H55.2716C55.8067 78.9881 56.3231 78.8153 56.7781 78.5301C57.2332 78.2449 57.6138 77.8556 57.8887 77.3942C58.2772 78.8715 58.7431 80.3274 59.2844 81.7559C57.9585 81.1278 54.975 80.0112 52.8378 81.6948C52.7821 81.7381 52.7449 81.8008 52.7336 81.8704C52.7223 81.94 52.7377 82.0113 52.7767 82.0699C54.155 83.9542 55.3938 84.8614 56.6848 84.8614C57.7142 84.8614 58.7087 84.2072 59.6944 82.9248C60.2614 84.3293 60.8808 85.6814 61.4391 86.9289C60.1131 86.1089 58.6563 86.231 56.9378 87.3127C56.8984 87.3383 56.8659 87.3732 56.8431 87.4142C56.8203 87.4553 56.8079 87.5013 56.807 87.5483C56.8033 87.5928 56.8119 87.6375 56.8319 87.6775C56.8519 87.7175 56.8825 87.7513 56.9204 87.7751C57.9427 88.514 59.1514 88.9521 60.4097 89.04C61.0608 89.0583 61.7004 88.8655 62.2329 88.4904C62.7214 89.4325 63.2012 90.2961 63.6461 91.1074H61.4217V92.4596H62.294L63.0093 99.604H73.4774L74.184 92.4596H75.0564V91.1598H70.3457C70.8691 90.2874 71.5321 89.1359 72.2474 87.7838C72.2655 87.7535 72.2801 87.7214 72.291 87.6878C72.4742 87.3389 72.6574 86.99 72.8406 86.6236C73.1517 87.0958 73.5715 87.4864 74.0648 87.7627C74.5582 88.039 75.1106 88.1928 75.6757 88.2112H76.0247C76.6501 88.1397 77.2436 87.8965 77.7394 87.5085C78.2352 87.1205 78.6139 86.6029 78.8336 86.0129C78.8579 85.9537 78.8588 85.8874 78.8361 85.8275C78.8135 85.7676 78.7689 85.7185 78.7115 85.6902C77.9083 85.2351 77.0083 84.9779 76.0859 84.94C75.1636 84.902 74.2454 85.0844 73.4076 85.4721C73.8002 84.5997 74.1753 83.7274 74.5679 82.855C74.5998 82.8213 74.6211 82.7788 74.6289 82.7329C74.7336 82.4712 74.8296 82.2095 74.943 81.9653C75.8153 83.1168 76.7574 83.71 77.6996 83.71C78.8423 83.71 80.0025 82.8376 81.2413 81.0929C81.2635 81.0645 81.2798 81.0318 81.2892 80.997C81.2986 80.9621 81.3009 80.9257 81.2961 80.89C81.2912 80.8542 81.2792 80.8198 81.2608 80.7887C81.2424 80.7576 81.218 80.7306 81.1889 80.7091C79.2349 79.2436 76.5917 80.2468 75.3442 80.8312C75.5972 80.1333 75.8328 79.4355 76.0421 78.7289L76.0683 78.6155Z"
        fill="#E0E0E0" />
    <path
        d="M250.284 241.927H279.15C281.788 241.921 284.319 240.884 286.203 239.037C288.087 237.191 289.175 234.681 289.234 232.043L290.316 179.24C290.353 177.287 289.613 175.398 288.259 173.99C286.904 172.581 285.046 171.768 283.093 171.73H264.869C263.06 171.727 261.314 172.39 259.964 173.594C258.613 174.798 257.754 176.457 257.55 178.255L250.284 241.927Z"
        fill="#E6E6E6" />
    <path
        d="M266.065 241.927H235.297C234.915 241.927 234.549 241.775 234.279 241.505C234.009 241.235 233.858 240.869 233.858 240.487V240.348C233.858 239.302 234.273 238.299 235.013 237.56C235.752 236.82 236.755 236.405 237.801 236.405H266.065V241.935V241.927Z"
        fill="#E6E6E6" />
    <path
        d="M263.596 286.495C263.447 286.498 263.302 286.449 263.186 286.357C263.07 286.264 262.989 286.134 262.959 285.989L253.948 242.572H238.245L229.243 285.989C229.193 286.145 229.087 286.277 228.945 286.36C228.803 286.443 228.636 286.47 228.475 286.436C228.315 286.403 228.172 286.311 228.075 286.178C227.979 286.045 227.935 285.881 227.952 285.718L237.077 241.796C237.105 241.647 237.186 241.514 237.305 241.42C237.423 241.325 237.571 241.276 237.722 241.281H254.454C254.603 241.278 254.749 241.328 254.866 241.423C254.982 241.517 255.062 241.649 255.09 241.796L264.206 285.718C264.224 285.8 264.226 285.885 264.211 285.967C264.196 286.05 264.165 286.129 264.12 286.199C264.074 286.27 264.016 286.331 263.947 286.378C263.878 286.426 263.8 286.46 263.718 286.477L263.596 286.495Z"
        fill="#E6E6E6" />
    <path
        d="M253.852 286.495H253.721C253.553 286.461 253.406 286.362 253.311 286.22C253.216 286.078 253.182 285.903 253.215 285.736L262.34 241.805C262.372 241.658 262.453 241.526 262.571 241.432C262.689 241.339 262.835 241.288 262.985 241.29H279.717C279.866 241.29 280.01 241.342 280.126 241.435C280.241 241.529 280.322 241.659 280.354 241.805L289.47 285.736C289.487 285.82 289.487 285.907 289.471 285.991C289.454 286.075 289.422 286.156 289.374 286.227C289.327 286.299 289.266 286.361 289.195 286.409C289.123 286.457 289.043 286.491 288.959 286.508C288.875 286.525 288.788 286.525 288.704 286.509C288.619 286.493 288.539 286.46 288.467 286.412C288.396 286.365 288.334 286.304 288.286 286.233C288.238 286.162 288.204 286.082 288.187 285.997L279.15 242.581H263.448L254.445 285.997C254.412 286.133 254.336 286.254 254.23 286.343C254.123 286.433 253.991 286.486 253.852 286.495Z"
        fill="#E6E6E6" />
    <path
        d="M362.275 273.75H364.072C364.072 270.051 364.072 260.665 364.264 239.135C364.578 200.124 365.206 197.751 365.206 197.751L360.932 215.765C358.21 235.698 361.699 255.762 362.275 273.75Z"
        fill="#E6E6E6" />
    <path
        d="M354.311 209.083C344.889 199.775 326.5 198.528 307.71 197.743C300.339 197.437 328.297 211.604 342.316 222.212C353.15 230.447 359.833 232.392 363.444 241.273C363.863 229.749 362.423 217.109 354.311 209.083Z"
        fill="#E6E6E6" />
    <path
        d="M364.639 188.845C371.025 176.719 387.085 165.291 405.107 160.93C412.173 159.229 388.707 183.314 379.809 198.859C372.883 210.932 363.697 225.099 362.275 235.288C360.12 215.146 358.271 200.97 364.639 188.845Z"
        fill="#E0E0E0" />
    <path
        d="M363.863 285.422C360.842 285.416 357.937 284.257 355.742 282.182C353.547 280.106 352.227 277.271 352.051 274.256L350.97 263.561H376.686L375.605 274.256C375.43 277.259 374.119 280.084 371.939 282.158C369.759 284.231 366.872 285.398 363.863 285.422Z"
        fill="#EBEBEB" />
    <path d="M378.37 267.678H349.312L348.475 255.762H379.199L378.37 267.678Z" fill="#F0F0F0" />
    <path d="M389.178 18.1274H241.281V123.873H389.178V18.1274Z" fill="#E0E0E0" />
    <path d="M385.916 18.1274H241.281V123.873H385.916V18.1274Z" fill="#F0F0F0" />
    <path d="M380.498 22.6025H246.114V116.955H380.498V22.6025Z" fill="#FAFAFA" />
    <path d="M391.289 13.5127H236.274V15.3621H391.289V13.5127Z" fill="#E0E0E0" />
    <path
        d="M235.035 17.0542C236.461 17.0542 237.617 15.8981 237.617 14.472C237.617 13.046 236.461 11.8899 235.035 11.8899C233.609 11.8899 232.453 13.046 232.453 14.472C232.453 15.8981 233.609 17.0542 235.035 17.0542Z"
        fill="#E0E0E0" />
    <path
        d="M391.289 17.0542C392.715 17.0542 393.871 15.8981 393.871 14.472C393.871 13.046 392.715 11.8899 391.289 11.8899C389.863 11.8899 388.707 13.046 388.707 14.472C388.707 15.8981 389.863 17.0542 391.289 17.0542Z"
        fill="#E0E0E0" />
    <path opacity="0.7" d="M367.16 22.6025L324.555 116.955H307.762L350.368 22.6025H367.16Z"
        fill="white" />
    <path opacity="0.7" d="M334.918 22.6025L292.313 116.955H262.34L304.945 22.6025H334.918Z"
        fill="white" />
    <path d="M389.178 60.5842H241.281V63.7945H389.178V60.5842Z" fill="#E0E0E0" />
    <path d="M389.178 55.8647H241.281V59.075H389.178V55.8647Z" fill="#E0E0E0" />
    <path d="M389.178 51.1541H241.281V54.3643H389.178V51.1541Z" fill="#E0E0E0" />
    <path d="M389.178 46.4348H241.281V49.645H389.178V46.4348Z" fill="#E0E0E0" />
    <path d="M389.178 41.7241H241.281V44.9343H389.178V41.7241Z" fill="#E0E0E0" />
    <path d="M389.178 37.0137H241.281V40.2239H389.178V37.0137Z" fill="#E0E0E0" />
    <path d="M389.178 32.2942H241.281V35.5044H389.178V32.2942Z" fill="#E0E0E0" />
    <path d="M389.178 27.5835H241.281V30.7937H389.178V27.5835Z" fill="#E0E0E0" />
    <path d="M389.178 22.8728H241.281V26.083H389.178V22.8728Z" fill="#E0E0E0" />
    <path d="M389.178 18.1536H241.281V21.3638H389.178V18.1536Z" fill="#E0E0E0" />
    <path d="M188.539 17.2637H161.505V44.2976H188.539V17.2637Z" fill="#F0F0F0" />
    <path d="M186.428 17.2637H159.394V44.2976H186.428V17.2637Z" fill="#F5F5F5" />
    <path d="M184.352 19.3486H161.479V42.2215H184.352V19.3486Z" fill="#FAFAFA" />
    <path d="M162.125 19.3486H161.479V42.2215H162.125V19.3486Z" fill="#F0F0F0" />
    <path
        d="M181.604 25.4549V35.9841C180.721 35.9841 179.873 36.3352 179.248 36.9601C178.623 37.585 178.272 38.4326 178.272 39.3164H168.537C168.537 38.8781 168.45 38.444 168.282 38.0392C168.114 37.6343 167.868 37.2666 167.558 36.957C167.247 36.6475 166.879 36.4022 166.473 36.2352C166.068 36.0683 165.634 35.9829 165.196 35.9841V25.4549C165.634 25.4561 166.068 25.3707 166.473 25.2038C166.879 25.0368 167.247 24.7915 167.558 24.482C167.868 24.1724 168.114 23.8047 168.282 23.3998C168.45 22.9949 168.537 22.5609 168.537 22.1226H178.272C178.272 22.5602 178.358 22.9935 178.526 23.3978C178.693 23.8021 178.939 24.1694 179.248 24.4789C179.557 24.7883 179.925 25.0338 180.329 25.2012C180.733 25.3687 181.167 25.4549 181.604 25.4549Z"
        fill="white" />
    <path d="M139.488 17.0457H48.7465V63.2536H139.488V17.0457Z" fill="#E6E6E6" />
    <path d="M135.806 17.0457H45.0652V63.2536H135.806V17.0457Z" fill="#F0F0F0" />
    <path d="M132.544 21.0759H48.4848V58.1592H132.544V21.0759Z" fill="#F5F5F5" />
    <path opacity="0.7" d="M112.654 21.0759L96.3851 58.1592H85.0534L102.247 21.0759H112.654Z"
        fill="white" />
    <path opacity="0.7" d="M98.3566 21.0759L80.9708 58.1592H75.92L93.5675 21.0759H98.3566Z"
        fill="white" />
    <path
        d="M113.631 54.7221C113.631 54.7221 108.083 53.4833 107.298 46.3301C106.574 39.6916 109.531 38.3744 109.531 38.3744C109.531 38.3744 105.754 31.5875 112.061 27.6882C118.368 23.7888 128.025 28.988 131.741 27.2258C135.457 25.4637 139.592 26.4494 138.415 31.6835C137.237 36.9176 131.724 38.2784 131.724 38.2784L118.996 36.0452C118.996 36.0452 124.483 50.3516 121.229 53.0472C117.976 55.7427 113.631 54.7221 113.631 54.7221Z"
        fill="#263238" />
    <path
        d="M135.806 33.6375C135.806 33.6375 138.554 44.3149 135.806 46.1556C133.058 47.9962 132.465 35.2164 132.465 35.2164L135.806 33.6375Z"
        fill="#263238" />
    <path
        d="M115.559 137.054L112.829 142.898L107.987 142.2C103.425 142.933 101.523 140.342 101.523 140.342L98.6532 137.725C82.6108 122.704 79.9065 115.044 81.2848 108.999C82.7417 102.614 92.4072 83.832 95.3208 79.4616C98.2345 75.0911 100.433 73.896 100.433 73.896C105.719 71.6192 109.723 73.2592 111.564 78.912C113.056 83.4831 109.671 88.2548 107.063 91.7005C103.854 95.9187 100.889 100.317 98.1821 104.873C97.3098 106.373 96.4374 107.9 95.6174 109.435C95.2598 110.098 93.2883 112.977 93.5064 113.561C94.8498 117.304 101.602 127.929 103.974 131.61L104.794 132.884C113.553 134.14 115.559 137.054 115.559 137.054Z"
        fill="#263238" />
    <path
        d="M206.684 75.3267L201.598 78.2316C201.598 78.2316 200.499 80.395 198.685 83.4221C194.559 90.3223 186.751 101.741 179.851 102.509C170.787 103.268 161.261 99.0719 151.692 92.6515C142.122 86.231 145.498 71.5408 145.498 71.5408C145.498 71.5408 151.212 73.1459 160.057 79.6884C168.903 86.231 176.405 90.2263 178.586 91.0725C178.586 91.0725 186.088 88.6561 194.21 79.2174L196.513 71.8199L204.146 69.2029L206.684 75.3267Z"
        fill="#263238" />
    <path
        d="M100.11 96.3589C100.442 96.8299 109.043 139.051 109.043 139.051H149.223C149.223 139.051 149.581 113.239 150.244 107.115C150.907 100.991 154.972 75.7105 145.498 71.5407C145.498 71.5407 135.85 69.2465 128.732 69.1505C124.446 69.0925 120.165 69.4577 115.952 70.2409C115.952 70.2409 103.626 70.8952 100.424 73.8786C97.2226 76.862 100.11 96.3589 100.11 96.3589Z"
        fill="#263238" />
    <path
        d="M149.223 138.484C149.223 138.484 148.543 199.383 146.719 213.951C144.896 228.519 140.168 291.476 140.168 291.476L128.234 288.606C128.234 288.606 127.362 242.782 126.115 220.022C124.867 197.263 125.146 170.299 125.146 170.299C125.146 170.299 116.423 227.001 113.064 232.462C109.706 237.923 96.0449 269.484 87.2343 285.256L77.5164 276.759C77.5164 276.759 93.3407 226.39 96.0449 217.894C98.7492 209.397 101.105 146.362 109.043 139.051L149.223 138.484Z"
        fill="#407BFF" />
    <path
        d="M85.76 283.407L83.3349 287.114L80.0636 292.121L73.3815 288.649L76.1206 283.119L78.1619 279.019L85.76 283.407Z"
        fill="#CE7A63" />
    <path
        d="M206.684 75.3267L201.598 78.2316C201.598 78.2316 200.499 80.395 198.685 83.4221L194.21 79.2174L196.513 71.8199L204.146 69.2029L206.684 75.3267Z"
        fill="#CE7A63" />
    <path opacity="0.3"
        d="M149.214 138.484C149.214 138.484 148.542 199.383 146.719 213.942C144.896 228.501 140.168 291.476 140.168 291.476L128.383 289.496C128.383 289.496 127.292 242.782 126.088 220.014C125.748 213.523 125.146 208.586 125.015 204.791C124.885 200.996 124.911 194.323 125.015 187.789C125.129 178.333 125.338 169.138 125.338 169.138L125.076 170.813C125.076 171.058 124.998 171.328 124.946 171.616L124.893 171.965C123.035 183.707 115.952 227.699 113.073 232.427C109.697 237.923 96.0449 269.484 87.2343 285.256L77.5164 276.759C77.5164 276.759 93.3058 226.382 96.0362 217.894C98.7666 209.406 101.096 146.362 109.034 139.043L149.214 138.484Z"
        fill="black" />
    <path opacity="0.2"
        d="M125.042 170.805C125.042 171.049 124.963 171.319 124.911 171.607L125.042 170.805Z"
        fill="black" />
    <path opacity="0.2"
        d="M126.952 158.583C126.952 158.583 126.725 176.03 124.981 187.78C125.094 178.324 125.303 169.13 125.303 169.13L126.952 158.583Z"
        fill="black" />
    <path
        d="M130.398 67.4843C131.568 68.3972 132.9 69.0809 134.323 69.4994C134.323 69.4994 132.291 71.942 125.774 71.4622C123.236 71.2703 120.008 72.6573 115.96 70.2409C115.96 70.2409 117.653 60.5754 116.911 54.8528C116.911 54.8528 110.22 51.9828 111.817 47.6298C113.265 43.6694 117.775 48.2143 118.595 49.0779C117.792 48.0572 112.977 41.6281 116.484 36.3678C117.607 34.6885 119.085 33.2765 120.814 32.2318C122.543 31.1871 124.481 30.5353 126.49 30.3225L132.02 31.8055L134.245 37.0395C134.245 37.0395 137.219 41.0698 137.429 49.1389C137.638 57.2081 132.971 60.0694 129.578 61.029C129.578 61.029 129.482 61.9013 129.482 63.079C129.438 64.6579 129.586 66.7428 130.398 67.4843Z"
        fill="#CE7A63" />
    <path
        d="M132.151 49.7759L131.279 43.2595L134.951 48.3889C134.604 48.7987 134.176 49.1331 133.695 49.3717C133.213 49.6102 132.688 49.7477 132.151 49.7759Z"
        fill="#BA4D3C" />
    <path
        d="M125.774 50.1858C126.284 50.8467 126.976 51.3436 127.766 51.615C128.555 51.8863 129.406 51.9202 130.215 51.7124"
        stroke="#263238" stroke-width="0.739567" stroke-linecap="round" stroke-linejoin="round" />
    <path d="M124.108 41.1745C124.108 41.1745 125.155 38.889 127.301 39.2379" stroke="#263238"
        stroke-width="0.739567" stroke-linecap="round" stroke-linejoin="round" />
    <path
        d="M133.538 38.3831C134.177 38.2997 134.827 38.3692 135.433 38.5861C136.04 38.803 136.586 39.161 137.028 39.6306"
        stroke="#263238" stroke-width="0.739567" stroke-linecap="round" stroke-linejoin="round" />
    <path
        d="M128.016 44.1403C128.016 44.7771 127.694 45.2918 127.301 45.2918C126.908 45.2918 126.586 44.7771 126.586 44.1403C126.586 43.5035 126.908 42.9976 127.301 42.9976C127.694 42.9976 128.016 43.5122 128.016 44.1403Z"
        fill="#263238" />
    <path
        d="M135.274 43.6693C135.274 44.2974 134.951 44.8121 134.559 44.8121C134.166 44.8121 133.844 44.2974 133.844 43.6693C133.844 43.0412 134.166 42.5178 134.559 42.5178C134.951 42.5178 135.274 43.0325 135.274 43.6693Z"
        fill="#263238" />
    <path
        d="M123.192 74.4284L128.793 73.5735L130.162 78.9907L127.554 83.841H126.054L123.192 79.488V74.4284Z"
        fill="#407BFF" />
    <path
        d="M126.054 83.8408L123.192 109.435L128.426 114.477L132.204 109.322L127.554 83.8408H126.054Z"
        fill="#407BFF" />
    <path opacity="0.3"
        d="M123.192 74.4284L128.793 73.5735L130.162 78.9907L127.554 83.841H126.054L123.192 79.488V74.4284Z"
        fill="black" />
    <path opacity="0.3"
        d="M126.054 83.8408L123.192 109.435L128.426 114.477L132.204 109.322L127.554 83.8408H126.054Z"
        fill="black" />
    <path
        d="M125.774 71.4622L128.609 78.9295C128.609 78.9295 135.937 75.2744 137.01 69.1505L131.776 67.3535C129.955 68.9684 127.939 70.3487 125.774 71.4622Z"
        fill="white" />
    <path
        d="M116.458 66.865C116.458 66.865 121.526 69.5344 125.774 71.4622L124.108 78.9295C124.108 78.9295 115.716 73.9048 112.899 69.9793L116.458 66.865Z"
        fill="white" />
    <path opacity="0.2"
        d="M129.543 61.0029C129.543 61.0029 129.447 61.8753 129.447 63.0529C128.004 62.6969 126.612 62.1606 125.303 61.4565C126.732 61.6505 128.187 61.4948 129.543 61.0029Z"
        fill="black" />
    <path
        d="M118.639 49.0779C119.587 45.2961 119.25 41.3061 117.679 37.7375C117.679 37.7375 127.632 40.59 127.659 31.5264C127.659 31.5264 114.382 33.6462 113.701 38.3655C113.021 43.0849 117.505 47.7956 118.639 49.0779Z"
        fill="#263238" />
    <path
        d="M127.51 32.8611C127.51 32.8611 131.314 38.2609 134.576 37.1443V29.2932H123.236L117.243 32.8698L121.395 37.1443L124.483 34.6058L127.51 32.8611Z"
        fill="#263238" />
    <path
        d="M139.374 301.29L130.86 300.854L130.651 294.398L130.494 289.688L137.385 288.999L138.746 289.06L139.043 294.887L139.374 301.29Z"
        fill="#CE7A63" />
    <path opacity="0.2"
        d="M139.043 294.887L130.651 294.398L130.494 289.688L137.385 288.999L138.746 289.06L139.043 294.887Z"
        fill="black" />
    <path d="M125.87 292.784L142.244 292.383L143.169 287.044H126.254L125.87 292.784Z" fill="#263238" />
    <path
        d="M141.206 301.647C141.206 301.647 144.059 293.238 146.283 294.075C148.508 294.913 141.206 301.647 141.206 301.647Z"
        stroke="#407BFF" stroke-width="0.739567" stroke-miterlimit="10" />
    <path
        d="M141.695 301.647C141.695 301.647 146.004 297.547 147.74 299.144C149.476 300.74 141.695 301.647 141.695 301.647Z"
        stroke="#407BFF" stroke-width="0.739567" stroke-miterlimit="10" />
    <path opacity="0.2"
        d="M85.76 283.407L83.3349 287.114L76.1206 283.119L78.1619 279.019L85.76 283.407Z"
        fill="black" />
    <path d="M74.5155 280.057L87.0249 286.678L89.9734 283.049L77.2285 275.887L74.5155 280.057Z"
        fill="#263238" />
    <path
        d="M82.48 294.346C82.48 294.346 86.0217 289.914 87.4611 290.961C88.9004 292.008 82.48 294.346 82.48 294.346Z"
        stroke="#407BFF" stroke-width="0.739567" stroke-miterlimit="10" />
    <path
        d="M83.1255 294.346C83.1255 294.346 89.2319 292.906 89.4936 294.887C89.7553 296.867 83.1255 294.346 83.1255 294.346Z"
        stroke="#407BFF" stroke-width="0.739567" stroke-miterlimit="10" />
    <path
        d="M81.7385 289.618L75.1698 285.928C74.7112 285.673 74.1706 285.61 73.6658 285.752C73.161 285.895 72.7327 286.23 72.4742 286.687L69.517 291.921C69.2598 292.38 69.1953 292.923 69.3375 293.43C69.4798 293.937 69.8173 294.366 70.2759 294.625L88.9179 305.093C89.3773 305.35 89.92 305.415 90.4269 305.273C90.9338 305.13 91.3636 304.793 91.6222 304.334C91.8518 303.924 91.9287 303.446 91.8393 302.984C91.7499 302.523 91.4999 302.108 91.1336 301.813C88.726 299.885 83.7885 295.454 82.6981 290.865C82.6324 290.603 82.5133 290.356 82.3482 290.142C82.1831 289.927 81.9756 289.749 81.7385 289.618Z"
        fill="#263238" />
    <path
        d="M138.589 298.019H129.866C129.256 298.021 128.673 298.265 128.243 298.696C127.813 299.128 127.571 299.712 127.571 300.322V307.3C127.571 307.909 127.813 308.492 128.243 308.923C128.674 309.353 129.257 309.595 129.866 309.595H154.605C154.907 309.596 155.207 309.537 155.486 309.422C155.765 309.308 156.019 309.139 156.233 308.926C156.447 308.713 156.617 308.459 156.733 308.18C156.849 307.901 156.908 307.602 156.908 307.3C156.908 306.756 156.715 306.23 156.363 305.815C156.012 305.4 155.525 305.123 154.989 305.032C151.456 304.448 143.971 302.773 140.264 298.769C140.051 298.536 139.792 298.349 139.504 298.22C139.216 298.091 138.905 298.023 138.589 298.019Z"
        fill="#263238" />
    <path
        d="M115.559 137.054L112.829 142.898L107.987 142.2C103.425 142.933 101.523 140.342 101.523 140.342L98.6533 137.725L103.983 131.619L104.803 132.893C113.553 134.14 115.559 137.054 115.559 137.054Z"
        fill="#CE7A63" />
    <path d="M194.21 78.8335L192.517 81.0841L197.472 85.411L198.929 83.422L194.21 78.8335Z"
        fill="white" />
    <path d="M98.4351 137.97L104.149 131.287L102.221 128.836L96.2543 136.016L98.4351 137.97Z"
        fill="white" />
    <path
        d="M208.132 37.2929C207.542 39.0459 207.351 40.9084 207.571 42.7448C207.791 44.5812 208.418 46.3455 209.406 47.9093C212.791 53.0387 212.023 36.0803 212.023 36.0803L208.132 37.2929Z"
        fill="#263238" />
    <path
        d="M215.067 75.7544C215.067 75.7544 194.131 105.065 190.04 103.835C185.949 102.605 176.519 84.3208 176.519 84.3208L175.969 77.0891L169.793 68.5837L161.942 74.7774L165.745 81.8521C165.745 81.8521 166.879 85.5246 170.229 86.554C170.229 86.554 177.932 110.203 187.676 114.643C197.42 119.084 210.941 90.907 210.941 90.907L215.067 75.7544Z"
        fill="#FFB573" />
    <path
        d="M259.888 289.347L249.08 293.456C235.123 262.802 223.782 173.404 223.782 173.404C223.782 173.404 223.451 175.908 222.953 179.938C221.331 193.285 217.894 223.285 218.592 234.023C219.7 252.09 216.507 296.736 216.507 296.736L203.422 298.289C203.422 298.289 203.866 254.157 202 229.705C200.133 205.254 205.847 142.515 205.847 142.515L241.936 140.857C248.129 147.975 249.673 235.585 251.226 243.637C252.779 251.688 259.888 289.347 259.888 289.347Z"
        fill="#263238" />
    <path
        d="M202.288 80.1248C202.375 79.6448 202.559 79.1874 202.827 78.7797C203.095 78.3721 203.443 78.0226 203.849 77.7521C206.771 75.798 214.265 70.9303 216.28 70.7733C218.81 70.5727 232.034 67.4671 237.277 70.7733C242.52 74.0795 245.835 83.7974 245.835 83.7974C245.835 83.7974 245.451 128.714 243.113 143.3L205.786 142.524C205.786 142.524 199.915 93.2885 202.288 80.1248Z"
        fill="#407BFF" />
    <path
        d="M244.09 96.4376L249.917 107.133C249.917 107.133 250.694 131.244 248.757 137.464L245.835 143.3V152.66L252.814 153.628L254.759 146.24C254.759 146.24 255.919 140.796 254.759 138.467C254.759 138.467 262.924 119.799 259.993 103.661C259.993 103.661 245.259 71.1746 236.222 70.276C227.184 69.3775 244.09 96.4376 244.09 96.4376Z"
        fill="#FFB573" />
    <path
        d="M232.191 70.3197C232.191 70.3197 226.425 75.8853 221.165 75.7282C215.905 75.5712 217.344 71.0874 217.344 71.0874C220.048 70.5814 220.929 67.8772 221.182 65.5567C221.307 64.3969 221.307 63.2271 221.182 62.0674C221.182 62.0674 214.91 62.0674 211.386 54.4082C207.862 46.749 211.386 36.656 211.386 36.656C211.386 36.656 224.707 33.2888 230.674 34.9724C236.64 36.656 231.904 51.6516 231.904 51.6516C230.351 60.0697 232.191 70.3197 232.191 70.3197Z"
        fill="#FFB573" />
    <path
        d="M220.502 44.6378C220.502 45.2397 220.171 45.7282 219.769 45.7282C219.368 45.7282 219.045 45.2397 219.045 44.6378C219.045 44.0359 219.368 43.5474 219.769 43.5474C220.171 43.5474 220.502 44.0359 220.502 44.6378Z"
        fill="#263238" />
    <path
        d="M213.07 45.3619C213.07 45.9638 212.747 46.4523 212.346 46.4523C211.944 46.4523 211.613 45.9638 211.613 45.3619C211.613 44.76 211.944 44.2715 212.346 44.2715C212.747 44.2715 213.07 44.7338 213.07 45.3619Z"
        fill="#263238" />
    <path
        d="M215.53 45.8853V51.7387C215.049 51.888 214.534 51.8915 214.052 51.7487C213.569 51.6058 213.139 51.3231 212.817 50.9361L215.53 45.8853Z"
        fill="#ED893E" />
    <path d="M218.016 52.7593C218.016 52.7593 221.121 52.7593 222.256 50.2034" stroke="#263238"
        stroke-width="0.739567" stroke-linecap="round" stroke-linejoin="round" />
    <path d="M219.045 40.4331C219.045 40.4331 221.75 40.215 222.535 41.8986" stroke="#263238"
        stroke-width="0.739567" stroke-linecap="round" stroke-linejoin="round" />
    <path
        d="M209.807 42.492C210.02 41.9604 210.365 41.4917 210.809 41.13C211.253 40.7683 211.782 40.5255 212.346 40.4246"
        stroke="#263238" stroke-width="0.739567" stroke-linecap="round" stroke-linejoin="round" />
    <path opacity="0.2"
        d="M225.937 61.1338C224.707 62.9456 223.085 64.4572 221.191 65.5566C221.316 64.3968 221.316 63.227 221.191 62.0672C222.819 62.0702 224.431 61.7531 225.937 61.1338Z"
        fill="black" />
    <path
        d="M219.612 75.9114L222.779 75.6147L223.669 82.2271L222.02 85.2541H220.136L218.374 81.9741L219.612 75.9114Z"
        fill="#263238" />
    <path
        d="M231.808 67.6589C228.652 70.8294 225.07 73.5451 221.165 75.7281L223.049 80.4039C223.049 80.4039 230.953 79.043 234.337 69.6653L231.808 67.6589Z"
        fill="white" />
    <path
        d="M221.165 75.7282L219.045 80.404C219.045 80.404 215.835 77.2374 215.067 71.1223L219.045 68.5837C219.045 68.5837 219.194 73.1635 221.165 75.7282Z"
        fill="white" />
    <path
        d="M220.275 83.5095L218.121 111.468L221.741 115.865L225.082 111.198L221.819 83.5095H220.275Z"
        fill="#263238" />
    <path
        d="M234.59 47.4555C234.59 47.4555 226.949 48.3801 225.684 37.3101C225.684 37.3101 212.224 41.3316 207.365 37.2054C202.506 33.0793 206.449 27.7143 206.449 27.7143C206.865 28.7582 207.364 29.7675 207.94 30.7327V27.2433C208.757 28.3165 209.659 29.3228 210.636 30.2529C214.556 30.8838 218.573 30.1082 221.976 28.0633C227.812 24.5739 235.236 31.195 233.866 36.2982C233.91 36.3244 240.487 41.4537 234.59 47.4555Z"
        fill="#263238" />
    <path
        d="M229.348 47.7695C229.348 47.7695 231.406 40.468 234.791 43.0414C238.176 45.6148 233.352 52.8029 230.996 52.3929C228.641 51.9829 229.348 47.7695 229.348 47.7695Z"
        fill="#FFB573" />
    <path
        d="M169.993 88.1066L177.356 84.0415C177.356 84.0415 185.268 99.3249 189.857 101.244C189.857 101.244 199.182 91.8315 202.253 80.0461L206.431 99.6913C206.431 99.6913 199.199 114.966 190.057 115.184C180.915 115.402 173.422 98.0077 169.993 88.1066Z"
        fill="#407BFF" />
    <path
        d="M238.856 90.3573L249.952 108.171L248.103 135.763L256.451 137.394C256.451 137.394 262.88 118.203 260.028 103.678C257.96 93.1314 251.427 79.7584 243.846 73.3641C241.152 71.1555 237.817 69.8738 234.337 69.709C234.337 69.709 232.287 74.4371 232.392 78.4324C232.497 82.4277 238.856 90.3573 238.856 90.3573Z"
        fill="#407BFF" />
    <path opacity="0.2"
        d="M245.538 101.07L238.856 90.3574C239.432 91.2821 245.538 109.793 245.538 109.793V101.07Z"
        fill="black" />
    <path opacity="0.2"
        d="M223.782 173.404C223.782 173.404 223.451 175.908 222.953 179.938L221.209 158.723L223.782 173.404Z"
        fill="black" />
    <path
        d="M255.396 302.563L262.165 299.414L260.22 294.102L258.798 290.22L252.971 291.921L251.889 292.409L253.555 297.251L255.396 302.563Z"
        fill="#FFB573" />
    <path opacity="0.2"
        d="M253.555 297.251L260.22 294.102L258.798 290.22L252.971 291.921L251.889 292.409L253.555 297.251Z"
        fill="black" />
    <path
        d="M254.018 303.453C254.018 303.453 248.94 297.556 247.405 298.961C245.87 300.365 254.018 303.453 254.018 303.453Z"
        stroke="#407BFF" stroke-width="0.739567" stroke-miterlimit="10" />
    <path
        d="M253.625 303.575C253.625 303.575 248.775 301.656 247.885 303.523C246.995 305.39 253.625 303.575 253.625 303.575Z"
        stroke="#407BFF" stroke-width="0.739567" stroke-miterlimit="10" />
    <path
        d="M254.96 299.65L262.034 296.788C262.528 296.59 263.081 296.595 263.571 296.802C264.062 297.01 264.45 297.403 264.651 297.896L266.937 303.575C267.036 303.82 267.087 304.082 267.085 304.346C267.083 304.61 267.029 304.871 266.926 305.114C266.823 305.357 266.673 305.577 266.485 305.762C266.297 305.947 266.074 306.094 265.829 306.192L245.722 314.314C245.477 314.414 245.214 314.465 244.949 314.463C244.685 314.461 244.423 314.407 244.179 314.303C243.936 314.199 243.715 314.048 243.531 313.858C243.346 313.668 243.201 313.444 243.104 313.197C242.925 312.756 242.908 312.266 243.056 311.814C243.205 311.362 243.51 310.977 243.916 310.728C246.585 309.097 252.133 305.276 253.826 300.81C253.921 300.547 254.072 300.308 254.268 300.108C254.463 299.908 254.699 299.752 254.96 299.65Z"
        fill="#263238" />
    <path
        d="M205.934 309.237L213.392 309.054L213.724 303.401L213.968 299.275L207.949 298.516L206.763 298.533L206.361 303.636L205.934 309.237Z"
        fill="#FFB573" />
    <path opacity="0.2"
        d="M206.361 303.636L213.724 303.401L213.968 299.275L207.949 298.516L206.763 298.533L206.361 303.636Z"
        fill="black" />
    <path
        d="M204.311 309.507C204.311 309.507 202.008 302.075 200.046 302.755C198.083 303.436 204.311 309.507 204.311 309.507Z"
        stroke="#407BFF" stroke-width="0.739567" stroke-miterlimit="10" />
    <path
        d="M203.884 309.499C203.884 309.499 200.203 305.8 198.65 307.161C197.097 308.522 203.884 309.499 203.884 309.499Z"
        stroke="#407BFF" stroke-width="0.739567" stroke-miterlimit="10" />
    <path
        d="M206.693 306.393L214.326 306.594C214.591 306.6 214.851 306.659 215.093 306.767C215.335 306.874 215.553 307.029 215.736 307.221C215.918 307.413 216.061 307.639 216.155 307.886C216.25 308.133 216.296 308.396 216.289 308.661L216.123 314.767C216.116 315.032 216.057 315.292 215.949 315.534C215.842 315.775 215.687 315.993 215.495 316.174C215.303 316.356 215.077 316.498 214.83 316.592C214.583 316.686 214.32 316.73 214.055 316.722L192.378 316.155C192.113 316.148 191.853 316.089 191.612 315.981C191.37 315.873 191.153 315.719 190.971 315.527C190.789 315.335 190.648 315.109 190.554 314.862C190.46 314.615 190.416 314.351 190.424 314.087C190.438 313.61 190.621 313.153 190.941 312.799C191.26 312.444 191.695 312.214 192.168 312.15C195.274 311.714 201.878 310.406 205.21 306.995C205.403 306.799 205.634 306.645 205.889 306.541C206.144 306.438 206.418 306.387 206.693 306.393Z"
        fill="#263238" />
    <path d="M248.845 296.492L245.102 289.976L261.389 283.948L262.532 292.584L248.845 296.492Z"
        fill="#407BFF" />
    <path d="M201.607 292.531V300.958H218.696L219.351 292.531H201.607Z" fill="#407BFF" />
    <path
        d="M292.828 86.554C292.828 86.554 287.873 106.094 282.639 112.149C282.639 112.149 273.139 102.657 270.252 94.3964C270.252 94.3964 269.981 90.5406 267.225 88.8919L263.099 83.2478L256.216 85.7253L257.864 91.2297L265.026 95.2251C265.026 95.2251 274.108 120.27 282.36 120.13C290.612 119.991 294.337 108.982 294.337 108.982L298.873 85.4287L292.828 86.554Z"
        fill="#FF8B7B" />
    <path
        d="M265.192 97.5716L270.287 94.3963C270.287 94.3963 278.958 108.563 283.014 111.407C283.014 111.407 288.065 102.195 289.792 94.6144C290.698 90.4895 291.813 86.4133 293.133 82.4016L298.908 90.7674C298.908 90.7674 295.113 117.409 287.262 120.113C279.411 122.817 274.971 115.149 273.183 112.131C271.394 109.113 265.192 97.5716 265.192 97.5716Z"
        fill="#263238" />
    <path
        d="M308.853 289.347C308.853 289.67 314.087 297.068 314.087 297.068L319.565 289.984L313.66 281.618L308.853 289.347Z"
        fill="#FF8B7B" />
    <path
        d="M311.618 294.241L317.288 288.091C317.687 287.662 318.24 287.409 318.825 287.386C319.41 287.363 319.98 287.573 320.411 287.969L325.331 292.523C325.545 292.719 325.717 292.955 325.838 293.218C325.96 293.481 326.028 293.765 326.04 294.054C326.051 294.344 326.005 294.633 325.905 294.904C325.804 295.176 325.651 295.425 325.454 295.637L309.333 313.084C308.934 313.51 308.384 313.762 307.801 313.785C307.218 313.808 306.649 313.6 306.218 313.206C305.834 312.851 305.587 312.372 305.523 311.852C305.46 311.333 305.582 310.808 305.869 310.371C307.754 307.501 311.452 301.133 311.042 295.907C311.018 295.605 311.056 295.301 311.155 295.014C311.254 294.727 311.412 294.464 311.618 294.241Z"
        fill="#263238" />
    <path d="M297.102 285.91L313.014 271.953L318.867 284.105L307.989 293.561L297.102 285.91Z"
        fill="#407BFF" />
    <path
        d="M291.284 127.755C291.284 127.755 274.125 202.663 273.837 220.633C273.549 238.603 289.225 269.772 299.135 284.366L312.482 273.75L293.142 226.643L302.118 167.987L312.482 286.835L325.288 288.475C325.288 288.475 326.919 243.532 325.288 227.193C323.657 210.854 332.729 155.286 326.012 134.036L291.284 127.755Z"
        fill="#263238" />
    <path
        d="M326.055 134.018C326.055 134.018 328.978 106.155 334.587 95.2424L336.768 82.6196C336.768 82.6196 332.711 77.6298 323.517 77.7868C314.322 77.9439 310.275 76.9145 310.275 76.9145C310.275 76.9145 298.263 76.1032 295.445 78.7551C292.627 81.4071 292.488 93.4105 292.017 99.1767C291.546 104.943 290.446 131.453 290.446 131.453L326.055 134.018Z"
        fill="#407BFF" />
    <path
        d="M325.244 76.8621C325.244 76.8621 311.426 93.044 314.043 134.018L330.199 136.792L328.001 119.799L338.356 88.7346C338.356 88.7346 340.528 79.0604 325.244 76.8621Z"
        fill="#263238" />
    <path
        d="M309.49 76.862C309.49 76.862 294.608 87.7314 293.465 129.438L285.675 129.656L292.052 96.2978C290.932 93.2871 290.786 90.001 291.633 86.9027C292.505 83.9018 293.447 80.3776 295.454 78.7201C298.647 76.0769 303.732 76.3037 309.49 76.862Z"
        fill="#263238" />
    <path
        d="M327.722 86.6497C327.722 86.6497 336.986 109.139 334.7 118.237C334.7 118.237 318.719 114.129 311.348 106.984C311.348 106.984 309.036 103.085 305.241 102.797L297.949 99.0545L292.034 105.266L296.658 110.168L306.253 110.596C306.253 110.596 328.934 132.099 337.536 127.615C341.557 125.513 343.284 121.43 343.982 117.679C344.633 113.998 344.43 110.217 343.389 106.626L337.239 84.6172L327.722 86.6497Z"
        fill="#FF8B7B" />
    <path
        d="M305.669 112.742L311.985 105.396C311.985 105.396 326.012 116.214 334.666 118.237C333.911 110.848 332.746 103.506 331.176 96.2456L326.814 88.7347L327.216 85.5769L337.788 84.2073C337.788 84.2073 347.384 111.032 344.837 120.697C342.29 130.363 336.82 131.323 327.608 127.755C318.396 124.187 305.669 112.742 305.669 112.742Z"
        fill="#263238" />
    <path
        d="M325.462 307.902H316.678L316.172 300.592L315.919 296.937L315.771 294.826L325.454 295.637V300.592L325.462 307.902Z"
        fill="#FF8B7B" />
    <path
        d="M316.303 304.631H324.668C325.254 304.631 325.815 304.863 326.229 305.277C326.643 305.691 326.875 306.253 326.875 306.838V313.546C326.873 314.13 326.64 314.689 326.226 315.101C325.812 315.513 325.252 315.745 324.668 315.745H300.906C300.616 315.746 300.33 315.69 300.062 315.58C299.794 315.47 299.551 315.308 299.346 315.104C299.141 314.899 298.978 314.657 298.867 314.389C298.756 314.122 298.699 313.836 298.699 313.546C298.698 313.024 298.882 312.518 299.219 312.118C299.556 311.719 300.024 311.452 300.539 311.365C303.933 310.807 311.121 309.202 314.68 305.346C314.886 305.121 315.137 304.942 315.416 304.818C315.696 304.695 315.997 304.631 316.303 304.631Z"
        fill="#263238" />
    <path opacity="0.1"
        d="M325.244 76.8621C323.652 78.967 322.306 81.247 321.231 83.6576C318.104 90.56 316.009 97.8845 315.012 105.396L325.244 97.1091L323.02 89.9821L335.468 80.9446C335.468 80.9446 332.214 77.6384 325.244 76.8621Z"
        fill="white" />
    <path opacity="0.1"
        d="M297.416 99.761C297.416 99.761 302.345 82.1833 309.49 76.862C309.49 76.862 301.019 75.6843 297.12 77.6645L297.992 89.982L294.355 91.1248L297.416 99.761Z"
        fill="white" />
    <path
        d="M335.643 47.7607C337.317 51.9566 335.52 56.676 335.686 61.186C335.756 63.2447 336.244 65.2686 336.297 67.2924C336.349 69.3162 335.878 71.5495 334.369 72.9539C333.008 74.2363 331.063 74.6201 329.231 74.9603C326.37 75.475 323.264 75.9635 320.699 74.6027C320.106 74.2886 319.565 73.8873 318.955 73.6256C317.688 73.193 316.334 73.0762 315.012 73.2854C313.693 73.4979 312.344 73.4325 311.051 73.0935C306.969 71.6716 309.778 66.0537 310.475 63.175C311.551 58.7667 312.621 54.3614 313.686 49.959C318.091 49.0866 322.461 47.8653 326.876 46.9756C328.317 46.5644 329.835 46.4987 331.307 46.7836C332.685 47.2024 334.264 48.2056 335.643 47.7607Z"
        fill="#263238" />
    <path
        d="M335.756 56.4318C335.414 57.5778 334.679 58.5664 333.68 59.2233C332.659 59.7642 332.502 60.7237 332.589 61.8403C332.773 64.4574 334.194 68.1561 329.301 70.2497C328.582 70.6093 327.775 70.7536 326.977 70.6654C326.178 70.5772 325.422 70.2602 324.799 69.7525C321.362 67.0395 320.272 59.4327 320.272 59.4327L314.043 41.4711C314.064 41.4323 314.09 41.3969 314.122 41.3665L314.174 41.2705C314.195 41.2348 314.222 41.2025 314.253 41.1745C314.474 40.8674 314.716 40.5759 314.977 40.3022C315.171 40.0761 315.378 39.8606 315.596 39.6567C317.873 37.5456 322.575 34.8501 329.318 39.3513C336.724 44.3063 337.361 52.1486 335.756 56.4318Z"
        fill="#263238" />
    <path
        d="M336.114 57.9499C336.192 60.0348 334.273 61.2299 332.624 61.8841C331.819 62.1876 330.986 62.4126 330.138 62.5558C328.603 65.1118 325.279 66.9175 325.279 66.9175C325.032 67.8651 324.883 68.8356 324.834 69.8137C324.745 72.1809 324.894 74.551 325.279 76.8884L323.028 80.3778C313.651 84.6697 310.31 76.8884 310.31 76.8884C313.747 76.522 314.846 73.6346 315.169 71.2095C315.301 70.0968 315.301 68.9723 315.169 67.8597C313.645 67.2183 312.296 66.223 311.234 64.9562C310.172 63.6894 309.428 62.1877 309.062 60.5756C307.954 55.8824 308.862 51.4684 310.807 47.1328C311.589 45.4028 312.526 43.7473 313.607 42.1866L314.043 41.48C314.064 41.4412 314.09 41.4058 314.122 41.3753C314.159 41.3074 314.203 41.2432 314.253 41.1834V41.1224C314.41 40.9217 314.637 40.6339 314.933 40.3198H314.985L326.753 38.7932L331.865 42.8758L333.654 52.995L331.037 56.1092L329.946 57.409L329.676 57.723L330.016 57.4352C332.092 55.6905 334.744 54.8181 335.712 56.4669C335.963 56.922 336.1 57.4305 336.114 57.9499Z"
        fill="#FF8B7B" />
    <path
        d="M320.22 50.3952C320.071 51.0146 319.618 51.442 319.216 51.346C318.815 51.2501 318.597 50.6656 318.745 50.0375C318.894 49.4094 319.347 48.9907 319.757 49.0867C320.167 49.1826 320.377 49.7671 320.22 50.3952Z"
        fill="#263238" />
    <path
        d="M313.52 48.5896C313.372 49.2177 312.918 49.6451 312.508 49.5492C312.098 49.4532 311.889 48.86 312.037 48.2407C312.185 47.6213 312.639 47.1851 313.049 47.2811C313.459 47.377 313.668 47.9789 313.52 48.5896Z"
        fill="#263238" />
    <path d="M319.862 49.1304L318.248 48.2581C318.248 48.2581 318.527 49.9068 319.862 49.1304Z"
        fill="#263238" />
    <path d="M313.171 47.377L311.557 46.5046C311.557 46.5046 311.862 48.1621 313.171 47.377Z"
        fill="#263238" />
    <path
        d="M315.16 49.3311L313.625 54.853C313.417 54.9181 313.199 54.9407 312.983 54.9195C312.767 54.8982 312.557 54.8335 312.366 54.7292C312.176 54.625 312.008 54.4833 311.873 54.3127C311.739 54.1421 311.64 53.9461 311.583 53.7364L315.16 49.3311Z"
        fill="#FF5652" />
    <path d="M315.491 58.6912C315.491 58.6912 319.304 59.2583 320.394 56.0742" stroke="#263238"
        stroke-width="0.739567" stroke-linecap="round" stroke-linejoin="round" />
    <path
        d="M320.272 46.0683C320.595 45.8992 320.949 45.7977 321.312 45.7701C321.675 45.7425 322.04 45.7894 322.385 45.9078C322.73 46.0262 323.046 46.2137 323.316 46.4588C323.586 46.7039 323.802 47.0014 323.953 47.3332"
        stroke="#263238" stroke-width="0.739567" stroke-linecap="round" stroke-linejoin="round" />
    <path
        d="M314.959 43.783C314.672 43.5907 314.346 43.4619 314.005 43.4053C313.664 43.3487 313.314 43.3656 312.98 43.4547C312.645 43.5439 312.334 43.7033 312.066 43.9224C311.798 44.1415 311.58 44.4151 311.426 44.7251"
        stroke="#263238" stroke-width="0.739567" stroke-linecap="round" stroke-linejoin="round" />
    <path
        d="M334.578 53.1343L330.06 57.4001H329.99C322.435 54.9575 323.953 41 323.953 41C321.816 42.3609 314.244 41.6107 314.043 41.4537C314.453 40.8486 314.923 40.2873 315.448 39.7788C315.779 39.456 316.835 39.552 317.271 39.5171L320.054 39.299L325.689 38.8454C325.855 38.8454 326.64 38.6447 326.78 38.7581L331.891 42.8407L334.578 53.1343Z"
        fill="#263238" />
    <path opacity="0.2"
        d="M319.016 68.4527C318.03 69.7411 316.676 70.6994 315.134 71.2006C315.266 70.0879 315.266 68.9635 315.134 67.8508C316.389 68.2488 317.699 68.4518 319.016 68.4527Z"
        fill="black" />
    <path opacity="0.3" d="M300.234 180.558L301.202 155.652L302.162 167.97L300.234 180.558Z"
        fill="black" />
    <path opacity="0.1" d="M325.454 296.483V300.592H316.172L315.919 296.937L325.454 296.483Z"
        fill="black" />
    <path d="M310.615 286.512L312.866 299.118H326.666L328.568 285.91L310.615 286.512Z"
        fill="#407BFF" />
</svg>