<svg width="132" height="120" viewBox="0 0 132 120" fill="none" xmlns="http://www.w3.org/2000/svg">
    <path
        d="M19.6845 109.781C45.2634 123.406 86.7377 123.406 112.317 109.781C137.896 96.1548 137.896 74.0932 112.317 60.4796C86.7377 46.8659 45.2634 46.8538 19.6845 60.4796C-5.89447 74.1053 -5.89744 96.17 19.6845 109.781Z"
        fill="#F5F5F5" />
    <path
        d="M96.1894 97.4236C102.902 97.4236 108.343 94.2229 108.343 90.2746C108.343 86.3263 102.902 83.1256 96.1894 83.1256C89.4773 83.1256 84.036 86.3263 84.036 90.2746C84.036 94.2229 89.4773 97.4236 96.1894 97.4236Z"
        fill="#E0E0E0" />
    <path
        d="M22.1634 86.5412C21.9821 84.4398 20.1185 80.2218 17.7437 77.6844C15.3689 75.147 11.8349 73.4453 9.51657 74.496C7.35577 75.471 7.85213 78.4323 10.7233 80.1552C13.5945 81.8781 17.8566 84.0007 19.3427 87.3042L22.1931 91.2648L22.1634 86.5412Z"
        fill="#407BFF" />
    <path opacity="0.1"
        d="M22.1634 86.5412C21.9821 84.4398 20.1185 80.2218 17.7437 77.6844C15.3689 75.147 11.8349 73.4453 9.51657 74.496C7.35577 75.471 7.85213 78.4323 10.7233 80.1552C13.5945 81.8781 17.8566 84.0007 19.3427 87.3042L22.1931 91.2648L22.1634 86.5412Z"
        fill="black" />
    <path
        d="M22.5617 89.4025C22.5285 89.4035 22.496 89.393 22.4695 89.3726C22.443 89.3522 22.4241 89.3233 22.416 89.2905C20.4187 82.2414 14.2246 76.9213 10.7055 75.9342C10.686 75.9288 10.6677 75.9196 10.6517 75.907C10.6357 75.8945 10.6222 75.8788 10.6122 75.8609C10.6021 75.8431 10.5956 75.8234 10.593 75.803C10.5904 75.7825 10.5917 75.7618 10.597 75.7419C10.6023 75.722 10.6113 75.7034 10.6237 75.6871C10.636 75.6708 10.6514 75.6571 10.6689 75.6468C10.6864 75.6366 10.7058 75.6299 10.7258 75.6273C10.7459 75.6246 10.7662 75.626 10.7857 75.6314C14.3702 76.6367 20.6803 82.0446 22.7043 89.1996C22.7102 89.2189 22.7123 89.2392 22.7104 89.2593C22.7085 89.2794 22.7027 89.2989 22.6933 89.3167C22.6839 89.3345 22.671 89.3502 22.6556 89.3628C22.6401 89.3755 22.6223 89.3848 22.6033 89.3904L22.5617 89.4025Z"
        fill="white" />
    <path
        d="M21.9047 94.0868C21.4708 92.9362 19.8896 91.1134 17.4464 89.7054C14.7714 88.152 11.4841 87.6191 10.6103 86.2959C9.57894 84.7123 10.8243 83.0166 13.4547 83.1135C16.0851 83.2104 20.9685 86.42 22.1693 91.8007L21.9047 94.0868Z"
        fill="#407BFF" />
    <path
        d="M22.303 92.8029C22.2735 92.8032 22.2447 92.7948 22.2199 92.7787C22.1951 92.7626 22.1754 92.7394 22.1633 92.7121C19.4883 86.7622 14.6911 85.0151 12.5363 84.9212C12.5164 84.9204 12.4968 84.9156 12.4787 84.9071C12.4606 84.8987 12.4443 84.8866 12.4308 84.8717C12.4173 84.8568 12.4067 84.8393 12.3999 84.8203C12.393 84.8012 12.3898 84.781 12.3906 84.7607C12.391 84.7404 12.3954 84.7204 12.4036 84.7019C12.4118 84.6835 12.4237 84.6669 12.4385 84.6533C12.4532 84.6396 12.4706 84.6292 12.4895 84.6227C12.5083 84.6162 12.5283 84.6137 12.5482 84.6154C14.9259 84.7153 19.6815 86.5078 22.4397 92.5849C22.4551 92.622 22.456 92.6637 22.4422 92.7014C22.4284 92.7392 22.4009 92.7701 22.3654 92.7878C22.3458 92.7971 22.3246 92.8022 22.303 92.8029Z"
        fill="white" />
    <path
        d="M102.88 83.819C102.835 82.1264 103.296 79.2923 104.931 76.4611C106.681 73.4332 108.991 71.4045 110.932 72.0222C112.739 72.5975 112.341 75.0955 109.624 77.8177C107.716 79.7283 105.802 82.1506 104.91 84.9212L103.382 88.4881L102.88 83.819Z"
        fill="#407BFF" />
    <path
        d="M102.88 83.819C102.835 82.1264 103.296 79.2923 104.931 76.4611C106.681 73.4332 108.991 71.4045 110.932 72.0222C112.739 72.5975 112.341 75.0955 109.624 77.8177C107.716 79.7283 105.802 82.1506 104.91 84.9212L103.382 88.4881L102.88 83.819Z"
        fill="#407BFF" />
    <g opacity="0.1">
        <path
            d="M102.88 83.819C102.835 82.1264 103.296 79.2923 104.931 76.4611C106.681 73.4332 108.991 71.4045 110.932 72.0222C112.739 72.5975 112.341 75.0955 109.624 77.8177C107.716 79.7283 105.802 82.1506 104.91 84.9212L103.382 88.4881L102.88 83.819Z"
            fill="black" />
    </g>
    <path
        d="M103.183 85.0756C103.207 85.0736 103.23 85.0636 103.248 85.0473C103.266 85.0309 103.279 85.009 103.284 84.9848C104.449 80.1583 107.398 75.0774 110.147 73.1758C110.169 73.1565 110.183 73.1297 110.186 73.1006C110.19 73.0715 110.184 73.0419 110.168 73.0174C110.152 72.993 110.127 72.9753 110.099 72.9677C110.072 72.96 110.042 72.963 110.016 72.976C107.225 74.9169 104.232 80.0553 103.055 84.9364C103.052 84.9515 103.051 84.9671 103.053 84.9825C103.056 84.9978 103.061 85.0125 103.069 85.0257C103.077 85.039 103.088 85.0504 103.1 85.0595C103.112 85.0686 103.127 85.0751 103.141 85.0787C103.155 85.0807 103.169 85.0797 103.183 85.0756Z"
        fill="white" />
    <path
        d="M102.865 89.2905C103.782 90.1196 104.898 90.6877 106.099 90.9377C108.179 91.401 109.148 90.4411 109.148 90.4411C109.148 90.4411 108.441 88.3973 107.291 87.7644C108.557 88.135 109.751 88.7216 110.825 89.4995C110.825 89.4995 112.097 89.5964 112.721 87.6464C112.721 87.6464 112.034 86.4049 109.538 85.6085C110.802 85.4552 112.084 85.5981 113.286 86.0264C113.449 86.1051 114.308 83.5859 114.593 82.4171C114.879 81.2483 114.409 81.2301 113.52 80.9304C112.632 80.6306 109.556 80.2884 108.961 80.7608C108.367 81.2332 107.974 82.947 107.974 82.947C107.974 82.947 107.49 81.9356 107.677 81.0666C107.057 80.8443 106.385 80.82 105.751 80.997C104.714 81.2998 104.749 81.8054 104.705 82.5594C104.657 83.3179 104.715 84.0795 104.877 84.8213C104.877 84.8213 104.211 84.1582 104.321 81.8751C104.321 81.8751 102.877 82.9894 102.265 83.9947C101.652 84.9999 101.64 87.6736 102.865 89.2905Z"
        fill="#407BFF" />
    <path
        d="M102.856 89.4116C102.878 89.4129 102.9 89.408 102.919 89.3973C102.939 89.3866 102.955 89.3706 102.966 89.3511C104.859 85.8871 111.366 82.1233 113.636 81.8145C113.652 81.8123 113.666 81.8071 113.679 81.7991C113.693 81.7912 113.704 81.7806 113.713 81.7681C113.723 81.7556 113.729 81.7414 113.733 81.7262C113.737 81.711 113.738 81.6953 113.736 81.6798C113.734 81.6642 113.729 81.6493 113.721 81.6358C113.713 81.6223 113.703 81.6106 113.69 81.6011C113.678 81.5917 113.664 81.5848 113.649 81.5809C113.634 81.577 113.619 81.5761 113.604 81.5783C111.297 81.8811 104.687 85.7145 102.761 89.233C102.746 89.2607 102.742 89.2934 102.75 89.324C102.759 89.3546 102.779 89.3806 102.806 89.3965C102.821 89.4056 102.838 89.4108 102.856 89.4116Z"
        fill="white" />
    <path
        d="M23.7683 96.4062L22.9599 95.9308C22.6137 95.701 22.3256 95.3911 22.1191 95.0265C21.9125 94.6619 21.7932 94.2528 21.771 93.8325V21.6189C21.793 21.1981 21.9121 20.7885 22.1187 20.4234C22.3253 20.0582 22.6135 19.7479 22.9599 19.5175L55.6543 0.290066C56.0227 0.0993837 56.43 0 56.8432 0C57.2564 0 57.6637 0.0993837 58.0321 0.290066L58.8405 0.765454C59.1865 0.995512 59.4745 1.30538 59.681 1.66994C59.8876 2.0345 60.0069 2.44351 60.0294 2.86382V75.0804C60.0069 75.5007 59.8876 75.9097 59.681 76.2743C59.4745 76.6388 59.1865 76.9487 58.8405 77.1788L26.1461 96.4062C25.7777 96.5969 25.3704 96.6963 24.9572 96.6963C24.544 96.6963 24.1367 96.5969 23.7683 96.4062Z"
        fill="#37474F" />
    <path
        d="M26.5534 23.0451L22.1189 20.438C21.9055 20.8003 21.7859 21.2118 21.7711 21.634V93.8324C21.7934 94.2528 21.9126 94.6619 22.1192 95.0265C22.3257 95.3911 22.6138 95.7009 22.96 95.9308L23.7684 96.4062C24.1368 96.5969 24.5442 96.6962 24.9573 96.6962C25.3705 96.6962 25.7779 96.5969 26.1462 96.4062L26.5504 96.17L26.5534 23.0451Z"
        fill="#263238" />
    <path
        d="M24.9573 23.4932V95.7158C24.9573 96.491 25.4893 96.8029 26.1462 96.4153L58.8406 77.1878C59.1866 76.9578 59.4745 76.6479 59.6811 76.2833C59.8876 75.9188 60.007 75.5098 60.0295 75.0895V2.86382C60.0295 2.09169 59.4974 1.77982 58.8406 2.16437L26.1462 21.3949C25.7997 21.6244 25.5113 21.9341 25.3047 22.2988C25.0981 22.6635 24.979 23.0727 24.9573 23.4932Z"
        fill="#455A64" />
    <path
        d="M27.5728 28.0594L57.295 10.573C57.8568 10.2429 58.3145 10.5124 58.3145 11.1785V68.7853C58.2953 69.1456 58.193 69.4963 58.0159 69.8088C57.8387 70.1213 57.5918 70.3868 57.295 70.5839L27.5728 88.0672C27.0081 88.4003 26.5533 88.1308 26.5533 87.4616V29.858C26.5718 29.4975 26.6738 29.1465 26.851 28.8339C27.0282 28.5213 27.2756 28.2559 27.5728 28.0594Z"
        fill="#FAFAFA" />
    <g opacity="0.4">
        <path
            d="M42.6003 32.5982C45.9321 30.6391 48.6339 32.2288 48.6339 36.147C48.6339 40.0651 45.9321 44.8372 42.6003 46.7963C39.2684 48.7553 36.5667 47.1687 36.5667 43.2475C36.5667 39.3263 39.2684 34.5512 42.6003 32.5982Z"
            fill="#407BFF" />
        <path
            d="M54.4921 53.5667C54.4921 47.1263 50.0546 44.2649 44.5798 47.4866L41.1558 49.5002C35.6809 52.7189 31.2434 60.5522 31.2434 66.9927V68.7277L54.4921 55.0595V53.5667Z"
            fill="#407BFF" />
    </g>
    <path
        d="M42.4933 13.6584C42.9332 13.398 43.2899 13.61 43.2899 14.1278C43.2751 14.4093 43.1953 14.6833 43.0569 14.9275C42.9185 15.1717 42.7254 15.379 42.4933 15.5327C42.0534 15.7931 41.6968 15.5812 41.6968 15.0634C41.7115 14.7818 41.7913 14.5078 41.9298 14.2637C42.0682 14.0195 42.2613 13.8121 42.4933 13.6584Z"
        fill="#263238" />
    <path
        d="M40.1929 17.7098C41.8128 16.8014 44.7018 15.0482 46.2978 14.0914C46.5683 13.9278 46.7883 14.0399 46.7883 14.3396C46.7765 14.5087 46.7257 14.6725 46.6399 14.8178C46.5542 14.963 46.436 15.0856 46.2949 15.1754L40.181 18.7726C39.9076 18.933 39.6876 18.821 39.6876 18.5182C39.7014 18.3519 39.7546 18.1914 39.8426 18.0506C39.9306 17.9098 40.0508 17.7929 40.1929 17.7098Z"
        fill="#263238" />
    <path
        d="M38.6473 18.6213C38.894 18.4759 39.0961 18.594 39.0961 18.8847C39.0874 19.0431 39.0422 19.1971 38.9642 19.3344C38.8863 19.4717 38.7777 19.5884 38.6473 19.675C38.4006 19.8203 38.1985 19.7023 38.1985 19.4116C38.2072 19.2532 38.2524 19.0992 38.3304 18.9619C38.4083 18.8246 38.5169 18.7079 38.6473 18.6213Z"
        fill="#263238" />
    <path
        d="M42.4934 81.1816C43.385 80.6638 44.0895 81.0847 44.0895 82.1203C44.0596 82.6841 43.8995 83.2327 43.6222 83.7215C43.3448 84.2104 42.9581 84.6255 42.4934 84.9333C41.6017 85.451 40.9003 85.0302 40.9003 83.9946C40.9302 83.4312 41.0901 82.8829 41.3669 82.3942C41.6437 81.9054 42.0296 81.49 42.4934 81.1816Z"
        fill="#263238" />
    <path
        d="M69.603 60.9368L66.0185 58.8172L65.9799 58.796C64.1966 57.7726 61.7534 57.921 59.0457 59.5167C56.5134 61.0034 54.201 63.4833 52.4593 66.3568C50.4471 69.6633 49.1898 73.4937 49.1898 76.9243C49.1898 80.1249 50.2895 82.3747 52.0669 83.4254L55.7079 85.5449C57.5061 86.7137 60.0414 86.6077 62.8591 84.9545C68.3012 81.7872 72.7209 73.9782 72.7209 67.5559C72.7209 64.2251 71.5201 61.9269 69.603 60.9368Z"
        fill="#407BFF" />
    <path opacity="0.1"
        d="M55.6303 85.5268L52.0636 83.4496C50.2803 82.3989 49.1865 80.1492 49.1865 76.9486C49.1865 73.5149 50.4527 69.6816 52.456 66.3811L56.2663 68.6188C54.2512 71.9283 52.9969 75.7496 52.9969 79.1772C52.982 82.2324 53.9896 84.4216 55.6303 85.5268Z"
        fill="black" />
    <path opacity="0.4"
        d="M69.5405 60.8945C67.7809 60.0255 65.4358 60.2465 62.8619 61.7574C60.2879 63.2684 58.0053 65.7392 56.2606 68.6127L52.4502 66.3751C54.1919 63.5015 56.5043 61.0216 59.0366 59.5349C61.7414 57.9422 64.1875 57.7908 65.9708 58.8143L66.0095 58.8355L69.5405 60.8945Z"
        fill="white" />
    <path d="M67.9918 64.9822L66.6246 64.1768L61.2716 77.0304L62.1841 77.5663L67.9918 64.9822Z"
        fill="white" />
    <path d="M60.2225 74.1598L58.8552 73.3574L57.387 76.5216L58.7542 77.324L60.2225 74.1598Z"
        fill="white" />
    <path
        d="M62.5348 81.3361L58.7542 77.3241L60.2224 74.1599L62.1841 77.5663L67.9918 64.9822L70.1437 67.1199L62.5348 81.3361Z"
        fill="#F5F5F5" />
    <path d="M57.387 76.5217L58.7542 77.3241L62.5348 81.3362L61.1706 80.5398L57.387 76.5217Z"
        fill="#E0E0E0" />
    <path
        d="M97.4793 29.3795C99.0275 29.3795 100.512 28.7529 101.607 27.6377C102.702 26.5224 103.317 25.0098 103.317 23.4326V23.0813C103.317 22.4194 103.19 21.7639 102.941 21.1522C102.693 20.5406 102.329 19.9848 101.869 19.5166C101.41 19.0484 100.865 18.677 100.264 18.4236C99.6641 18.1702 99.0207 18.0398 98.371 18.0398H96.5877C95.2752 18.0398 94.0164 18.571 93.0884 19.5164C92.1603 20.4619 91.6389 21.7442 91.6389 23.0813V23.4326C91.6389 24.2138 91.79 24.9873 92.0835 25.709C92.3771 26.4308 92.8073 27.0865 93.3497 27.6387C93.8921 28.191 94.5359 28.629 95.2445 28.9277C95.9531 29.2263 96.7125 29.3799 97.4793 29.3795Z"
        fill="#263238" />
    <path
        d="M91.4577 88.2034C90.7769 88.9312 90.0306 89.5922 89.2285 90.1777C89.1063 90.261 89.0046 90.3718 88.9313 90.5017C88.8272 90.7257 88.6638 91.2768 89.6595 91.6311C90.163 91.8088 90.6982 91.8738 91.2286 91.8215C91.7589 91.7693 92.272 91.601 92.7327 91.3283C93.5531 90.8075 93.5887 89.7235 94.3615 89.1027C94.9322 88.6455 95.6455 88.5274 96.1092 87.9279C96.4302 87.51 96.347 86.9559 96.1775 86.2686C95.9962 85.5177 95.91 84.9514 95.6663 85.009L95.7079 85.3541C95.4107 85.8477 93.8265 85.993 93.1251 85.6569C93.1132 85.6509 91.9005 87.7099 91.4577 88.2034Z"
        fill="#263238" />
    <path
        d="M90.7651 88.903C91.0029 88.6819 91.2347 88.4518 91.4576 88.2035C91.9243 87.5865 92.3541 86.9414 92.7446 86.2717C93.0137 85.8658 93.1405 85.3793 93.1043 84.8909C93.0478 84.3701 92.9081 83.0409 92.9081 83.0409L95.4048 82.8592L95.702 85.3542C95.7614 85.9204 95.3037 86.4231 94.4893 87.1377C93.6749 87.8523 92.6465 89.5146 91.9094 89.9325C91.1723 90.3503 90.6492 90.3352 90.3341 90.1202C90.0191 89.9052 89.9745 89.7296 90.7651 88.903Z"
        fill="#B16668" />
    <path
        d="M100.954 88.4305V88.046C100.808 88.4971 100.122 90.4259 99.0784 91.3949C98.2521 92.164 97.1227 93.0512 96.8344 93.9111C96.5461 94.771 98.4067 95.1011 99.1795 94.9618C100.071 94.8013 101.242 94.2805 101.875 93.4902C102.318 92.9331 102.603 92.279 102.921 91.8339C103.24 91.3888 103.971 90.9074 104.143 90.3987C104.238 90.1201 104.125 89.5115 103.991 88.9967C103.858 88.482 103.739 88.0036 103.581 88.046V88.3488C103.207 88.6477 102.743 88.807 102.268 88.7999C101.884 88.806 100.951 88.7272 100.954 88.4305Z"
        fill="#263238" />
    <path
        d="M98.3294 92.0823C98.585 91.8492 98.8436 91.6221 99.0784 91.4041C99.8066 90.7288 100.362 89.5873 100.68 88.8C100.862 88.3537 100.956 87.8753 100.957 87.392V85.8781H103.581V88.361V88.4276C103.456 88.9847 102.25 90.4624 101.566 91.4252C101.108 92.0702 100.238 92.8938 99.1883 93.0361C98.1926 93.1512 97.6874 92.8332 98.3294 92.0823Z"
        fill="#B16668" />
    <path
        d="M103.058 46.8689C105.094 51.3957 102.984 67.3469 102.984 67.3469C103.046 68.0827 103.876 69.5301 104.173 72.7639C104.535 76.5852 103.602 86.1777 103.602 86.1777C103.202 86.4151 102.751 86.5491 102.288 86.5681C101.826 86.5871 101.366 86.4905 100.948 86.2868C100.948 86.2868 98.4483 71.8344 97.9757 68.0373C97.5655 64.7217 96.7868 56.9278 96.7868 56.9278L94.7419 68.107C95.1204 69.1529 95.3884 70.237 95.5414 71.3408C95.7525 73.5785 95.5949 83.9128 95.5949 83.9128C95.5949 83.9128 94.7033 84.6093 92.9764 84.3519C92.9764 84.3519 90.0042 70.1993 89.7694 67.5105C89.6327 65.9056 91.4279 46.2058 91.4279 46.2058L103.058 46.8689Z"
        fill="#407BFF" />
    <path opacity="0.6"
        d="M103.058 46.8689C105.094 51.3957 102.984 67.3469 102.984 67.3469C103.046 68.0827 103.876 69.5301 104.173 72.7639C104.535 76.5852 103.602 86.1777 103.602 86.1777C103.202 86.4151 102.751 86.5491 102.288 86.5681C101.826 86.5871 101.366 86.4905 100.948 86.2868C100.948 86.2868 98.4483 71.8344 97.9757 68.0373C97.5655 64.7217 96.7868 56.9278 96.7868 56.9278L94.7419 68.107C95.1204 69.1529 95.3884 70.237 95.5414 71.3408C95.7525 73.5785 95.5949 83.9128 95.5949 83.9128C95.5949 83.9128 94.7033 84.6093 92.9764 84.3519C92.9764 84.3519 90.0042 70.1993 89.7694 67.5105C89.6327 65.9056 91.4279 46.2058 91.4279 46.2058L103.058 46.8689Z"
        fill="black" />
    <path opacity="0.3"
        d="M96.7838 56.9278L96.1239 53.2246C96.1239 53.2246 93.3271 52.6342 92.0609 51.4078C92.0609 51.4078 93.3895 53.0944 95.366 53.6455L96.1091 56.8824L94.941 66.9957L96.7838 56.9278Z"
        fill="black" />
    <path
        d="M106.375 44.9008C106.354 44.598 105.808 41.4338 105.433 39.6594L101.774 40.801L102.425 44.0651L105.504 46.5843C106.473 46.3906 106.396 45.1975 106.375 44.9008Z"
        fill="#B16668" />
    <path d="M88.6786 38.2151L86.9487 41.4459L89.6416 43.7956L92.1055 39.8138L88.6786 38.2151Z"
        fill="#B16668" />
    <path
        d="M95.1699 31.0177C93.455 31.0359 91.5646 31.6687 90.9137 33.0404C90.2628 34.412 88.4646 38.1879 88.4646 38.1879C88.4646 38.1879 90.0666 40.4043 92.4711 40.2439L95.1699 31.0177Z"
        fill="#407BFF" />
    <path opacity="0.6"
        d="M95.1699 31.0177C93.455 31.0359 91.5646 31.6687 90.9137 33.0404C90.2628 34.412 88.4646 38.1879 88.4646 38.1879C88.4646 38.1879 90.0666 40.4043 92.4711 40.2439L95.1699 31.0177Z"
        fill="black" />
    <path
        d="M98.7187 31.0783L100.148 31.1388C101.7 31.5173 102.262 32.6043 102.913 34.0063C103.39 35.0889 103.435 36.3183 103.037 37.4339L101.218 42.7934C101.218 42.7934 102.068 44.8887 103.058 46.869C98.4958 49.464 92.798 48.0984 91.4249 46.2059C91.3684 45.8032 91.4457 43.9955 91.3357 41.9365C91.2198 39.7382 90.9226 37.2583 91.2614 35.9018C91.8915 33.3825 93.0685 31.0177 95.4225 31.0177L98.7187 31.0783Z"
        fill="#F5F5F5" />
    <path
        d="M100.154 31.1388C101.709 31.3629 103.997 31.6808 104.785 35.4506C105.585 39.2719 105.736 40.1833 105.736 40.1833C105.736 40.1833 104.375 41.567 101.792 41.5549C101.786 41.5549 99.5094 34.0517 100.154 31.1388Z"
        fill="#407BFF" />
    <path opacity="0.6"
        d="M100.154 31.1388C101.709 31.3629 103.997 31.6808 104.785 35.4506C105.585 39.2719 105.736 40.1833 105.736 40.1833C105.736 40.1833 104.375 41.567 101.792 41.5549C101.786 41.5549 99.5094 34.0517 100.154 31.1388Z"
        fill="black" />
    <path
        d="M101.718 41.3217C101.42 40.3195 101.123 39.1749 100.841 37.9456C100.853 39.491 101.007 41.0319 101.302 42.548L101.718 41.3217Z"
        fill="#EBEBEB" />
    <path
        d="M93.5441 20.4441C92.9288 20.8165 92.1679 22.3971 92.2422 25.7097C92.3046 28.5166 93.1993 29.21 93.6481 29.4098C94.0969 29.6097 94.9618 29.4886 95.8029 29.3463V31.0328C95.8029 31.0328 94.6408 32.4075 94.7121 33.1796C94.7835 33.9518 96.3914 34.1365 97.4793 33.3795C98.1835 32.8629 98.7881 32.2182 99.2626 31.4779V27.4023C99.2626 27.4023 99.8303 28.1744 100.749 27.5477C101.667 26.9209 101.712 25.3645 101.174 24.8043C100.636 24.2442 99.4677 24.4228 99.2537 25.1949C99.2537 25.1949 97.9103 25.2464 96.1239 24.2472C95.4313 23.8638 94.8369 23.3198 94.3887 22.6591C93.9406 21.9985 93.6512 21.2397 93.5441 20.4441Z"
        fill="#B16668" />
    <path
        d="M95.3185 25.0042C95.3174 25.0737 95.3365 25.142 95.3732 25.2006C95.41 25.2592 95.4629 25.3054 95.5253 25.3336C95.5877 25.3618 95.6568 25.3707 95.7241 25.3591C95.7914 25.3475 95.8539 25.316 95.9037 25.2686C95.9536 25.2211 95.9886 25.1597 96.0045 25.0921C96.0203 25.0244 96.0163 24.9535 95.9929 24.8882C95.9695 24.8229 95.9277 24.7661 95.8728 24.7248C95.8179 24.6835 95.7523 24.6595 95.6841 24.656C95.6376 24.6544 95.5913 24.6621 95.5478 24.6787C95.5043 24.6953 95.4644 24.7205 95.4305 24.7529C95.3965 24.7852 95.3692 24.8241 95.3499 24.8672C95.3307 24.9103 95.3201 24.9569 95.3185 25.0042Z"
        fill="#263238" />
    <path
        d="M95.2264 27.384L94.4209 27.6475C94.4346 27.703 94.4592 27.7552 94.4932 27.8008C94.5273 27.8464 94.57 27.8845 94.6189 27.9128C94.6678 27.9411 94.7218 27.959 94.7777 27.9654C94.8336 27.9719 94.8902 27.9667 94.944 27.9503C95.0544 27.9122 95.1457 27.8316 95.1985 27.7258C95.2513 27.62 95.2613 27.4973 95.2264 27.384Z"
        fill="#9A4A4D" />
    <path
        d="M92.4771 23.9202L93.1786 23.4266C93.1494 23.3766 93.1103 23.3333 93.0638 23.2996C93.0172 23.2658 92.9643 23.2424 92.9083 23.2307C92.8523 23.219 92.7946 23.2193 92.7388 23.2317C92.6829 23.2441 92.6303 23.2682 92.5841 23.3025C92.4924 23.3721 92.4302 23.4749 92.4103 23.5897C92.3904 23.7045 92.4143 23.8227 92.4771 23.9202Z"
        fill="#263238" />
    <path
        d="M92.6376 24.7497C92.6371 24.8191 92.6566 24.8872 92.6937 24.9453C92.7309 25.0035 92.7839 25.0493 92.8464 25.0771C92.9089 25.1048 92.9779 25.1132 93.045 25.1013C93.1122 25.0894 93.1744 25.0576 93.2239 25.01C93.2735 24.9624 93.3082 24.901 93.3238 24.8335C93.3394 24.7659 93.3352 24.6952 93.3117 24.63C93.2882 24.5649 93.2464 24.5082 93.1916 24.4671C93.1367 24.4259 93.0712 24.4021 93.0032 24.3985C92.9093 24.3968 92.8185 24.4326 92.7502 24.4983C92.6819 24.5639 92.6414 24.6542 92.6376 24.7497Z"
        fill="#263238" />
    <path d="M94.2723 24.5469L94.2188 26.6725L93.1221 26.3273L94.2723 24.5469Z" fill="#9A4A4D" />
    <path
        d="M95.803 29.3462C96.6946 29.2281 98.5107 28.6951 98.796 27.9594C98.6823 28.3315 98.4592 28.6591 98.157 28.898C97.6131 29.3734 95.803 29.9093 95.803 29.9093V29.3462Z"
        fill="#9A4A4D" />
    <path d="M81.2955 38.0183L91.3565 40.7162L94.3287 53.4397L84.7611 50.6085L81.2955 38.0183Z"
        fill="#407BFF" />
    <path opacity="0.15"
        d="M85.6827 46.4359C85.5906 46.6963 85.0377 47.417 83.8667 47.3594L83.724 46.8326L85.6827 46.4359Z"
        fill="black" />
    <path opacity="0.15"
        d="M87.9325 46.8326C87.9771 47.1718 88.6607 47.8016 89.8169 48.1922C91.1336 48.6403 93.1517 48.4041 93.1517 48.4041L92.9704 47.7713L87.9325 46.8326Z"
        fill="black" />
    <path opacity="0.15"
        d="M84.241 39.8592C84.241 39.8592 84.2054 39.6836 84.1578 39.4686C84.1103 39.2536 84.7047 39.2415 85.4775 39.4474L86.9636 39.838C87.7364 40.0439 88.4021 40.3861 88.4497 40.6011L88.5329 40.9917L84.241 39.8592Z"
        fill="black" />
    <path
        d="M83.5455 38.3847C83.5158 38.2485 83.7535 38.2152 84.0775 38.306L84.672 38.4695C84.672 38.4695 84.4966 37.6247 85.7984 37.9215C87.1003 38.2182 87.3856 39.175 87.3856 39.175L88.0127 39.3567C88.3605 39.4566 88.6726 39.6595 88.7142 39.7836L88.7885 40.0259L83.6049 38.6361C83.6049 38.6361 83.5722 38.518 83.5455 38.3847Z"
        fill="#37474F" />
    <path
        d="M84.259 38.8055C84.7346 38.9236 84.9308 38.9872 85.0021 39.3203C85.0823 39.7018 85.115 39.9803 85.115 39.9803L87.4096 40.5859C87.4096 40.5859 87.2996 40.1045 87.264 39.9168C87.2283 39.729 87.3056 39.614 87.6712 39.7139L87.7009 39.5655L84.1045 38.645L84.259 38.8055Z"
        fill="#37474F" />
    <path
        d="M84.1787 39.8956C84.1787 39.8956 84.143 39.72 84.0954 39.505C84.0479 39.29 84.6423 39.281 85.4151 39.4838L86.9012 39.8775C87.674 40.0803 88.3398 40.4225 88.3873 40.6375L88.4705 41.0281L84.1787 39.8956Z"
        fill="#37474F" />
    <path
        d="M105.504 46.5843L102.422 44.065C102.422 44.065 95.6098 45.3004 94.8073 45.364C94.3839 45.3757 93.9669 45.2567 93.611 45.0228C93.2551 44.7888 92.9769 44.4507 92.8129 44.0529C92.5157 43.2505 91.9718 43.3504 91.9718 43.3504C91.9718 43.3504 92.2066 44.3648 92.269 44.6888C92.3314 45.0128 90.4262 45.2944 89.3622 44.9128C88.2981 44.5313 86.7555 45.0794 87.7096 46.554C88.6637 48.0286 90.5213 48.2012 91.8083 48.2012C92.3479 48.1971 92.8868 48.1607 93.4222 48.0922C93.8383 48.0377 94.2544 47.9953 94.6735 47.965C97.3277 47.7712 104.315 46.9658 105.504 46.5843Z"
        fill="#B16668" />
    <path
        d="M82.3209 41.7366L82.7667 43.3596C82.8529 43.6624 84.021 44.2377 84.7611 44.4467C85.5012 44.6556 86.3096 44.8978 85.95 45.9606C85.629 46.9326 84.4104 47.1536 83.7922 47.1264C83.1739 47.0991 82.3239 46.4966 81.991 45.5246C81.563 44.2831 81.7919 42.9569 81.6224 42.2332C81.453 41.5095 81.9494 41.3036 82.3209 41.7366Z"
        fill="#B16668" />
    <path
        d="M102.574 35.9017C102.139 35.9021 101.708 35.8153 101.307 35.6461C100.905 35.4769 100.54 35.2287 100.233 34.9157C99.925 34.6027 99.6811 34.2311 99.5147 33.822C99.3482 33.4129 99.2626 32.9745 99.2626 32.5316V27.799C100.14 27.7998 100.981 28.1551 101.601 28.7869C102.221 29.4188 102.57 30.2755 102.571 31.1691L102.574 35.9017Z"
        fill="#263238" />
</svg>