<svg width="191" height="144" viewBox="0 0 191 144" fill="none" xmlns="http://www.w3.org/2000/svg">
    <path
        d="M10.7111 90.17C10.8249 85.9918 10.5004 78.8666 14.1633 75.9329C17.3814 73.3571 19.8836 76.8528 20.7868 79.6728C22.9745 86.5137 21.9476 94.0571 21.9409 101.119C21.9409 101.226 21.9409 101.333 21.9409 101.453C22.1115 106.652 22.737 112.275 22.1684 117.463C22.1684 117.463 22.727 112.265 26.8081 114.493C30.8892 116.721 24.7675 128.412 24.7675 128.412C24.7675 128.412 29.5913 124.886 31.8192 127.857C34.0471 130.827 29.036 134.166 29.036 134.166C29.036 134.166 33.6758 132.868 33.6758 134.166C33.6758 135.464 32.1905 136.578 27.9221 137.136H4.91392C4.91392 137.136 1.20077 135.092 1.9434 132.868C2.68603 130.643 6.58651 131.924 6.58651 131.924C6.58651 131.924 0.645462 124.686 1.01678 121.531C1.38809 118.377 8.99839 122.09 8.99839 122.09C8.99839 122.09 3.06068 107.056 4.17463 100.376C5.05106 95.1141 9.13554 98.7035 11.3601 100.737C10.8365 97.2405 10.6193 93.7046 10.7111 90.17Z"
        fill="#292D32" stroke="white" stroke-width="0.089062" stroke-linecap="round"
        stroke-linejoin="round" />
    <path opacity="0.5"
        d="M10.7111 90.17C10.8249 85.9918 10.5004 78.8666 14.1633 75.9329C17.3814 73.3571 19.8836 76.8528 20.7868 79.6728C22.9745 86.5137 21.9476 94.0571 21.9409 101.119C21.9409 101.226 21.9409 101.333 21.9409 101.453C22.1115 106.652 22.737 112.275 22.1684 117.463C22.1684 117.463 22.727 112.265 26.8081 114.493C30.8892 116.721 24.7675 128.412 24.7675 128.412C24.7675 128.412 29.5913 124.886 31.8192 127.857C34.0471 130.827 29.036 134.166 29.036 134.166C29.036 134.166 33.6758 132.868 33.6758 134.166C33.6758 135.464 32.1905 136.578 27.9221 137.136H4.91392C4.91392 137.136 1.20077 135.092 1.9434 132.868C2.68603 130.643 6.58651 131.924 6.58651 131.924C6.58651 131.924 0.645462 124.686 1.01678 121.531C1.38809 118.377 8.99839 122.09 8.99839 122.09C8.99839 122.09 3.06068 107.056 4.17463 100.376C5.05106 95.1141 9.13554 98.7035 11.3601 100.737C10.8365 97.2405 10.6193 93.7046 10.7111 90.17Z"
        fill="white" />
    <path d="M18.0939 136.936L16.4213 85.8982" stroke="white" stroke-width="0.089062"
        stroke-linecap="round" stroke-linejoin="round" />
    <path d="M17.164 115.593L8.44309 107.428" stroke="white" stroke-width="0.089062"
        stroke-linecap="round" stroke-linejoin="round" />
    <path d="M13.0828 111.88L11.2263 106.685" stroke="white" stroke-width="0.089062"
        stroke-linecap="round" stroke-linejoin="round" />
    <path d="M24.4029 121.902L17.7226 129.141" stroke="white" stroke-width="0.089062"
        stroke-linecap="round" stroke-linejoin="round" />
    <path d="M6.5865 125.987L17.7226 131.74" stroke="white" stroke-width="0.089062"
        stroke-linecap="round" stroke-linejoin="round" />
    <path d="M12.5242 129.325L8.44305 129.141" stroke="white" stroke-width="0.089062"
        stroke-linecap="round" stroke-linejoin="round" />
    <path d="M18.0939 136.936L16.4213 85.8982" stroke="#292D32" stroke-width="0.089062"
        stroke-linecap="round" stroke-linejoin="round" />
    <path d="M17.164 115.593L8.44309 107.428" stroke="#292D32" stroke-width="0.089062"
        stroke-linecap="round" stroke-linejoin="round" />
    <path d="M13.0828 111.88L11.2263 106.685" stroke="#292D32" stroke-width="0.089062"
        stroke-linecap="round" stroke-linejoin="round" />
    <path d="M24.4029 121.902L17.7226 129.141" stroke="#292D32" stroke-width="0.089062"
        stroke-linecap="round" stroke-linejoin="round" />
    <path d="M6.5865 125.987L17.7226 131.74" stroke="#292D32" stroke-width="0.089062"
        stroke-linecap="round" stroke-linejoin="round" />
    <path d="M12.5242 129.325L8.44305 129.141" stroke="#292D32" stroke-width="0.089062"
        stroke-linecap="round" stroke-linejoin="round" />
    <g opacity="0.8">
        <path d="M18.0939 136.935L16.4213 85.8981" stroke="white" stroke-width="0.089062"
            stroke-linecap="round" stroke-linejoin="round" />
        <path d="M17.164 115.593L8.44309 107.428" stroke="white" stroke-width="0.089062"
            stroke-linecap="round" stroke-linejoin="round" />
        <path d="M13.0829 111.88L11.2263 106.685" stroke="white" stroke-width="0.089062"
            stroke-linecap="round" stroke-linejoin="round" />
        <path d="M24.403 121.902L17.7226 129.141" stroke="white" stroke-width="0.089062"
            stroke-linecap="round" stroke-linejoin="round" />
        <path d="M6.5865 125.987L17.7226 131.74" stroke="white" stroke-width="0.089062"
            stroke-linecap="round" stroke-linejoin="round" />
        <path d="M12.5242 129.325L8.44308 129.141" stroke="white" stroke-width="0.089062"
            stroke-linecap="round" stroke-linejoin="round" />
    </g>
    <path
        d="M49.9734 126.622C49.9734 131.811 45.8622 136.019 45.8622 136.019C45.8622 136.019 41.751 131.811 41.751 126.622C41.751 121.434 45.8622 117.226 45.8622 117.226C45.8622 117.226 49.9734 121.431 49.9734 126.622Z"
        fill="#292D32" />
    <path
        d="M52.8235 134.627C50.8164 136.879 47.4244 137.123 47.4244 137.123C47.4244 137.123 47.2605 133.714 49.2542 131.463C51.248 129.212 54.6534 128.967 54.6534 128.967C54.6534 128.967 54.8206 132.376 52.8235 134.627Z"
        fill="#292D32" />
    <path
        d="M42.3465 131.386C44.4439 133.544 44.4305 136.956 44.4305 136.956C44.4305 136.956 41.0218 136.865 38.9277 134.704C36.8336 132.543 36.8403 129.135 36.8403 129.135C36.8403 129.135 40.2524 129.225 42.3465 131.386Z"
        fill="#292D32" />
    <g opacity="0.5">
        <path
            d="M49.9734 126.622C49.9734 131.811 45.8622 136.019 45.8622 136.019C45.8622 136.019 41.7509 131.811 41.7509 126.622C41.7509 121.434 45.8622 117.226 45.8622 117.226C45.8622 117.226 49.9734 121.431 49.9734 126.622Z"
            fill="white" />
        <path d="M45.8622 136.019V117.226" stroke="white" stroke-width="0.089062"
            stroke-linecap="round" stroke-linejoin="round" />
        <path d="M45.8622 123.906L48.1636 121.896" stroke="white" stroke-width="0.089062"
            stroke-linecap="round" stroke-linejoin="round" />
        <path d="M45.8253 127.01L42.9753 122.882" stroke="white" stroke-width="0.089062"
            stroke-linecap="round" stroke-linejoin="round" />
        <path d="M45.8622 128.8L49.2609 125.769" stroke="white" stroke-width="0.089062"
            stroke-linecap="round" stroke-linejoin="round" />
        <path d="M45.8253 131.212L42.4634 128.218" stroke="white" stroke-width="0.089062"
            stroke-linecap="round" stroke-linejoin="round" />
        <path d="M45.8253 133.296L48.458 131.212" stroke="white" stroke-width="0.089062"
            stroke-linecap="round" stroke-linejoin="round" />
        <path
            d="M52.8235 134.627C50.8163 136.879 47.4243 137.123 47.4243 137.123C47.4243 137.123 47.2604 133.714 49.2541 131.463C51.2479 129.211 54.6533 128.967 54.6533 128.967C54.6533 128.967 54.8205 132.376 52.8235 134.627Z"
            fill="white" />
        <path d="M47.4244 137.123L54.6533 128.967" stroke="white" stroke-width="0.089062"
            stroke-linecap="round" stroke-linejoin="round" />
        <path d="M52.0842 131.868L53.8571 131.881" stroke="white" stroke-width="0.089062"
            stroke-linecap="round" stroke-linejoin="round" />
        <path d="M50.8732 133.199L51.2245 130.312" stroke="white" stroke-width="0.089062"
            stroke-linecap="round" stroke-linejoin="round" />
        <path d="M50.2008 133.992L52.8402 133.982" stroke="white" stroke-width="0.089062"
            stroke-linecap="round" stroke-linejoin="round" />
        <path d="M49.2575 135.022L48.9531 132.43" stroke="white" stroke-width="0.089062"
            stroke-linecap="round" stroke-linejoin="round" />
        <path d="M48.4546 135.925L50.3982 136.036" stroke="white" stroke-width="0.089062"
            stroke-linecap="round" stroke-linejoin="round" />
        <path
            d="M42.3464 131.386C44.4438 133.543 44.4304 136.956 44.4304 136.956C44.4304 136.956 41.0217 136.865 38.9276 134.704C36.8335 132.543 36.8402 129.135 36.8402 129.135C36.8402 129.135 40.2523 129.225 42.3464 131.386Z"
            fill="white" />
        <path d="M44.4304 136.956L36.8402 129.135" stroke="white" stroke-width="0.089062"
            stroke-linecap="round" stroke-linejoin="round" />
        <path d="M39.5398 131.914L39.6836 130.148" stroke="white" stroke-width="0.089062"
            stroke-linecap="round" stroke-linejoin="round" />
        <path d="M40.7775 133.222L37.924 132.654" stroke="white" stroke-width="0.089062"
            stroke-linecap="round" stroke-linejoin="round" />
        <path d="M41.5168 133.952L41.7041 131.319" stroke="white" stroke-width="0.089062"
            stroke-linecap="round" stroke-linejoin="round" />
        <path d="M42.4768 134.969L39.8676 135.082" stroke="white" stroke-width="0.089062"
            stroke-linecap="round" stroke-linejoin="round" />
        <path d="M43.3165 135.835L43.5707 133.908" stroke="white" stroke-width="0.089062"
            stroke-linecap="round" stroke-linejoin="round" />
    </g>
    <path d="M45.8622 136.019V117.226" stroke="#292D32" stroke-width="0.089062"
        stroke-linecap="round" stroke-linejoin="round" />
    <path d="M45.8622 123.906L48.1637 121.896" stroke="#292D32" stroke-width="0.089062"
        stroke-linecap="round" stroke-linejoin="round" />
    <path d="M45.8254 127.01L42.9754 122.882" stroke="#292D32" stroke-width="0.089062"
        stroke-linecap="round" stroke-linejoin="round" />
    <path d="M45.8623 128.8L49.261 125.769" stroke="#292D32" stroke-width="0.089062"
        stroke-linecap="round" stroke-linejoin="round" />
    <path d="M45.8254 131.212L42.4635 128.218" stroke="#292D32" stroke-width="0.089062"
        stroke-linecap="round" stroke-linejoin="round" />
    <path d="M45.8254 133.296L48.4581 131.212" stroke="#292D32" stroke-width="0.089062"
        stroke-linecap="round" stroke-linejoin="round" />
    <g opacity="0.7">
        <path d="M45.8623 136.019V117.226" stroke="white" stroke-width="0.089062"
            stroke-linecap="round" stroke-linejoin="round" />
        <path d="M45.8623 123.906L48.1638 121.896" stroke="white" stroke-width="0.089062"
            stroke-linecap="round" stroke-linejoin="round" />
        <path d="M45.8255 127.01L42.9754 122.882" stroke="white" stroke-width="0.089062"
            stroke-linecap="round" stroke-linejoin="round" />
        <path d="M45.8623 128.8L49.261 125.769" stroke="white" stroke-width="0.089062"
            stroke-linecap="round" stroke-linejoin="round" />
        <path d="M45.8255 131.212L42.4636 128.218" stroke="white" stroke-width="0.089062"
            stroke-linecap="round" stroke-linejoin="round" />
        <path d="M45.8255 133.296L48.4582 131.212" stroke="white" stroke-width="0.089062"
            stroke-linecap="round" stroke-linejoin="round" />
    </g>
    <path d="M47.4244 137.123L54.6534 128.967" stroke="#292D32" stroke-width="0.089062"
        stroke-linecap="round" stroke-linejoin="round" />
    <path d="M52.0843 131.868L53.8572 131.881" stroke="#292D32" stroke-width="0.089062"
        stroke-linecap="round" stroke-linejoin="round" />
    <path d="M50.8733 133.199L51.2245 130.312" stroke="#292D32" stroke-width="0.089062"
        stroke-linecap="round" stroke-linejoin="round" />
    <path d="M50.2009 133.992L52.8403 133.982" stroke="#292D32" stroke-width="0.089062"
        stroke-linecap="round" stroke-linejoin="round" />
    <path d="M49.2576 135.022L48.9532 132.43" stroke="#292D32" stroke-width="0.089062"
        stroke-linecap="round" stroke-linejoin="round" />
    <path d="M48.4548 135.925L50.3983 136.036" stroke="#292D32" stroke-width="0.089062"
        stroke-linecap="round" stroke-linejoin="round" />
    <g opacity="0.7">
        <path d="M47.4244 137.123L54.6534 128.967" stroke="white" stroke-width="0.089062"
            stroke-linecap="round" stroke-linejoin="round" />
        <path d="M52.0842 131.867L53.8571 131.881" stroke="white" stroke-width="0.089062"
            stroke-linecap="round" stroke-linejoin="round" />
        <path d="M50.8732 133.199L51.2245 130.312" stroke="white" stroke-width="0.089062"
            stroke-linecap="round" stroke-linejoin="round" />
        <path d="M50.2008 133.992L52.8402 133.982" stroke="white" stroke-width="0.089062"
            stroke-linecap="round" stroke-linejoin="round" />
        <path d="M49.2575 135.022L48.9531 132.429" stroke="white" stroke-width="0.089062"
            stroke-linecap="round" stroke-linejoin="round" />
        <path d="M48.4546 135.925L50.3982 136.035" stroke="white" stroke-width="0.089062"
            stroke-linecap="round" stroke-linejoin="round" />
    </g>
    <path d="M44.4305 136.956L36.8403 129.135" stroke="#292D32" stroke-width="0.089062"
        stroke-linecap="round" stroke-linejoin="round" />
    <path d="M39.5399 131.914L39.6837 130.148" stroke="#292D32" stroke-width="0.089062"
        stroke-linecap="round" stroke-linejoin="round" />
    <path d="M40.7776 133.222L37.9241 132.654" stroke="#292D32" stroke-width="0.089062"
        stroke-linecap="round" stroke-linejoin="round" />
    <path d="M41.5168 133.952L41.7042 131.319" stroke="#292D32" stroke-width="0.089062"
        stroke-linecap="round" stroke-linejoin="round" />
    <path d="M42.4769 134.969L39.8677 135.082" stroke="#292D32" stroke-width="0.089062"
        stroke-linecap="round" stroke-linejoin="round" />
    <path d="M43.3166 135.835L43.5708 133.908" stroke="#292D32" stroke-width="0.089062"
        stroke-linecap="round" stroke-linejoin="round" />
    <g opacity="0.7">
        <path d="M44.4305 136.956L36.8403 129.135" stroke="white" stroke-width="0.089062"
            stroke-linecap="round" stroke-linejoin="round" />
        <path d="M39.5398 131.914L39.6837 130.148" stroke="white" stroke-width="0.089062"
            stroke-linecap="round" stroke-linejoin="round" />
        <path d="M40.7775 133.222L37.9241 132.654" stroke="white" stroke-width="0.089062"
            stroke-linecap="round" stroke-linejoin="round" />
        <path d="M41.5168 133.952L41.7041 131.319" stroke="white" stroke-width="0.089062"
            stroke-linecap="round" stroke-linejoin="round" />
        <path d="M42.4768 134.969L39.8676 135.082" stroke="white" stroke-width="0.089062"
            stroke-linecap="round" stroke-linejoin="round" />
        <path d="M43.3165 135.835L43.5707 133.908" stroke="white" stroke-width="0.089062"
            stroke-linecap="round" stroke-linejoin="round" />
    </g>
    <path
        d="M180.807 90.1702C180.696 85.992 181.017 78.8668 177.354 75.9331C174.136 73.3573 171.634 76.853 170.734 79.673C168.543 86.5139 169.574 94.0573 169.577 101.119C169.577 101.226 169.577 101.333 169.577 101.453C169.403 106.652 168.781 112.275 169.346 117.463C169.346 117.463 168.791 112.265 164.706 114.493C160.622 116.721 166.75 128.412 166.75 128.412C166.75 128.412 161.923 124.886 159.695 127.857C157.467 130.827 162.472 134.153 162.472 134.153C162.472 134.153 157.832 132.855 157.832 134.153C157.832 135.45 159.317 136.564 163.586 137.123H186.604C186.604 137.123 190.317 135.079 189.574 132.855C188.832 130.63 184.935 131.925 184.935 131.925C184.935 131.925 190.872 124.686 190.501 121.531C190.13 118.377 182.519 122.09 182.519 122.09C182.519 122.09 188.46 107.057 187.347 100.386C186.47 95.1244 182.382 98.7138 180.161 100.748C180.684 97.2474 180.9 93.7081 180.807 90.1702Z"
        fill="#292D32" stroke="white" stroke-width="0.089062" stroke-linecap="round"
        stroke-linejoin="round" />
    <path opacity="0.5"
        d="M180.807 90.1702C180.696 85.992 181.017 78.8668 177.354 75.9331C174.136 73.3573 171.634 76.853 170.734 79.673C168.543 86.5139 169.574 94.0573 169.577 101.119C169.577 101.226 169.577 101.333 169.577 101.453C169.403 106.652 168.781 112.275 169.346 117.463C169.346 117.463 168.791 112.265 164.706 114.493C160.622 116.721 166.75 128.412 166.75 128.412C166.75 128.412 161.923 124.886 159.695 127.857C157.467 130.827 162.472 134.153 162.472 134.153C162.472 134.153 157.832 132.855 157.832 134.153C157.832 135.45 159.317 136.564 163.586 137.123H186.604C186.604 137.123 190.317 135.079 189.574 132.855C188.832 130.63 184.935 131.925 184.935 131.925C184.935 131.925 190.872 124.686 190.501 121.531C190.13 118.377 182.519 122.09 182.519 122.09C182.519 122.09 188.46 107.057 187.347 100.386C186.47 95.1244 182.382 98.7138 180.161 100.748C180.684 97.2474 180.9 93.7081 180.807 90.1702Z"
        fill="white" />
    <path d="M173.427 136.936L175.096 85.8982" stroke="white" stroke-width="0.089062"
        stroke-linecap="round" stroke-linejoin="round" />
    <path d="M174.354 115.593L183.078 107.428" stroke="white" stroke-width="0.089062"
        stroke-linecap="round" stroke-linejoin="round" />
    <path d="M178.438 111.88L180.295 106.685" stroke="white" stroke-width="0.089062"
        stroke-linecap="round" stroke-linejoin="round" />
    <path d="M167.118 121.902L173.799 129.141" stroke="white" stroke-width="0.089062"
        stroke-linecap="round" stroke-linejoin="round" />
    <path d="M184.935 125.987L173.799 131.74" stroke="white" stroke-width="0.089062"
        stroke-linecap="round" stroke-linejoin="round" />
    <path d="M178.994 129.325L183.078 129.141" stroke="white" stroke-width="0.089062"
        stroke-linecap="round" stroke-linejoin="round" />
    <path d="M173.427 136.936L175.096 85.8982" stroke="#292D32" stroke-width="0.089062"
        stroke-linecap="round" stroke-linejoin="round" />
    <path d="M174.354 115.593L183.078 107.428" stroke="#292D32" stroke-width="0.089062"
        stroke-linecap="round" stroke-linejoin="round" />
    <path d="M178.438 111.88L180.295 106.685" stroke="#292D32" stroke-width="0.089062"
        stroke-linecap="round" stroke-linejoin="round" />
    <path d="M167.118 121.902L173.799 129.141" stroke="#292D32" stroke-width="0.089062"
        stroke-linecap="round" stroke-linejoin="round" />
    <path d="M184.935 125.987L173.799 131.74" stroke="#292D32" stroke-width="0.089062"
        stroke-linecap="round" stroke-linejoin="round" />
    <path d="M178.994 129.325L183.078 129.141" stroke="#292D32" stroke-width="0.089062"
        stroke-linecap="round" stroke-linejoin="round" />
    <g opacity="0.8">
        <path d="M173.427 136.935L175.096 85.8981" stroke="white" stroke-width="0.089062"
            stroke-linecap="round" stroke-linejoin="round" />
        <path d="M174.354 115.593L183.078 107.428" stroke="white" stroke-width="0.089062"
            stroke-linecap="round" stroke-linejoin="round" />
        <path d="M178.438 111.88L180.295 106.685" stroke="white" stroke-width="0.089062"
            stroke-linecap="round" stroke-linejoin="round" />
        <path d="M167.118 121.902L173.798 129.141" stroke="white" stroke-width="0.089062"
            stroke-linecap="round" stroke-linejoin="round" />
        <path d="M184.935 125.987L173.799 131.74" stroke="white" stroke-width="0.089062"
            stroke-linecap="round" stroke-linejoin="round" />
        <path d="M178.994 129.325L183.078 129.141" stroke="white" stroke-width="0.089062"
            stroke-linecap="round" stroke-linejoin="round" />
    </g>
    <path
        d="M140.875 126.622C140.875 131.811 144.987 136.019 144.987 136.019C144.987 136.019 149.091 131.811 149.091 126.622C149.091 121.434 144.98 117.226 144.98 117.226C144.98 117.226 140.875 121.431 140.875 126.622Z"
        fill="#292D32" />
    <path
        d="M138.029 134.627C140.036 136.879 143.428 137.123 143.428 137.123C143.428 137.123 143.592 133.714 141.595 131.463C139.597 129.212 136.195 128.967 136.195 128.967C136.195 128.967 136.045 132.376 138.029 134.627Z"
        fill="#292D32" />
    <path
        d="M148.502 131.386C146.408 133.544 146.418 136.956 146.418 136.956C146.418 136.956 149.827 136.865 151.924 134.704C154.022 132.543 154.008 129.135 154.008 129.135C154.008 129.135 150.6 129.225 148.502 131.386Z"
        fill="#292D32" />
    <g opacity="0.5">
        <path
            d="M140.875 126.622C140.875 131.811 144.987 136.019 144.987 136.019C144.987 136.019 149.091 131.811 149.091 126.622C149.091 121.434 144.98 117.226 144.98 117.226C144.98 117.226 140.875 121.431 140.875 126.622Z"
            fill="white" />
        <path d="M144.987 136.019V117.226" stroke="white" stroke-width="0.089062"
            stroke-linecap="round" stroke-linejoin="round" />
        <path d="M144.987 123.906L142.685 121.896" stroke="white" stroke-width="0.089062"
            stroke-linecap="round" stroke-linejoin="round" />
        <path d="M145.023 127.01L147.873 122.882" stroke="white" stroke-width="0.089062"
            stroke-linecap="round" stroke-linejoin="round" />
        <path d="M144.987 128.8L141.588 125.769" stroke="white" stroke-width="0.089062"
            stroke-linecap="round" stroke-linejoin="round" />
        <path d="M145.023 131.212L148.385 128.218" stroke="white" stroke-width="0.089062"
            stroke-linecap="round" stroke-linejoin="round" />
        <path d="M145.023 133.296L142.394 131.212" stroke="white" stroke-width="0.089062"
            stroke-linecap="round" stroke-linejoin="round" />
        <path
            d="M138.029 134.627C140.036 136.879 143.428 137.123 143.428 137.123C143.428 137.123 143.592 133.714 141.595 131.463C139.597 129.211 136.195 128.967 136.195 128.967C136.195 128.967 136.045 132.376 138.029 134.627Z"
            fill="white" />
        <path d="M143.428 137.123L136.195 128.967" stroke="white" stroke-width="0.089062"
            stroke-linecap="round" stroke-linejoin="round" />
        <path d="M138.765 131.868L136.995 131.881" stroke="white" stroke-width="0.089062"
            stroke-linecap="round" stroke-linejoin="round" />
        <path d="M139.975 133.199L139.624 130.312" stroke="white" stroke-width="0.089062"
            stroke-linecap="round" stroke-linejoin="round" />
        <path d="M140.651 133.992L138.009 133.982" stroke="white" stroke-width="0.089062"
            stroke-linecap="round" stroke-linejoin="round" />
        <path d="M141.595 135.022L141.899 132.43" stroke="white" stroke-width="0.089062"
            stroke-linecap="round" stroke-linejoin="round" />
        <path d="M142.394 135.925L140.451 136.036" stroke="white" stroke-width="0.089062"
            stroke-linecap="round" stroke-linejoin="round" />
        <path
            d="M148.502 131.386C146.408 133.543 146.418 136.956 146.418 136.956C146.418 136.956 149.827 136.865 151.924 134.704C154.022 132.543 154.009 129.135 154.009 129.135C154.009 129.135 150.6 129.225 148.502 131.386Z"
            fill="white" />
        <path d="M146.418 136.956L154.009 129.135" stroke="white" stroke-width="0.089062"
            stroke-linecap="round" stroke-linejoin="round" />
        <path d="M151.312 131.914L151.165 130.148" stroke="white" stroke-width="0.089062"
            stroke-linecap="round" stroke-linejoin="round" />
        <path d="M150.071 133.222L152.925 132.654" stroke="white" stroke-width="0.089062"
            stroke-linecap="round" stroke-linejoin="round" />
        <path d="M149.335 133.952L149.145 131.319" stroke="white" stroke-width="0.089062"
            stroke-linecap="round" stroke-linejoin="round" />
        <path d="M148.375 134.969L150.984 135.082" stroke="white" stroke-width="0.089062"
            stroke-linecap="round" stroke-linejoin="round" />
        <path d="M147.532 135.835L147.281 133.908" stroke="white" stroke-width="0.089062"
            stroke-linecap="round" stroke-linejoin="round" />
    </g>
    <path d="M144.987 136.019V117.226" stroke="#292D32" stroke-width="0.089062"
        stroke-linecap="round" stroke-linejoin="round" />
    <path d="M144.987 123.906L142.685 121.896" stroke="#292D32" stroke-width="0.089062"
        stroke-linecap="round" stroke-linejoin="round" />
    <path d="M145.023 127.01L147.873 122.882" stroke="#292D32" stroke-width="0.089062"
        stroke-linecap="round" stroke-linejoin="round" />
    <path d="M144.987 128.8L141.588 125.769" stroke="#292D32" stroke-width="0.089062"
        stroke-linecap="round" stroke-linejoin="round" />
    <path d="M145.023 131.212L148.385 128.218" stroke="#292D32" stroke-width="0.089062"
        stroke-linecap="round" stroke-linejoin="round" />
    <path d="M145.023 133.296L142.394 131.212" stroke="#292D32" stroke-width="0.089062"
        stroke-linecap="round" stroke-linejoin="round" />
    <g opacity="0.7">
        <path d="M144.987 136.019V117.226" stroke="white" stroke-width="0.089062"
            stroke-linecap="round" stroke-linejoin="round" />
        <path d="M144.987 123.906L142.685 121.896" stroke="white" stroke-width="0.089062"
            stroke-linecap="round" stroke-linejoin="round" />
        <path d="M145.023 127.01L147.874 122.882" stroke="white" stroke-width="0.089062"
            stroke-linecap="round" stroke-linejoin="round" />
        <path d="M144.987 128.8L141.588 125.769" stroke="white" stroke-width="0.089062"
            stroke-linecap="round" stroke-linejoin="round" />
        <path d="M145.023 131.212L148.385 128.218" stroke="white" stroke-width="0.089062"
            stroke-linecap="round" stroke-linejoin="round" />
        <path d="M145.023 133.296L142.394 131.212" stroke="white" stroke-width="0.089062"
            stroke-linecap="round" stroke-linejoin="round" />
    </g>
    <path d="M143.428 137.123L136.195 128.967" stroke="#292D32" stroke-width="0.089062"
        stroke-linecap="round" stroke-linejoin="round" />
    <path d="M138.765 131.868L136.995 131.881" stroke="#292D32" stroke-width="0.089062"
        stroke-linecap="round" stroke-linejoin="round" />
    <path d="M139.975 133.199L139.624 130.312" stroke="#292D32" stroke-width="0.089062"
        stroke-linecap="round" stroke-linejoin="round" />
    <path d="M140.651 133.992L138.008 133.982" stroke="#292D32" stroke-width="0.089062"
        stroke-linecap="round" stroke-linejoin="round" />
    <path d="M141.595 135.022L141.899 132.43" stroke="#292D32" stroke-width="0.089062"
        stroke-linecap="round" stroke-linejoin="round" />
    <path d="M142.394 135.925L140.45 136.036" stroke="#292D32" stroke-width="0.089062"
        stroke-linecap="round" stroke-linejoin="round" />
    <g opacity="0.7">
        <path d="M143.428 137.123L136.195 128.967" stroke="white" stroke-width="0.089062"
            stroke-linecap="round" stroke-linejoin="round" />
        <path d="M138.765 131.867L136.995 131.881" stroke="white" stroke-width="0.089062"
            stroke-linecap="round" stroke-linejoin="round" />
        <path d="M139.976 133.199L139.624 130.312" stroke="white" stroke-width="0.089062"
            stroke-linecap="round" stroke-linejoin="round" />
        <path d="M140.651 133.992L138.009 133.982" stroke="white" stroke-width="0.089062"
            stroke-linecap="round" stroke-linejoin="round" />
        <path d="M141.595 135.022L141.899 132.429" stroke="white" stroke-width="0.089062"
            stroke-linecap="round" stroke-linejoin="round" />
        <path d="M142.394 135.925L140.451 136.035" stroke="white" stroke-width="0.089062"
            stroke-linecap="round" stroke-linejoin="round" />
    </g>
    <path d="M146.418 136.956L154.008 129.135" stroke="#292D32" stroke-width="0.089062"
        stroke-linecap="round" stroke-linejoin="round" />
    <path d="M151.312 131.914L151.165 130.148" stroke="#292D32" stroke-width="0.089062"
        stroke-linecap="round" stroke-linejoin="round" />
    <path d="M150.071 133.222L152.925 132.654" stroke="#292D32" stroke-width="0.089062"
        stroke-linecap="round" stroke-linejoin="round" />
    <path d="M149.335 133.952L149.145 131.319" stroke="#292D32" stroke-width="0.089062"
        stroke-linecap="round" stroke-linejoin="round" />
    <path d="M148.375 134.969L150.984 135.082" stroke="#292D32" stroke-width="0.089062"
        stroke-linecap="round" stroke-linejoin="round" />
    <path d="M147.532 135.835L147.281 133.908" stroke="#292D32" stroke-width="0.089062"
        stroke-linecap="round" stroke-linejoin="round" />
    <g opacity="0.7">
        <path d="M146.418 136.956L154.008 129.135" stroke="white" stroke-width="0.089062"
            stroke-linecap="round" stroke-linejoin="round" />
        <path d="M151.312 131.914L151.165 130.148" stroke="white" stroke-width="0.089062"
            stroke-linecap="round" stroke-linejoin="round" />
        <path d="M150.071 133.222L152.925 132.654" stroke="white" stroke-width="0.089062"
            stroke-linecap="round" stroke-linejoin="round" />
        <path d="M149.335 133.952L149.145 131.319" stroke="white" stroke-width="0.089062"
            stroke-linecap="round" stroke-linejoin="round" />
        <path d="M148.375 134.969L150.984 135.082" stroke="white" stroke-width="0.089062"
            stroke-linecap="round" stroke-linejoin="round" />
        <path d="M147.532 135.835L147.281 133.908" stroke="white" stroke-width="0.089062"
            stroke-linecap="round" stroke-linejoin="round" />
    </g>
    <path
        d="M48.274 37.7044H138.704C138.731 37.7049 138.758 37.6999 138.783 37.6898C138.808 37.6798 138.831 37.6648 138.851 37.6458C138.87 37.6268 138.885 37.6042 138.896 37.5792C138.906 37.5542 138.912 37.5274 138.912 37.5004C138.912 37.4453 138.89 37.3926 138.851 37.3537C138.812 37.3148 138.759 37.293 138.704 37.293H48.274C48.2469 37.2929 48.2201 37.2983 48.1951 37.3088C48.1701 37.3193 48.1475 37.3346 48.1285 37.3539C48.1095 37.3732 48.0946 37.3961 48.0845 37.4212C48.0744 37.4464 48.0695 37.4733 48.0699 37.5004C48.0699 37.5545 48.0914 37.6064 48.1297 37.6446C48.168 37.6829 48.2199 37.7044 48.274 37.7044Z"
        fill="#292D32" />
    <g opacity="0.3">
        <path
            d="M48.274 37.7044H138.704C138.731 37.7049 138.758 37.6999 138.783 37.6898C138.808 37.6798 138.831 37.6648 138.851 37.6458C138.87 37.6268 138.885 37.6042 138.896 37.5792C138.906 37.5542 138.912 37.5274 138.912 37.5004C138.912 37.4453 138.89 37.3926 138.851 37.3537C138.812 37.3148 138.759 37.293 138.704 37.293H48.274C48.2469 37.2929 48.2201 37.2983 48.1951 37.3088C48.1701 37.3193 48.1475 37.3346 48.1285 37.3539C48.1095 37.3732 48.0946 37.3961 48.0845 37.4212C48.0744 37.4464 48.0695 37.4733 48.0699 37.5004C48.0699 37.5545 48.0914 37.6064 48.1297 37.6446C48.168 37.6829 48.2199 37.7044 48.274 37.7044Z"
            fill="white" />
    </g>
    <path
        d="M48.4546 73.5714H138.885C138.912 73.5718 138.939 73.5669 138.964 73.5568C138.989 73.5468 139.012 73.5318 139.031 73.5128C139.051 73.4938 139.066 73.4712 139.076 73.4462C139.087 73.4212 139.092 73.3944 139.092 73.3673C139.092 73.3123 139.07 73.2596 139.031 73.2207C138.993 73.1818 138.94 73.1599 138.885 73.1599H48.4546C48.4275 73.1599 48.4007 73.1653 48.3757 73.1758C48.3508 73.1862 48.3281 73.2016 48.3091 73.2209C48.2901 73.2402 48.2752 73.2631 48.2651 73.2882C48.2551 73.3134 48.2501 73.3403 48.2506 73.3673C48.2506 73.3941 48.2558 73.4207 48.2661 73.4454C48.2764 73.4702 48.2914 73.4927 48.3103 73.5116C48.3293 73.5306 48.3518 73.5456 48.3765 73.5559C48.4013 73.5661 48.4278 73.5714 48.4546 73.5714Z"
        fill="#292D32" />
    <g opacity="0.3">
        <path
            d="M48.4546 73.5714H138.885C138.912 73.5718 138.939 73.5669 138.964 73.5568C138.989 73.5468 139.012 73.5318 139.031 73.5128C139.051 73.4938 139.066 73.4712 139.076 73.4462C139.087 73.4212 139.092 73.3944 139.092 73.3673C139.092 73.3123 139.07 73.2596 139.031 73.2207C138.993 73.1818 138.94 73.1599 138.885 73.1599H48.4546C48.4275 73.1599 48.4007 73.1653 48.3757 73.1758C48.3508 73.1862 48.3281 73.2016 48.3091 73.2209C48.2901 73.2402 48.2752 73.2631 48.2651 73.2882C48.2551 73.3134 48.2501 73.3403 48.2506 73.3673C48.2506 73.3941 48.2558 73.4207 48.2661 73.4454C48.2764 73.4702 48.2914 73.4927 48.3103 73.5116C48.3293 73.5306 48.3518 73.5456 48.3765 73.5559C48.4013 73.5661 48.4278 73.5714 48.4546 73.5714Z"
            fill="white" />
    </g>
    <path
        d="M48.4546 102.892H138.885C138.94 102.892 138.993 102.87 139.031 102.831C139.07 102.792 139.092 102.74 139.092 102.685C139.092 102.657 139.087 102.631 139.076 102.606C139.066 102.581 139.051 102.558 139.031 102.539C139.012 102.52 138.989 102.505 138.964 102.495C138.939 102.485 138.912 102.48 138.885 102.48H48.4546C48.4278 102.48 48.4013 102.486 48.3765 102.496C48.3518 102.506 48.3293 102.521 48.3103 102.54C48.2914 102.559 48.2764 102.582 48.2661 102.606C48.2558 102.631 48.2506 102.658 48.2506 102.685C48.2501 102.712 48.2551 102.738 48.2651 102.764C48.2752 102.789 48.2901 102.812 48.3091 102.831C48.3281 102.85 48.3508 102.866 48.3757 102.876C48.4007 102.887 48.4275 102.892 48.4546 102.892Z"
        fill="#292D32" />
    <g opacity="0.3">
        <path
            d="M48.4546 102.892H138.885C138.94 102.892 138.993 102.87 139.031 102.831C139.07 102.792 139.092 102.74 139.092 102.685C139.092 102.657 139.087 102.631 139.076 102.606C139.066 102.581 139.051 102.558 139.031 102.539C139.012 102.52 138.989 102.505 138.964 102.495C138.939 102.485 138.912 102.48 138.885 102.48H48.4546C48.4278 102.48 48.4013 102.486 48.3765 102.496C48.3518 102.506 48.3293 102.521 48.3103 102.54C48.2914 102.559 48.2764 102.582 48.2661 102.606C48.2558 102.631 48.2506 102.658 48.2506 102.685C48.2501 102.712 48.2551 102.738 48.2651 102.764C48.2752 102.789 48.2901 102.812 48.3091 102.831C48.3281 102.85 48.3508 102.866 48.3757 102.876C48.4007 102.887 48.4275 102.892 48.4546 102.892Z"
            fill="white" />
    </g>
    <path d="M119.66 107.853V138.367" stroke="#263238" stroke-width="0.0236167"
        stroke-miterlimit="10" />
    <path d="M115.301 107.853V138.368" stroke="#263238" stroke-width="0.0236167"
        stroke-miterlimit="10" />
    <path d="M110.943 107.853V138.368" stroke="#263238" stroke-width="0.0236167"
        stroke-miterlimit="10" />
    <path d="M106.584 107.853V138.368" stroke="#263238" stroke-width="0.0236167"
        stroke-miterlimit="10" />
    <path d="M102.225 107.853V138.368" stroke="#263238" stroke-width="0.0236167"
        stroke-miterlimit="10" />
    <path d="M97.8662 107.853V138.368" stroke="#263238" stroke-width="0.0236167"
        stroke-miterlimit="10" />
    <path d="M93.5074 107.853V138.368" stroke="#263238" stroke-width="0.0236167"
        stroke-miterlimit="10" />
    <path d="M89.1487 107.853V138.368" stroke="#263238" stroke-width="0.0236167"
        stroke-miterlimit="10" />
    <path d="M84.7899 107.853V138.368" stroke="#263238" stroke-width="0.0236167"
        stroke-miterlimit="10" />
    <path d="M80.4312 107.853V138.368" stroke="#263238" stroke-width="0.0236167"
        stroke-miterlimit="10" />
    <path d="M76.0724 107.853V138.368" stroke="#263238" stroke-width="0.0236167"
        stroke-miterlimit="10" />
    <path d="M71.7136 107.853V138.368" stroke="#263238" stroke-width="0.0236167"
        stroke-miterlimit="10" />
    <path d="M119.443 110.686H71.931" stroke="#263238" stroke-width="0.0236167"
        stroke-miterlimit="10" />
    <path d="M119.443 114.828H71.931" stroke="#263238" stroke-width="0.0236167"
        stroke-miterlimit="10" />
    <path d="M119.443 118.969H71.931" stroke="#263238" stroke-width="0.0236167"
        stroke-miterlimit="10" />
    <path d="M119.443 123.11H71.931" stroke="#263238" stroke-width="0.0236167"
        stroke-miterlimit="10" />
    <path d="M119.443 127.252H71.931" stroke="#263238" stroke-width="0.0236167"
        stroke-miterlimit="10" />
    <path d="M119.443 131.393H71.931" stroke="#263238" stroke-width="0.0236167"
        stroke-miterlimit="10" />
    <path d="M119.443 135.534H71.931" stroke="#263238" stroke-width="0.0236167"
        stroke-miterlimit="10" />
    <path
        d="M109.461 118.558L115.837 138.214H102.483L108.862 118.558C108.882 118.494 108.922 118.439 108.976 118.4C109.03 118.36 109.095 118.339 109.161 118.339C109.228 118.339 109.293 118.36 109.346 118.4C109.4 118.439 109.44 118.494 109.461 118.558Z"
        fill="#292D32" stroke="#263238" stroke-width="0.0944665" stroke-miterlimit="10" />
    <path
        d="M97.3042 112.048L105.791 138.214H88.2087L96.7055 112.048C96.7258 111.984 96.7658 111.929 96.8196 111.89C96.8734 111.851 96.9383 111.83 97.0048 111.83C97.0714 111.83 97.1363 111.851 97.1901 111.89C97.2439 111.929 97.2839 111.984 97.3042 112.048Z"
        fill="#263238" stroke="#263238" stroke-width="0.0944665" stroke-miterlimit="10" />
    <path
        d="M86.1179 123.053L91.0387 138.214H80.6017L85.5325 123.053C85.5556 122.995 85.5959 122.944 85.6481 122.909C85.7003 122.873 85.762 122.854 85.8252 122.854C85.8884 122.854 85.9502 122.873 86.0024 122.909C86.0546 122.944 86.0949 122.995 86.1179 123.053Z"
        fill="#292D32" stroke="#263238" stroke-width="0.0944665" stroke-miterlimit="10" />
    <path
        d="M79.3774 128.259L82.6055 138.214H75.5506L78.7786 128.259C78.799 128.195 78.839 128.14 78.8928 128.101C78.9466 128.061 79.0114 128.04 79.078 128.04C79.1446 128.04 79.2095 128.061 79.2633 128.101C79.3171 128.14 79.3571 128.195 79.3774 128.259Z"
        fill="#263238" stroke="#263238" stroke-width="0.0944665" stroke-miterlimit="10" />
    <path
        d="M120.236 98.2086C122.148 98.2086 124.018 97.6415 125.608 96.5788C127.199 95.5162 128.438 94.0058 129.17 92.2386C129.902 90.4715 130.094 88.527 129.721 86.651C129.347 84.7751 128.426 83.0519 127.074 81.6994C125.721 80.3469 123.998 79.4258 122.122 79.0526C120.246 78.6795 118.302 78.871 116.535 79.603C114.768 80.3349 113.257 81.5745 112.194 83.1649C111.132 84.7552 110.565 86.625 110.565 88.5377C110.567 91.1018 111.587 93.5601 113.4 95.3732C115.213 97.1862 117.671 98.206 120.236 98.2086ZM120.236 81.7069C121.586 81.7075 122.907 82.1087 124.03 82.8597C125.153 83.6107 126.028 84.6778 126.544 85.926C127.061 87.1742 127.195 88.5476 126.931 89.8724C126.667 91.1973 126.017 92.4141 125.061 93.3691C124.106 94.324 122.889 94.9743 121.564 95.2376C120.239 95.5009 118.865 95.3654 117.617 94.8483C116.369 94.3312 115.303 93.4557 114.552 92.3324C113.802 91.2092 113.401 89.8886 113.401 88.5377C113.403 86.726 114.124 84.9891 115.405 83.7084C116.687 82.4276 118.424 81.7078 120.236 81.7069Z"
        fill="#263238" stroke="#263238" stroke-width="0.0944665" stroke-miterlimit="10" />
    <path
        d="M120.236 98.2088C121.541 98.2128 122.833 97.9505 124.034 97.4381C125.234 96.9256 126.317 96.1736 127.217 95.2282L125.166 93.2646C124.531 93.9325 123.766 94.4636 122.918 94.8255C122.07 95.1873 121.157 95.3721 120.236 95.3687C119.339 95.3687 118.45 95.192 117.622 94.8487C116.793 94.5055 116.04 94.0023 115.406 93.368C114.771 92.7337 114.268 91.9807 113.925 91.1519C113.581 90.3232 113.405 89.4349 113.405 88.5378C113.405 87.6408 113.581 86.7525 113.925 85.9238C114.268 85.095 114.771 84.342 115.406 83.7077C116.04 83.0734 116.793 82.5702 117.622 82.227C118.45 81.8837 119.339 81.707 120.236 81.707V78.8669C118.966 78.8669 117.708 79.1171 116.535 79.6031C115.361 80.0891 114.295 80.8015 113.397 81.6995C112.499 82.5975 111.787 83.6636 111.301 84.837C110.815 86.0103 110.565 87.2678 110.565 88.5378C110.565 89.8078 110.815 91.0654 111.301 92.2387C111.787 93.4121 112.499 94.4782 113.397 95.3762C114.295 96.2742 115.361 96.9866 116.535 97.4726C117.708 97.9586 118.966 98.2088 120.236 98.2088Z"
        fill="#292D32" stroke="#263238" stroke-width="0.0944665" stroke-miterlimit="10" />
    <path
        d="M96.3845 98.2088C98.2974 98.2094 100.167 97.6428 101.758 96.5806C103.349 95.5183 104.589 94.0081 105.322 92.2411C106.054 90.474 106.246 88.5294 105.873 86.6532C105.501 84.777 104.58 83.0535 103.227 81.7007C101.875 80.3478 100.152 79.4264 98.2758 79.053C96.3997 78.6796 94.4551 78.8709 92.6877 79.6028C90.9204 80.3347 89.4098 81.5742 88.347 83.1646C87.2842 84.7551 86.717 86.625 86.717 88.5379C86.7196 91.1013 87.7389 93.5591 89.5512 95.3721C91.3636 97.1851 93.821 98.2052 96.3845 98.2088ZM96.3845 81.707C97.7352 81.7083 99.0553 82.1101 100.178 82.8615C101.3 83.6129 102.175 84.6801 102.691 85.9284C103.207 87.1767 103.341 88.55 103.077 89.8746C102.812 91.1992 102.161 92.4157 101.206 93.3704C100.25 94.325 99.0329 94.9749 97.708 95.2379C96.3831 95.501 95.01 95.3653 93.7622 94.8481C92.5144 94.3309 91.448 93.4554 90.6977 92.3322C89.9474 91.209 89.547 89.8886 89.547 88.5379C89.5496 86.7259 90.2711 84.9889 91.553 83.7083C92.8349 82.4276 94.5725 81.7079 96.3845 81.707Z"
        fill="#263238" stroke="#263238" stroke-width="0.0944665" stroke-miterlimit="10" />
    <path
        d="M92.6212 97.4461L93.7251 94.8335C92.2744 94.2186 91.0807 93.1213 90.3461 91.7273C89.6116 90.3334 89.3812 88.7284 89.6941 87.1842C90.007 85.6399 90.8438 84.2511 92.063 83.253C93.2822 82.2549 94.8089 81.7088 96.3845 81.707V78.8669C94.1531 78.8672 91.9904 79.6391 90.2631 81.0517C88.5358 82.4644 87.3501 84.4309 86.9071 86.6179C86.4641 88.8049 86.7911 91.0779 87.8325 93.0514C88.8739 95.0249 90.5658 96.5775 92.6212 97.4461Z"
        fill="#292D32" stroke="#263238" stroke-width="0.0944665" stroke-miterlimit="10" />
    <path
        d="M72.5367 98.2088C74.4494 98.2088 76.3192 97.6416 77.9096 96.5789C79.5 95.5163 80.7395 94.0059 81.4715 92.2388C82.2034 90.4716 82.395 88.5271 82.0218 86.6512C81.6487 84.7752 80.7276 83.052 79.3751 81.6995C78.0226 80.347 76.2994 79.4259 74.4234 79.0528C72.5475 78.6796 70.603 78.8711 68.8358 79.6031C67.0687 80.3351 65.5583 81.5746 64.4957 83.165C63.433 84.7554 62.8658 86.6251 62.8658 88.5379C62.8685 91.1019 63.8882 93.5602 65.7013 95.3733C67.5144 97.1864 69.9727 98.2061 72.5367 98.2088ZM72.5367 81.707C73.8877 81.707 75.2084 82.1076 76.3317 82.8582C77.4551 83.6088 78.3306 84.6756 78.8476 85.9238C79.3646 87.172 79.4999 88.5454 79.2363 89.8705C78.9728 91.1955 78.3222 92.4127 77.3669 93.368C76.4116 94.3233 75.1944 94.9739 73.8694 95.2375C72.5443 95.501 71.1708 95.3658 69.9227 94.8487C68.6745 94.3317 67.6077 93.4562 66.8571 92.3329C66.1065 91.2095 65.7059 89.8889 65.7059 88.5379C65.7076 86.7267 66.4279 84.9903 67.7085 83.7097C68.9892 82.429 70.7256 81.7088 72.5367 81.707Z"
        fill="#263238" stroke="#263238" stroke-width="0.0944665" stroke-miterlimit="10" />
    <path
        d="M65.8397 87.1764C66.1571 85.635 66.9954 84.2498 68.2138 83.2538C69.4322 82.2578 70.9563 81.7116 72.5301 81.707V78.8669C70.3012 78.8726 68.1423 79.6456 66.4163 81.056C64.6904 82.4663 63.5028 84.428 63.0532 86.611L65.8397 87.1764Z"
        fill="#292D32" stroke="#263238" stroke-width="0.0944665" stroke-miterlimit="10" />
    <path d="M116.379 68.1589H70.9611" stroke="#263238" stroke-width="0.0944665"
        stroke-miterlimit="10" />
    <path d="M116.379 68.1589V67.1921" stroke="#263238" stroke-width="0.0944665"
        stroke-miterlimit="10" />
    <path d="M107.296 68.1589V67.1921" stroke="#263238" stroke-width="0.0944665"
        stroke-miterlimit="10" />
    <path d="M98.2109 68.1589V67.1921" stroke="#263238" stroke-width="0.0944665"
        stroke-miterlimit="10" />
    <path d="M89.1287 68.1589V67.1921" stroke="#263238" stroke-width="0.0944665"
        stroke-miterlimit="10" />
    <path d="M80.0466 68.1589V67.1921" stroke="#263238" stroke-width="0.0944665"
        stroke-miterlimit="10" />
    <path d="M70.9611 68.1589V67.1921" stroke="#263238" stroke-width="0.0944665"
        stroke-miterlimit="10" />
    <path d="M108.568 55.2499H115.107V62.994H108.568V55.2499Z" fill="#292D32" stroke="#263238"
        stroke-width="0.0944665" stroke-miterlimit="10" />
    <path d="M99.4854 46.2145H106.025V64.2852H99.4854V46.2145Z" fill="#292D32" stroke="#263238"
        stroke-width="0.0944665" stroke-miterlimit="10" />
    <path d="M90.3999 33.5664H96.9397V53.7044H90.3999V33.5664Z" fill="#292D32" stroke="#263238"
        stroke-width="0.0944665" stroke-miterlimit="10" />
    <path d="M81.3177 52.4131H87.8576V56.2869H81.3177V52.4131Z" fill="#292D32" stroke="#263238"
        stroke-width="0.0944665" stroke-miterlimit="10" />
    <path d="M72.2356 50.0882H78.7754V60.1572H72.2356V50.0882Z" fill="#292D32" stroke="#263238"
        stroke-width="0.0944665" stroke-miterlimit="10" />
    <path d="M108.568 62.9973H115.107V68.1622H108.568V62.9973Z" fill="#263238" stroke="#263238"
        stroke-width="0.0944665" stroke-miterlimit="10" />
    <path d="M99.4854 64.2885H106.025V68.1622H99.4854V64.2885Z" fill="#263238" stroke="#263238"
        stroke-width="0.0944665" stroke-miterlimit="10" />
    <path d="M90.3999 53.701H96.9397V68.1589H90.3999V53.701Z" fill="#263238" stroke="#263238"
        stroke-width="0.0944665" stroke-miterlimit="10" />
    <path d="M81.3177 56.2835H87.8576V68.1589H81.3177V56.2835Z" fill="#263238" stroke="#263238"
        stroke-width="0.0944665" stroke-miterlimit="10" />
    <path d="M72.2356 60.1572H78.7754V68.1589H72.2356V60.1572Z" fill="#263238" stroke="#263238"
        stroke-width="0.0944665" stroke-miterlimit="10" />
    <path
        d="M58.8581 29.9102C58.9368 29.9107 59.0143 29.8918 59.0837 29.855C59.1532 29.8182 59.2125 29.7648 59.2562 29.6994L73.326 9.18012L87.5999 24.4007L102.175 14.9004L116.275 18.172L130.595 29.8031C130.695 29.8839 130.822 29.9218 130.95 29.9087C131.077 29.8955 131.194 29.8323 131.275 29.7329C131.355 29.6335 131.393 29.5062 131.38 29.3788C131.367 29.2515 131.304 29.1346 131.204 29.0538L116.71 17.2821L101.991 13.8667L87.7471 23.1529L73.2056 7.64468L58.4601 29.1542C58.4101 29.2264 58.3807 29.3108 58.3753 29.3985C58.3698 29.4861 58.3884 29.5736 58.429 29.6514C58.4697 29.7293 58.5308 29.7945 58.6059 29.8401C58.6809 29.8857 58.767 29.91 58.8548 29.9102H58.8581Z"
        fill="#263238" />
    <path
        d="M129.689 29.4285C129.689 29.6647 129.759 29.8956 129.89 30.092C130.021 30.2884 130.208 30.4414 130.426 30.5318C130.644 30.6222 130.884 30.6459 131.116 30.5998C131.348 30.5537 131.561 30.44 131.728 30.2729C131.895 30.1059 132.008 29.8931 132.054 29.6615C132.101 29.4298 132.077 29.1897 131.986 28.9715C131.896 28.7533 131.743 28.5668 131.547 28.4355C131.35 28.3043 131.119 28.2343 130.883 28.2343C130.566 28.2343 130.263 28.3601 130.039 28.584C129.815 28.808 129.689 29.1118 129.689 29.4285Z"
        fill="#292D32" />
    <path
        d="M116.492 18.9213C115.833 18.9213 115.298 18.3866 115.298 17.7271C115.298 17.0675 115.833 16.5328 116.492 16.5328C117.152 16.5328 117.686 17.0675 117.686 17.7271C117.686 18.3866 117.152 18.9213 116.492 18.9213Z"
        fill="#292D32" />
    <path
        d="M102.085 15.5761C101.425 15.5761 100.89 15.0415 100.89 14.3819C100.89 13.7223 101.425 13.1877 102.085 13.1877C102.744 13.1877 103.279 13.7223 103.279 14.3819C103.279 15.0415 102.744 15.5761 102.085 15.5761Z"
        fill="#292D32" />
    <path
        d="M87.6768 24.9694C87.0173 24.9694 86.4826 24.4347 86.4826 23.7751C86.4826 23.1156 87.0173 22.5809 87.6768 22.5809C88.3364 22.5809 88.8711 23.1156 88.8711 23.7751C88.8711 24.4347 88.3364 24.9694 87.6768 24.9694Z"
        fill="#292D32" />
    <path
        d="M72.0749 8.41408C72.0749 8.65027 72.145 8.88117 72.2762 9.07756C72.4074 9.27395 72.594 9.42701 72.8122 9.5174C73.0304 9.60779 73.2705 9.63144 73.5022 9.58536C73.7338 9.53928 73.9466 9.42554 74.1136 9.25853C74.2806 9.09151 74.3944 8.87872 74.4405 8.64706C74.4865 8.4154 74.4629 8.17528 74.3725 7.95707C74.2821 7.73885 74.1291 7.55234 73.9327 7.42111C73.7363 7.28989 73.5054 7.21985 73.2692 7.21985C72.9525 7.21985 72.6487 7.34567 72.4247 7.56963C72.2008 7.79359 72.0749 8.09735 72.0749 8.41408Z"
        fill="#292D32" />
    <path
        d="M57.6673 29.4285C57.6673 29.6647 57.7373 29.8956 57.8685 30.092C57.9998 30.2884 58.1863 30.4414 58.4045 30.5318C58.6227 30.6222 58.8628 30.6459 59.0945 30.5998C59.3261 30.5537 59.5389 30.44 59.7059 30.2729C59.873 30.1059 59.9867 29.8931 60.0328 29.6615C60.0789 29.4298 60.0552 29.1897 59.9648 28.9715C59.8744 28.7533 59.7214 28.5668 59.525 28.4355C59.3286 28.3043 59.0977 28.2343 58.8615 28.2343C58.5448 28.2343 58.241 28.3601 58.0171 28.584C57.7931 28.808 57.6673 29.1118 57.6673 29.4285Z"
        fill="#292D32" />
    <path
        d="M33.107 143.252C20.3556 143.252 10.0185 141.863 10.0185 140.151C10.0185 138.438 20.3556 137.05 33.107 137.05C45.8584 137.05 56.1954 138.438 56.1954 140.151C56.1954 141.863 45.8584 143.252 33.107 143.252Z"
        fill="#292D32" />
    <path opacity="0.7"
        d="M33.107 143.252C20.3556 143.252 10.0185 141.863 10.0185 140.151C10.0185 138.438 20.3556 137.05 33.107 137.05C45.8584 137.05 56.1954 138.438 56.1954 140.151C56.1954 141.863 45.8584 143.252 33.107 143.252Z"
        fill="white" />
    <path
        d="M159.602 143.251C147.835 143.251 138.296 141.863 138.296 140.15C138.296 138.438 147.835 137.049 159.602 137.049C171.368 137.049 180.907 138.438 180.907 140.15C180.907 141.863 171.368 143.251 159.602 143.251Z"
        fill="#292D32" />
    <path opacity="0.7"
        d="M159.602 143.251C147.835 143.251 138.296 141.863 138.296 140.15C138.296 138.438 147.835 137.049 159.602 137.049C171.368 137.049 180.907 138.438 180.907 140.15C180.907 141.863 171.368 143.251 159.602 143.251Z"
        fill="white" />
    <path
        d="M39.6235 30.9068C39.6235 30.9068 30.8524 30.0571 30.3507 31.519C29.8489 32.9808 30.0161 36.3193 30.0161 36.3193C29.5743 36.4342 29.1433 36.5875 28.7283 36.7776C28.6112 36.8913 27.3132 37.741 28.5242 39.1359C28.8405 39.4897 29.2236 39.7773 29.6515 39.9823C30.1855 40.2187 30.6934 40.5102 31.1669 40.852L32.9264 42.8491L32.5919 45.4215C32.5919 45.4215 31.8058 45.9902 30.8458 47.9739C30.8458 47.9739 28.5777 49.312 27.2463 50.0713C26.1515 50.6466 25.0128 51.1343 23.841 51.5298C23.841 51.5298 23.2321 51.7272 23.2756 52.1654C23.3191 52.6036 26.3063 62.5355 26.3063 62.5355L27.8786 67.5532C27.9084 68.1699 27.989 68.783 28.1194 69.3864C28.3436 70.4669 29.1865 71.1761 30.0596 70.9553L29.9726 74.635C29.9726 74.635 34.0739 76.6856 40.8378 76.3377C40.8378 76.3377 44.0224 76.0299 46.3774 74.2871L46.4209 65.69L57.2726 63.5892C57.2726 63.5892 58.6475 63.2982 57.9417 62.0604C57.2359 60.8227 54.8641 57.7519 54.8641 57.7519L47.2405 48.4255C47.2405 48.4255 46.7153 47.8066 46.5213 47.6093C46.3272 47.4119 45.8522 47.2748 43.9689 47.1175C42.0855 46.9603 39.9747 46.5957 39.9747 46.5957C39.9747 46.5957 38.8307 45.6122 38.6668 45.6122C38.5029 45.6122 38.4694 44.1403 38.4694 44.1403C39.048 43.7228 39.5291 43.1849 39.8797 42.5635C40.2302 41.942 40.4418 41.252 40.4999 40.5409C40.6638 38.1525 39.6168 32.556 39.6168 32.556L39.6235 30.9068Z"
        fill="white" />
    <path
        d="M46.2436 74.2536C46.2436 74.2536 47.1668 87.9689 47.1668 94.5321C47.1668 101.095 46.7554 106.411 46.5513 111.02C46.3473 115.63 47.1668 118.805 46.451 122.183C45.7351 125.562 44.0926 135.397 44.0926 135.397L42.1624 136.561C42.1624 136.561 41.8279 128.737 41.1254 125.973C40.423 123.21 40.2022 111.532 39.7874 107.946C39.3726 104.36 38.0445 91.6619 38.0445 91.6619C38.0445 91.6619 32.9231 104.976 31.6887 110.201C30.4543 115.426 26.2595 127.201 25.3329 130.068C24.4062 132.935 22.9779 137.183 22.9779 137.183C22.5438 137.31 22.0879 137.344 21.6398 137.283C21.4462 137.268 21.2598 137.203 21.0983 137.096C20.9367 136.988 20.8053 136.841 20.7165 136.668C20.7165 136.668 22.078 128.091 22.6768 123.923C23.4161 118.768 24.6203 111.02 25.3529 108.154C26.0855 105.287 27.1961 100.778 27.1961 98.6266C27.1961 96.4756 29.9592 74.8758 29.9592 74.8758C29.9592 74.8758 39.5867 79.0673 46.2436 74.2536Z"
        fill="#263238" />
    <path d="M38.0512 91.6619L42.1591 86.8717" stroke="white" stroke-width="0.0472332"
        stroke-miterlimit="10" stroke-linecap="round" />
    <path d="M43.2095 87.2229L39.8275 90.3707" stroke="white" stroke-width="0.0472332"
        stroke-miterlimit="10" stroke-linecap="round" />
    <path d="M35.9806 87.5742C35.1146 85.383 33.5053 83.5665 31.4345 82.4426" stroke="white"
        stroke-width="0.0472332" stroke-miterlimit="10" stroke-linecap="round" />
    <path
        d="M31.2037 76.0333C31.2037 76.0333 31.6686 77.7794 31.0866 78.8298C30.5045 79.8802 29.9191 79.8802 29.9191 79.8802C29.9191 79.8802 28.8721 85.5904 28.8721 88.8553C28.8721 92.1202 29.5712 92.4681 28.8721 96.0809C28.1729 99.6937 27.7046 100.861 27.7046 102.959C27.7046 105.056 26.7746 106.458 25.9584 107.739C25.1422 109.02 24.908 112.757 24.908 114.265C24.908 115.774 24.443 117.413 23.9747 118.928C23.9747 118.928 23.8643 122.327 23.2756 123.123C22.6868 123.919 22.5764 126.622 22.5764 126.622"
        stroke="white" stroke-width="0.0472332" stroke-miterlimit="10" stroke-linecap="round" />
    <path
        d="M38.8942 91.1869C38.8942 91.1869 38.6634 93.8631 39.4796 98.5296C40.2959 103.196 40.8779 104.474 40.995 109.836C41.1121 115.199 40.6438 116.132 40.8779 118.928C41.1121 121.725 42.5104 126.144 42.5104 128.151C42.5104 130.158 42.2963 136.574 42.2963 136.574"
        stroke="white" stroke-width="0.0472332" stroke-miterlimit="10" stroke-linecap="round" />
    <path d="M41.46 76.7324L41.2258 77.6657L39.7105 78.0136L39.9446 76.8495" stroke="white"
        stroke-width="0.0472332" stroke-miterlimit="10" stroke-linecap="round" />
    <path d="M39.7038 78.0136C39.7038 78.0136 36.9072 77.8965 35.5089 77.4315L35.8434 76.4982"
        stroke="white" stroke-width="0.0472332" stroke-miterlimit="10" stroke-linecap="round" />
    <path d="M34.5823 76.2641L34.2478 77.4316C34.2478 77.4316 32.0099 77.3044 31.6753 76.9699"
        stroke="white" stroke-width="0.0472332" stroke-miterlimit="10" stroke-linecap="round" />
    <path
        d="M41.2258 77.6657C41.9989 77.6414 42.7562 77.4412 43.4403 77.0803L44.4907 76.4982L44.1562 75.682"
        stroke="white" stroke-width="0.0472332" stroke-miterlimit="10" stroke-linecap="round" />
    <path
        d="M44.0926 135.397C44.0926 135.397 49.1104 138.672 49.8296 140.207C50.5488 141.743 47.6787 141.13 45.6314 140.311C43.5842 139.491 42.2862 136.561 42.2862 136.561L44.0926 135.397Z"
        fill="white" stroke="#263238" stroke-width="0.0944665" stroke-miterlimit="10"
        stroke-linecap="round" />
    <path
        d="M22.8173 137.227C22.5643 138.63 22.066 139.977 21.3454 141.207C20.2415 142.923 18.1575 144.395 18.1575 141.696C18.1575 138.996 20.7299 136.678 20.7299 136.678C20.7299 136.678 22.0078 137.37 22.8173 137.227Z"
        fill="white" stroke="#263238" stroke-width="0.0944665" stroke-miterlimit="10"
        stroke-linecap="round" />
    <path
        d="M39.6536 32.7601C39.6536 32.7601 40.7408 39.5039 40.3728 41.1765C39.5332 44.9198 36.5861 44.7592 34.7429 44.0433C33.0201 43.3743 31.3007 41.0093 31.0799 40.6982C31.0642 40.6762 31.042 40.6598 31.0164 40.6513C30.7421 40.5744 29.0394 40.0325 28.29 38.7178C27.4705 37.2827 29.0059 36.6706 29.0059 36.6706"
        fill="white" />
    <mask id="mask0_7_1994" style="mask-type:luminance" maskUnits="userSpaceOnUse" x="28" y="32"
        width="13" height="13">
        <path
            d="M39.6536 32.7601C39.6536 32.7601 40.7408 39.5039 40.3728 41.1765C39.5332 44.9198 36.5861 44.7592 34.7429 44.0433C33.0201 43.3743 31.3007 41.0093 31.0799 40.6982C31.0642 40.6762 31.042 40.6598 31.0164 40.6513C30.7421 40.5744 29.0394 40.0325 28.29 38.7178C27.4705 37.2827 29.0059 36.6706 29.0059 36.6706"
            fill="white" />
    </mask>
    <g mask="url(#mask0_7_1994)">
        <g style="mix-blend-mode:multiply" opacity="0.5">
            <path
                d="M32.6789 42.4343L31.0531 40.648C31.0531 40.648 29.1297 40.0559 28.29 38.7011C27.7983 37.9083 28.0692 37.2158 28.3669 37.0285C28.7749 36.8076 29.1961 36.6121 29.6281 36.4431L30.1734 37.644L30.6383 37.7243C30.6383 37.7243 30.4443 36.4866 31.0063 35.754C31.5683 35.0214 31.6954 32.9005 31.6954 32.9005C31.6954 32.9005 32.4815 37.1289 32.5785 38.8984C32.6035 39.8833 32.9112 40.8401 33.465 41.6549C33.465 41.6549 33.3646 42.7354 33.1706 43.8159C33.1472 43.943 33.1238 44.1337 33.1004 44.3712L32.8328 43.943L32.6856 44.3511C32.8528 43.6486 32.9298 42.9026 32.6789 42.4343Z"
                fill="#292D32" />
        </g>
    </g>
    <path
        d="M39.6536 32.7601C39.6536 32.7601 40.7408 39.5039 40.3728 41.1765C39.5332 44.9198 36.5861 44.7592 34.7429 44.0433C33.0201 43.3743 31.3007 41.0093 31.0799 40.6982C31.0642 40.6762 31.042 40.6598 31.0164 40.6513C30.7421 40.5744 29.0394 40.0325 28.29 38.7178C27.4705 37.2827 29.0059 36.6706 29.0059 36.6706"
        stroke="#263238" stroke-width="0.0944665" stroke-miterlimit="10" stroke-linecap="round" />
    <path
        d="M35.4922 36.1889C35.5557 36.4565 35.4922 36.6973 35.3684 36.7274C35.2446 36.7575 35.0774 36.5702 35.0138 36.3059C34.9503 36.0417 35.0138 35.8008 35.1376 35.7674C35.2614 35.7339 35.4286 35.9246 35.4922 36.1889Z"
        fill="#263238" />
    <path
        d="M38.3657 35.4897C38.4292 35.7573 38.3657 35.9982 38.2419 36.0283C38.1181 36.0584 37.9509 35.8711 37.8873 35.6068C37.8238 35.3425 37.8873 35.0983 38.0111 35.0682C38.1349 35.0381 38.3055 35.2221 38.3657 35.4897Z"
        fill="#263238" />
    <path
        d="M33.7092 35.018C33.8672 34.7399 34.0923 34.5057 34.364 34.3369C34.6357 34.168 34.9454 34.0698 35.2647 34.0513"
        stroke="#263238" stroke-width="0.0944665" stroke-miterlimit="10" stroke-linecap="round" />
    <path
        d="M37.4658 34.1015C37.7291 33.9864 38.0212 33.9542 38.3033 34.0091C38.5853 34.0641 38.844 34.2037 39.0448 34.4092"
        stroke="#263238" stroke-width="0.0944665" stroke-miterlimit="10" stroke-linecap="round" />
    <path
        d="M37.2718 35.3191C37.2655 35.7672 37.2991 36.215 37.3722 36.6572C37.4826 37.2158 37.9175 37.3262 37.8071 37.7577C37.6967 38.1893 37.138 38.2328 37.138 38.2328"
        stroke="#263238" stroke-width="0.0944665" stroke-miterlimit="10" stroke-linecap="round" />
    <path
        d="M36.556 39.9756C36.3192 40.051 36.0689 40.0742 35.8223 40.0436C35.5757 40.013 35.3387 39.9293 35.1276 39.7983"
        stroke="#263238" stroke-width="0.0944665" stroke-miterlimit="10" stroke-linecap="round" />
    <path
        d="M31.2572 28.05C31.2572 28.05 33.5085 26.1031 35.6594 26.1031C37.8104 26.1031 39.5532 27.3342 40.8846 27.4412C42.216 27.5483 43.1359 26.3139 43.9555 27.953C44.775 29.5922 41.7008 32.3586 39.6536 32.7667C37.6063 33.1749 34.7395 32.5627 33.9199 32.459C33.1348 32.4052 32.3468 32.4052 31.5616 32.459C31.5616 32.459 32.1771 34.4059 31.5616 35.0214C30.9461 35.6369 30.8457 36.045 30.8457 36.4531C30.8106 36.9036 30.7424 37.3508 30.6417 37.7912L30.0262 37.9986L29.7184 36.8713C28.888 35.9857 28.3204 34.8865 28.0793 33.6967C27.7748 31.8535 29.3103 30.017 29.3103 30.017L31.2572 28.05Z"
        fill="#263238" />
    <path
        d="M39.8811 31.9271C39.8811 31.9271 36.3787 32.5961 33.6356 31.4554C30.8926 30.3147 33.2576 28.05 33.2576 28.05"
        stroke="white" stroke-width="0.0472332" stroke-miterlimit="10" stroke-linecap="round" />
    <path
        d="M32.6789 27.8594C32.3946 27.8594 30.0295 29.6557 30.5045 30.9804C30.9795 32.3051 31.9229 32.4021 31.9229 32.4021"
        stroke="white" stroke-width="0.0472332" stroke-miterlimit="10" stroke-linecap="round" />
    <path
        d="M33.0669 68.4932L36.0241 66.9344C36.7841 66.8923 37.5399 66.7939 38.2854 66.64C38.9745 66.4426 46.0462 65.7669 46.0462 65.7669L46.1533 67.4395C46.1533 67.4395 38.088 68.5233 36.4188 68.7207C34.7495 68.9181 33.271 69.7042 32.9766 70.1959C32.6822 70.6877 32.0901 71.1794 32.3845 72.5376C32.6789 73.8957 34.6458 75.8827 34.6458 75.8827C34.7395 75.7422 29.9158 75.3943 29.9626 74.8792C30.0663 73.8556 30.6116 70.865 30.6116 70.865L33.0669 68.4932Z"
        fill="#292D32" />
    <path opacity="0.5"
        d="M33.0669 68.4932L36.0241 66.9344C36.7841 66.8923 37.5399 66.7939 38.2854 66.64C38.9745 66.4426 46.0462 65.7669 46.0462 65.7669L46.1533 67.4395C46.1533 67.4395 38.088 68.5233 36.4188 68.7207C34.7495 68.9181 33.271 69.7042 32.9766 70.1959C32.6822 70.6877 32.0901 71.1794 32.3845 72.5376C32.6789 73.8957 34.6458 75.8827 34.6458 75.8827C34.7228 75.7322 29.9057 75.391 29.9626 74.8792C30.1198 73.5746 30.6116 70.865 30.6116 70.865L33.0669 68.4932Z"
        fill="white" />
    <path
        d="M23.3124 52.1286C23.5733 50.9043 25.5202 51.0682 26.6943 50.3891C27.8685 49.7101 30.7086 48.1378 30.7086 48.1378L32.0834 46.0705C32.3316 45.5131 32.5319 44.9357 32.6822 44.3444L32.8294 43.9363L33.097 44.3645C32.9264 46.1976 32.7625 50.8909 32.7625 50.8909L32.1737 53.8414C32.1737 53.8414 29.9091 63.5758 29.3203 65.7402C28.7316 67.9045 28.7316 69.3764 29.1229 70.0655C29.5143 70.7546 29.3839 71.069 29.3839 71.069C29.3839 71.069 27.8484 69.8815 27.9421 68.704C28.0659 67.3191 23.1284 52.9582 23.3124 52.1286Z"
        fill="#292D32" />
    <path opacity="0.5"
        d="M23.3124 52.1286C23.4462 50.8842 25.5202 51.0682 26.6943 50.3891C27.8685 49.7101 30.7086 48.1378 30.7086 48.1378L32.0834 46.0705C32.3316 45.5131 32.5319 44.9357 32.6822 44.3444L32.8294 43.9363L33.097 44.3645C32.9264 46.1976 32.7625 50.8909 32.7625 50.8909L32.1737 53.8414C32.1737 53.8414 29.9091 63.5758 29.3203 65.7402C28.7316 67.9045 28.7316 69.3764 29.1229 70.0655C29.5143 70.7546 29.3839 71.069 29.3839 71.069C29.3839 71.069 27.805 69.8781 27.9421 68.704C28.0993 67.4429 23.1919 53.1623 23.3124 52.1286Z"
        fill="white" />
    <path
        d="M31.9061 50.901C31.9061 50.901 32.5217 45.3714 32.8294 43.9363C33.1372 42.5012 32.9298 41.685 34.2611 41.685C35.5925 41.685 37.2317 41.4776 36.9373 42.1968C36.6429 42.916 34.5957 42.2972 34.2611 42.6049C33.9266 42.9127 34.1608 43.6285 34.1608 43.6285C34.1608 43.6285 36.8369 43.8359 36.8369 44.5518C36.8369 45.2677 36.7332 47.228 36.2214 47.4186C35.7096 47.6093 35.5056 46.4987 35.5056 46.4987C35.5056 46.4987 35.4018 48.8403 34.89 49.6733C34.5641 50.1877 34.1863 50.6675 33.7627 51.105L31.9061 50.901Z"
        fill="white" stroke="#263238" stroke-width="0.0944665" stroke-miterlimit="10"
        stroke-linecap="round" />
    <path
        d="M33.7493 52.4364C33.7493 52.4364 34.0571 65.1481 33.5453 67.1853C33.0335 69.2225 30.267 71.999 28.8353 70.6676C27.4035 69.3362 28.1161 66.4694 28.1161 65.138C28.1161 63.8067 31.3943 53.9752 31.3943 53.256C31.4431 52.6587 31.5818 52.0723 31.8058 51.5165"
        stroke="#263238" stroke-width="0.0944665" stroke-miterlimit="10" stroke-linecap="round" />
    <path d="M33.5453 53.9752L31.498 53.7678" stroke="#263238" stroke-width="0.0944665"
        stroke-miterlimit="10" stroke-linecap="round" />
    <path
        d="M46.6383 60.331L46.2436 49.021C46.2436 49.021 46.7353 48.7266 46.9327 49.8071C47.13 50.8876 47.2271 53.0552 47.2271 53.0552C47.2271 53.0552 49.5888 51.58 48.9967 52.4631C48.4046 53.3463 47.4244 55.3166 47.4244 55.3166L51.0774 58.9528L49.4048 59.6419L46.6383 60.331Z"
        fill="#292D32" />
    <path opacity="0.5"
        d="M46.6383 60.331L46.2436 49.021C46.2436 49.021 46.7353 48.7266 46.9327 49.8071C47.13 50.8876 47.2271 53.0552 47.2271 53.0552C47.2271 53.0552 49.5888 51.58 48.9967 52.4631C48.4046 53.3463 47.4244 55.3166 47.4244 55.3166L51.0774 58.9528L49.4048 59.6419L46.6383 60.331Z"
        fill="white" />
    <path
        d="M41.741 51.5466C41.741 51.5466 41.9283 52.2156 41.1422 52.2156C40.3561 52.2156 38.9745 51.657 38.9745 51.657L39.0749 50.5464C39.0749 50.5464 40.9649 51.4663 41.741 51.5466Z"
        fill="#292D32" />
    <path opacity="0.5"
        d="M41.741 51.5466C41.741 51.5466 41.9283 52.2156 41.1422 52.2156C40.3561 52.2156 38.9745 51.657 38.9745 51.657L39.0749 50.5464C39.0749 50.5464 40.9649 51.4663 41.741 51.5466Z"
        fill="white" />
    <path
        d="M38.3657 44.0667C38.3657 44.0667 39.3893 50.0881 38.7738 51.4261C38.1583 52.7642 37.2384 52.4498 36.5225 51.8376C35.8066 51.2254 34.8834 49.6866 34.8834 49.6866"
        stroke="#263238" stroke-width="0.0944665" stroke-miterlimit="10" stroke-linecap="round" />
    <path
        d="M46.451 65.8539L46.2436 74.2536C46.2436 74.2536 43.902 76.5049 39.3826 76.5049C34.8633 76.5049 29.9593 74.8658 29.9593 74.8658V71.8953"
        stroke="#263238" stroke-width="0.0944665" stroke-miterlimit="10" stroke-linecap="round" />
    <path
        d="M32.622 45.2677C32.622 45.2677 30.7788 47.1108 30.7788 48.8537C30.7788 50.5965 31.0866 51.0046 31.0866 51.0046"
        stroke="#263238" stroke-width="0.0944665" stroke-miterlimit="10" stroke-linecap="round" />
    <path
        d="M30.9862 47.8301C30.9862 47.8301 28.2198 49.4658 26.6843 50.3891C25.1489 51.3124 23.3024 51.309 23.3024 52.1286C23.3024 52.9482 27.6043 66.8775 27.6043 66.8775"
        stroke="#263238" stroke-width="0.0944665" stroke-miterlimit="10" stroke-linecap="round" />
    <path d="M29.2434 52.4364L30.267 56.5342" stroke="#263238" stroke-width="0.0944665"
        stroke-miterlimit="10" stroke-linecap="round" />
    <path d="M46.4242 54.8416L48.0801 51.3693" stroke="#263238" stroke-width="0.0472332"
        stroke-miterlimit="10" stroke-linecap="round" />
    <path d="M46.4242 55.8351L48.9064 54.3465" stroke="#263238" stroke-width="0.0472332"
        stroke-miterlimit="10" stroke-linecap="round" />
    <path d="M38.3255 63.6026L38.8206 66.0847" stroke="#263238" stroke-width="0.0472332"
        stroke-miterlimit="10" stroke-linecap="round" />
    <path d="M24.9348 52.0316C24.9348 52.0316 27.4136 52.5267 29.7285 55.3367" stroke="#263238"
        stroke-width="0.0472332" stroke-miterlimit="10" stroke-linecap="round" />
    <path d="M26.5873 51.8811C26.5873 51.8811 27.2563 51.7138 29.5612 53.6975" stroke="#263238"
        stroke-width="0.0472332" stroke-miterlimit="10" stroke-linecap="round" />
    <path d="M38.3256 52.694L39.3157 60.4615L38.4895 60.6287L37.8271 58.15" stroke="#263238"
        stroke-width="0.0472332" stroke-miterlimit="10" stroke-linecap="round" />
    <path d="M37.6632 73.0259C40.6404 75.5081 44.7717 75.3408 44.7717 75.3408" stroke="#263238"
        stroke-width="0.0472332" stroke-miterlimit="10" stroke-linecap="round" />
    <path d="M50.2444 59.5349C50.2444 59.5349 52.2683 57.6816 55.1351 60.04" stroke="#263238"
        stroke-width="0.0472332" stroke-miterlimit="10" stroke-linecap="round" />
    <path
        d="M38.5631 45.5754C38.5631 45.5754 39.3826 45.7795 40.3059 47.2145C41.2292 48.6496 42.3531 51.105 41.5336 51.309C40.714 51.5131 39.1919 50.5932 39.1919 50.5932"
        stroke="#263238" stroke-width="0.0944665" stroke-miterlimit="10" stroke-linecap="round" />
    <path d="M35.3885 51.0047L34.3648 51.9246" stroke="#263238" stroke-width="0.0944665"
        stroke-miterlimit="10" stroke-linecap="round" />
    <path
        d="M39.9981 46.5991C39.9981 46.5991 43.7882 47.1109 45.3236 47.2146C46.8591 47.3183 46.5614 47.8836 47.0631 48.2382C47.8727 48.8035 57.1589 60.5752 57.7677 61.7025C58.3765 62.8299 58.2795 63.3417 57.2559 63.6494C56.2323 63.9572 46.0362 65.7502 46.0362 65.7502L37.0276 66.6735L36.3117 64.4188C36.3117 64.4188 34.2177 64.6965 33.8497 64.6965"
        stroke="#263238" stroke-width="0.0944665" stroke-miterlimit="10" stroke-linecap="round" />
    <path d="M37.3354 63.5892C39.3236 63.0125 41.2454 62.2276 43.069 61.2476" stroke="#263238"
        stroke-width="0.0944665" stroke-miterlimit="10" stroke-linecap="round" />
    <path
        d="M43.8886 61.0402C43.8886 61.0402 46.8993 59.9229 48.5284 59.7188C50.1575 59.5148 52.653 59.4479 52.653 59.4479"
        stroke="#263238" stroke-width="0.0944665" stroke-miterlimit="10" stroke-linecap="round" />
    <path d="M46.655 59.7088L46.3473 51.6168" stroke="#263238" stroke-width="0.0944665"
        stroke-miterlimit="10" stroke-linecap="round" />
    <path d="M37.0276 66.6734C36.3249 67.0268 35.5886 67.3092 34.8298 67.5164" stroke="#263238"
        stroke-width="0.0944665" stroke-miterlimit="10" stroke-linecap="round" />
    <path
        d="M171.059 60.1539L169.851 53.5539L162.207 50.5432C162.207 50.5432 161.836 48.4926 161.462 48.4023C161.087 48.312 160.719 47.469 160.719 47.469L160.903 45.7797C160.903 45.7797 160.204 43.1035 156.688 45.1876C156.688 45.1876 157.752 45.8968 157.568 46.1911C157.384 46.4855 157.772 47.4222 157.307 47.4222C156.842 47.4222 155.902 48.0143 155.427 48.4926C155.094 48.8498 154.801 49.2411 154.55 49.6601L150.593 49.8876C150.187 49.8909 149.784 49.946 149.392 50.0515C149.325 48.118 149.563 46.6427 150.031 45.4953C151.734 41.354 154.838 39.8754 155.283 37.8014C155.728 35.7274 155.504 35.51 155.504 35.51C155.051 35.05 154.72 34.485 154.54 33.8656C154.359 33.2462 154.335 32.5917 154.47 31.9607C154.912 29.7429 156.614 28.1874 162.753 27.893C168.891 27.5986 168.001 31.8102 168.001 31.8102L167.928 32.1046C167.928 32.1046 171.848 33.4427 171.106 38.3902C170.363 43.3377 168.222 45.4886 168.296 47.0408C168.369 48.593 170.664 49.1851 173.919 52.7276C177.174 56.2702 177.836 61.599 176.505 65.0747C175.836 66.7841 174.528 68.2091 172.885 69.2729L171.059 60.1539Z"
        fill="#263238" />
    <path
        d="M165.934 60.806V62.298L168.767 71.0523C166.997 71.5208 165.14 71.5598 163.352 71.1661C162.342 70.9029 161.377 70.4915 160.488 69.9451L165.934 60.806Z"
        fill="#263238" />
    <path
        d="M157.789 46.1375L157.454 47.6428C157.454 47.6428 156.45 46.6393 154.49 49.6867C154.49 49.6867 150.416 49.5897 149.305 50.145C149.305 50.145 149.074 50.2119 148.322 51.0114C147.569 51.8109 144.739 54.3566 144.739 54.3566C144.739 54.3566 141.106 57.7285 140.745 57.9894C140.384 58.2504 139.029 59.5449 138.015 59.9965L135.299 53.8113L134.088 50.7505L133.419 48.2316H133.205L133.158 46.201L133.322 43.7791C133.295 43.656 133.239 43.5412 133.158 43.4446C132.878 43.0559 132.662 42.6244 132.519 42.1667C132.519 41.9393 132.75 40.5945 132.75 40.5945C132.75 40.5945 132.864 40.26 132.616 40.2199C132.369 40.1797 131.455 40.4975 131.342 41.1364L131.007 41.0227C130.73 40.3608 130.385 39.7296 129.977 39.1394C129.435 38.4369 128.88 37.9953 128.535 38.2228C128.44 38.288 128.372 38.3848 128.343 38.4959C128.313 38.6069 128.325 38.7248 128.374 38.8283L129.452 40.8086C129.452 40.8086 129.927 41.4475 129.338 41.675C129.338 41.675 128.063 42.4946 127.98 43.2138C127.896 43.933 128.358 44.5519 128.766 45.0804C129.174 45.6089 129.893 46.753 129.893 46.753L130.729 47.4923L131.064 48.7668L130.669 49.2585L131.258 51.8109L131.683 53.7243L131.897 54.8851L133.235 59.468L134.573 63.4622C134.573 63.4622 135.262 65.7503 136.931 65.6867C138.601 65.6231 140.43 64.7199 141.023 64.4256C141.615 64.1312 146.495 61.5822 146.495 61.5822L147.499 61.1071C147.365 61.564 147.307 62.0398 147.328 62.5155C147.345 63.3986 148.295 65.3455 148.573 65.7871L148.737 69.2393C148.801 69.8382 148.79 70.4429 148.703 71.039C148.556 71.9388 147.803 77.0302 147.639 77.6658C147.639 77.6658 149.265 79.1377 154.109 79.8368C158.953 80.5359 161.221 79.4019 161.221 79.4019L163.378 78.1341L160.719 72.8788C160.719 72.8788 160.05 71.3166 160.117 70.9052C160.184 70.4937 161.328 68.7208 161.328 68.7208L165.526 61.2476L165.723 61.3145L166.376 63.4956L168.734 70.8918L171.838 80.1245C171.838 80.1245 172.688 82.4661 173.039 83.1586L174.019 86.1458C173.965 86.6794 173.833 87.2023 173.628 87.698L176.093 86.1023L175.655 83.7607L175.11 80.2683L174.441 76.4716L173.852 73.3304L172.912 69.1423L172.578 67.9848L171.909 64.7132L170.731 58.7789L169.728 53.6976L162.703 50.9044L162.264 50.5698C162.167 49.9231 161.93 49.3055 161.569 48.7601C161.318 48.4013 161.02 48.0783 160.682 47.8C160.682 47.8 160.716 47.3618 160.739 46.947C160.762 46.5322 160.869 45.7695 160.869 45.7695C160.869 45.7695 158.698 46.7028 157.789 46.1375Z"
        fill="white" />
    <path
        d="M167.199 32.6932C167.199 32.6932 165.897 29.813 163.295 29.813C160.692 29.813 155.303 34.9244 155.303 34.9244"
        stroke="white" stroke-width="0.0472332" stroke-miterlimit="10" stroke-linecap="round" />
    <path
        d="M166.085 33.1481C166.085 33.1481 164.506 31.4756 162.552 32.1245C160.599 32.7735 160.321 35.0984 160.321 35.0984"
        stroke="white" stroke-width="0.0472332" stroke-miterlimit="10" stroke-linecap="round" />
    <path
        d="M167.386 33.4358C167.386 33.4358 169.707 34.7371 169.895 37.1557C170.082 39.5742 166.643 42.4511 166.178 45.7059C165.713 48.9608 168.129 49.7001 172.032 52.3963C175.936 55.0925 175.284 61.1306 174.448 62.4318"
        stroke="white" stroke-width="0.0472332" stroke-miterlimit="10" stroke-linecap="round" />
    <path d="M173.983 63.1778C173.983 63.1778 173.427 64.3854 172.591 64.7567" stroke="white"
        stroke-width="0.0472332" stroke-miterlimit="10" stroke-linecap="round" />
    <path
        d="M167.105 39.7548C167.215 39.9909 167.264 40.2507 167.248 40.5106C167.233 40.7705 167.152 41.0224 167.015 41.2434C166.55 42.0797 163 46.2612 163.295 48.2148C163.589 50.1684 165.432 51.3726 165.432 51.3726"
        stroke="white" stroke-width="0.0472332" stroke-miterlimit="10" stroke-linecap="round" />
    <path
        d="M165.342 33.4358C165.342 33.4358 167.48 34.3658 167.386 36.5034C167.292 38.6409 166.827 39.1996 166.827 39.1996"
        stroke="white" stroke-width="0.0472332" stroke-miterlimit="10" stroke-linecap="round" />
    <path
        d="M155.303 40.5075C154.639 42.0111 153.728 43.3928 152.607 44.5953C150.934 46.2679 150.75 48.6865 150.75 48.6865"
        stroke="white" stroke-width="0.0472332" stroke-miterlimit="10" stroke-linecap="round" />
    <path d="M153.353 45.7962C153.353 45.7962 152.517 47.7498 152.517 48.9574" stroke="white"
        stroke-width="0.0472332" stroke-miterlimit="10" stroke-linecap="round" />
    <path
        d="M157.979 46.3148L160.605 48.6798C160.605 48.6798 160.886 49.3957 161.415 50.5431C161.943 51.6905 161.856 53.8882 161.856 53.8882L160.237 57.1096C160.237 57.1096 163.352 53.537 163.529 53.0954C163.706 52.6539 166.964 53.45 167.58 53.7143C168.195 53.9786 168.992 54.5071 168.814 55.2999C168.637 56.0927 167.844 57.1464 168.199 57.3237C168.553 57.501 169.52 57.0595 169.52 57.588C169.52 58.1165 168.373 60.1437 168.901 60.8462C169.43 61.5487 172.778 72.9156 172.778 72.9156C172.778 72.9156 170.664 71.1527 171.193 71.8585C171.721 72.5644 174.274 78.288 174.274 78.288L175.244 81.6331L172.952 69.7444L171.015 59.7088L169.851 53.5537C168.727 53.1791 162.208 50.5431 162.208 50.5431C162.208 50.5431 161.692 48.3754 160.719 47.4688L160.903 45.7795C160.903 45.7795 159.127 46.4017 157.979 46.3148Z"
        fill="#292D32" />
    <path opacity="0.5"
        d="M157.979 46.3148L160.605 48.6798C160.605 48.6798 160.886 49.3957 161.415 50.5431C161.943 51.6905 161.856 53.8882 161.856 53.8882L160.237 57.1096C160.237 57.1096 163.352 53.537 163.529 53.0954C163.706 52.6539 166.964 53.45 167.58 53.7143C168.195 53.9786 168.992 54.5071 168.814 55.2999C168.637 56.0927 167.844 57.1464 168.199 57.3237C168.553 57.501 169.52 57.0595 169.52 57.588C169.52 58.1165 168.373 60.1437 168.901 60.8462C169.43 61.5487 172.778 72.9156 172.778 72.9156C172.778 72.9156 170.664 71.1527 171.193 71.8585C171.721 72.5644 174.274 78.288 174.274 78.288L175.244 81.6331L172.952 69.7444L171.015 59.7088L169.851 53.5537C168.727 53.1791 162.208 50.5431 162.208 50.5431C162.208 50.5431 162.067 48.536 160.716 47.8335L160.903 45.7795C160.903 45.7795 159.127 46.4017 157.979 46.3148Z"
        fill="white" />
    <path
        d="M148.205 58.2035C148.205 58.2035 146.619 55.5642 146.442 56.1797C146.264 56.7952 146.883 58.906 146.883 58.906C146.883 58.906 145.211 58.2905 145.385 58.819C145.559 59.3476 145.913 59.6118 145.826 59.8761C145.739 60.1404 140.012 63.1343 139.306 63.4855C138.601 63.8368 136.928 61.813 136.135 62.4285C135.342 63.044 136.135 65.1548 137.721 65.1581C139.306 65.1615 143.886 63.151 143.886 63.151L147.492 61.0536"
        fill="#292D32" />
    <path opacity="0.5"
        d="M148.205 58.2035C148.205 58.2035 146.619 55.5642 146.442 56.1797C146.264 56.7952 146.883 58.906 146.883 58.906C146.883 58.906 145.211 58.2905 145.385 58.819C145.559 59.3476 145.913 59.6118 145.826 59.8761C145.739 60.1404 140.012 63.1343 139.306 63.4855C138.601 63.8368 136.928 61.813 136.135 62.4285C135.342 63.044 136.135 65.1548 137.721 65.1581C139.306 65.1615 143.886 63.151 143.886 63.151L147.479 61.0603"
        fill="white" />
    <path
        d="M157.715 68.8612C157.715 68.8612 147.419 63.4019 149.091 65.4257C150.764 67.4496 156.307 69.7444 157.715 68.8612Z"
        fill="#292D32" />
    <path opacity="0.5"
        d="M157.715 68.8612C157.715 68.8612 147.419 63.4019 149.091 65.4257C150.764 67.4496 156.307 69.7444 157.715 68.8612Z"
        fill="white" />
    <path
        d="M160.903 45.7962C160.903 45.7962 160.829 47.2012 160.605 48.6798C160.381 50.1583 160.458 50.1583 159.053 51.9313C157.648 53.7042 156.169 55.1861 155.949 54.8918"
        stroke="#263238" stroke-width="0.0944665" stroke-miterlimit="10" stroke-linecap="round" />
    <path
        d="M155.875 54.3733C155.875 54.3733 155.728 51.7841 156.243 50.0848C156.758 48.3854 157.501 47.79 157.501 47.4086C157.526 47.0113 157.575 46.6158 157.648 46.2244"
        stroke="#263238" stroke-width="0.0944665" stroke-miterlimit="10" stroke-linecap="round" />
    <path
        d="M160.903 47.9405C161.494 48.4725 161.907 49.1731 162.087 49.9476C162.308 51.1285 162.529 52.5334 162.529 52.5334L160.237 57.1197C160.038 56.321 159.74 55.5502 159.351 54.8249C159.158 54.4669 158.908 54.1426 158.611 53.8648"
        stroke="#263238" stroke-width="0.0944665" stroke-miterlimit="10" stroke-linecap="round" />
    <path
        d="M155.357 53.1155C155.195 53.075 155.027 53.0671 154.862 53.0924C154.697 53.1177 154.539 53.1755 154.397 53.2627C153.804 53.5604 152.62 55.1125 152.62 55.1125C152.62 55.1125 153.433 51.2656 154.838 49.2719C156.243 47.2781 157.206 47.422 157.206 47.422"
        stroke="#263238" stroke-width="0.0944665" stroke-miterlimit="10" stroke-linecap="round" />
    <path
        d="M162.753 50.8241L169.851 53.5537C169.851 53.5537 172.437 67.6771 173.401 71.4471C174.364 75.2171 175.986 85.8681 175.986 85.8681L174.066 86.2361L173.397 84.316"
        stroke="#263238" stroke-width="0.089062" stroke-linecap="round" stroke-linejoin="round" />
    <path
        d="M173.029 83.212C173.029 83.212 172.588 82.543 171.403 78.8633C170.219 75.1836 167.055 66.1516 166.523 64.3687C165.991 62.5857 165.563 61.4115 165.563 61.4115"
        stroke="#263238" stroke-width="0.0944665" stroke-miterlimit="10" stroke-linecap="round" />
    <path
        d="M166.821 59.2405C166.821 59.2405 160.833 69.9451 160.314 70.4067C159.796 70.8683 160.535 72.1061 160.686 72.7717"
        stroke="#263238" stroke-width="0.0944665" stroke-miterlimit="10" stroke-linecap="round" />
    <path
        d="M161.348 74.1165L163.268 78.1107C163.268 78.1107 162.01 80.0341 156.688 80.0341C153.521 80.0438 150.399 79.2814 147.592 77.8129C147.592 77.8129 148.85 71.1594 148.777 69.9752C148.703 68.791 148.553 65.6867 148.553 65.6867C148.553 65.6867 147.214 63.6796 147.372 62.1374C147.529 60.5953 148.185 58.809 148.185 58.5146C148.185 58.2202 148.332 55.039 148.332 55.039"
        stroke="#263238" stroke-width="0.0944665" stroke-miterlimit="10" stroke-linecap="round" />
    <path d="M156.698 67.5432L151.399 64.2917" stroke="#263238" stroke-width="0.0472332"
        stroke-miterlimit="10" stroke-linecap="round" />
    <path d="M153.908 66.523L151.028 64.8504" stroke="#263238" stroke-width="0.0472332"
        stroke-miterlimit="10" stroke-linecap="round" />
    <path d="M138.052 60.0668L139.133 62.7128" stroke="#263238" stroke-width="0.0472332"
        stroke-miterlimit="10" stroke-linecap="round" />
    <path d="M138.484 61.2242L139.504 62.2478" stroke="#263238" stroke-width="0.0472332"
        stroke-miterlimit="10" stroke-linecap="round" />
    <path d="M168.687 70.6141C168.687 70.6141 170.453 72.658 171.661 73.4943" stroke="#263238"
        stroke-width="0.0472332" stroke-miterlimit="10" stroke-linecap="round" />
    <path d="M169.707 71.1694C169.707 71.1694 172.775 73.5846 173.518 74.1433" stroke="#263238"
        stroke-width="0.0472332" stroke-miterlimit="10" stroke-linecap="round" />
    <path d="M169.162 53.9752C168.237 55.2827 167.399 56.6493 166.653 58.0663" stroke="#263238"
        stroke-width="0.0472332" stroke-miterlimit="10" stroke-linecap="round" />
    <path d="M166.362 58.7153L165.713 59.8292" stroke="#263238" stroke-width="0.0472332"
        stroke-miterlimit="10" stroke-linecap="round" />
    <path d="M148.185 58.5146L147.372 54.3733" stroke="#263238" stroke-width="0.0472332"
        stroke-miterlimit="10" stroke-linecap="round" />
    <path d="M147.887 58.809L146.632 57.036" stroke="#263238" stroke-width="0.0472332"
        stroke-miterlimit="10" stroke-linecap="round" />
    <path d="M165.563 61.3982L169.112 59.4747" stroke="#263238" stroke-width="0.0472332"
        stroke-miterlimit="10" stroke-linecap="round" />
    <path d="M156.022 55.2598C156.022 55.2598 154.684 57.9359 154.246 59.846" stroke="#263238"
        stroke-width="0.0472332" stroke-miterlimit="10" stroke-linecap="round" />
    <path
        d="M134.061 50.5999C133.707 50.5738 133.352 50.6196 133.016 50.7346C132.68 50.8496 132.371 51.0314 132.108 51.2689"
        stroke="#263238" stroke-width="0.0472332" stroke-miterlimit="10" stroke-linecap="round" />
    <path d="M174.702 84.0316L173.785 84.3728" stroke="#263238" stroke-width="0.0472332"
        stroke-miterlimit="10" stroke-linecap="round" />
    <path
        d="M176.01 86.0019C175.998 87.2738 176.065 88.5452 176.21 89.8088C176.431 91.3643 176.358 94.9135 176.063 96.0207C175.769 97.128 175.618 97.3588 175.324 96.6898C175.03 96.0207 174.14 92.1069 174.14 92.1069C174.14 92.1069 173.993 94.6927 173.327 94.4719C172.661 94.2511 173.029 92.9934 173.029 91.8828C173.029 90.7722 172.956 90.4042 173.029 89.5177C173.103 88.6313 174.09 86.4402 174.09 86.4402"
        fill="white" />
    <path
        d="M176.01 86.0019C175.998 87.2738 176.065 88.5452 176.21 89.8088C176.431 91.3643 176.358 94.9135 176.063 96.0207C175.769 97.128 175.618 97.3588 175.324 96.6898C175.03 96.0207 174.14 92.1069 174.14 92.1069C174.14 92.1069 173.993 94.6927 173.327 94.4719C172.661 94.2511 173.029 92.9934 173.029 91.8828C173.029 90.7722 172.956 90.4042 173.029 89.5177C173.103 88.6313 174.09 86.4402 174.09 86.4402"
        stroke="#263238" stroke-width="0.089062" stroke-miterlimit="10" stroke-linecap="round" />
    <path
        d="M133.198 48.1747C133.232 47.5206 133.232 46.8652 133.198 46.2111C133.138 45.5956 133.382 44.6756 133.322 43.8694C133.262 43.0633 132.462 42.7655 132.586 41.7218C132.71 40.6781 132.954 40.5544 132.77 40.3102C132.586 40.066 131.432 40.4306 131.358 41.1063C131.293 41.8017 131.293 42.5017 131.358 43.1971C131.419 43.381 130.99 44.5351 131.235 45.0369C131.374 45.3087 131.478 45.5978 131.542 45.8966"
        stroke="#263238" stroke-width="0.0784497" stroke-miterlimit="10" stroke-linecap="round" />
    <path
        d="M131.111 41.0528C131.111 41.0528 129.699 38.2295 128.9 38.1659C128.1 38.1024 128.348 38.8349 128.595 39.2096C128.843 39.5843 129.639 40.929 129.699 41.4843C129.759 42.0396 130.499 43.8761 130.499 43.8761"
        stroke="#263238" stroke-width="0.0784497" stroke-miterlimit="10" stroke-linecap="round" />
    <path
        d="M129.689 41.4843C129.689 41.4843 127.538 42.7722 128.016 43.8259C128.495 44.8796 128.756 45.3011 129.124 45.164C129.45 44.9973 129.742 44.7703 129.983 44.495"
        stroke="#263238" stroke-width="0.0784497" stroke-miterlimit="10" stroke-linecap="round" />
    <path
        d="M128.9 45.1674C128.9 45.1674 129.455 46.0873 129.883 46.6426C130.129 46.9633 130.421 47.2462 130.749 47.4822L131.01 48.3888"
        stroke="#263238" stroke-width="0.0784497" stroke-miterlimit="10" stroke-linecap="round" />
    <path
        d="M154.691 49.6399C154.691 49.6399 149.59 49.5663 148.924 50.3791C148.258 51.192 140.196 58.5882 139.223 59.2539C138.249 59.9196 138.039 60.0668 138.039 60.0668C138.039 60.0668 134.048 51.0348 134.048 50.5999C134.048 50.165 133.379 48.1613 133.379 48.1613C133.379 48.1613 132.121 48.3085 131.823 48.3085C131.526 48.3085 130.716 49.2719 130.716 49.2719C130.716 49.2719 131.823 53.7812 131.823 54.2896C131.823 54.7981 133.894 61.833 134.857 63.9907C135.821 66.1483 137.149 65.8372 139.293 65.1715C141.437 64.5058 147.278 61.1807 147.278 61.1807"
        stroke="#263238" stroke-width="0.0944665" stroke-miterlimit="10" stroke-linecap="round" />
    <path
        d="M163.268 78.1107C163.268 78.1107 166.228 85.5169 167.028 90.5581C167.827 95.5992 167.486 107.388 167.717 108.649C167.948 109.91 171.153 115.861 171.153 118.724C171.153 121.588 172.869 136.357 172.869 136.357L171.725 137.043C171.725 137.043 167.71 124.665 166.228 121.471C164.747 118.276 162.679 110.709 162.107 109.221C161.535 107.732 157.524 95.8234 157.297 94.3348C157.069 92.8462 155.694 89.1832 155.694 89.1832C155.694 89.1832 152.717 107.388 152.145 111.168C151.573 114.948 147.566 135.44 147.566 135.44C147.303 135.505 147.034 135.543 146.763 135.554C146.428 135.554 146.305 134.982 146.305 134.982C146.305 134.982 144.702 120.441 145.161 116.547C145.619 112.653 146.99 107.849 146.99 106.471C146.99 105.093 144.93 93.1907 144.93 89.0761C144.93 84.9616 147.606 77.8196 147.606 77.8196C147.606 77.8196 157.103 82.6099 163.268 78.1107Z"
        fill="#263238" />
    <path d="M147.034 107.227C147.034 107.227 148.054 111.596 149.449 113.917" stroke="white"
        stroke-width="0.0472332" stroke-miterlimit="10" stroke-linecap="round" />
    <path d="M147.311 111.69C147.311 111.69 148.148 114.847 149.82 116.336" stroke="white"
        stroke-width="0.0472332" stroke-miterlimit="10" stroke-linecap="round" />
    <path d="M167.105 110.295C167.105 110.295 166.456 114.105 165.713 115.684" stroke="white"
        stroke-width="0.0472332" stroke-miterlimit="10" stroke-linecap="round" />
    <path d="M167.292 112.526C167.292 112.526 166.734 115.222 165.713 116.801" stroke="white"
        stroke-width="0.0472332" stroke-miterlimit="10" stroke-linecap="round" />
    <path d="M155.397 89.1999L151.68 86.1324" stroke="white" stroke-width="0.0472332"
        stroke-miterlimit="10" stroke-linecap="round" />
    <path d="M153.63 87.8986L149.262 85.9451" stroke="white" stroke-width="0.0472332"
        stroke-miterlimit="10" stroke-linecap="round" />
    <path d="M163.204 82.6936C163.204 82.6936 160.321 84.5501 158.648 86.1324" stroke="white"
        stroke-width="0.0472332" stroke-miterlimit="10" stroke-linecap="round" />
    <path
        d="M172.748 136.347C172.748 136.347 177.097 140.027 177.097 141.853C177.097 143.679 175.381 143.569 173.548 141.853C171.715 140.137 171.621 136.601 171.621 136.601L172.748 136.347Z"
        fill="white" stroke="#263238" stroke-width="0.0944665" stroke-miterlimit="10"
        stroke-linecap="round" />
    <path
        d="M147.566 135.44C147.566 135.44 146.077 139.103 144.471 140.709C142.866 142.315 141.952 142.883 141.952 141.164C141.952 139.444 142.983 137.501 146.301 134.982C146.305 134.982 145.388 135.668 147.566 135.44Z"
        fill="white" stroke="#263238" stroke-width="0.0944665" stroke-miterlimit="10"
        stroke-linecap="round" />
    <path
        d="M162.927 34.0513C163.224 33.9409 163.505 33.8071 163.797 33.6833C164.088 33.5596 164.619 33.4927 164.82 34.4059C165.118 35.744 163.047 36.8479 163.713 37.9551C164.127 38.6287 164.749 39.149 165.486 39.437C165.606 39.4783 165.731 39.503 165.857 39.5106C166.449 39.5842 167.409 39.5106 167.115 40.5443C166.821 41.578 165.857 42.4678 165.265 42.4678H164.673C164.673 42.4678 164.004 44.4749 161.495 45.5721C158.986 46.6693 157.28 46.6091 156.688 45.2041C156.096 43.7992 155.651 42.615 155.651 40.7651C155.651 38.9152 156.32 35.8109 156.32 35.8109C156.32 35.8109 156.912 36.6271 159.204 35.5901C160.719 34.9043 162.137 34.349 162.927 34.0513Z"
        fill="white" />
    <mask id="mask1_7_1994" style="mask-type:luminance" maskUnits="userSpaceOnUse" x="155" y="33"
        width="13" height="14">
        <path
            d="M162.927 34.0513C163.224 33.9409 163.505 33.8071 163.797 33.6833C164.088 33.5596 164.619 33.4927 164.82 34.4059C165.118 35.744 163.047 36.8479 163.713 37.9551C164.127 38.6287 164.749 39.149 165.486 39.437C165.606 39.4783 165.731 39.503 165.857 39.5106C166.449 39.5842 167.409 39.5106 167.115 40.5443C166.821 41.578 165.857 42.4678 165.265 42.4678H164.673C164.673 42.4678 164.004 44.4749 161.495 45.5721C158.986 46.6693 157.28 46.6091 156.688 45.2041C156.096 43.7992 155.651 42.615 155.651 40.7651C155.651 38.9152 156.32 35.8109 156.32 35.8109C156.32 35.8109 156.912 36.6271 159.204 35.5901C160.719 34.9043 162.137 34.349 162.927 34.0513Z"
            fill="white" />
    </mask>
    <g mask="url(#mask1_7_1994)">
        <g style="mix-blend-mode:multiply" opacity="0.5">
            <path
                d="M159.2 35.5901C159.2 35.5901 162.736 35.3927 163.265 35.4797C163.793 35.5666 163.178 37.1523 163.352 38.7379C163.526 40.3235 163.442 42.8792 162.736 43.672C161.903 44.4895 161.021 45.2547 160.093 45.9634C160.093 45.9634 162.806 45.5252 163.793 44.3778C164.78 43.2304 164.937 42.6149 164.937 42.6149C164.937 42.6149 167.229 41.2769 167.406 40.2365C167.583 39.1962 166.068 39.7481 165.342 39.2329C164.934 38.952 163.245 38.4234 163.669 37.0151C164.094 35.6068 164.78 35.3425 164.807 34.3992C164.827 33.7301 164.238 33.5361 163.877 33.4759C163.714 33.4485 163.547 33.4731 163.399 33.5461L159.2 35.5901Z"
                fill="#292D32" />
        </g>
    </g>
    <path
        d="M162.927 34.0513C163.224 33.9409 163.505 33.8071 163.797 33.6833C164.088 33.5596 164.619 33.4927 164.82 34.4059C165.118 35.744 163.047 36.8479 163.713 37.9551C164.127 38.6287 164.749 39.149 165.486 39.437C165.606 39.4783 165.731 39.503 165.857 39.5106C166.449 39.5842 167.409 39.5106 167.115 40.5443C166.821 41.578 165.857 42.4678 165.265 42.4678H164.673C164.673 42.4678 164.004 44.4749 161.495 45.5721C158.986 46.6693 157.28 46.6091 156.688 45.2041C156.096 43.7992 155.651 42.615 155.651 40.7651C155.651 38.9152 156.32 35.8109 156.32 35.8109C156.32 35.8109 156.912 36.6271 159.204 35.5901C160.719 34.9043 162.137 34.349 162.927 34.0513Z"
        stroke="#263238" stroke-width="0.0944665" stroke-miterlimit="10" stroke-linecap="round" />
    <path
        d="M160.314 38.4335C160.267 38.7145 160.344 38.962 160.488 38.9855C160.632 39.0089 160.779 38.7981 160.823 38.5171C160.866 38.2361 160.789 37.9852 160.649 37.9618C160.508 37.9384 160.361 38.1659 160.314 38.4335Z"
        fill="#263238" />
    <path
        d="M157.253 37.9217C157.21 38.2027 157.287 38.4502 157.427 38.4736C157.568 38.4971 157.718 38.2863 157.762 38.0053C157.805 37.7243 157.732 37.4768 157.591 37.4534C157.451 37.4299 157.3 37.6407 157.253 37.9217Z"
        fill="#263238" />
    <path
        d="M162.087 37.0687C161.9 36.7905 161.646 36.5636 161.349 36.4087C161.051 36.2539 160.72 36.176 160.384 36.1822"
        stroke="#263238" stroke-width="0.0944665" stroke-miterlimit="10" stroke-linecap="round" />
    <path
        d="M158.093 36.403C157.809 36.3037 157.501 36.293 157.211 36.3725C156.921 36.452 156.661 36.6177 156.467 36.8479"
        stroke="#263238" stroke-width="0.0944665" stroke-miterlimit="10" stroke-linecap="round" />
    <path
        d="M158.387 37.6608C158.428 38.1282 158.428 38.5983 158.387 39.0657C158.314 39.6578 157.872 39.805 158.019 40.2499C158.167 40.6948 158.759 40.6915 158.759 40.6915"
        stroke="#263238" stroke-width="0.0944665" stroke-miterlimit="10" stroke-linecap="round" />
    <path
        d="M159.498 42.4678C159.751 42.5276 160.015 42.532 160.27 42.4806C160.525 42.4293 160.766 42.3233 160.977 42.1701"
        stroke="#263238" stroke-width="0.0944665" stroke-miterlimit="10" stroke-linecap="round" />
</svg>