<svg width="234" height="179" viewBox="0 0 234 179" fill="none" xmlns="http://www.w3.org/2000/svg">
    <path d="M233.519 156.906H0V157.024H233.519V156.906Z" fill="#EBEBEB" />
    <path
        d="M110.688 135.654H20.5076C19.8011 135.652 19.124 135.365 18.6249 134.855C18.1258 134.345 17.8455 133.654 17.8455 132.933V3.59518C17.8516 2.87853 18.1346 2.19329 18.6331 1.68831C19.1315 1.18333 19.8051 0.899391 20.5076 0.898163H110.688C111.395 0.898163 112.074 1.18482 112.574 1.69508C113.074 2.20534 113.355 2.89739 113.355 3.619V132.933C113.355 133.654 113.074 134.346 112.574 134.857C112.074 135.367 111.395 135.654 110.688 135.654ZM20.5076 0.993464C19.8321 0.994726 19.1847 1.26939 18.7075 1.75717C18.2302 2.24495 17.9622 2.90599 17.9622 3.59518V132.933C17.9622 133.622 18.2302 134.283 18.7075 134.771C19.1847 135.259 19.8321 135.533 20.5076 135.535H110.688C111.364 135.533 112.012 135.259 112.49 134.771C112.968 134.283 113.237 133.622 113.238 132.933V3.59518C113.237 2.90555 112.968 2.24452 112.49 1.75688C112.012 1.26924 111.364 0.994724 110.688 0.993464H20.5076Z"
        fill="#EBEBEB" />
    <path
        d="M211.713 135.654H121.528C120.821 135.652 120.144 135.365 119.644 134.855C119.144 134.345 118.863 133.654 118.861 132.933V3.59518C118.869 2.87809 119.153 2.19286 119.652 1.68801C120.151 1.18316 120.825 0.899377 121.528 0.898163H211.713C212.415 0.900643 213.087 1.18514 213.585 1.68998C214.082 2.19483 214.365 2.87935 214.371 3.59518V132.933C214.371 133.653 214.091 134.343 213.593 134.853C213.095 135.363 212.419 135.651 211.713 135.654ZM121.528 0.993464C120.852 0.994724 120.204 1.26924 119.726 1.75688C119.248 2.24452 118.979 2.90555 118.978 3.59518V132.933C118.979 133.622 119.248 134.283 119.726 134.771C120.204 135.259 120.852 135.533 121.528 135.535H211.713C212.389 135.533 213.037 135.259 213.515 134.771C213.993 134.283 214.262 133.622 214.263 132.933V3.59518C214.262 2.90555 213.993 2.24452 213.515 1.75688C213.037 1.26924 212.389 0.994724 211.713 0.993464H121.528Z"
        fill="#EBEBEB" />
    <path d="M210.121 164.573H197.978V164.691H210.121V164.573Z" fill="#EBEBEB" />
    <path d="M166.28 165.869H145.249V165.987H166.28V165.869Z" fill="#EBEBEB" />
    <path d="M197.511 160.151H169.119V160.269H197.511V160.151Z" fill="#EBEBEB" />
    <path d="M33.4819 160.951H24.5007V161.069H33.4819V160.951Z" fill="#EBEBEB" />
    <path d="M63.4661 160.951H37.6436V161.069H63.4661V160.951Z" fill="#EBEBEB" />
    <path d="M114.023 162.962H79.2427V163.08H114.023V162.962Z" fill="#EBEBEB" />
    <path d="M176.816 154.466H180.553V83.9195H176.816V154.466Z" fill="#F0F0F0" />
    <path d="M158.887 156.896H179.572V154.461H158.887V156.896Z" fill="#F0F0F0" />
    <path d="M176.821 83.9148H157.896V154.461H176.821V83.9148Z" fill="#F5F5F5" />
    <path d="M174.804 120.653H159.914V133.252H174.804V120.653Z" fill="#F0F0F0" />
    <path d="M174.804 137.14H159.914V149.739H174.804V137.14Z" fill="#F0F0F0" />
    <path
        d="M165.374 127.815H169.339C169.643 127.815 169.89 127.563 169.89 127.253V126.648C169.89 126.337 169.643 126.085 169.339 126.085H165.374C165.07 126.085 164.823 126.337 164.823 126.648V127.253C164.823 127.563 165.07 127.815 165.374 127.815Z"
        fill="#F5F5F5" />
    <path
        d="M165.374 144.302H169.339C169.643 144.302 169.89 144.05 169.89 143.74V143.135C169.89 142.824 169.643 142.573 169.339 142.573H165.374C165.07 142.573 164.823 142.824 164.823 143.135V143.74C164.823 144.05 165.07 144.302 165.374 144.302Z"
        fill="#F5F5F5" />
    <path d="M174.804 87.8078H159.914V100.407H174.804V87.8078Z" fill="#F0F0F0" />
    <path d="M174.804 104.161H159.914V116.76H174.804V104.161Z" fill="#F0F0F0" />
    <path
        d="M165.374 94.9697H169.339C169.643 94.9697 169.89 94.718 169.89 94.4074V93.8023C169.89 93.4917 169.643 93.24 169.339 93.24H165.374C165.07 93.24 164.823 93.4917 164.823 93.8023V94.4074C164.823 94.718 165.07 94.9697 165.374 94.9697Z"
        fill="#F5F5F5" />
    <path
        d="M165.374 111.328H169.339C169.643 111.328 169.89 111.076 169.89 110.766V110.161C169.89 109.85 169.643 109.598 169.339 109.598H165.374C165.07 109.598 164.823 109.85 164.823 110.161V110.766C164.823 111.076 165.07 111.328 165.374 111.328Z"
        fill="#F5F5F5" />
    <path d="M197.53 154.466H208.739V83.9195H197.53V154.466Z" fill="#F0F0F0" />
    <path d="M179.586 156.896H207.585V154.461H179.586V156.896Z" fill="#F0F0F0" />
    <path d="M197.529 83.9148H178.605V154.461H197.529V83.9148Z" fill="#F5F5F5" />
    <path d="M195.512 120.653H180.623V133.252H195.512V120.653Z" fill="#F0F0F0" />
    <path d="M195.512 137.14H180.623V149.739H195.512V137.14Z" fill="#F0F0F0" />
    <path
        d="M186.082 127.815H190.048C190.352 127.815 190.599 127.563 190.599 127.253V126.648C190.599 126.337 190.352 126.085 190.048 126.085H186.082C185.778 126.085 185.531 126.337 185.531 126.648V127.253C185.531 127.563 185.778 127.815 186.082 127.815Z"
        fill="#F5F5F5" />
    <path
        d="M186.082 144.302H190.048C190.352 144.302 190.599 144.05 190.599 143.74V143.135C190.599 142.824 190.352 142.573 190.048 142.573H186.082C185.778 142.573 185.531 142.824 185.531 143.135V143.74C185.531 144.05 185.778 144.302 186.082 144.302Z"
        fill="#F5F5F5" />
    <path d="M195.512 87.8078H180.623V100.407H195.512V87.8078Z" fill="#F0F0F0" />
    <path d="M195.512 104.161H180.623V116.76H195.512V104.161Z" fill="#F0F0F0" />
    <path
        d="M186.082 94.9697H190.048C190.352 94.9697 190.599 94.718 190.599 94.4074V93.8023C190.599 93.4917 190.352 93.24 190.048 93.24H186.082C185.778 93.24 185.531 93.4917 185.531 93.8023V94.4074C185.531 94.718 185.778 94.9697 186.082 94.9697Z"
        fill="#F5F5F5" />
    <path
        d="M186.082 111.328H190.048C190.352 111.328 190.599 111.076 190.599 110.766V110.161C190.599 109.85 190.352 109.598 190.048 109.598H186.082C185.778 109.598 185.531 109.85 185.531 110.161V110.766C185.531 111.076 185.778 111.328 186.082 111.328Z"
        fill="#F5F5F5" />
    <path d="M136.669 69.1908L199.584 69.1908V12.8394L136.669 12.8394V69.1908Z" fill="#E6E6E6" />
    <path
        d="M129.926 10.6474H203.657C203.823 10.6474 203.982 10.7147 204.1 10.8344C204.217 10.9542 204.283 11.1166 204.283 11.2859C204.282 11.4545 204.215 11.6156 204.098 11.7344C203.981 11.8531 203.822 11.9197 203.657 11.9197H129.926C129.761 11.9184 129.604 11.8513 129.488 11.7327C129.372 11.6141 129.306 11.4536 129.304 11.2859C129.304 11.1174 129.37 10.9557 129.486 10.8361C129.602 10.7165 129.76 10.6487 129.926 10.6474Z"
        fill="#E6E6E6" />
    <path d="M134.003 69.1908L198.342 69.1908V12.8394L134.003 12.8394V69.1908Z" fill="#F0F0F0" />
    <path d="M136.669 69.1908H199.584V70.9967H134.829L136.669 69.1908Z" fill="#E6E6E6" />
    <path d="M129.552 69.1908H193.891L192.051 70.9967H127.712L129.552 69.1908Z" fill="#F0F0F0" />
    <path d="M194.601 65.3788V16.6514L137.739 16.6514V65.3788H194.601Z" fill="#FAFAFA" />
    <path d="M181.692 65.3788L159.756 16.6514H149.401L171.338 65.3788H181.692Z" fill="white" />
    <path d="M169.115 65.3788L147.178 16.6514H143.138L165.075 65.3788H169.115Z" fill="white" />
    <path d="M138.211 65.3787V16.6514H137.734V65.3787H138.211Z" fill="#E6E6E6" />
    <g opacity="0.4">
        <path d="M194.554 56.0058H200.985V9.50375H194.554V56.0058Z" fill="#F0F0F0" />
        <path d="M192.051 56.0058H197.062V9.50375H192.051V56.0058Z" fill="#E6E6E6" />
        <path d="M188.128 56.0058H194.559V9.50375H188.128V56.0058Z" fill="#F0F0F0" />
        <path d="M185.62 56.0058H190.631V9.50375H185.62V56.0058Z" fill="#E6E6E6" />
        <path d="M181.692 56.0058H188.124V9.50375H181.692V56.0058Z" fill="#F0F0F0" />
    </g>
    <g opacity="0.4">
        <path d="M140.13 56.0058H143.839V9.50377H140.13V56.0058Z" fill="#F0F0F0" />
        <path d="M138.687 56.0058H141.573V9.50377H138.687V56.0058Z" fill="#E6E6E6" />
        <path d="M136.422 56.0058H140.131V9.50377H136.422V56.0058Z" fill="#F0F0F0" />
        <path d="M134.984 56.0058H137.87V9.50377H134.984V56.0058Z" fill="#E6E6E6" />
        <path d="M132.714 56.0058H136.422V9.50377H132.714V56.0058Z" fill="#F0F0F0" />
    </g>
    <path d="M76.697 46.9762H85.5988L84.5479 23.9419H76.697V46.9762Z" fill="#F5F5F5" />
    <path d="M90.6288 48.2198L92.5483 58.4504H90.6288L78.8547 48.2198H90.6288Z" fill="#F5F5F5" />
    <path d="M92.5485 48.2198V58.4504L80.7744 48.2198H92.5485Z" fill="#E6E6E6" />
    <path d="M44.4528 48.2198L46.3723 58.4504H44.4528L32.6787 48.2198H44.4528Z" fill="#F5F5F5" />
    <path d="M46.3722 48.2198V58.4504L34.5981 48.2198H46.3722Z" fill="#E6E6E6" />
    <path d="M101.193 47.0095H88.3872V48.4867H101.193V47.0095Z" fill="#E6E6E6" />
    <path d="M24.7205 48.4867L88.3872 48.4867V47.0095L24.7205 47.0095V48.4867Z" fill="#F5F5F5" />
    <path d="M63.6155 46.9762H82.7267L85.0899 19.0625H65.9787L63.6155 46.9762Z" fill="#E6E6E6" />
    <path d="M62.6252 46.9762H81.7365L84.0997 19.0625H64.9885L62.6252 46.9762Z" fill="#F0F0F0" />
    <path d="M80.1347 43.8836L82.2971 22.1503H66.5952L64.4329 43.8836H80.1347Z" fill="white" />
    <path d="M55.0593 46.9761H61.1915L60.4676 31.1133H55.0593V46.9761Z" fill="#E0E0E0" />
    <path d="M46.0547 46.9762H59.2112L60.8411 27.754H47.68L46.0547 46.9762Z" fill="#F0F0F0" />
    <path d="M45.3728 46.9762H58.534L60.1593 27.754H46.9981L45.3728 46.9762Z" fill="#F5F5F5" />
    <path d="M57.4269 44.8462L58.9121 29.8839H48.1048L46.615 44.8462H57.4269Z" fill="#E0E0E0" />
    <path
        d="M122.532 87.3552C122.576 87.8879 122.464 88.4219 122.21 88.8895C121.956 89.357 121.571 89.7372 121.106 89.9819C120.64 90.2266 120.113 90.3248 119.592 90.264C119.072 90.2033 118.581 89.9863 118.181 89.6406C117.781 89.2949 117.491 88.836 117.347 88.3219C117.203 87.8079 117.212 87.2619 117.372 86.7529C117.533 86.244 117.838 85.795 118.248 85.4628C118.659 85.1306 119.157 84.9302 119.679 84.8869C120.025 84.8575 120.374 84.8981 120.705 85.0063C121.035 85.1145 121.342 85.2882 121.607 85.5174C121.872 85.7467 122.09 86.027 122.249 86.3423C122.408 86.6576 122.504 87.0018 122.532 87.3552Z"
        fill="#E0E0E0" />
    <path
        d="M127.45 88.7656C127.494 89.2983 127.382 89.8323 127.128 90.2999C126.874 90.7675 126.489 91.1477 126.023 91.3924C125.558 91.6371 125.031 91.7352 124.51 91.6745C123.99 91.6137 123.499 91.3967 123.099 91.051C122.699 90.7053 122.409 90.2464 122.265 89.7324C122.121 89.2183 122.13 88.6723 122.29 88.1633C122.451 87.6544 122.755 87.2054 123.166 86.8733C123.577 86.5411 124.075 86.3406 124.597 86.2973C125.296 86.2393 125.989 86.4666 126.524 86.9294C127.059 87.3921 127.392 88.0525 127.45 88.7656Z"
        fill="#E0E0E0" />
    <path
        d="M131.004 87.1455C131.047 87.6782 130.934 88.2117 130.679 88.6787C130.424 89.1458 130.04 89.5253 129.574 89.7692C129.108 90.0132 128.581 90.1106 128.061 90.0493C127.541 89.9879 127.05 89.7705 126.651 89.4245C126.251 89.0786 125.962 88.6196 125.818 88.1056C125.675 87.5916 125.684 87.0458 125.844 86.5371C126.005 86.0284 126.31 85.5798 126.72 85.2478C127.131 84.9159 127.629 84.7157 128.151 84.6724C128.85 84.6158 129.543 84.8442 130.078 85.3077C130.613 85.7712 130.946 86.432 131.004 87.1455Z"
        fill="#E0E0E0" />
    <path
        d="M134.755 88.1557C134.797 88.6871 134.683 89.2191 134.428 89.6846C134.174 90.1501 133.79 90.5282 133.325 90.7711C132.86 91.014 132.334 91.1109 131.815 91.0495C131.296 90.988 130.807 90.7711 130.409 90.426C130.01 90.0809 129.721 89.6231 129.578 89.1105C129.435 88.5979 129.443 88.0534 129.603 87.5459C129.763 87.0383 130.066 86.5905 130.475 86.2589C130.885 85.9272 131.381 85.7267 131.901 85.6826C132.248 85.6533 132.597 85.694 132.928 85.8025C133.259 85.911 133.566 86.0851 133.831 86.3149C134.096 86.5446 134.314 86.8255 134.473 87.1414C134.632 87.4573 134.727 87.8019 134.755 88.1557Z"
        fill="#E0E0E0" />
    <path
        d="M138.122 88.575C138.122 88.575 137.814 96.0752 126.007 96.0752C114.201 96.0752 113.864 88.575 113.864 88.575H138.122Z"
        fill="#F0F0F0" />
    <path d="M27.9665 156.906H32.2585L32.2585 96.0895H27.9665L27.9665 156.906Z" fill="#E6E6E6" />
    <path d="M26.822 156.906H29.3486L29.3486 96.0895H26.822L26.822 156.906Z" fill="#F0F0F0" />
    <path d="M86.9672 96.0895H26.0374V100.65H86.9672V96.0895Z" fill="#F0F0F0" />
    <path d="M144.67 156.906H148.962V96.0895H144.67V156.906Z" fill="#E6E6E6" />
    <path d="M143.867 156.906H146.393V96.0895H143.867V156.906Z" fill="#F0F0F0" />
    <path d="M149.728 96.0895H88.7981V100.65H149.728V96.0895Z" fill="#E6E6E6" />
    <path d="M87.3271 156.906H91.6191L91.6191 96.0895H87.3271V156.906Z" fill="#E6E6E6" />
    <path d="M86.1825 156.906H88.7092L88.7092 96.0895H86.1825V156.906Z" fill="#F0F0F0" />
    <path d="M101.413 75.8619H69.6027L63.9329 95.0269H95.7475L101.413 75.8619Z" fill="#E6E6E6" />
    <path d="M95.7479 95.0268L95.6218 96.0895H63.8071L63.9332 95.0268H95.7479Z" fill="#E6E6E6" />
    <path d="M100.437 75.8619H68.6222L62.957 95.0269H94.767L100.437 75.8619Z" fill="#F0F0F0" />
    <path d="M94.1457 94.1548L99.2925 76.7386H69.2479L64.0964 94.1548H94.1457Z" fill="white" />
    <path d="M86.4815 95.0268L86.3507 96.0895H51.3181L51.4442 95.0268H86.4815Z" fill="#F0F0F0" />
    <path
        d="M116.76 178.425C166.771 178.425 207.314 176.01 207.314 173.031C207.314 170.052 166.771 167.637 116.76 167.637C66.748 167.637 26.2056 170.052 26.2056 173.031C26.2056 176.01 66.748 178.425 116.76 178.425Z"
        fill="#F5F5F5" />
    <path
        d="M176.331 26.7009H122.579C120.735 26.7318 118.969 27.4627 117.626 28.7509C116.282 30.039 115.457 31.7919 115.312 33.6673L106.952 164.973C106.884 165.867 106.999 166.766 107.29 167.612C107.581 168.458 108.041 169.233 108.641 169.888C109.242 170.543 109.97 171.063 110.778 171.416C111.586 171.768 112.457 171.945 113.336 171.935H167.107C168.95 171.905 170.716 171.175 172.06 169.888C173.404 168.6 174.229 166.848 174.374 164.973L180.37 70.5965C180.625 70.5058 180.849 70.3419 181.014 70.1247C181.18 69.9075 181.281 69.646 181.304 69.3718L182.379 52.4845C182.397 52.2222 182.332 51.9607 182.192 51.7397C182.052 51.5188 181.846 51.3503 181.603 51.2599L182.72 33.6673C182.788 32.7726 182.673 31.8733 182.381 31.0265C182.09 30.1796 181.63 29.4039 181.029 28.7487C180.428 28.0934 179.7 27.5729 178.891 27.2204C178.082 26.8678 177.21 26.6909 176.331 26.7009Z"
        fill="#292D32" />
    <path
        d="M110.959 60.6995H112.015C112.341 60.6935 112.654 60.5639 112.892 60.3358C113.13 60.1077 113.277 59.7975 113.304 59.4653L113.771 52.413C113.782 52.2544 113.762 52.095 113.71 51.9449C113.658 51.7949 113.576 51.6575 113.469 51.5415C113.362 51.4254 113.233 51.3333 113.09 51.2709C112.946 51.2085 112.792 51.1771 112.636 51.1789H111.585C111.258 51.1838 110.945 51.3131 110.706 51.5413C110.468 51.7696 110.321 52.0805 110.296 52.413L109.829 59.4653C109.817 59.6236 109.838 59.7826 109.889 59.9323C109.941 60.082 110.023 60.2192 110.129 60.3351C110.235 60.4511 110.364 60.5433 110.507 60.6061C110.649 60.6688 110.804 60.7006 110.959 60.6995Z"
        fill="#292D32" />
    <path
        d="M110.16 73.2887H111.211C111.539 73.2827 111.853 73.1526 112.092 72.9237C112.331 72.6947 112.478 72.3833 112.505 72.0498L112.972 65.0023C112.984 64.8436 112.963 64.6842 112.911 64.5342C112.859 64.3842 112.777 64.2468 112.67 64.1307C112.564 64.0147 112.434 63.9225 112.291 63.8601C112.148 63.7977 111.993 63.7664 111.837 63.7682H110.786C110.459 63.773 110.145 63.9021 109.906 64.1302C109.666 64.3584 109.519 64.6693 109.492 65.0023L109.025 72.0498C109.012 72.209 109.032 72.3693 109.083 72.5202C109.135 72.6711 109.217 72.8094 109.323 72.9261C109.43 73.0429 109.56 73.1354 109.704 73.1979C109.848 73.2603 110.004 73.2913 110.16 73.2887Z"
        fill="#292D32" />
    <path
        d="M164.248 171.935H110.497C109.618 171.945 108.747 171.768 107.938 171.416C107.13 171.063 106.402 170.543 105.802 169.888C105.201 169.233 104.741 168.458 104.45 167.612C104.159 166.766 104.044 165.867 104.112 164.973L112.454 33.6674C112.6 31.7916 113.426 30.0386 114.77 28.7506C116.115 27.4625 117.881 26.7317 119.725 26.7009H173.472C174.351 26.6916 175.223 26.869 176.031 27.2219C176.839 27.5747 177.567 28.0953 178.167 28.7505C178.768 29.4057 179.228 30.1812 179.519 31.0277C179.81 31.8742 179.925 32.7731 179.857 33.6674L171.515 164.973C171.37 166.848 170.545 168.6 169.201 169.888C167.857 171.175 166.091 171.905 164.248 171.935Z"
        fill="#263238" />
    <path opacity="0.2"
        d="M141.026 166.351C142.909 164.492 143.051 161.525 141.343 159.725C139.635 157.925 136.724 157.973 134.841 159.833C132.958 161.692 132.816 164.659 134.524 166.459C136.232 168.259 139.143 168.211 141.026 166.351Z"
        fill="white" />
    <path
        d="M169.105 154.89H108.003C107.795 154.89 107.589 154.846 107.398 154.762C107.207 154.677 107.035 154.554 106.893 154.399C106.751 154.244 106.641 154.061 106.571 153.861C106.501 153.661 106.471 153.449 106.485 153.237L113.635 40.6291C113.667 40.2402 113.84 39.8775 114.121 39.6128C114.402 39.3481 114.771 39.2007 115.153 39.1996H176.26C176.469 39.1998 176.674 39.2435 176.865 39.3281C177.056 39.4126 177.228 39.5362 177.37 39.6911C177.512 39.8461 177.622 40.0291 177.692 40.229C177.762 40.4288 177.792 40.6412 177.778 40.8531L170.623 153.437C170.598 153.83 170.428 154.2 170.146 154.469C169.864 154.739 169.492 154.89 169.105 154.89Z"
        fill="white" />
    <path opacity="0.2"
        d="M152.056 110.506C158.891 103.756 159.406 92.986 153.205 86.4514C147.005 79.9167 136.438 80.0917 129.603 86.8423C122.769 93.5928 122.254 104.363 128.454 110.897C134.655 117.432 145.222 117.257 152.056 110.506Z"
        fill="#292D32" />
    <path opacity="0.2"
        d="M139.178 124.913C124.994 124.913 114.2 113.139 115.12 98.6673C116.04 84.1959 128.324 72.4215 142.512 72.4215C156.701 72.4215 167.489 84.1959 166.569 98.6673C165.649 113.139 153.348 124.913 139.178 124.913ZM142.447 72.898C128.52 72.898 116.456 84.458 115.555 98.6673C114.653 112.877 125.246 124.437 139.173 124.437C153.1 124.437 165.164 112.877 166.07 98.6673C166.976 84.458 156.393 72.898 142.447 72.898Z"
        fill="#292D32" />
    <path
        d="M136.842 106.916L135.441 104.157C132.406 98.1479 125.414 92.7777 122.971 91.2148L125.279 87.6934C128.17 89.5422 133.947 94.1215 137.571 99.5631C144.273 91.4626 153.745 83.119 166.425 74.1178L168.587 77.4533C155.043 87.0692 145.296 95.8607 138.813 104.333L136.842 106.916Z"
        fill="#292D32" />
    <path opacity="0.2"
        d="M136.18 34.1965C136.942 33.4442 136.998 32.2427 136.305 31.5128C135.613 30.7829 134.434 30.8011 133.672 31.5534C132.91 32.3057 132.854 33.5073 133.547 34.2371C134.239 34.967 135.418 34.9488 136.18 34.1965Z"
        fill="white" />
    <path opacity="0.2"
        d="M141.471 30.9751H156.925C157.165 30.9722 157.403 31.0206 157.624 31.1172C157.845 31.2137 158.043 31.3563 158.207 31.5358C158.371 31.7153 158.496 31.9277 158.574 32.1593C158.652 32.391 158.683 32.6369 158.662 32.8811C158.624 33.3933 158.4 33.8725 158.034 34.225C157.667 34.5775 157.186 34.7779 156.682 34.7871H141.232C140.992 34.7892 140.754 34.7403 140.534 34.6435C140.313 34.5467 140.114 34.4042 139.951 34.225C139.787 34.0457 139.661 33.8337 139.582 33.6024C139.503 33.371 139.472 33.1254 139.49 32.8811C139.529 32.3689 139.753 31.8897 140.119 31.5372C140.485 31.1847 140.967 30.9843 141.471 30.9751Z"
        fill="white" />
    <path
        d="M83.9458 66.1793C83.1565 67.0036 82.3111 67.9138 81.5312 68.8191C80.7512 69.7245 79.9713 70.6537 79.238 71.6067C78.5048 72.5597 77.8369 73.5127 77.1457 74.5181L76.6787 75.2662L76.2116 76.0239C76.0575 76.2764 75.9174 76.5337 75.7819 76.7958L75.4083 77.4963C75.256 77.8968 75.1692 78.3202 75.1514 78.7495C75.114 79.3016 75.114 79.8556 75.1514 80.4077C75.243 81.5989 75.3989 82.784 75.6185 83.9577C75.824 85.1585 76.0855 86.364 76.3611 87.5648C76.6366 88.7656 76.9402 89.9807 77.2484 91.1624L75.5204 91.8248C74.4585 89.4941 73.5687 87.0858 72.8583 84.62C72.4975 83.3492 72.2213 82.0549 72.0316 80.746C71.9372 80.0481 71.8888 79.3444 71.8868 78.6399C71.8759 77.8098 72.0136 76.9846 72.2932 76.2049C72.4006 75.9381 72.4566 75.8333 72.5314 75.6713L72.7462 75.2186C72.8863 74.9184 73.0311 74.6182 73.2132 74.3275L73.6803 73.4507L74.1753 72.5978C74.835 71.4742 75.5537 70.3878 76.3284 69.3433C77.0943 68.2997 77.8883 67.2848 78.7243 66.3032C79.5603 65.3216 80.4056 64.3972 81.3771 63.4442L83.9458 66.1793Z"
        fill="#565454" />
    <path
        d="M84.1466 60.4612C81.6152 60.5756 79.21 64.8641 79.21 64.8641L82.554 71.8259C82.554 71.8259 87.0842 67.9757 87.1403 64.2018C87.1776 61.7287 86.6359 60.3421 84.1466 60.4612Z"
        fill="#292D32" />
    <path opacity="0.7"
        d="M84.1466 60.4612C81.6152 60.5756 79.21 64.8641 79.21 64.8641L82.554 71.8259C82.554 71.8259 87.0842 67.9757 87.1403 64.2018C87.1776 61.7287 86.6359 60.3421 84.1466 60.4612Z"
        fill="white" />
    <path opacity="0.2"
        d="M84.7489 65.4645C84.011 66.6034 83.656 69.5577 83.5439 70.8729C84.6583 69.7672 85.603 68.4966 86.3462 67.1037C85.8464 65.8314 85.2346 64.7164 84.7489 65.4645Z"
        fill="black" />
    <path
        d="M76.7487 90.4381L79.8265 91.3911L77.7762 93.5068C77.7762 93.5068 75.5578 92.8064 75.2495 91.2673L76.7487 90.4381Z"
        fill="#565454" />
    <path d="M81.6899 93.788L81.1715 95.8131L77.7761 93.4878L79.8264 91.3721L81.6899 93.788Z"
        fill="#565454" />
    <path
        d="M101.94 52.1939C101.842 52.475 101.912 52.7609 102.095 52.8276C102.277 52.8943 102.501 52.7276 102.594 52.4464C102.688 52.1653 102.622 51.8746 102.44 51.8079C102.258 51.7412 102.038 51.908 101.94 52.1939Z"
        fill="#263238" />
    <path d="M102.356 51.7936L103.089 51.8554C103.089 51.8554 102.566 52.2498 102.356 51.7936Z"
        fill="#263238" />
    <path
        d="M102.081 52.556C102.108 53.2973 102.234 54.0315 102.454 54.7384C102.276 54.786 102.09 54.7936 101.908 54.7607C101.727 54.7278 101.555 54.6552 101.403 54.5478L102.081 52.556Z"
        fill="#A02724" />
    <path
        d="M102.847 51.0931C102.813 51.0884 102.782 51.0737 102.757 51.0507C102.732 51.0278 102.714 50.9978 102.706 50.9645C102.655 50.7491 102.557 50.5484 102.418 50.3775C102.28 50.2066 102.105 50.0701 101.908 49.9781C101.865 49.962 101.831 49.9295 101.811 49.8876C101.792 49.8457 101.79 49.7978 101.805 49.7542C101.812 49.7323 101.824 49.7122 101.839 49.695C101.854 49.6778 101.872 49.6639 101.893 49.6541C101.913 49.6443 101.936 49.6388 101.958 49.638C101.981 49.6372 102.003 49.641 102.025 49.6493C102.279 49.762 102.503 49.9342 102.68 50.1519C102.857 50.3696 102.981 50.6268 103.043 50.9025C103.048 50.9251 103.049 50.9485 103.046 50.9715C103.043 50.9945 103.035 51.0166 103.023 51.0365C103.012 51.0564 102.996 51.0738 102.978 51.0876C102.96 51.1014 102.939 51.1114 102.917 51.117L102.847 51.0931Z"
        fill="#263238" />
    <path
        d="M92.3476 53.3899C92.413 55.6438 92.1889 59.6988 90.4795 60.8472C90.4795 60.8472 90.7083 63.163 94.6828 63.9492C99.0497 64.8117 97.1255 62.1624 97.1255 62.1624C94.837 61.114 95.1872 59.3319 95.8738 57.7309L92.3476 53.3899Z"
        fill="#565454" />
    <path
        d="M105.327 68.8144C105.719 69.9056 106.167 71.0873 106.644 72.2071C107.12 73.3269 107.578 74.461 108.134 75.5426C108.689 76.6243 109.231 77.7107 109.82 78.7638C110.123 79.2832 110.427 79.8026 110.754 80.2981C110.913 80.5555 111.076 80.8032 111.249 81.0367L111.501 81.3989L111.627 81.5847L111.693 81.6752L111.735 81.7229C112.038 82.0754 112.387 82.3847 112.771 82.6425C113.234 82.9651 113.715 83.261 114.21 83.5288C115.233 84.0911 116.33 84.601 117.446 85.0822C118.563 85.5635 119.702 86.0352 120.856 86.4498C122.009 86.8644 123.191 87.3027 124.326 87.7078L123.892 89.5423C121.389 89.1154 118.916 88.5217 116.489 87.765C115.247 87.3784 114.027 86.9186 112.837 86.3879C112.213 86.1052 111.605 85.787 111.015 85.4349C110.332 85.0373 109.713 84.5342 109.18 83.9434L109.068 83.8147L108.988 83.7147L108.834 83.5193L108.526 83.119C108.316 82.857 108.115 82.5901 107.928 82.3185C107.531 81.7801 107.167 81.2273 106.807 80.6698C106.099 79.5639 105.446 78.422 104.85 77.2485C104.257 76.0811 103.697 74.9041 103.183 73.7033C102.669 72.5025 102.207 71.3208 101.782 70.0056L105.327 68.8144Z"
        fill="#565454" />
    <path
        d="M123.709 87.6982L126.465 86.6118L126.329 89.8568C126.329 89.8568 124.097 90.462 123.06 89.3136L123.709 87.6982Z"
        fill="#565454" />
    <path d="M128.543 87.7268L129.487 89.7996L126.329 89.8568L126.465 86.6118L128.543 87.7268Z"
        fill="#565454" />
    <path d="M82.8433 169.052L86.4908 169.328L87.5744 160.784L83.9268 160.508L82.8433 169.052Z"
        fill="#565454" />
    <path d="M53.9521 149.725L56.334 152.612L63.405 147.976L61.0231 145.088L53.9521 149.725Z"
        fill="#565454" />
    <path
        d="M57.4458 152.241L55.5263 148.476C55.4957 148.411 55.4427 148.359 55.3773 148.331C55.3118 148.303 55.2385 148.301 55.1713 148.324L52.1216 149.401C52.045 149.432 51.9759 149.48 51.9187 149.54C51.8615 149.601 51.8176 149.673 51.7898 149.753C51.762 149.832 51.7509 149.916 51.7574 150C51.7639 150.084 51.7877 150.166 51.8273 150.239C52.5186 151.54 52.9155 152.145 53.7562 153.789C54.2793 154.804 54.9378 156.348 55.6524 157.754C56.367 159.16 57.7307 158.535 57.5532 157.883C56.7499 154.971 57.2824 154.166 57.5532 152.903C57.5917 152.676 57.5539 152.443 57.4458 152.241Z"
        fill="#263238" />
    <path
        d="M86.7198 168.799H82.6192C82.5486 168.798 82.4801 168.823 82.4261 168.87C82.3721 168.916 82.3362 168.981 82.325 169.052L81.7739 172.359C81.7625 172.441 81.7686 172.525 81.7918 172.605C81.815 172.685 81.8547 172.759 81.9083 172.821C81.9619 172.884 82.0281 172.935 82.1024 172.969C82.1767 173.004 82.2574 173.021 82.339 173.021C83.7728 172.997 84.4593 172.912 86.2621 172.912C87.3737 172.912 89.6622 173.031 91.194 173.031C92.7259 173.031 92.8474 171.487 92.2122 171.344C89.3679 170.72 88.2657 169.852 87.3223 169.028C87.1558 168.879 86.9414 168.797 86.7198 168.799Z"
        fill="#263238" />
    <path opacity="0.2"
        d="M87.5747 160.784L86.9722 165.535L83.3386 165.164L83.9271 160.513L87.5747 160.784Z"
        fill="black" />
    <path opacity="0.2"
        d="M61.0232 145.088L63.4051 147.976L60.4767 149.896L58.0061 147.066L61.0232 145.088Z"
        fill="black" />
    <path
        d="M83.1331 83.1191L97.7607 86.0114C104.673 65.2501 103.02 64.5687 103.02 64.5687C101.945 63.9763 100.836 63.4512 99.6989 62.9963L99.4981 62.92C98.564 62.5722 98.3679 62.5198 97.1162 62.1481C94.9585 61.6287 92.9549 61.1951 90.4749 60.8377L90.0079 60.771C89.5408 60.7138 89.1112 60.6662 88.6815 60.6233C88.3919 60.5899 88.1024 60.5709 87.8268 60.5518L86.8927 60.4994C85.2954 60.4184 84.1512 60.4422 84.1512 60.4422C84.9545 73.4079 84.3427 77.1389 83.1331 83.1191Z"
        fill="#292D32" />
    <path opacity="0.7"
        d="M83.1331 83.1191L97.7607 86.0114C104.673 65.2501 103.02 64.5687 103.02 64.5687C101.945 63.9763 100.836 63.4512 99.6989 62.9963L99.4981 62.92C98.564 62.5722 98.3679 62.5198 97.1162 62.1481C94.9585 61.6287 92.9549 61.1951 90.4749 60.8377L90.0079 60.771C89.5408 60.7138 89.1112 60.6662 88.6815 60.6233C88.3919 60.5899 88.1024 60.5709 87.8268 60.5518L86.8927 60.4994C85.2954 60.4184 84.1512 60.4422 84.1512 60.4422C84.9545 73.4079 84.3427 77.1389 83.1331 83.1191Z"
        fill="white" />
    <path opacity="0.2"
        d="M100.918 69.4148L99.5959 69.1956C99.5959 70.9729 100.259 74.0226 100.904 75.9619C101.45 74.0559 101.875 72.4882 102.197 71.1683L100.918 69.4148Z"
        fill="black" />
    <path
        d="M102.511 64.3162C104.673 65.0214 106.247 69.3862 106.835 71.2684L102.632 76.305C102.632 76.305 98.3258 69.9913 99.0124 68.0329C99.6849 65.9935 101.464 63.9683 102.511 64.3162Z"
        fill="#292D32" />
    <path opacity="0.7"
        d="M102.511 64.3162C104.673 65.0214 106.247 69.3862 106.835 71.2684L102.632 76.305C102.632 76.305 98.3258 69.9913 99.0124 68.0329C99.6849 65.9935 101.464 63.9683 102.511 64.3162Z"
        fill="white" />
    <path
        d="M103.912 48.2008C103.477 49.5016 101.576 50.021 99.6848 49.3682C97.7933 48.7154 96.5977 47.1191 97.032 45.8183C97.4664 44.5174 99.3672 43.998 101.235 44.6556C103.104 45.3132 104.341 46.8999 103.912 48.2008Z"
        fill="#263238" />
    <path
        d="M92.9408 47.8434C91.9694 51.3886 91.4836 52.8657 92.5952 55.3054C94.2672 58.9793 98.7414 59.5559 100.731 56.4062C102.52 53.5757 103.809 48.2532 100.951 45.5895C100.347 44.9947 99.6025 44.5707 98.7896 44.3593C97.9767 44.1479 97.1238 44.1564 96.3151 44.3839C95.5064 44.6115 94.7699 45.0502 94.1781 45.6569C93.5864 46.2636 93.1599 47.0172 92.9408 47.8434Z"
        fill="#565454" />
    <path
        d="M98.3678 43.7026C96.9667 44.5222 93.9917 39.3902 90.2974 43.7026C87.654 46.7951 89.34 51.3266 89.34 51.3266C89.34 51.3266 87.2336 47.548 85.5523 49.392C83.3572 51.7746 85.627 60.2992 92.8661 59.7131C100.105 59.127 99.4047 53.1326 99.4047 53.1326C99.4047 53.1326 102.795 49.616 102.627 46.4615C102.501 44.0981 100.703 42.3541 98.3678 43.7026Z"
        fill="#263238" />
    <path
        d="M99.246 50.8883C99.0654 51.5479 99.0882 52.2484 99.3114 52.8943C99.6103 53.8045 100.297 53.8092 100.661 53.1803C101.025 52.5513 101.226 51.4601 100.708 50.7263C100.189 49.9924 99.4795 50.1592 99.246 50.8883Z"
        fill="#565454" />
    <path
        d="M93.8749 85.2395C93.8749 85.2395 92.315 90.7574 90.3114 98.0384C88.9804 102.889 87.4485 108.521 86.052 113.825C85.2534 116.86 84.5015 119.786 83.8523 122.402C80.1814 137.198 61.8734 149.915 61.8734 149.915L58.3286 145.937C58.3286 145.937 70.6304 135.368 74.2079 121.563C81.433 93.5402 77.3698 88.8133 83.1284 83.119L93.8749 85.2395Z"
        fill="#263238" />
    <path opacity="0.2"
        d="M92.2964 90.1856C91.7546 92.3251 91.0727 95.0269 90.3208 98.0479C88.9897 102.899 87.4579 108.531 86.0614 113.835C85.4636 107.068 85.1273 94.6266 90.0079 90.7574C90.97 90.0045 91.7313 89.8473 92.2964 90.1856Z"
        fill="black" />
    <path d="M62.177 150.487L57.7495 145.517L59.0899 144.145L64.5216 149.367L62.177 150.487Z"
        fill="#292D32" />
    <path opacity="0.7"
        d="M62.177 150.487L57.7495 145.517L59.0899 144.145L64.5216 149.367L62.177 150.487Z"
        fill="white" />
    <path
        d="M58.1136 154.261C58.069 154.26 58.0249 154.252 57.9828 154.237C57.5484 154.075 57.2729 153.227 57.1468 152.736C57.1427 152.72 57.1436 152.702 57.1495 152.686C57.1553 152.67 57.1658 152.656 57.1795 152.646C57.193 152.636 57.2094 152.63 57.2262 152.63C57.243 152.63 57.2593 152.636 57.2729 152.646C57.4037 152.722 58.5526 153.408 58.5759 153.889C58.5798 153.942 58.5697 153.994 58.5467 154.041C58.5236 154.088 58.4885 154.128 58.4452 154.156C58.3497 154.229 58.2326 154.266 58.1136 154.261ZM57.371 152.903C57.5624 153.546 57.8053 153.98 58.0435 154.066C58.0944 154.082 58.1485 154.085 58.2007 154.074C58.253 154.063 58.3017 154.039 58.3424 154.004C58.4031 153.961 58.4078 153.918 58.4031 153.889C58.3798 153.642 57.824 153.194 57.371 152.903Z"
        fill="#292D32" />
    <path
        d="M97.5273 86.0114C97.5273 86.0114 98.4614 115.469 96.397 126.567C94.2767 138.131 87.8035 164.339 87.8035 164.339L82.5447 163.648C82.5447 163.648 85.87 137.126 87.2851 125.661C88.8217 113.158 86.8181 83.8767 86.8181 83.8767L97.5273 86.0114Z"
        fill="#263238" />
    <path d="M88.9335 164.668L81.4375 163.682L81.5262 161.861L89.6854 162.224L88.9335 164.668Z"
        fill="#292D32" />
    <path opacity="0.7"
        d="M88.9335 164.668L81.4375 163.682L81.5262 161.861L89.6854 162.224L88.9335 164.668Z"
        fill="white" />
    <path
        d="M58.2912 153.108C57.9033 153.089 57.5247 152.98 57.1844 152.789C57.1716 152.781 57.1611 152.769 57.1537 152.756C57.1464 152.743 57.1425 152.728 57.1423 152.713C57.1444 152.697 57.1496 152.682 57.1577 152.669C57.1657 152.656 57.1764 152.645 57.189 152.636C57.2311 152.636 58.1231 152.136 58.6369 152.331C58.7013 152.355 58.7597 152.393 58.8082 152.442C58.8566 152.492 58.8938 152.552 58.9171 152.617C58.9478 152.681 58.9566 152.753 58.9422 152.822C58.9278 152.891 58.891 152.953 58.8377 152.998C58.6718 153.094 58.4802 153.132 58.2912 153.108ZM57.4179 152.722C57.8242 152.913 58.5341 153.017 58.7303 152.86C58.763 152.832 58.7957 152.789 58.7303 152.679C58.7165 152.637 58.6933 152.599 58.6625 152.567C58.6317 152.536 58.5941 152.512 58.5528 152.498C58.161 152.453 57.7651 152.531 57.4179 152.722Z"
        fill="#292D32" />
    <path
        d="M88.0742 169.447C87.6896 169.439 87.3065 169.394 86.9299 169.314C86.9121 169.312 86.8954 169.304 86.8827 169.291C86.8699 169.278 86.8619 169.261 86.8599 169.242C86.8571 169.224 86.8601 169.206 86.8686 169.189C86.877 169.173 86.8903 169.16 86.9066 169.152C87.0747 169.061 88.5506 168.304 88.9896 168.556C89.0315 168.58 89.0665 168.614 89.0911 168.656C89.1157 168.698 89.129 168.746 89.1297 168.795C89.1388 168.874 89.1282 168.954 89.0988 169.029C89.0694 169.103 89.0222 169.168 88.9616 169.219C88.6992 169.394 88.3867 169.475 88.0742 169.447ZM87.2195 169.19C88.0228 169.328 88.6206 169.29 88.8495 169.09C88.8888 169.055 88.9191 169.01 88.9378 168.961C88.9565 168.911 88.9631 168.857 88.9569 168.804C88.9583 168.785 88.9541 168.766 88.945 168.749C88.9359 168.732 88.9222 168.718 88.9055 168.709C88.6673 168.575 87.8267 168.895 87.2195 169.19Z"
        fill="#292D32" />
    <path
        d="M86.9486 169.319C86.9318 169.323 86.9141 169.323 86.8972 169.319C86.8847 169.31 86.8746 169.297 86.8681 169.283C86.8615 169.269 86.8587 169.253 86.8599 169.238C86.8599 169.171 87.042 167.56 87.9247 167.656C88.1583 167.68 88.2283 167.799 88.2423 167.899C88.3077 168.318 87.425 169.128 86.9813 169.328L86.9486 169.319ZM87.8547 167.808C87.3316 167.808 87.1214 168.69 87.056 169.071C87.5231 168.795 88.1116 168.161 88.0742 167.908C88.0742 167.908 88.0742 167.827 87.9061 167.813L87.8547 167.808Z"
        fill="#292D32" />
    <path
        d="M83.0398 82.2089L82.1664 83.4049C82.101 83.5002 82.2038 83.6289 82.3719 83.6622L97.7141 86.6928C97.8449 86.6928 97.9663 86.6928 97.985 86.5927L98.3353 85.2871C98.3353 85.2014 98.2559 85.0965 98.1111 85.0679L83.2966 82.1422C83.2518 82.1299 83.2046 82.1296 83.1596 82.1413C83.1147 82.153 83.0734 82.1763 83.0398 82.2089Z"
        fill="#292D32" />
    <path
        d="M84.7582 84.2865L84.3612 84.2055C84.2819 84.2055 84.2305 84.1387 84.2445 84.0911L84.7115 82.3995C84.7115 82.3518 84.8049 82.3233 84.8797 82.3376L85.2766 82.4186C85.356 82.4186 85.4121 82.4853 85.3981 82.5329L84.931 84.2245C84.9124 84.2865 84.8376 84.2865 84.7582 84.2865Z"
        fill="#263238" />
    <path
        d="M94.7763 86.283L94.3793 86.2068C94.2999 86.2068 94.2485 86.1353 94.2626 86.0876L94.7296 84.4008C94.7296 84.3484 94.8183 84.3198 94.8977 84.3389L95.2947 84.4151C95.3694 84.4151 95.4255 84.4866 95.4115 84.5342L94.9444 86.2211C94.9304 86.2735 94.8557 86.3021 94.7763 86.283Z"
        fill="#263238" />
</svg>