<svg width="173" height="163" viewBox="0 0 173 163" fill="none" xmlns="http://www.w3.org/2000/svg">
    <path
        d="M86.8269 162.015C134.419 162.015 173 159.762 173 156.984C173 154.205 134.419 151.953 86.8269 151.953C39.2347 151.953 0.653564 154.205 0.653564 156.984C0.653564 159.762 39.2347 162.015 86.8269 162.015Z"
        fill="#F5F5F5" />
    <path
        d="M150.853 57.4818L129.827 78.5084H143.902L159.307 55.5084H155.618C154.733 55.5077 153.856 55.6816 153.039 56.0202C152.221 56.3588 151.479 56.8555 150.853 57.4818Z"
        fill="#004AAD" />
    <path opacity="0.8"
        d="M150.853 57.4818L129.827 78.5084H143.902L159.307 55.5084H155.618C154.733 55.5077 153.856 55.6816 153.039 56.0202C152.221 56.3588 151.479 56.8555 150.853 57.4818Z"
        fill="white" />
    <path d="M154.418 58.5439L155.613 61.0195L157.271 58.5439H154.418Z" fill="#004AAD" />
    <path opacity="0.6" d="M154.418 58.5439L155.613 61.0195L157.271 58.5439H154.418Z" fill="white" />
    <path
        d="M161.911 59.2684H154.307C154.023 59.2673 153.751 59.154 153.551 58.9534C153.35 58.7528 153.237 58.481 153.236 58.1973C153.236 57.9133 153.348 57.6408 153.549 57.4399C153.75 57.2391 154.023 57.1262 154.307 57.1262H161.911C162.195 57.1262 162.468 57.2391 162.669 57.4399C162.869 57.6408 162.982 57.9133 162.982 58.1973C162.981 58.481 162.868 58.7528 162.667 58.9534C162.467 59.154 162.195 59.2673 161.911 59.2684Z"
        fill="#004AAD" />
    <path opacity="0.8"
        d="M161.911 59.2684H154.307C154.023 59.2673 153.751 59.154 153.551 58.9534C153.35 58.7528 153.237 58.481 153.236 58.1973C153.236 57.9133 153.348 57.6408 153.549 57.4399C153.75 57.2391 154.023 57.1262 154.307 57.1262H161.911C162.195 57.1262 162.468 57.2391 162.669 57.4399C162.869 57.6408 162.982 57.9133 162.982 58.1973C162.981 58.481 162.868 58.7528 162.667 58.9534C162.467 59.154 162.195 59.2673 161.911 59.2684Z"
        fill="white" />
    <path
        d="M93.0488 98.9218L106.235 77.2863H146.275C147.353 77.2863 148.421 77.4986 149.417 77.9111C150.413 78.3237 151.318 78.9283 152.08 79.6906C152.842 80.4529 153.447 81.3578 153.859 82.3537C154.272 83.3497 154.484 84.4171 154.484 85.4951V98.9218H93.0488Z"
        fill="#004AAD" />
    <path opacity="0.8"
        d="M93.0488 98.9218L106.235 77.2863H146.275C147.353 77.2863 148.421 77.4986 149.417 77.9111C150.413 78.3237 151.318 78.9283 152.08 79.6906C152.842 80.4529 153.447 81.3578 153.859 82.3537C154.272 83.3497 154.484 84.4171 154.484 85.4951V98.9218H93.0488Z"
        fill="white" />
    <path d="M119.285 71.5929H70.5779V109.966H119.285V71.5929Z" fill="#004AAD" />
    <path opacity="0.1" d="M119.285 71.5929H70.5779V109.966H119.285V71.5929Z" fill="white" />
    <path d="M94.4623 71.5929L70.5779 109.7V81.1218L76.5512 71.5929H94.4623Z" fill="#004AAD" />
    <path opacity="0.6" d="M94.4623 71.5929L70.5779 109.7V81.1218L76.5512 71.5929H94.4623Z"
        fill="white" />
    <path d="M110.133 71.5929L86.0801 109.966H76.6223L100.676 71.5929H110.133Z" fill="#004AAD" />
    <path opacity="0.6" d="M110.133 71.5929L86.0801 109.966H76.6223L100.676 71.5929H110.133Z"
        fill="white" />
    <path
        d="M51.1424 156.984H142.827C148.693 156.985 154.374 154.93 158.881 151.175C163.388 147.42 166.436 142.203 167.493 136.433H10.1602C14.9164 142.816 21.0992 147.999 28.2149 151.567C35.3306 155.135 43.1821 156.99 51.1424 156.984Z"
        fill="#049276" />
    <path
        d="M105.347 68.9261H127.653C130.915 68.9261 134.043 70.2218 136.349 72.5281C138.655 74.8344 139.951 77.9623 139.951 81.2239V118.113H105.347V68.9261Z"
        fill="#004AAD" />
    <path opacity="0.7"
        d="M105.347 68.9261H127.653C130.915 68.9261 134.043 70.2218 136.349 72.5281C138.655 74.8344 139.951 77.9623 139.951 81.2239V118.113H105.347V68.9261Z"
        fill="white" />
    <path
        d="M29.28 100.508H47.1289C47.7302 100.506 48.3261 100.621 48.8825 100.85C49.4388 101.078 49.9446 101.413 50.3708 101.837C50.797 102.262 51.1352 102.766 51.366 103.321C51.5968 103.876 51.7156 104.472 51.7156 105.073V118.771H29.28V100.508Z"
        fill="#004AAD" />
    <path opacity="0.7"
        d="M29.28 100.508H47.1289C47.7302 100.506 48.3261 100.621 48.8825 100.85C49.4388 101.078 49.9446 101.413 50.3708 101.837C50.797 102.262 51.1352 102.766 51.366 103.321C51.5968 103.876 51.7156 104.472 51.7156 105.073V118.771H29.28V100.508Z"
        fill="white" />
    <path d="M41.6802 100.948H29.7246V105.406H41.6802V100.948Z" fill="#004AAD" />
    <path opacity="0.1" d="M41.6802 100.948H29.7246V105.406H41.6802V100.948Z" fill="white" />
    <path d="M159.307 118.131H128.493V86.0151L159.307 97.1751V118.131Z" fill="#004AAD" />
    <path opacity="0.7" d="M159.307 118.131H128.493V86.0151L159.307 97.1751V118.131Z" fill="white" />
    <path
        d="M167.902 113.913V132.508C167.872 133.825 167.737 135.138 167.498 136.433H10.1601C9.21487 135.171 8.32599 133.863 7.49339 132.508C7.24895 132.117 7.01339 131.722 6.78228 131.322C2.32511 123.575 -0.0140359 114.792 6.33622e-05 105.855H110.458C114.54 105.85 118.551 106.923 122.084 108.966L125.364 110.864C128.797 112.854 132.695 113.901 136.662 113.9L167.902 113.913Z"
        fill="#004AAD" />
    <path opacity="0.8"
        d="M167.902 113.913V132.508C167.872 133.825 167.737 135.138 167.498 136.433H10.1601C9.21487 135.171 8.32599 133.863 7.49339 132.508C7.24895 132.117 7.01339 131.722 6.78228 131.322C2.32511 123.575 -0.0140359 114.792 6.33622e-05 105.855H110.458C114.54 105.85 118.551 106.923 122.084 108.966L125.364 110.864C128.797 112.854 132.695 113.901 136.662 113.9L167.902 113.913Z"
        fill="white" />
    <path
        d="M167.902 131.322V132.508H7.50213C7.25768 132.117 7.02213 131.722 6.79102 131.322H167.902Z"
        fill="#004AAD" />
    <path opacity="0.1"
        d="M167.902 131.322V132.508H7.50213C7.25768 132.117 7.02213 131.722 6.79102 131.322H167.902Z"
        fill="white" />
    <path
        d="M2.38219 107.246C2.26431 107.246 2.15127 107.199 2.06792 107.116C1.98457 107.033 1.93774 106.92 1.93774 106.802V94.2107C1.93774 94.0928 1.98457 93.9798 2.06792 93.8964C2.15127 93.8131 2.26431 93.7662 2.38219 93.7662H85.4533C85.5711 93.7662 85.6842 93.8131 85.7675 93.8964C85.8509 93.9798 85.8977 94.0928 85.8977 94.2107C85.8977 94.3286 85.8509 94.4416 85.7675 94.5249C85.6842 94.6083 85.5711 94.6551 85.4533 94.6551H2.82663V106.802C2.82663 106.92 2.77981 107.033 2.69646 107.116C2.61311 107.199 2.50006 107.246 2.38219 107.246Z"
        fill="#004AAD" />
    <path
        d="M12.7645 107.246C12.6466 107.246 12.5336 107.199 12.4502 107.116C12.3669 107.033 12.3201 106.92 12.3201 106.802V94.2107C12.3201 94.0928 12.3669 93.9798 12.4502 93.8964C12.5336 93.8131 12.6466 93.7662 12.7645 93.7662C12.8824 93.7662 12.9954 93.8131 13.0788 93.8964C13.1621 93.9798 13.209 94.0928 13.209 94.2107V106.802C13.209 106.92 13.1621 107.033 13.0788 107.116C12.9954 107.199 12.8824 107.246 12.7645 107.246Z"
        fill="#004AAD" />
    <path
        d="M85.4535 107.246C85.3356 107.246 85.2226 107.199 85.1392 107.116C85.0559 107.033 85.009 106.92 85.009 106.802V94.2107C85.009 94.0928 85.0559 93.9798 85.1392 93.8964C85.2226 93.8131 85.3356 93.7662 85.4535 93.7662C85.5714 93.7662 85.6844 93.8131 85.7677 93.8964C85.8511 93.9798 85.8979 94.0928 85.8979 94.2107V106.802C85.8979 106.92 85.8511 107.033 85.7677 107.116C85.6844 107.199 85.5714 107.246 85.4535 107.246Z"
        fill="#004AAD" />
    <path
        d="M75.0668 107.246C74.9489 107.246 74.8358 107.199 74.7525 107.116C74.6691 107.033 74.6223 106.92 74.6223 106.802V94.2107C74.6223 94.0928 74.6691 93.9798 74.7525 93.8964C74.8358 93.8131 74.9489 93.7662 75.0668 93.7662C75.1846 93.7662 75.2977 93.8131 75.381 93.8964C75.4644 93.9798 75.5112 94.0928 75.5112 94.2107V106.802C75.5112 106.92 75.4644 107.033 75.381 107.116C75.2977 107.199 75.1846 107.246 75.0668 107.246Z"
        fill="#004AAD" />
    <path
        d="M64.6844 107.246C64.5666 107.246 64.4535 107.199 64.3702 107.116C64.2868 107.033 64.24 106.92 64.24 106.802V94.2107C64.24 94.0928 64.2868 93.9798 64.3702 93.8964C64.4535 93.8131 64.5666 93.7662 64.6844 93.7662C64.8023 93.7662 64.9154 93.8131 64.9987 93.8964C65.0821 93.9798 65.1289 94.0928 65.1289 94.2107V106.802C65.1289 106.92 65.0821 107.033 64.9987 107.116C64.9154 107.199 64.8023 107.246 64.6844 107.246Z"
        fill="#004AAD" />
    <path
        d="M54.3024 107.246C54.1845 107.246 54.0714 107.199 53.9881 107.116C53.9047 107.033 53.8579 106.92 53.8579 106.802V94.2107C53.8579 94.0928 53.9047 93.9798 53.9881 93.8964C54.0714 93.8131 54.1845 93.7662 54.3024 93.7662C54.4202 93.7662 54.5333 93.8131 54.6166 93.8964C54.7 93.9798 54.7468 94.0928 54.7468 94.2107V106.802C54.7468 106.92 54.7 107.033 54.6166 107.116C54.5333 107.199 54.4202 107.246 54.3024 107.246Z"
        fill="#004AAD" />
    <path
        d="M43.9156 107.246C43.7978 107.246 43.6847 107.199 43.6014 107.116C43.518 107.033 43.4712 106.92 43.4712 106.802V94.2107C43.4712 94.0928 43.518 93.9798 43.6014 93.8964C43.6847 93.8131 43.7978 93.7662 43.9156 93.7662C44.0335 93.7662 44.1466 93.8131 44.2299 93.8964C44.3133 93.9798 44.3601 94.0928 44.3601 94.2107V106.802C44.3601 106.92 44.3133 107.033 44.2299 107.116C44.1466 107.199 44.0335 107.246 43.9156 107.246Z"
        fill="#004AAD" />
    <path
        d="M33.5333 107.246C33.4154 107.246 33.3024 107.199 33.219 107.116C33.1357 107.033 33.0889 106.92 33.0889 106.802V94.2107C33.0889 94.0928 33.1357 93.9798 33.219 93.8964C33.3024 93.8131 33.4154 93.7662 33.5333 93.7662C33.6512 93.7662 33.7642 93.8131 33.8476 93.8964C33.9309 93.9798 33.9778 94.0928 33.9778 94.2107V106.802C33.9778 106.92 33.9309 107.033 33.8476 107.116C33.7642 107.199 33.6512 107.246 33.5333 107.246Z"
        fill="#004AAD" />
    <path
        d="M23.1512 107.246C23.0334 107.246 22.9203 107.199 22.837 107.116C22.7536 107.033 22.7068 106.92 22.7068 106.802V94.2107C22.7068 94.0928 22.7536 93.9798 22.837 93.8964C22.9203 93.8131 23.0334 93.7662 23.1512 93.7662C23.2691 93.7662 23.3821 93.8131 23.4655 93.8964C23.5488 93.9798 23.5957 94.0928 23.5957 94.2107V106.802C23.5957 106.92 23.5488 107.033 23.4655 107.116C23.3821 107.199 23.2691 107.246 23.1512 107.246Z"
        fill="#004AAD" />
    <g opacity="0.8">
        <path
            d="M2.38219 107.246C2.26431 107.246 2.15127 107.199 2.06792 107.116C1.98457 107.033 1.93774 106.92 1.93774 106.802V94.2107C1.93774 94.0928 1.98457 93.9798 2.06792 93.8964C2.15127 93.8131 2.26431 93.7662 2.38219 93.7662H85.4533C85.5711 93.7662 85.6842 93.8131 85.7675 93.8964C85.8509 93.9798 85.8977 94.0928 85.8977 94.2107C85.8977 94.3286 85.8509 94.4416 85.7675 94.5249C85.6842 94.6083 85.5711 94.6551 85.4533 94.6551H2.82663V106.802C2.82663 106.92 2.77981 107.033 2.69646 107.116C2.61311 107.199 2.50006 107.246 2.38219 107.246Z"
            fill="white" />
        <path
            d="M12.7645 107.246C12.6466 107.246 12.5336 107.2 12.4502 107.116C12.3669 107.033 12.3201 106.92 12.3201 106.802V94.2108C12.3201 94.0929 12.3669 93.9799 12.4502 93.8965C12.5336 93.8132 12.6466 93.7664 12.7645 93.7664C12.8824 93.7664 12.9954 93.8132 13.0788 93.8965C13.1621 93.9799 13.209 94.0929 13.209 94.2108V106.802C13.209 106.92 13.1621 107.033 13.0788 107.116C12.9954 107.2 12.8824 107.246 12.7645 107.246Z"
            fill="white" />
        <path
            d="M85.4532 107.246C85.3354 107.246 85.2223 107.2 85.139 107.116C85.0556 107.033 85.0088 106.92 85.0088 106.802V94.2108C85.0088 94.0929 85.0556 93.9799 85.139 93.8965C85.2223 93.8132 85.3354 93.7664 85.4532 93.7664C85.5711 93.7664 85.6842 93.8132 85.7675 93.8965C85.8509 93.9799 85.8977 94.0929 85.8977 94.2108V106.802C85.8977 106.92 85.8509 107.033 85.7675 107.116C85.6842 107.2 85.5711 107.246 85.4532 107.246Z"
            fill="white" />
        <path
            d="M75.0668 107.246C74.9489 107.246 74.8358 107.2 74.7525 107.116C74.6691 107.033 74.6223 106.92 74.6223 106.802V94.2108C74.6223 94.0929 74.6691 93.9799 74.7525 93.8965C74.8358 93.8132 74.9489 93.7664 75.0668 93.7664C75.1846 93.7664 75.2977 93.8132 75.381 93.8965C75.4644 93.9799 75.5112 94.0929 75.5112 94.2108V106.802C75.5112 106.92 75.4644 107.033 75.381 107.116C75.2977 107.2 75.1846 107.246 75.0668 107.246Z"
            fill="white" />
        <path
            d="M64.6844 107.246C64.5666 107.246 64.4535 107.2 64.3702 107.116C64.2868 107.033 64.24 106.92 64.24 106.802V94.2108C64.24 94.0929 64.2868 93.9799 64.3702 93.8965C64.4535 93.8132 64.5666 93.7664 64.6844 93.7664C64.8023 93.7664 64.9154 93.8132 64.9987 93.8965C65.0821 93.9799 65.1289 94.0929 65.1289 94.2108V106.802C65.1289 106.92 65.0821 107.033 64.9987 107.116C64.9154 107.2 64.8023 107.246 64.6844 107.246Z"
            fill="white" />
        <path
            d="M54.3024 107.246C54.1845 107.246 54.0714 107.2 53.9881 107.116C53.9047 107.033 53.8579 106.92 53.8579 106.802V94.2108C53.8579 94.0929 53.9047 93.9799 53.9881 93.8965C54.0714 93.8132 54.1845 93.7664 54.3024 93.7664C54.4202 93.7664 54.5333 93.8132 54.6166 93.8965C54.7 93.9799 54.7468 94.0929 54.7468 94.2108V106.802C54.7468 106.92 54.7 107.033 54.6166 107.116C54.5333 107.2 54.4202 107.246 54.3024 107.246Z"
            fill="white" />
        <path
            d="M43.9156 107.246C43.7978 107.246 43.6847 107.2 43.6014 107.116C43.518 107.033 43.4712 106.92 43.4712 106.802V94.2108C43.4712 94.0929 43.518 93.9799 43.6014 93.8965C43.6847 93.8132 43.7978 93.7664 43.9156 93.7664C44.0335 93.7664 44.1466 93.8132 44.2299 93.8965C44.3133 93.9799 44.3601 94.0929 44.3601 94.2108V106.802C44.3601 106.92 44.3133 107.033 44.2299 107.116C44.1466 107.2 44.0335 107.246 43.9156 107.246Z"
            fill="white" />
        <path
            d="M33.5333 107.246C33.4154 107.246 33.3024 107.2 33.219 107.116C33.1357 107.033 33.0889 106.92 33.0889 106.802V94.2108C33.0889 94.0929 33.1357 93.9799 33.219 93.8965C33.3024 93.8132 33.4154 93.7664 33.5333 93.7664C33.6512 93.7664 33.7642 93.8132 33.8476 93.8965C33.9309 93.9799 33.9778 94.0929 33.9778 94.2108V106.802C33.9778 106.92 33.9309 107.033 33.8476 107.116C33.7642 107.2 33.6512 107.246 33.5333 107.246Z"
            fill="white" />
        <path
            d="M23.1512 107.246C23.0334 107.246 22.9203 107.2 22.837 107.116C22.7536 107.033 22.7068 106.92 22.7068 106.802V94.2108C22.7068 94.0929 22.7536 93.9799 22.837 93.8965C22.9203 93.8132 23.0334 93.7664 23.1512 93.7664C23.2691 93.7664 23.3821 93.8132 23.4655 93.8965C23.5488 93.9799 23.5957 94.0929 23.5957 94.2108V106.802C23.5957 106.92 23.5488 107.033 23.4655 107.116C23.3821 107.2 23.2691 107.246 23.1512 107.246Z"
            fill="white" />
    </g>
    <path
        d="M69.8399 124.153H27.9377V118.135H69.8399C70.6384 118.135 71.4041 118.452 71.9691 119.016C72.5341 119.58 72.8521 120.345 72.8533 121.144C72.8521 121.942 72.5341 122.708 71.9691 123.272C71.4041 123.836 70.6384 124.153 69.8399 124.153Z"
        fill="#004AAD" />
    <path opacity="0.1"
        d="M69.8399 124.153H27.9377V118.135H69.8399C70.6384 118.135 71.4041 118.452 71.9691 119.016C72.5341 119.58 72.8521 120.345 72.8533 121.144C72.8521 121.942 72.5341 122.708 71.9691 123.272C71.4041 123.836 70.6384 124.153 69.8399 124.153Z"
        fill="white" />
    <path d="M42.0844 124.153H36.6577L40.431 118.131H45.8577L42.0844 124.153Z" fill="#004AAD" />
    <path opacity="0.6" d="M42.0844 124.153H36.6577L40.431 118.131H45.8577L42.0844 124.153Z"
        fill="white" />
    <path d="M47.4579 124.153H44.2979L48.0712 118.131H51.2267L47.4579 124.153Z" fill="#004AAD" />
    <path opacity="0.6" d="M47.4579 124.153H44.2979L48.0712 118.131H51.2267L47.4579 124.153Z"
        fill="white" />
    <path d="M29.28 118.135H27.9377V124.153H29.28V118.135Z" fill="#004AAD" />
    <path opacity="0.2" d="M29.28 118.135H27.9377V124.153H29.28V118.135Z" fill="black" />
    <path
        d="M79.5688 65.5573L89.3466 55.7796C89.8133 55.3127 90.3676 54.9427 90.9779 54.691C91.5881 54.4393 92.2421 54.3108 92.9022 54.3129H127.489C128.816 54.3129 130.089 54.8401 131.028 55.7787C131.966 56.7172 132.493 57.9901 132.493 59.3173V65.5396L79.5688 65.5573Z"
        fill="#004AAD" />
    <path opacity="0.7"
        d="M79.5688 65.5573L89.3466 55.7796C89.8133 55.3127 90.3676 54.9427 90.9779 54.691C91.5881 54.4393 92.2421 54.3108 92.9022 54.3129H127.489C128.816 54.3129 130.089 54.8401 131.028 55.7787C131.966 56.7172 132.493 57.9901 132.493 59.3173V65.5396L79.5688 65.5573Z"
        fill="white" />
    <path
        d="M72.2578 70.2107L84.84 57.6284C85.4787 56.989 86.3451 56.6293 87.2489 56.6284H133.604C133.842 56.6255 134.077 56.67 134.297 56.7594C134.517 56.8488 134.716 56.9812 134.884 57.149C135.052 57.3167 135.184 57.5164 135.274 57.7361C135.363 57.9558 135.407 58.1912 135.404 58.4284V68.4018C135.408 68.6375 135.365 68.8715 135.277 69.0903C135.189 69.3091 135.059 69.5082 134.893 69.6761C134.728 69.844 134.531 69.9774 134.313 70.0684C134.096 70.1594 133.862 70.2062 133.627 70.2062H72.2934L72.2578 70.2107Z"
        fill="#004AAD" />
    <path opacity="0.8"
        d="M72.2578 70.2107L84.84 57.6284C85.4787 56.989 86.3451 56.6293 87.2489 56.6284H133.604C133.842 56.6255 134.077 56.67 134.297 56.7594C134.517 56.8488 134.716 56.9812 134.884 57.149C135.052 57.3167 135.184 57.5164 135.274 57.7361C135.363 57.9558 135.407 58.1912 135.404 58.4284V68.4018C135.408 68.6375 135.365 68.8715 135.277 69.0903C135.189 69.3091 135.059 69.5082 134.893 69.6761C134.728 69.844 134.531 69.9774 134.313 70.0684C134.096 70.1594 133.862 70.2062 133.627 70.2062H72.2934L72.2578 70.2107Z"
        fill="white" />
    <path
        d="M125.649 73.175H69.0979L70.8001 68.9261H122.8C123.305 68.9301 123.801 69.0568 124.246 69.2954C124.691 69.5339 125.071 69.8771 125.353 70.2953C125.636 70.7135 125.813 71.1942 125.868 71.6959C125.923 72.1976 125.856 72.7053 125.671 73.175H125.649Z"
        fill="#004AAD" />
    <path opacity="0.7"
        d="M125.649 73.175H69.0979L70.8001 68.9261H122.8C123.305 68.9301 123.801 69.0568 124.246 69.2954C124.691 69.5339 125.071 69.8771 125.353 70.2953C125.636 70.7135 125.813 71.1942 125.868 71.6959C125.923 72.1976 125.856 72.7053 125.671 73.175H125.649Z"
        fill="white" />
    <path
        d="M148.16 102.655H142.973C142.463 102.654 141.974 102.451 141.614 102.09C141.253 101.729 141.05 101.241 141.049 100.731C141.05 100.22 141.253 99.7309 141.614 99.3696C141.974 99.0082 142.463 98.8041 142.973 98.8018H148.16C148.67 98.8041 149.159 99.0082 149.52 99.3696C149.88 99.7309 150.083 100.22 150.084 100.731C150.083 101.241 149.88 101.729 149.519 102.09C149.159 102.451 148.67 102.654 148.16 102.655Z"
        fill="#004AAD" />
    <path opacity="0.1"
        d="M148.16 102.655H142.973C142.463 102.654 141.974 102.451 141.614 102.09C141.253 101.729 141.05 101.241 141.049 100.731C141.05 100.22 141.253 99.7309 141.614 99.3696C141.974 99.0082 142.463 98.8041 142.973 98.8018H148.16C148.67 98.8041 149.159 99.0082 149.52 99.3696C149.88 99.7309 150.083 100.22 150.084 100.731C150.083 101.241 149.88 101.729 149.519 102.09C149.159 102.451 148.67 102.654 148.16 102.655Z"
        fill="white" />
    <path
        d="M148.16 107.78H142.973C142.463 107.778 141.974 107.575 141.614 107.215C141.253 106.854 141.05 106.365 141.049 105.855C141.05 105.345 141.253 104.855 141.614 104.494C141.974 104.133 142.463 103.929 142.973 103.926H148.16C148.67 103.929 149.159 104.133 149.52 104.494C149.88 104.855 150.083 105.345 150.084 105.855C150.083 106.365 149.88 106.854 149.519 107.215C149.159 107.575 148.67 107.778 148.16 107.78Z"
        fill="#004AAD" />
    <path opacity="0.1"
        d="M148.16 107.78H142.973C142.463 107.778 141.974 107.575 141.614 107.215C141.253 106.854 141.05 106.365 141.049 105.855C141.05 105.345 141.253 104.855 141.614 104.494C141.974 104.133 142.463 103.929 142.973 103.926H148.16C148.67 103.929 149.159 104.133 149.52 104.494C149.88 104.855 150.083 105.345 150.084 105.855C150.083 106.365 149.88 106.854 149.519 107.215C149.159 107.575 148.67 107.778 148.16 107.78Z"
        fill="white" />
    <path
        d="M55.3776 45.3485C55.7987 45.7722 56.1977 46.2173 56.5732 46.6818C56.9554 47.1485 57.3199 47.5707 57.6843 48.0152C58.4176 48.9041 59.1021 49.8418 59.7687 50.7974C61.1423 52.7408 62.3016 54.827 63.2265 57.0196C63.3376 57.3041 63.4398 57.6018 63.5465 57.9085L63.7065 58.353C63.7954 58.6188 63.8579 58.8927 63.8932 59.1707C63.9895 60.0552 63.8721 60.9499 63.551 61.7796C63.0718 63.0046 62.3996 64.1449 61.5599 65.1574C60.0763 66.9739 58.3678 68.5943 56.4754 69.9796L54.7999 68.2018C56.1194 66.5539 57.3251 64.8181 58.4087 63.0063C58.8842 62.2327 59.2493 61.3965 59.4932 60.5218C59.5605 60.3072 59.5682 60.0783 59.5154 59.8596L59.3643 59.5307C59.2621 59.313 59.1732 59.0863 59.0621 58.873C58.1216 57.0472 57.021 55.3086 55.7732 53.6774C55.151 52.8285 54.4932 52.0018 53.8265 51.1752C53.4932 50.7663 53.1554 50.3574 52.8087 49.9574L51.7954 48.7885L55.3776 45.3485Z"
        fill="#E4897B" />
    <path d="M52.1067 69.5575L54.0045 73.3042L55.8578 71.7086L54.3378 69.0464L52.1067 69.5575Z"
        fill="#E4897B" />
    <path
        d="M37.6445 47.8553L36.7556 49.0864C36.4622 49.5086 36.1733 49.9397 35.8933 50.3708C35.3289 51.2375 34.7689 52.1042 34.2489 52.9886C33.1989 54.6997 32.2907 56.4938 31.5333 58.353L31.4045 58.6908L31.3422 58.8464C31.3162 58.9036 31.3025 58.9657 31.3022 59.0286C31.3144 59.3701 31.3742 59.7082 31.48 60.033C31.7783 60.9294 32.1639 61.7943 32.6311 62.6153C33.6457 64.4267 34.7554 66.1833 35.9556 67.8775L34.1778 69.5619C32.4383 68.107 30.8617 66.4678 29.4756 64.673C28.7277 63.71 28.0897 62.6665 27.5734 61.5619C27.2671 60.8866 27.0576 60.1714 26.9511 59.4375C26.8933 58.9615 26.9023 58.4798 26.9778 58.0064C26.9934 57.8689 27.0232 57.7333 27.0667 57.6019L27.1334 57.3708L27.2578 56.9264C27.4178 56.3442 27.6222 55.7975 27.8134 55.2419C28.0045 54.6864 28.2578 54.1486 28.4711 53.6286C28.9156 52.5664 29.4489 51.5531 29.9867 50.5531C30.5245 49.5531 31.1156 48.593 31.7289 47.6464C32.0252 47.1753 32.3408 46.7086 32.6756 46.2464C33 45.7708 33.32 45.3575 33.7022 44.8508L37.6445 47.8553Z"
        fill="#E4897B" />
    <path
        d="M35.2979 67.2507L37.3779 68.273L35.3956 71.8641C35.3956 71.8641 34.0267 70.4552 33.6667 68.9041L35.2979 67.2507Z"
        fill="#E4897B" />
    <path d="M39.1555 71.0018L37.3777 73.8863L35.3955 71.8641L37.3777 68.2729L39.1555 71.0018Z"
        fill="#E4897B" />
    <path
        d="M49.6401 31.6196C49.6134 31.8818 49.7289 32.1129 49.8978 32.1396C50.0667 32.1663 50.2312 31.9707 50.2578 31.6951C50.2845 31.4196 50.1689 31.2018 50.0001 31.1751C49.8312 31.1485 49.6712 31.3574 49.6401 31.6196Z"
        fill="#263238" />
    <path
        d="M49.7066 32.113C49.9332 32.9612 50.271 33.7756 50.7111 34.5353C50.5161 34.6369 50.3011 34.6944 50.0814 34.7036C49.8618 34.7128 49.6427 34.6736 49.4399 34.5886L49.7066 32.113Z"
        fill="#DE5753" />
    <path
        d="M48.8887 30.033C48.8683 30.0324 48.8482 30.0278 48.8295 30.0194C48.8109 30.0111 48.794 29.9991 48.78 29.9843C48.766 29.9694 48.755 29.9519 48.7477 29.9328C48.7405 29.9137 48.737 29.8934 48.7376 29.873C48.738 29.8468 48.7451 29.8211 48.7583 29.7985C48.7716 29.7759 48.7905 29.7572 48.8132 29.7441C49.0269 29.6252 49.2661 29.5596 49.5105 29.5526C49.7549 29.5457 49.9975 29.5976 50.2176 29.7041C50.2558 29.719 50.2865 29.7483 50.3032 29.7858C50.3198 29.8232 50.321 29.8657 50.3065 29.9041C50.2915 29.9423 50.2624 29.9734 50.2252 29.9907C50.1879 30.0081 50.1454 30.0105 50.1065 29.9974L50.0709 29.9752C49.896 29.8928 49.7038 29.8535 49.5105 29.8604C49.3173 29.8674 49.1284 29.9204 48.9598 30.0152C48.9384 30.0279 48.9136 30.034 48.8887 30.033Z"
        fill="#263238" />
    <path
        d="M40.9199 33.5129C41.4799 35.904 42.1199 40.2774 40.5066 41.8729C40.5066 41.8729 41.2533 44.2952 45.6933 44.2952C50.5821 44.2952 47.9155 41.8729 47.9155 41.8729C45.2488 41.2374 45.2177 39.2596 45.6133 37.4063L40.9199 33.5129Z"
        fill="#E4897B" />
    <path
        d="M39.9022 42.7041C39.52 41.9396 39.1022 41.0596 39.9022 40.7841C40.7911 40.4819 45.5511 40.1752 47.2311 40.7396C47.6767 40.86 48.0581 41.149 48.2944 41.5455C48.5308 41.9419 48.6037 42.4148 48.4978 42.8641L39.9022 42.7041Z"
        fill="#263238" />
    <path
        d="M33.9378 154.211C33.6508 154.211 33.3646 154.18 33.0844 154.117C33.0698 154.116 33.0561 154.109 33.0457 154.098C33.0352 154.088 33.0285 154.074 33.0267 154.06C33.0237 154.045 33.0251 154.029 33.0306 154.015C33.0361 154.001 33.0455 153.989 33.0578 153.98C33.0933 153.953 33.9467 153.34 34.4444 153.446C34.4983 153.455 34.5495 153.476 34.5941 153.508C34.6387 153.54 34.6757 153.581 34.7022 153.629C34.7409 153.682 34.7617 153.747 34.7617 153.813C34.7617 153.879 34.7409 153.944 34.7022 153.997C34.5778 154.171 34.2533 154.211 33.9378 154.211ZM33.3022 154.006C33.7911 154.086 34.4578 154.086 34.5911 153.904C34.5911 153.904 34.6444 153.833 34.5689 153.704C34.5531 153.675 34.5309 153.651 34.5038 153.632C34.4768 153.614 34.4458 153.602 34.4133 153.597C34.0036 153.62 33.6102 153.766 33.2844 154.015L33.3022 154.006Z"
        fill="#004AAD" />
    <path
        d="M33.0845 154.131H33.049C33.038 154.123 33.029 154.114 33.0228 154.102C33.0166 154.09 33.0134 154.077 33.0134 154.064C33.0134 154.024 33.0534 153.082 33.4223 152.771C33.4676 152.733 33.52 152.704 33.5765 152.687C33.6329 152.669 33.6923 152.663 33.7512 152.669C33.8111 152.669 33.8692 152.689 33.9154 152.727C33.9617 152.766 33.9932 152.819 34.0045 152.877C34.0756 153.242 33.4534 153.953 33.1156 154.135L33.0845 154.131ZM33.6934 152.797C33.6294 152.797 33.5676 152.821 33.5201 152.864C33.3026 153.163 33.1816 153.521 33.1734 153.891C33.4934 153.637 33.889 153.1 33.849 152.886C33.849 152.886 33.849 152.811 33.729 152.797H33.6934Z"
        fill="#004AAD" />
    <path
        d="M53.5289 154.211C53.1919 154.211 52.8556 154.18 52.5244 154.117C52.5089 154.115 52.4945 154.107 52.4833 154.096C52.4722 154.085 52.4648 154.071 52.4622 154.055C52.4597 154.04 52.4618 154.024 52.4681 154.01C52.4744 153.996 52.4847 153.984 52.4978 153.975C52.6622 153.882 54.1111 153.051 54.4622 153.624C54.4968 153.674 54.5153 153.734 54.5153 153.795C54.5153 153.856 54.4968 153.916 54.4622 153.966C54.3467 154.162 53.9378 154.211 53.5289 154.211ZM52.7689 154.002C53.3822 154.091 54.2089 154.077 54.3511 153.877C54.3511 153.877 54.3956 153.815 54.3289 153.704C54.1333 153.389 53.2533 153.766 52.7689 154.011V154.002Z"
        fill="#004AAD" />
    <path
        d="M52.5378 154.131H52.4934C52.4823 154.123 52.4735 154.112 52.468 154.099C52.4625 154.087 52.4605 154.073 52.4623 154.06C52.4623 154.024 52.5156 153.144 52.9067 152.802C52.9658 152.747 53.0365 152.707 53.1135 152.684C53.1906 152.661 53.2718 152.655 53.3512 152.668C53.5689 152.691 53.6312 152.802 53.6445 152.891C53.7067 153.268 52.9645 153.957 52.5734 154.135L52.5378 154.131ZM53.2845 152.797C53.1859 152.797 53.0907 152.833 53.0178 152.9C52.7874 153.188 52.6523 153.54 52.6312 153.908C53.0223 153.668 53.5201 153.122 53.4889 152.895C53.4889 152.873 53.4889 152.815 53.3289 152.797H53.2845Z"
        fill="#004AAD" />
    <path d="M48.9468 154.051H52.2134L52.2446 146.491H48.9823L48.9468 154.051Z" fill="#E4897B" />
    <path d="M29.3423 154.051H32.6089L33.9601 146.491H30.6934L29.3423 154.051Z" fill="#E4897B" />
    <path
        d="M32.8268 153.673H29.1601C29.0953 153.672 29.0323 153.694 28.9826 153.736C28.9328 153.778 28.8996 153.836 28.889 153.9L28.3557 156.802C28.3463 156.869 28.3505 156.937 28.3679 157.002C28.3853 157.068 28.4156 157.129 28.4571 157.182C28.4985 157.236 28.5502 157.28 28.6091 157.313C28.668 157.346 28.733 157.367 28.8001 157.375H28.8801C30.1601 157.353 30.7779 157.277 32.3912 157.277C33.3823 157.277 35.4312 157.384 36.8046 157.384C38.1779 157.384 38.2979 156.051 37.7334 155.904C35.1957 155.353 34.2179 154.593 33.3868 153.873C33.233 153.736 33.0323 153.665 32.8268 153.673Z"
        fill="#263238" />
    <path
        d="M52.16 153.673H48.6045C48.5396 153.672 48.4767 153.694 48.4269 153.736C48.3772 153.778 48.344 153.836 48.3334 153.9L47.8 156.802C47.7781 156.93 47.8078 157.062 47.8827 157.169C47.9577 157.275 48.0717 157.348 48.2 157.371C48.231 157.375 48.2624 157.375 48.2934 157.371C49.5778 157.348 51.4311 157.273 53.0489 157.273C54.9422 157.273 56.5778 157.38 58.7911 157.38C60.1245 157.38 60.4534 156.046 59.8889 155.9C57.3111 155.34 55.2222 155.282 52.9645 153.922C52.7249 153.765 52.4462 153.679 52.16 153.673Z"
        fill="#263238" />
    <path
        d="M34.6934 42.6108C31.6579 43.313 28.4712 51.6552 28.4712 51.6552L34.7779 55.8685C36.2258 53.6731 37.495 51.365 38.5734 48.9663C40.2401 45.1485 37.7912 41.8952 34.6934 42.6108Z"
        fill="#EDA464" />
    <path
        d="M37.0889 47.9307L34.48 55.6684L34.7778 55.8684C34.7778 55.8684 35.9689 54.0907 37.2355 51.7218L37.0889 47.9307Z"
        fill="#004AAD" />
    <path opacity="0.1"
        d="M37.0889 47.9307L34.48 55.6684L34.7778 55.8684C34.7778 55.8684 35.9689 54.0907 37.2355 51.7218L37.0889 47.9307Z"
        fill="black" />
    <path
        d="M55.0622 57.1975C55.0356 60.8419 54.8178 65.3752 54.2756 71.0019H36.8089C36.5823 68.3352 37.7645 55.2419 34.6934 42.6108C36.6145 42.2385 38.5579 41.9921 40.5111 41.873C42.9832 41.7308 45.4613 41.7308 47.9334 41.873C49.6383 42.0375 51.3279 42.3347 52.9867 42.7619C52.9867 42.7619 54.48 44.3797 54.9334 51.9663C55.0222 53.4819 55.0711 55.2063 55.0622 57.1975Z"
        fill="#EDA464" />
    <path
        d="M55.0622 57.1974C54.0044 55.2685 52.0844 51.3974 52.3555 49.1974L54.9333 51.9885C55.0222 53.4818 55.0711 55.2063 55.0622 57.1974Z"
        fill="#004AAD" />
    <path opacity="0.1"
        d="M55.0622 57.1974C54.0044 55.2685 52.0844 51.3974 52.3555 49.1974L54.9333 51.9885C55.0222 53.4818 55.0711 55.2063 55.0622 57.1974Z"
        fill="black" />
    <path
        d="M49.5645 45.7308C49.289 48.8419 56.3423 56.3264 56.3423 56.3264L61.9956 51.7219C60.5159 49.2226 58.7417 46.9098 56.7112 44.833C53.4045 41.6375 49.8756 42.2464 49.5645 45.7308Z"
        fill="#EDA464" />
    <path d="M52.2444 146.495L52.231 150.388H48.9644L48.9777 146.495H52.2444Z" fill="#CE6F64" />
    <path d="M30.6934 146.495H33.9601L33.2623 150.388H29.9956L30.6934 146.495Z" fill="#CE6F64" />
    <path
        d="M41.0088 29.7975C40.8622 33.0464 40.6133 34.9309 42.0533 36.8197C42.5113 37.4382 43.1301 37.9194 43.8424 38.2111C44.5546 38.5028 45.3332 38.5938 46.0935 38.4743C46.8538 38.3547 47.5668 38.0292 48.1552 37.533C48.7436 37.0368 49.1848 36.389 49.431 35.6598C50.4266 32.8686 50.5021 28.0242 47.5066 26.2909C46.8699 25.8966 46.1404 25.6773 45.3918 25.655C44.6432 25.6327 43.902 25.8082 43.243 26.1639C42.5839 26.5196 42.0303 27.0428 41.6381 27.6808C41.2458 28.3187 41.0288 29.0489 41.0088 29.7975Z"
        fill="#E4897B" />
    <path
        d="M45.2177 23.0641C43.0933 22.1752 40.4311 22.3441 40.2133 23.953C39.9466 25.8952 38.4355 24.0819 37.9911 26.9619C37.7066 28.8463 39.2844 35.4063 41.6844 35.9797C45.2888 36.8285 47.0177 32.3663 47.4311 28.5841C47.4311 28.5841 51.6933 29.9174 51.2488 27.1485C51.0928 26.2025 50.721 25.305 50.1622 24.5258C49.6034 23.7466 48.8727 23.1065 48.0266 22.6552C48.0266 22.6552 49.9377 25.0019 45.2177 23.0641Z"
        fill="#263238" />
    <path
        d="M45.2267 31.3619C45.3245 32.1745 45.6795 32.9345 46.2401 33.5308C46.9823 34.3131 47.6978 33.8153 47.7823 32.8553C47.8534 31.9886 47.5556 30.5397 46.6712 30.1131C45.7867 29.6864 45.1245 30.3886 45.2267 31.3619Z"
        fill="#E4897B" />
    <path
        d="M40.5066 24.2508C40.0816 24.3892 39.6291 24.421 39.189 24.3435C38.7488 24.266 38.3344 24.0815 37.9822 23.8064C37.9822 23.8064 38.9288 26.2775 40.5066 24.2508Z"
        fill="#263238" />
    <path
        d="M52.4933 21.2197C52.5244 22.1797 51.9466 23.4019 51.4844 24.1842C51.3284 24.4634 51.1437 24.7255 50.9333 24.9664L37.9644 26.1308C33.7777 21.633 38.7066 23.0553 41.3999 22.5753C44.9555 21.9353 45.1644 20.9575 48.7199 20.0553C51.591 19.3175 52.4577 20.0908 52.4933 21.2197Z"
        fill="#004AAD" />
    <path opacity="0.8"
        d="M52.4933 21.2197C52.5244 22.1797 51.9466 23.4019 51.4844 24.1842C51.3284 24.4634 51.1437 24.7255 50.9333 24.9664L37.9644 26.1308C33.7777 21.633 38.7066 23.0553 41.3999 22.5753C44.9555 21.9353 45.1644 20.9575 48.7199 20.0553C51.591 19.3175 52.4577 20.0908 52.4933 21.2197Z"
        fill="white" />
    <path
        d="M52.4757 26.033C52.0984 25.7565 51.7364 25.4598 51.3912 25.1441L51.3423 24.7664L37.7512 25.9264L37.8223 26.4819L49.1157 25.5175C50.1927 25.9012 51.3331 26.0762 52.4757 26.033Z"
        fill="#004AAD" />
    <path opacity="0.1"
        d="M52.4757 26.033C52.0984 25.7565 51.7364 25.4598 51.3912 25.1441L51.3423 24.7664L37.7512 25.9264L37.8223 26.4819L49.1157 25.5175C50.1927 25.9012 51.3331 26.0762 52.4757 26.033Z"
        fill="white" />
    <path
        d="M52.4933 21.2197C52.5245 22.1797 51.9467 23.402 51.4845 24.1842C51.2547 23.6599 51.2387 23.0667 51.44 22.5308C51.511 22.2494 51.6418 21.9866 51.8236 21.7603C52.0053 21.534 52.2338 21.3497 52.4933 21.2197Z"
        fill="#004AAD" />
    <path opacity="0.6"
        d="M52.4933 21.2197C52.5245 22.1797 51.9467 23.402 51.4845 24.1842C51.2547 23.6599 51.2387 23.0667 51.44 22.5308C51.511 22.2494 51.6418 21.9866 51.8236 21.7603C52.0053 21.534 52.2338 21.3497 52.4933 21.2197Z"
        fill="white" />
    <path
        d="M48.0754 71.002C48.0754 71.002 45.3376 95.9531 43.6621 105.3C41.831 115.522 34.7732 149.637 34.7732 149.637H28.7732C28.7732 149.637 33.0221 116.362 33.9021 106.229C34.8576 95.2286 36.8087 71.002 36.8087 71.002H48.0754Z"
        fill="#263238" />
    <path
        d="M35.6222 147.433C35.6489 147.433 35.0933 149.731 35.0933 149.731H28.3689L28.4133 147.682L35.6222 147.433Z"
        fill="#004AAD" />
    <path opacity="0.3"
        d="M35.6222 147.433C35.6489 147.433 35.0933 149.731 35.0933 149.731H28.3689L28.4133 147.682L35.6222 147.433Z"
        fill="black" />
    <path
        d="M46.0801 79.8906C41.8267 80.7306 42.8978 96.7084 43.7289 104.926C44.7423 99.1173 46.12 87.9395 47.0489 80.0062C46.7481 79.8599 46.4068 79.8192 46.0801 79.8906Z"
        fill="#004AAD" />
    <path opacity="0.8"
        d="M46.0801 79.8906C41.8267 80.7306 42.8978 96.7084 43.7289 104.926C44.7423 99.1173 46.12 87.9395 47.0489 80.0062C46.7481 79.8599 46.4068 79.8192 46.0801 79.8906Z"
        fill="black" />
    <path
        d="M54.271 71.002C54.271 71.002 55.6666 95.4108 55.6932 105.371C55.7243 115.726 53.4177 149.637 53.4177 149.637H47.8843C47.8843 149.637 46.3955 116.331 45.7555 106.162C45.0621 95.0731 42.791 71.002 42.791 71.002H54.271Z"
        fill="#263238" />
    <path
        d="M55.6088 67.864L54.0577 67.9885C53.8327 68.0077 53.6246 68.1153 53.4788 68.2878C53.333 68.4602 53.2615 68.6834 53.28 68.9085C53.2838 68.9672 53.2943 69.0254 53.3111 69.0818L53.9511 71.2373C54.0402 71.5255 54.24 71.7664 54.5067 71.9073C54.7734 72.0481 55.0851 72.0773 55.3733 71.9885C55.5014 71.9485 55.6216 71.8869 55.7288 71.8062C56.5301 71.0605 57.1047 70.1039 57.3866 69.0462L55.6088 67.864Z"
        fill="#E4897B" />
    <path
        d="M52.1066 145.664C52.0916 145.662 52.078 145.654 52.0682 145.643C52.0584 145.632 52.0531 145.617 52.0532 145.602C52.6666 136.22 54.0888 113.513 54.0621 105.371C54.0399 97.0374 53.0488 78.3974 52.7288 72.8819C52.7282 72.8749 52.729 72.8678 52.7311 72.8611C52.7332 72.8544 52.7367 72.8482 52.7412 72.8428C52.7457 72.8374 52.7513 72.833 52.7576 72.8298C52.7638 72.8266 52.7707 72.8247 52.7777 72.8241C52.7923 72.8241 52.8063 72.8295 52.817 72.8394C52.8277 72.8493 52.8343 72.8629 52.8355 72.8774C53.1377 78.393 54.1288 97.033 54.1688 105.371C54.1955 113.517 52.7732 136.224 52.1599 145.611C52.1599 145.625 52.1543 145.638 52.1443 145.648C52.1343 145.658 52.1207 145.664 52.1066 145.664Z"
        fill="#004AAD" />
    <path opacity="0.4"
        d="M52.1066 145.664C52.0916 145.662 52.078 145.654 52.0682 145.643C52.0584 145.632 52.0531 145.617 52.0532 145.602C52.6666 136.22 54.0888 113.513 54.0621 105.371C54.0399 97.0374 53.0488 78.3974 52.7288 72.8819C52.7282 72.8749 52.729 72.8678 52.7311 72.8611C52.7332 72.8544 52.7367 72.8482 52.7412 72.8428C52.7457 72.8374 52.7513 72.833 52.7576 72.8298C52.7638 72.8266 52.7707 72.8247 52.7777 72.8241C52.7923 72.8241 52.8063 72.8295 52.817 72.8394C52.8277 72.8493 52.8343 72.8629 52.8355 72.8774C53.1377 78.393 54.1288 97.033 54.1688 105.371C54.1955 113.517 52.7732 136.224 52.1599 145.611C52.1599 145.625 52.1543 145.638 52.1443 145.648C52.1343 145.658 52.1207 145.664 52.1066 145.664Z"
        fill="black" />
    <path
        d="M54.3821 147.433C54.4088 147.433 54.1599 149.731 54.1599 149.731H47.4443L47.1821 147.682L54.3821 147.433Z"
        fill="#004AAD" />
    <path opacity="0.3"
        d="M54.3821 147.433C54.4088 147.433 54.1599 149.731 54.1599 149.731H47.4443L47.1821 147.682L54.3821 147.433Z"
        fill="black" />
</svg>