<svg width="207" height="192" viewBox="0 0 207 192" fill="none" xmlns="http://www.w3.org/2000/svg">
    <path
        d="M106.853 191.644C156.823 191.644 197.332 188.087 197.332 183.699C197.332 179.312 156.823 175.755 106.853 175.755C56.8835 175.755 16.375 179.312 16.375 183.699C16.375 188.087 56.8835 191.644 106.853 191.644Z"
        fill="#E6E6E6" />
    <path opacity="0.5"
        d="M106.853 191.644C156.823 191.644 197.332 188.087 197.332 183.699C197.332 179.312 156.823 175.755 106.853 175.755C56.8835 175.755 16.375 179.312 16.375 183.699C16.375 188.087 56.8835 191.644 106.853 191.644Z"
        fill="white" />
    <path d="M14.5894 83.2159V87.9138" stroke="#004AAD" stroke-width="0.28364"
        stroke-linecap="round" stroke-linejoin="round" />
    <path d="M16.9411 85.5675H12.2432" stroke="#004AAD" stroke-width="0.28364"
        stroke-linecap="round" stroke-linejoin="round" />
    <path d="M174.896 42.9634V47.6613" stroke="#004AAD" stroke-width="0.28364"
        stroke-linecap="round" stroke-linejoin="round" />
    <path d="M177.242 45.3149H172.544" stroke="#004AAD" stroke-width="0.28364"
        stroke-linecap="round" stroke-linejoin="round" />
    <path d="M108.161 6.59827V11.2962" stroke="#004AAD" stroke-width="0.28364"
        stroke-linecap="round" stroke-linejoin="round" />
    <path d="M110.507 8.94458H105.81" stroke="#004AAD" stroke-width="0.28364" stroke-linecap="round"
        stroke-linejoin="round" />
    <path d="M30.8335 135.83V140.528" stroke="#004AAD" stroke-width="0.28364" stroke-linecap="round"
        stroke-linejoin="round" />
    <path d="M33.1798 138.177H28.4819" stroke="#004AAD" stroke-width="0.28364"
        stroke-linecap="round" stroke-linejoin="round" />
    <path
        d="M172.793 26.0307C172.794 26.7998 172.567 27.5519 172.141 28.1919C171.714 28.832 171.107 29.3311 170.397 29.6261C169.687 29.9212 168.905 29.9989 168.15 29.8495C167.396 29.7001 166.703 29.3303 166.159 28.7868C165.614 28.2433 165.244 27.5506 165.093 26.7964C164.943 26.0421 165.019 25.2602 165.313 24.5495C165.608 23.8388 166.106 23.2314 166.745 22.804C167.385 22.3766 168.137 22.1484 168.906 22.1484C169.936 22.1484 170.924 22.5573 171.653 23.2852C172.382 24.0131 172.792 25.0006 172.793 26.0307Z"
        stroke="#004AAD" stroke-width="0.28364" stroke-linecap="round" stroke-linejoin="round" />
    <path
        d="M6.55809 119.309C8.539 118.488 9.47968 116.217 8.65916 114.236C7.83864 112.255 5.56764 111.315 3.58674 112.135C1.60584 112.956 0.665163 115.227 1.48568 117.207C2.3062 119.188 4.57719 120.129 6.55809 119.309Z"
        stroke="#004AAD" stroke-width="0.28364" stroke-linecap="round" stroke-linejoin="round" />
    <path
        d="M190.446 65.7537C190.455 65.8753 190.44 65.9975 190.4 66.1126C190.36 66.2278 190.296 66.3334 190.213 66.4229C190.131 66.5124 190.03 66.5838 189.918 66.6326C189.807 66.6814 189.686 66.7066 189.564 66.7066C189.442 66.7066 189.322 66.6814 189.21 66.6326C189.098 66.5838 188.998 66.5124 188.915 66.4229C188.832 66.3334 188.769 66.2278 188.729 66.1126C188.689 65.9975 188.673 65.8753 188.682 65.7537C188.7 65.5316 188.8 65.3242 188.963 65.173C189.127 65.0217 189.341 64.9376 189.564 64.9376C189.787 64.9376 190.001 65.0217 190.165 65.173C190.328 65.3242 190.429 65.5316 190.446 65.7537Z"
        stroke="#004AAD" stroke-width="0.28364" stroke-linecap="round" stroke-linejoin="round" />
    <path
        d="M55.7426 53.0424C55.7437 53.2176 55.6927 53.3891 55.5961 53.5352C55.4996 53.6814 55.3618 53.7956 55.2003 53.8633C55.0388 53.9311 54.8608 53.9494 54.6888 53.9159C54.5169 53.8823 54.3588 53.7985 54.2346 53.675C54.1103 53.5515 54.0256 53.3939 53.991 53.2222C53.9565 53.0505 53.9737 52.8724 54.0405 52.7105C54.1072 52.5485 54.2206 52.4101 54.3662 52.3126C54.5117 52.2152 54.683 52.1632 54.8581 52.1632C55.0918 52.1632 55.316 52.2557 55.4817 52.4204C55.6474 52.5851 55.7412 52.8087 55.7426 53.0424Z"
        stroke="#004AAD" stroke-width="0.28364" stroke-linecap="round" stroke-linejoin="round" />
    <path
        d="M204.174 105.127V105.101H204.142V105.074C203.406 105 195.785 104.349 188.83 107.961C191.903 104.102 193.32 99.1821 192.771 94.2802C191.092 77.4906 175.251 67.8829 174.027 67.1626V67.1679H173.99H173.953C172.729 67.8882 156.888 77.4959 155.209 94.2854C154.85 97.5355 155.351 100.823 156.66 103.819C147.741 98.4855 137.339 99.3859 136.38 99.4812V99.4494V99.4865H136.343V99.513C135.872 100.599 129.919 114.915 137.069 127.081C143.467 137.96 156.883 135.084 160.527 134.061C163.588 137.276 169.17 144.596 171.649 157.085H168.175L169.79 180.77H177.607L179.323 157.117H175.229C177.105 148.651 180.489 140.592 185.218 133.325C188.868 134.236 198.74 135.772 203.607 127.499C209.391 117.621 204.561 106.012 204.174 105.127ZM173.741 105.037L165.479 93.5598C165.461 93.5362 165.448 93.5094 165.441 93.4809C165.434 93.4524 165.433 93.4227 165.437 93.3937C165.442 93.3646 165.452 93.3367 165.467 93.3116C165.482 93.2865 165.503 93.2647 165.526 93.2474C165.575 93.2117 165.636 93.1966 165.695 93.2056C165.755 93.2145 165.808 93.2467 165.844 93.295L173.757 104.285V92.6595L165.495 81.1875C165.459 81.1389 165.444 81.0783 165.453 81.0187C165.462 80.9592 165.494 80.9056 165.542 80.8697C165.592 80.8359 165.653 80.8225 165.712 80.8324C165.771 80.8423 165.824 80.8746 165.86 80.9226L173.773 91.9127V74.9642C173.773 74.935 173.779 74.9061 173.79 74.8791C173.801 74.8521 173.817 74.8276 173.838 74.8069C173.859 74.7862 173.883 74.7699 173.91 74.7587C173.937 74.7475 173.966 74.7417 173.995 74.7417C174.054 74.7417 174.111 74.7652 174.153 74.8069C174.194 74.8486 174.218 74.9052 174.218 74.9642V91.3248L182.798 80.446C182.834 80.3989 182.888 80.3683 182.947 80.3608C183.006 80.3534 183.066 80.3697 183.113 80.4062C183.16 80.4428 183.191 80.4965 183.198 80.5556C183.206 80.6147 183.189 80.6743 183.153 80.7214L174.218 92.0504V103.702L182.798 92.8183C182.835 92.7716 182.89 92.7415 182.949 92.7346C183.009 92.7277 183.068 92.7444 183.116 92.7813C183.139 92.7994 183.158 92.8218 183.172 92.8473C183.186 92.8728 183.195 92.9008 183.199 92.9298C183.202 92.9589 183.2 92.9883 183.192 93.0164C183.184 93.0445 183.171 93.0708 183.153 93.0938L174.218 104.428V114.306L182.798 103.427C182.834 103.38 182.888 103.349 182.947 103.342C183.006 103.334 183.066 103.351 183.113 103.387C183.16 103.424 183.191 103.478 183.198 103.537C183.206 103.596 183.189 103.655 183.153 103.702L174.218 115.031V115.249H173.497L165.505 104.126C165.469 104.078 165.454 104.017 165.463 103.957C165.472 103.898 165.504 103.844 165.553 103.808C165.602 103.775 165.663 103.761 165.722 103.771C165.782 103.781 165.835 103.813 165.871 103.861L173.757 114.835V105.016L173.741 105.037ZM160.611 133.05L159.801 131.938L148.149 128.696C148.102 128.68 148.063 128.648 148.04 128.604C148.016 128.561 148.01 128.511 148.022 128.463C148.035 128.415 148.067 128.374 148.111 128.349C148.155 128.324 148.206 128.318 148.255 128.331L159.42 131.445L154.563 124.803L142.911 121.562C142.862 121.548 142.821 121.516 142.797 121.473C142.772 121.429 142.765 121.377 142.778 121.329C142.794 121.282 142.827 121.243 142.87 121.22C142.913 121.196 142.964 121.19 143.011 121.202L154.181 124.316L148.44 116.456L136.788 113.215C136.764 113.209 136.742 113.198 136.723 113.183C136.704 113.168 136.688 113.149 136.676 113.128C136.664 113.107 136.656 113.083 136.654 113.059C136.651 113.035 136.654 113.01 136.661 112.987C136.667 112.963 136.678 112.941 136.693 112.922C136.708 112.902 136.726 112.886 136.747 112.873C136.768 112.861 136.792 112.853 136.816 112.85C136.84 112.847 136.865 112.848 136.889 112.855L148.059 115.969L139.982 104.921C139.953 104.88 139.941 104.829 139.949 104.779C139.956 104.73 139.984 104.685 140.024 104.656C140.044 104.641 140.066 104.63 140.09 104.624C140.114 104.618 140.139 104.617 140.163 104.621C140.187 104.625 140.211 104.634 140.231 104.647C140.252 104.66 140.27 104.678 140.284 104.698L148.641 116.128L148.604 104.799C148.606 104.749 148.626 104.701 148.662 104.665C148.697 104.63 148.745 104.609 148.795 104.608C148.845 104.61 148.892 104.63 148.926 104.666C148.961 104.701 148.98 104.749 148.98 104.799L149.065 116.626L154.806 124.48L154.722 113.151C154.717 113.124 154.718 113.096 154.726 113.069C154.733 113.042 154.746 113.018 154.764 112.996C154.782 112.975 154.804 112.958 154.829 112.947C154.855 112.935 154.882 112.929 154.91 112.929C154.937 112.929 154.965 112.935 154.99 112.947C155.015 112.958 155.037 112.975 155.055 112.996C155.073 113.018 155.086 113.042 155.094 113.069C155.101 113.096 155.102 113.124 155.098 113.151L155.182 124.983L160.034 131.62L159.949 120.291C159.951 120.241 159.971 120.194 160.007 120.159C160.043 120.125 160.09 120.105 160.14 120.105C160.189 120.105 160.236 120.125 160.271 120.16C160.306 120.194 160.325 120.242 160.325 120.291L160.41 132.123L161.104 133.071L160.611 133.05ZM161.935 133.05C163.63 130.47 168.524 122.002 165.6 113.85C167.873 115.35 170.305 116.593 172.851 117.558V154.336C170.166 143.065 165.113 136.328 162.031 133.05H161.935ZM174.647 152.069V117.727C177.07 116.847 179.394 115.715 181.58 114.348C176.914 121.827 182.141 130.465 183.518 132.504C179.598 138.545 176.608 145.14 174.647 152.069ZM203.735 116.218L194.302 118.866L189.641 125.222L198.703 122.695C198.722 122.689 198.743 122.687 198.763 122.688C198.784 122.69 198.804 122.697 198.822 122.706C198.839 122.716 198.855 122.73 198.868 122.746C198.88 122.763 198.889 122.781 198.894 122.801C198.903 122.84 198.898 122.881 198.878 122.915C198.858 122.95 198.826 122.976 198.788 122.987L189.355 125.635L185.414 131.021L194.476 128.495C194.515 128.485 194.556 128.491 194.591 128.51C194.625 128.53 194.651 128.563 194.662 128.601C194.672 128.64 194.666 128.682 194.647 128.717C194.627 128.753 194.595 128.779 194.556 128.791L185.123 131.44L184.625 132.118C184.535 132.065 184.45 132.017 184.366 131.959L184.646 131.572L184.72 121.975C184.716 121.953 184.717 121.93 184.723 121.908C184.728 121.886 184.739 121.866 184.753 121.849C184.768 121.831 184.786 121.817 184.806 121.808C184.827 121.798 184.849 121.793 184.871 121.793C184.894 121.793 184.916 121.798 184.937 121.808C184.957 121.817 184.975 121.831 184.99 121.849C185.004 121.866 185.014 121.886 185.02 121.908C185.026 121.93 185.027 121.953 185.022 121.975L184.959 131.17L188.857 125.757L188.926 116.16C188.926 116.14 188.93 116.12 188.938 116.102C188.945 116.083 188.957 116.067 188.971 116.053C188.985 116.039 189.002 116.028 189.021 116.021C189.04 116.014 189.059 116.011 189.079 116.011C189.1 116.011 189.12 116.015 189.138 116.023C189.157 116.031 189.174 116.042 189.188 116.056C189.202 116.071 189.214 116.087 189.221 116.106C189.229 116.125 189.233 116.145 189.233 116.165L189.164 125.354L193.825 118.998L193.894 109.401C193.894 109.381 193.898 109.361 193.906 109.343C193.913 109.324 193.925 109.307 193.939 109.293C193.953 109.278 193.97 109.267 193.989 109.259C194.007 109.252 194.027 109.248 194.047 109.248C194.067 109.248 194.087 109.252 194.105 109.26C194.124 109.267 194.14 109.279 194.154 109.293C194.168 109.307 194.179 109.324 194.186 109.343C194.193 109.362 194.196 109.381 194.196 109.401L194.132 118.591L200.912 109.317C200.936 109.285 200.971 109.264 201.011 109.258C201.051 109.252 201.091 109.262 201.123 109.285C201.14 109.296 201.154 109.311 201.164 109.328C201.175 109.345 201.182 109.364 201.185 109.384C201.187 109.404 201.186 109.424 201.181 109.443C201.176 109.463 201.167 109.481 201.155 109.497L194.604 118.464L203.666 115.937C203.704 115.927 203.745 115.933 203.78 115.953C203.814 115.972 203.84 116.005 203.851 116.043C203.856 116.062 203.856 116.082 203.853 116.102C203.849 116.121 203.842 116.14 203.831 116.156C203.82 116.172 203.806 116.186 203.789 116.197C203.773 116.208 203.754 116.215 203.735 116.218Z"
        fill="#049276" />
    <path
        d="M152.253 22.7206H70.4769C68.5025 22.7206 66.9019 24.3212 66.9019 26.2956V179.409C66.9019 181.384 68.5025 182.984 70.4769 182.984H152.253C154.228 182.984 155.828 181.384 155.828 179.409V26.2956C155.828 24.3212 154.228 22.7206 152.253 22.7206Z"
        fill="#004AAD" stroke="#004AAD" stroke-width="0.28364" stroke-linecap="round"
        stroke-linejoin="round" />
    <path
        d="M149.431 22.7206H67.6542C65.6797 22.7206 64.0791 24.3212 64.0791 26.2956V179.409C64.0791 181.384 65.6797 182.984 67.6542 182.984H149.431C151.405 182.984 153.006 181.384 153.006 179.409V26.2956C153.006 24.3212 151.405 22.7206 149.431 22.7206Z"
        fill="white" />
    <mask id="mask0_87_4402" style="mask-type:luminance" maskUnits="userSpaceOnUse" x="64" y="22"
        width="90" height="161">
        <path
            d="M149.431 22.7206H67.6542C65.6797 22.7206 64.0791 24.3212 64.0791 26.2956V179.409C64.0791 181.384 65.6797 182.984 67.6542 182.984H149.431C151.405 182.984 153.006 181.384 153.006 179.409V26.2956C153.006 24.3212 151.405 22.7206 149.431 22.7206Z"
            fill="white" />
    </mask>
    <g mask="url(#mask0_87_4402)">
        <path
            d="M153.005 83.1949L74.8091 182.99H149.435C150.383 182.988 151.291 182.611 151.96 181.941C152.629 181.27 153.005 180.362 153.005 179.415V83.1949Z"
            fill="#E6E6E6" />
        <path opacity="0.5"
            d="M153.005 83.1949L74.8091 182.99H149.435C150.383 182.988 151.291 182.611 151.96 181.941C152.629 181.27 153.005 180.362 153.005 179.415V83.1949Z"
            fill="white" />
    </g>
    <path
        d="M149.431 22.7206H67.6542C65.6797 22.7206 64.0791 24.3212 64.0791 26.2956V179.409C64.0791 181.384 65.6797 182.984 67.6542 182.984H149.431C151.405 182.984 153.006 181.384 153.006 179.409V26.2956C153.006 24.3212 151.405 22.7206 149.431 22.7206Z"
        stroke="#004AAD" stroke-width="0.28364" stroke-linecap="round" stroke-linejoin="round" />
    <path
        d="M114.707 32.2965H103.638C103.336 32.2965 103.046 32.1765 102.833 31.9629C102.619 31.7494 102.499 31.4597 102.499 31.1577C102.499 31.0084 102.529 30.8606 102.586 30.7228C102.643 30.5849 102.727 30.4597 102.833 30.3544C102.939 30.2491 103.064 30.1657 103.202 30.1091C103.341 30.0524 103.488 30.0236 103.638 30.0243H114.707C115.008 30.0243 115.296 30.1437 115.509 30.3563C115.721 30.5688 115.841 30.8571 115.841 31.1577C115.841 31.307 115.813 31.455 115.756 31.5931C115.699 31.7312 115.616 31.8568 115.511 31.9626C115.405 32.0684 115.28 32.1524 115.142 32.2097C115.004 32.267 114.857 32.2965 114.707 32.2965Z"
        fill="#004AAD" stroke="#004AAD" stroke-width="0.28364" stroke-linecap="round"
        stroke-linejoin="round" />
    <path
        d="M147.386 168.663H69.688V32.429H88.1036L90.1744 34.145C90.8972 34.7469 91.8079 35.0767 92.7485 35.0772H125.242C126.217 35.0732 127.158 34.7157 127.89 34.0708L129.765 32.429H147.386V168.663Z"
        fill="#004AAD" stroke="#004AAD" stroke-width="0.28364" stroke-linecap="round"
        stroke-linejoin="round" />
    <path d="M84.2739 139.289H132.81" stroke="white" stroke-width="0.28364" stroke-linecap="round"
        stroke-linejoin="round" />
    <path d="M84.2739 145.677H132.81" stroke="white" stroke-width="0.28364" stroke-linecap="round"
        stroke-linejoin="round" />
    <path d="M84.2739 152.064H132.81" stroke="white" stroke-width="0.28364" stroke-linecap="round"
        stroke-linejoin="round" />
    <path
        d="M88.7546 79.9853C85.7042 84.4049 84.2229 89.7193 84.5473 95.0796C84.8717 100.44 86.983 105.537 90.544 109.556C94.105 113.576 98.9103 116.286 104.192 117.254C109.475 118.223 114.929 117.393 119.684 114.897C124.439 112.402 128.221 108.385 130.425 103.488C132.629 98.5913 133.129 93.097 131.844 87.8828C130.56 82.6687 127.565 78.0354 123.338 74.7231C119.111 71.4107 113.896 69.6104 108.526 69.6096C107.053 69.6097 105.584 69.7427 104.135 70.0068"
        stroke="white" stroke-width="0.28364" stroke-linecap="round" stroke-linejoin="round" />
    <path d="M92.8492 75.4462C92.0422 76.1446 91.2815 76.8947 90.5718 77.6918" stroke="white"
        stroke-width="0.28364" stroke-linecap="round" stroke-linejoin="round" />
    <path
        d="M127.293 101.62C131.703 91.2641 126.884 79.2936 116.528 74.8829C106.173 70.4722 94.2021 75.2916 89.7914 85.6473C85.3807 96.003 90.2001 107.974 100.556 112.384C110.912 116.795 122.882 111.975 127.293 101.62Z"
        fill="#E6E6E6" />
    <path d="M99.1304 91.5156L106.863 100.302L119.511 82.3846" stroke="#049276"
        stroke-width="1.70184" stroke-linecap="round" stroke-linejoin="round" />
    <path
        d="M127.911 34.0708C127.179 34.7157 126.238 35.0732 125.263 35.0772H92.7591C91.8185 35.0767 90.9078 34.7469 90.185 34.145L88.1141 32.429H69.688V46.3638H147.386V32.429H129.786L127.911 34.0708Z"
        fill="#E6E6E6" stroke="#004AAD" stroke-width="0.28364" stroke-linecap="round"
        stroke-linejoin="round" />
    <path
        d="M111.026 172.863C111.027 172.513 110.924 172.17 110.73 171.878C110.536 171.586 110.26 171.359 109.937 171.224C109.613 171.09 109.257 171.054 108.913 171.122C108.57 171.19 108.254 171.359 108.006 171.607C107.759 171.854 107.59 172.17 107.522 172.514C107.454 172.857 107.489 173.214 107.624 173.537C107.758 173.86 107.986 174.137 108.278 174.331C108.57 174.525 108.912 174.628 109.263 174.627C109.73 174.625 110.178 174.439 110.508 174.108C110.839 173.778 111.025 173.33 111.026 172.863Z"
        fill="#004AAD" stroke="#004AAD" stroke-width="0.28364" stroke-linecap="round"
        stroke-linejoin="round" />
    <path
        d="M41.9241 118.681L34.9964 180.649C34.9964 180.649 29.9172 185.066 30.3621 186.851C30.807 188.636 36.6701 185.791 37.4804 184.319C38.0555 183.093 38.4652 181.797 38.6986 180.463L53.2849 133.855L64.5027 183.837C64.5027 183.837 69.2694 187.751 71.9176 187.619C74.5658 187.486 73.6231 186.443 72.1136 184.531C70.6041 182.619 67.1879 181.528 67.1879 181.528L65.5037 117.108L41.9241 118.681Z"
        fill="#EDA464" stroke="#004AAD" stroke-width="0.28364" stroke-linecap="round"
        stroke-linejoin="round" />
    <path d="M65.1237 116.024L41.8496 117.207L42.0109 120.38L65.285 119.197L65.1237 116.024Z"
        fill="#004AAD" stroke="#004AAD" stroke-width="0.28364" stroke-linecap="round"
        stroke-linejoin="round" />
    <path
        d="M56.2876 118.04C56.3246 118.829 55.3236 119.518 54.0419 119.586C52.7602 119.655 51.6797 119.073 51.6797 118.278C51.6797 117.484 52.6489 116.8 53.9254 116.737C55.2018 116.673 56.2452 117.256 56.2876 118.04Z"
        fill="white" />
    <path
        d="M52.2995 85.4775L43.5498 88.041L44.6356 117.288L65.1591 116.779L62.5639 86.5474L52.2995 85.4775Z"
        fill="white" stroke="#004AAD" stroke-width="0.28364" stroke-linecap="round"
        stroke-linejoin="round" />
    <path
        d="M48.4698 85.806L47.294 135.714L36.1504 130.317L41.0496 114.555L37.7075 87.9405L48.4698 85.806Z"
        fill="#E6E6E6" stroke="#004AAD" stroke-width="0.28364" stroke-linecap="round"
        stroke-linejoin="round" />
    <path
        d="M57.3311 85.3557L63.5596 134.888L74.1047 128.389L67.6325 113.204L68.2575 86.3885L57.3311 85.3557Z"
        fill="#E6E6E6" stroke="#004AAD" stroke-width="0.28364" stroke-linecap="round"
        stroke-linejoin="round" />
    <path
        d="M50.6997 91.3936L52.4369 94.2219L51.0493 113.914L54.3436 117.812L56.0491 113.13L53.4115 94.259L55.0375 91.526L52.6753 88.4647L50.6997 91.3936Z"
        fill="#004AAD" stroke="#004AAD" stroke-width="0.28364" stroke-linecap="round"
        stroke-linejoin="round" />
    <path
        d="M52.8503 91.0176L49.5718 93.4857L46.9448 87.0771L48.4225 84.7891L56.4466 84.3812L58.3427 86.9394L56.7802 92.7654L52.8503 91.0176Z"
        fill="white" stroke="#004AAD" stroke-width="0.28364" stroke-linecap="round"
        stroke-linejoin="round" />
    <path
        d="M49.0898 82.3262L49.826 86.3991L52.8503 91.0176L55.6203 85.5729L55.4455 82.1355L49.0898 82.3262Z"
        fill="white" stroke="#004AAD" stroke-width="0.28364" stroke-linecap="round"
        stroke-linejoin="round" />
    <path
        d="M37.7079 87.9403L22.8462 105.932L32.724 117.627L36.7016 115.042L31.8183 105.079L39.1061 99.8042L37.7079 87.9403Z"
        fill="#E6E6E6" stroke="#004AAD" stroke-width="0.28364" stroke-linecap="round"
        stroke-linejoin="round" />
    <path d="M36.7014 115.042L37.2946 116.334L33.9473 118.23L33.4971 117.192L36.7014 115.042Z"
        fill="white" stroke="#004AAD" stroke-width="0.28364" stroke-linecap="round"
        stroke-linejoin="round" />
    <path
        d="M37.2947 116.334L40.7055 120.805L39.5827 122.187L38.7671 121.832L37.1146 123.241C37.1146 123.241 35.907 122.902 35.7534 122.515C35.5998 122.129 33.9632 121.143 33.9261 120.487C33.8891 119.83 33.9261 118.23 33.9261 118.23L37.2947 116.334Z"
        fill="white" stroke="#004AAD" stroke-width="0.28364" stroke-linecap="round"
        stroke-linejoin="round" />
    <path
        d="M76.5356 89.9C76.737 89.3749 76.7811 88.8026 76.6627 88.2528C76.4191 87.6226 75.8789 85.4404 75.9848 84.7201C76.0907 83.9998 77.1818 82.9511 77.2771 82.019C77.3724 81.0868 77.2771 80.2341 77.2771 79.7309C77.2859 79.5932 77.3389 79.462 77.4282 79.3568C77.5176 79.2516 77.6385 79.1781 77.773 79.1472C77.9075 79.1162 78.0483 79.1295 78.1747 79.1851C78.301 79.2406 78.406 79.3355 78.4741 79.4555C79.0037 80.0699 79.3215 80.7002 79.0673 81.3516C78.8942 82.0801 78.8123 82.8274 78.8237 83.5761C78.8237 83.5761 79.6711 84.7466 80.1372 85.5093C80.6032 86.272 80.5609 88.2687 80.2484 89.0685C79.9571 89.6741 79.5463 90.2146 79.0408 90.6574L79.0938 92.0345L76.5356 89.9Z"
        fill="white" stroke="#004AAD" stroke-width="0.28364" stroke-linecap="round"
        stroke-linejoin="round" />
    <path
        d="M78.0821 82.4746C78.0821 82.4746 77.7114 83.5656 78.3628 83.8146C79.0143 84.0635 81.6784 84.4342 81.7048 83.5762C81.7313 82.7182 81.7843 82.2892 81.3553 82.3104C80.9263 82.3316 78.9295 82.3104 78.9295 82.3104C78.9295 82.3104 78.0027 82.2627 78.0821 82.4746Z"
        fill="white" stroke="#004AAD" stroke-width="0.28364" stroke-linecap="round"
        stroke-linejoin="round" />
    <path
        d="M78.3842 87.8239C78.3842 87.8239 78.1194 88.6343 78.5908 88.8196C79.0621 89.005 80.9794 89.2857 80.9953 88.6449C81.0112 88.004 81.0483 87.6862 80.7411 87.7021C80.4339 87.718 78.9933 87.7021 78.9933 87.7021C78.9933 87.7021 78.3259 87.6544 78.3842 87.8239Z"
        fill="white" stroke="#004AAD" stroke-width="0.28364" stroke-linecap="round"
        stroke-linejoin="round" />
    <path
        d="M78.0295 86.092C78.0295 86.092 77.7224 87.0348 78.2679 87.2519C78.8134 87.4691 81.0326 87.7815 81.0538 87.0506C81.075 86.3197 81.1173 85.9384 80.7572 85.9543C80.397 85.9702 78.734 85.9543 78.734 85.9543C78.734 85.9543 77.9607 85.9119 78.0295 86.092Z"
        fill="white" stroke="#004AAD" stroke-width="0.28364" stroke-linecap="round"
        stroke-linejoin="round" />
    <path
        d="M77.823 84.413C77.823 84.413 77.4523 85.5041 78.109 85.753C78.7658 86.0019 81.4193 86.3727 81.4457 85.5147C81.4722 84.6566 81.5252 84.2276 81.0962 84.2488C80.6672 84.27 78.6704 84.2488 78.6704 84.2488C78.6704 84.2488 77.7436 84.2065 77.823 84.413Z"
        fill="white" stroke="#004AAD" stroke-width="0.28364" stroke-linecap="round"
        stroke-linejoin="round" />
    <path d="M76.2339 90.9858L76.647 89.3228L79.5177 91.0335L79.0357 92.8396L76.2339 90.9858Z"
        fill="white" stroke="#004AAD" stroke-width="0.28364" stroke-linecap="round"
        stroke-linejoin="round" />
    <path
        d="M68.2578 86.3885L73.7554 98.0883L76.4566 90.5621L79.1048 93.0832L76.393 107.034C76.3085 107.463 76.1002 107.859 75.7939 108.172C75.4876 108.484 75.0965 108.701 74.6688 108.794C74.2412 108.888 73.7955 108.854 73.3867 108.697C72.9779 108.541 72.6237 108.268 72.3678 107.913L67.9771 101.785L68.2578 86.3885Z"
        fill="#E6E6E6" stroke="#004AAD" stroke-width="0.28364" stroke-linecap="round"
        stroke-linejoin="round" />
    <path
        d="M46.5317 77.5701C46.5317 77.5701 45.4195 76.3837 45.2765 77.2523C45.1335 78.1209 45.5837 79.6198 46.2828 80.1547C46.9819 80.6897 47.5963 79.8052 47.5963 79.8052L46.5317 77.5701Z"
        fill="white" stroke="#004AAD" stroke-width="0.28364" stroke-linecap="round"
        stroke-linejoin="round" />
    <path
        d="M57.0448 77.0351C57.0448 77.0351 58.0247 75.7427 58.263 76.5902C58.5013 77.4376 58.1942 78.9788 57.5533 79.5826C56.9124 80.1864 56.208 79.3655 56.208 79.3655L57.0448 77.0351Z"
        fill="white" stroke="#004AAD" stroke-width="0.28364" stroke-linecap="round"
        stroke-linejoin="round" />
    <path
        d="M46.9764 78.7882L45.9171 76.5478C45.0645 75.3479 44.4744 73.9818 44.1852 72.5385C43.6555 70.0809 44.5295 68.0365 45.6417 67.4063C46.2668 67.0321 47.0048 66.8931 47.7232 67.0143C47.7232 67.0143 47.935 65.5737 51.4307 64.3661C54.9263 63.1585 58.7291 65.3354 58.6708 66.098C58.6126 66.8607 57.6804 67.1997 57.6804 67.1997C57.6804 67.1997 60.4028 68.206 59.4176 69.493C58.8101 70.2792 58.0239 70.9093 57.1243 71.3309C57.3217 71.9799 57.4826 72.6394 57.6063 73.3064C57.744 74.1592 56.976 77.8243 56.976 77.8243L55.0958 72.6709L49.1956 72.9728C49.1956 72.9728 48.846 75.4727 48.221 76.3625C47.8221 77.0379 47.5999 77.8029 47.5749 78.587C47.5749 78.587 47.2995 79.5297 46.9764 78.7882Z"
        fill="#004AAD" stroke="#004AAD" stroke-width="0.28364" stroke-linecap="round"
        stroke-linejoin="round" />
    <path
        d="M48.0253 69.4772C48.0152 71.0153 47.9038 72.551 47.6917 74.0744C47.564 74.9221 47.1261 75.6922 46.4629 76.2354C46.4629 76.2354 47.215 79.7257 48.1683 81.5847C49.1217 83.4438 51.1025 84.9691 53.0993 84.7626C55.096 84.556 56.6902 82.2892 56.8809 80.3719C57.0716 78.4546 56.1341 71.368 56.1341 71.368C56.1341 71.368 49.895 72.4643 48.0253 69.4772Z"
        fill="white" stroke="#004AAD" stroke-width="0.28364" stroke-linecap="round"
        stroke-linejoin="round" />
    <path
        d="M48.5547 76.6432C48.8727 76.455 49.2318 76.347 49.6009 76.3285C49.97 76.3101 50.338 76.3817 50.6732 76.5373"
        stroke="#004AAD" stroke-width="0.28364" stroke-linecap="round" stroke-linejoin="round" />
    <path d="M48.4702 75.0543C48.4702 75.0543 48.592 73.995 50.361 73.8997" stroke="#004AAD"
        stroke-width="0.28364" stroke-linecap="round" stroke-linejoin="round" />
    <path
        d="M53.1787 73.6667C53.579 73.5027 54.0213 73.4713 54.4407 73.5771C54.8601 73.6829 55.2346 73.9203 55.5091 74.2546"
        stroke="#004AAD" stroke-width="0.28364" stroke-linecap="round" stroke-linejoin="round" />
    <path
        d="M52.5587 75.3773C52.5587 75.3773 52.8394 77.4959 52.8552 77.7554C52.8711 78.0149 53.7556 78.0626 53.5173 78.6028C53.279 79.1431 52.511 79.7151 51.8701 79.3072"
        stroke="#004AAD" stroke-width="0.28364" stroke-linecap="round" stroke-linejoin="round" />
    <path d="M53.5544 81.0815C53.5544 81.0815 52.8818 81.733 51.5259 81.1822" stroke="#004AAD"
        stroke-width="0.28364" stroke-linecap="round" stroke-linejoin="round" />
    <path
        d="M54.8949 76.0554C54.8949 76.4473 54.7308 76.7757 54.4871 76.7863C54.2435 76.7969 54.0316 76.4897 54.0104 76.1031C53.9893 75.7164 54.1746 75.3881 54.4183 75.3722C54.6619 75.3563 54.8579 75.6688 54.8949 76.0554Z"
        fill="#004AAD" />
</svg>