<svg width="122" height="102" viewBox="0 0 122 102" fill="none" xmlns="http://www.w3.org/2000/svg">
    <path d="M122 89.899H0V89.966H122V89.899Z" fill="#E0E0E0" />
    <path d="M92.5567 92.3669H84.1631V92.4339H92.5567V92.3669Z" fill="#E0E0E0" />
    <path d="M102.431 92.1769H97.7075V92.2438H102.431V92.1769Z" fill="#E0E0E0" />
    <path d="M60.3509 92.335H54.085V92.4019H60.3509V92.335Z" fill="#E0E0E0" />
    <path d="M64.8774 93.2852H60.5977V93.3521H64.8774V93.2852Z" fill="#E0E0E0" />
    <path d="M35.2992 91.6577H22.3696V91.7246H35.2992V91.6577Z" fill="#E0E0E0" />
    <path
        d="M57.828 77.9606H10.714C10.345 77.9599 9.99121 77.7986 9.73045 77.512C9.46969 77.2255 9.32324 76.8371 9.32324 76.4322V3.77677C9.32646 3.37419 9.47433 2.98926 9.73473 2.70558C9.99514 2.42191 10.3471 2.26241 10.714 2.26172H57.828C58.1975 2.26172 58.5519 2.42275 58.8132 2.70939C59.0745 2.99602 59.2212 3.38479 59.2212 3.79015V76.4322C59.2212 76.8376 59.0745 77.2263 58.8132 77.513C58.5519 77.7996 58.1975 77.9606 57.828 77.9606ZM10.714 2.31525C10.3611 2.31596 10.0229 2.47026 9.77358 2.74427C9.52427 3.01828 9.38424 3.38961 9.38424 3.77677V76.4322C9.38424 76.8194 9.52427 77.1907 9.77358 77.4647C10.0229 77.7387 10.3611 77.893 10.714 77.8937H57.828C58.1811 77.893 58.5196 77.7388 58.7693 77.4649C59.019 77.1909 59.1596 76.8196 59.1602 76.4322V3.77677C59.1596 3.38937 59.019 3.01804 58.7693 2.7441C58.5196 2.47017 58.1811 2.31596 57.828 2.31525H10.714Z"
        fill="#E0E0E0" />
    <path
        d="M110.608 77.9606H63.4914C63.1221 77.9599 62.7681 77.7987 62.5069 77.5122C62.2458 77.2257 62.0988 76.8374 62.0981 76.4322V3.77677C62.102 3.37394 62.2504 2.98902 62.5112 2.70542C62.772 2.42182 63.1242 2.2624 63.4914 2.26172H110.608C110.974 2.26311 111.326 2.42293 111.586 2.70652C111.845 2.99012 111.993 3.37465 111.996 3.77677V76.4322C111.996 76.8366 111.85 77.2246 111.59 77.5111C111.33 77.7976 110.976 77.9592 110.608 77.9606ZM63.4914 2.31525C63.1382 2.31596 62.7998 2.47017 62.5501 2.7441C62.3004 3.01804 62.1598 3.38937 62.1591 3.77677V76.4322C62.1598 76.8196 62.3004 77.1909 62.5501 77.4649C62.7998 77.7388 63.1382 77.893 63.4914 77.8937H110.608C110.961 77.893 111.299 77.7388 111.549 77.4649C111.799 77.1909 111.939 76.8196 111.94 76.4322V3.77677C111.939 3.38937 111.799 3.01804 111.549 2.7441C111.299 2.47017 110.961 2.31596 110.608 2.31525H63.4914Z"
        fill="#E0E0E0" />
    <path d="M105.904 8.7583H69.1328V43.4385H105.904V8.7583Z" fill="#E0E0E0" />
    <path d="M106.721 8.7583H69.9497V43.4385H106.721V8.7583Z" fill="#F0F0F0" />
    <path d="M105.254 41.811V10.3857L71.4165 10.3857V41.811H105.254Z" fill="#FAFAFA" />
    <path d="M94.4404 41.811V10.3857H92.2298V41.811H94.4404Z" fill="#E0E0E0" />
    <path d="M82.811 41.811V10.3857H80.6004V41.811H82.811Z" fill="#E0E0E0" />
    <path d="M95.2183 42.8415V9.1731H93.0076V42.8415H95.2183Z" fill="#F0F0F0" />
    <path d="M83.5869 42.8441V9.17578H81.3763V42.8441H83.5869Z" fill="#F0F0F0" />
    <path d="M105.254 41.8083V10.3831H104.637V41.8083H105.254Z" fill="#E0E0E0" />
    <path
        d="M43.2707 36.1469C43.2707 36.1469 38.7957 27.691 45.0055 20.9482C45.0055 20.9482 46.6257 22.1073 46.6013 23.6652C46.5769 25.223 44.864 25.6165 45.2324 26.9174C45.6009 28.2183 47.2137 29.4898 46.1547 30.5659C45.0958 31.6419 46.3255 32.5949 46.2548 33.9118C46.184 35.2288 43.2707 36.1469 43.2707 36.1469Z"
        fill="#E0E0E0" />
    <path
        d="M43.974 37.5308C43.974 37.5308 45.7893 27.9534 37.9618 23.708C37.9618 23.708 36.7564 25.3676 37.2298 26.8371C37.7032 28.3067 39.438 28.0872 39.4624 29.4497C39.4868 30.8121 38.3229 32.5788 39.6356 33.2319C40.9484 33.8851 40.0578 35.2181 40.5043 36.4441C40.9508 37.67 43.974 37.5308 43.974 37.5308Z"
        fill="#E6E6E6" />
    <path
        d="M39.9893 35.0977C39.9893 35.0977 40.0673 43.3662 43.0807 43.3662C46.0941 43.3662 46.1698 35.0977 46.1698 35.0977H39.9893Z"
        fill="#F0F0F0" />
    <path
        d="M21.8843 40.2557C21.8843 40.2557 22.0526 43.3661 28.4869 43.3661C34.9212 43.3661 35.092 40.2557 35.092 40.2557H21.8843Z"
        fill="#E6E6E6" />
    <path
        d="M89.7188 59.0092H86.3223C85.8992 59.0092 85.5562 59.3855 85.5562 59.8497V66.0116C85.5562 66.4758 85.8992 66.8521 86.3223 66.8521H89.7188C90.1419 66.8521 90.4849 66.4758 90.4849 66.0116V59.8497C90.4849 59.3855 90.1419 59.0092 89.7188 59.0092Z"
        fill="#F0F0F0" />
    <path
        d="M98.7274 61.5735H96.4411C96.1568 61.5735 95.9263 61.8264 95.9263 62.1383V66.2873C95.9263 66.5992 96.1568 66.8521 96.4411 66.8521H98.7274C99.0117 66.8521 99.2422 66.5992 99.2422 66.2873V62.1383C99.2422 61.8264 99.0117 61.5735 98.7274 61.5735Z"
        fill="#E6E6E6" />
    <path
        d="M99.069 61.0623H96.0995C96.0038 61.0623 95.9263 61.1473 95.9263 61.2523V61.4664C95.9263 61.5714 96.0038 61.6565 96.0995 61.6565H99.069C99.1647 61.6565 99.2422 61.5714 99.2422 61.4664V61.2523C99.2422 61.1473 99.1647 61.0623 99.069 61.0623Z"
        fill="#F0F0F0" />
    <path
        d="M77.6943 62.4889C77.6943 62.4889 77.8163 66.852 82.4743 66.852C87.1323 66.852 87.2567 62.4889 87.2567 62.4889H77.6943Z"
        fill="#E6E6E6" />
    <path d="M66.109 56.726H73.1582V55.2002H66.109V56.726Z" fill="#E0E0E0" />
    <path d="M108.204 55.2028H73.1582V56.7285H108.204V55.2028Z" fill="#F0F0F0" />
    <path d="M66.109 68.3779H73.1582V66.8522H66.109V68.3779Z" fill="#E0E0E0" />
    <path d="M108.204 66.8521H73.1582V68.3778H108.204V66.8521Z" fill="#F0F0F0" />
    <path d="M68.6496 56.726H67.3491V89.8964H68.6496V56.726Z" fill="#E0E0E0" />
    <path d="M74.4587 56.726H73.1582V89.8964H74.4587V56.726Z" fill="#F0F0F0" />
    <path d="M103.695 56.726H102.395V89.8964H103.695V56.726Z" fill="#E0E0E0" />
    <path d="M108.204 56.726H106.904V89.8964H108.204V56.726Z" fill="#F0F0F0" />
    <path d="M21.8843 45.3068H15.2183V87.8914H21.8843V45.3068Z" fill="#E6E6E6" />
    <path d="M49.3707 87.8888H16.499V89.899H49.3707V87.8888Z" fill="#E6E6E6" />
    <path d="M21.8843 87.8888H50.6494L50.6494 45.3041L21.8843 45.3041L21.8843 87.8888Z"
        fill="#F0F0F0" />
    <path d="M24.5048 71.7987H48.0288V61.3968H24.5048V71.7987Z" fill="#E6E6E6" />
    <path d="M24.5048 84.0957H48.0288V73.6938H24.5048V84.0957Z" fill="#E6E6E6" />
    <path
        d="M38.9082 62.5371H33.6256C33.4537 62.5364 33.289 62.4611 33.1674 62.3277C33.0458 62.1944 32.9772 62.0137 32.9766 61.825C32.9766 61.636 33.0449 61.4546 33.1665 61.3206C33.2882 61.1867 33.4532 61.1111 33.6256 61.1104H38.9082C39.0806 61.1111 39.2456 61.1867 39.3673 61.3206C39.4889 61.4546 39.5572 61.636 39.5572 61.825C39.5566 62.0137 39.488 62.1944 39.3664 62.3277C39.2449 62.4611 39.0801 62.5364 38.9082 62.5371Z"
        fill="#F0F0F0" />
    <path d="M24.5048 59.4989H48.0288V49.097H24.5048V59.4989Z" fill="#E6E6E6" />
    <path
        d="M38.9082 50.2401H33.6256C33.4532 50.2394 33.2882 50.1638 33.1665 50.0298C33.0449 49.8958 32.9766 49.7145 32.9766 49.5254C32.9772 49.3368 33.0458 49.1561 33.1674 49.0227C33.289 48.8893 33.4537 48.8141 33.6256 48.8134H38.9082C39.0801 48.8141 39.2449 48.8893 39.3664 49.0227C39.488 49.1561 39.5566 49.3368 39.5572 49.5254C39.5572 49.7145 39.4889 49.8958 39.3673 50.0298C39.2456 50.1638 39.0806 50.2394 38.9082 50.2401Z"
        fill="#F0F0F0" />
    <path
        d="M38.9082 74.8342H33.6256C33.4537 74.8335 33.289 74.7582 33.1674 74.6249C33.0458 74.4915 32.9772 74.3108 32.9766 74.1222C32.9766 73.9331 33.0449 73.7517 33.1665 73.6177C33.2882 73.4838 33.4532 73.4082 33.6256 73.4075H38.9082C39.0806 73.4082 39.2456 73.4838 39.3673 73.6177C39.4889 73.7517 39.5572 73.9331 39.5572 74.1222C39.5566 74.3108 39.488 74.4915 39.3664 74.6249C39.2449 74.7582 39.0801 74.8335 38.9082 74.8342Z"
        fill="#F0F0F0" />
    <path d="M51.5376 43.3662H21.8843V45.3069H51.5376V43.3662Z" fill="#E6E6E6" />
    <path d="M14.2861 45.3041H21.8843V43.3634H14.2861V45.3041Z" fill="#E0E0E0" />
    <path d="M29.3141 10.3857H18.5293V23.3788H29.3141V10.3857Z" fill="#E6E6E6" />
    <path d="M30.4828 10.3857H19.3418V23.3788H30.4828V10.3857Z" fill="#F0F0F0" />
    <path d="M29.5483 22.3535V11.4082H20.2739V22.3535H29.5483Z" fill="#FAFAFA" />
    <path d="M27.3013 19.7007V14.0608H22.5237V19.7007H27.3013Z" fill="#F0F0F0" />
    <path d="M40.6847 6.5498H32.5059V16.1888H40.6847V6.5498Z" fill="#E6E6E6" />
    <path d="M41.5533 6.5498H33.2891V16.1888H41.5533V6.5498Z" fill="#F0F0F0" />
    <path d="M40.8599 15.4287V7.31006L33.9815 7.31006V15.4287H40.8599Z" fill="#FAFAFA" />
    <path d="M37.4198 9.31494L35.5386 12.8911H39.3011L37.4198 9.31494Z" fill="#F0F0F0" />
    <path
        d="M60.9996 101.988C87.1277 101.988 108.309 100.631 108.309 98.9575C108.309 97.284 87.1277 95.9274 60.9996 95.9274C34.8715 95.9274 13.6904 97.284 13.6904 98.9575C13.6904 100.631 34.8715 101.988 60.9996 101.988Z"
        fill="#F5F5F5" />
    <path
        d="M102.431 26.5723H78.4948C77.2321 26.5723 76.2085 27.6952 76.2085 29.0804V36.222C76.2085 37.6072 77.2321 38.7301 78.4948 38.7301H102.431C103.694 38.7301 104.717 37.6072 104.717 36.222V29.0804C104.717 27.6952 103.694 26.5723 102.431 26.5723Z"
        fill="#407BFF" />
    <path
        d="M97.6833 28.6226H78.9856C78.7646 28.6226 78.5854 28.8191 78.5854 29.0615V29.5434C78.5854 29.7858 78.7646 29.9824 78.9856 29.9824H97.6833C97.9043 29.9824 98.0835 29.7858 98.0835 29.5434V29.0615C98.0835 28.8191 97.9043 28.6226 97.6833 28.6226Z"
        fill="#407BFF" />
    <path
        d="M91.7614 31.8989H78.9856C78.7646 31.8989 78.5854 32.0955 78.5854 32.3379V32.8197C78.5854 33.0622 78.7646 33.2587 78.9856 33.2587H91.7614C91.9825 33.2587 92.1616 33.0622 92.1616 32.8197V32.3379C92.1616 32.0955 91.9825 31.8989 91.7614 31.8989Z"
        fill="#407BFF" />
    <path
        d="M88.3357 35.1755H78.9856C78.7646 35.1755 78.5854 35.3721 78.5854 35.6145V36.0963C78.5854 36.3388 78.7646 36.5353 78.9856 36.5353H88.3357C88.5567 36.5353 88.7359 36.3388 88.7359 36.0963V35.6145C88.7359 35.3721 88.5567 35.1755 88.3357 35.1755Z"
        fill="#407BFF" />
    <path
        d="M99.9226 35.1755H90.5725C90.3515 35.1755 90.1724 35.3721 90.1724 35.6145V36.0963C90.1724 36.3388 90.3515 36.5353 90.5725 36.5353H99.9226C100.144 36.5353 100.323 36.3388 100.323 36.0963V35.6145C100.323 35.3721 100.144 35.1755 99.9226 35.1755Z"
        fill="#407BFF" />
    <g opacity="0.5">
        <path
            d="M97.6833 28.6226H78.9856C78.7646 28.6226 78.5854 28.8191 78.5854 29.0615V29.5434C78.5854 29.7858 78.7646 29.9824 78.9856 29.9824H97.6833C97.9043 29.9824 98.0835 29.7858 98.0835 29.5434V29.0615C98.0835 28.8191 97.9043 28.6226 97.6833 28.6226Z"
            fill="white" />
        <path
            d="M91.7614 31.8989H78.9856C78.7646 31.8989 78.5854 32.0955 78.5854 32.3379V32.8197C78.5854 33.0622 78.7646 33.2587 78.9856 33.2587H91.7614C91.9825 33.2587 92.1616 33.0622 92.1616 32.8197V32.3379C92.1616 32.0955 91.9825 31.8989 91.7614 31.8989Z"
            fill="white" />
        <path
            d="M88.3357 35.1753H78.9856C78.7646 35.1753 78.5854 35.3718 78.5854 35.6143V36.0961C78.5854 36.3385 78.7646 36.5351 78.9856 36.5351H88.3357C88.5567 36.5351 88.7359 36.3385 88.7359 36.0961V35.6143C88.7359 35.3718 88.5567 35.1753 88.3357 35.1753Z"
            fill="white" />
        <path
            d="M99.9226 35.1753H90.5725C90.3515 35.1753 90.1724 35.3718 90.1724 35.6143V36.0961C90.1724 36.3385 90.3515 36.5351 90.5725 36.5351H99.9226C100.144 36.5351 100.323 36.3385 100.323 36.0961V35.6143C100.323 35.3718 100.144 35.1753 99.9226 35.1753Z"
            fill="white" />
    </g>
    <path
        d="M83.2578 23.7375H56.0884C54.2368 23.7375 52.7358 25.3842 52.7358 27.4154V37.8869C52.7358 39.9182 54.2368 41.5648 56.0884 41.5648H83.2578C85.1094 41.5648 86.6104 39.9182 86.6104 37.8869V27.4154C86.6104 25.3842 85.1094 23.7375 83.2578 23.7375Z"
        fill="#407BFF" />
    <path
        d="M84.2192 26.7434H56.8083C56.4835 26.7434 56.2202 27.0322 56.2202 27.3885V28.0925C56.2202 28.4488 56.4835 28.7376 56.8083 28.7376H84.2192C84.544 28.7376 84.8073 28.4488 84.8073 28.0925V27.3885C84.8073 27.0322 84.544 26.7434 84.2192 26.7434Z"
        fill="#407BFF" />
    <path
        d="M75.5353 31.5483H56.8083C56.4835 31.5483 56.2202 31.8372 56.2202 32.1934V32.8974C56.2202 33.2537 56.4835 33.5425 56.8083 33.5425H75.5353C75.86 33.5425 76.1233 33.2537 76.1233 32.8974V32.1934C76.1233 31.8372 75.86 31.5483 75.5353 31.5483Z"
        fill="#407BFF" />
    <path
        d="M70.5137 36.3533H56.8083C56.4835 36.3533 56.2202 36.6421 56.2202 36.9984V37.7024C56.2202 38.0586 56.4835 38.3475 56.8083 38.3475H70.5137C70.8385 38.3475 71.1018 38.0586 71.1018 37.7024V36.9984C71.1018 36.6421 70.8385 36.3533 70.5137 36.3533Z"
        fill="#407BFF" />
    <path
        d="M85.2172 36.3533H73.798C73.4732 36.3533 73.21 36.6421 73.21 36.9984V37.7024C73.21 38.0586 73.4732 38.3475 73.798 38.3475H85.2172C85.542 38.3475 85.8052 38.0586 85.8052 37.7024V36.9984C85.8052 36.6421 85.542 36.3533 85.2172 36.3533Z"
        fill="#407BFF" />
    <g opacity="0.5">
        <path
            d="M84.2192 26.7434H56.8083C56.4835 26.7434 56.2202 27.0322 56.2202 27.3885V28.0925C56.2202 28.4488 56.4835 28.7376 56.8083 28.7376H84.2192C84.544 28.7376 84.8073 28.4488 84.8073 28.0925V27.3885C84.8073 27.0322 84.544 26.7434 84.2192 26.7434Z"
            fill="white" />
        <path
            d="M75.5353 31.5486H56.8083C56.4835 31.5486 56.2202 31.8374 56.2202 32.1937V32.8977C56.2202 33.254 56.4835 33.5428 56.8083 33.5428H75.5353C75.86 33.5428 76.1233 33.254 76.1233 32.8977V32.1937C76.1233 31.8374 75.86 31.5486 75.5353 31.5486Z"
            fill="white" />
        <path
            d="M70.5137 36.3533H56.8083C56.4835 36.3533 56.2202 36.6421 56.2202 36.9984V37.7024C56.2202 38.0586 56.4835 38.3475 56.8083 38.3475H70.5137C70.8385 38.3475 71.1018 38.0586 71.1018 37.7024V36.9984C71.1018 36.6421 70.8385 36.3533 70.5137 36.3533Z"
            fill="white" />
        <path
            d="M85.2172 36.3533H73.798C73.4732 36.3533 73.21 36.6421 73.21 36.9984V37.7024C73.21 38.0586 73.4732 38.3475 73.798 38.3475H85.2172C85.542 38.3475 85.8052 38.0586 85.8052 37.7024V36.9984C85.8052 36.6421 85.542 36.3533 85.2172 36.3533Z"
            fill="white" />
    </g>
    <path
        d="M66.3656 44.7957H53.2799C52.4147 44.7957 51.7134 45.565 51.7134 46.5141V68.0193C51.7134 68.9684 52.4147 69.7378 53.2799 69.7378H66.3656C67.2307 69.7378 67.9321 68.9684 67.9321 68.0193V46.5141C67.9321 45.565 67.2307 44.7957 66.3656 44.7957Z"
        fill="#EDA464" />
    <path
        d="M65.7654 47.3976H53.8778C53.7187 47.3976 53.5898 47.539 53.5898 47.7134V48.1872C53.5898 48.3617 53.7187 48.5031 53.8778 48.5031H65.7654C65.9245 48.5031 66.0534 48.3617 66.0534 48.1872V47.7134C66.0534 47.539 65.9245 47.3976 65.7654 47.3976Z"
        fill="#FAFAFA" />
    <path
        d="M61.981 50.0582H53.8778C53.7187 50.0582 53.5898 50.1996 53.5898 50.3741V50.8479C53.5898 51.0223 53.7187 51.1637 53.8778 51.1637H61.981C62.14 51.1637 62.2689 51.0223 62.2689 50.8479V50.3741C62.2689 50.1996 62.14 50.0582 61.981 50.0582Z"
        fill="#FAFAFA" />
    <path
        d="M65.7654 52.7216H53.8778C53.7187 52.7216 53.5898 52.863 53.5898 53.0374V53.5112C53.5898 53.6857 53.7187 53.8271 53.8778 53.8271H65.7654C65.9245 53.8271 66.0534 53.6857 66.0534 53.5112V53.0374C66.0534 52.863 65.9245 52.7216 65.7654 52.7216Z"
        fill="#FAFAFA" />
    <path
        d="M58.2966 55.3823H53.8778C53.7187 55.3823 53.5898 55.5237 53.5898 55.6982V56.172C53.5898 56.3464 53.7187 56.4878 53.8778 56.4878H58.2966C58.4556 56.4878 58.5845 56.3464 58.5845 56.172V55.6982C58.5845 55.5237 58.4556 55.3823 58.2966 55.3823Z"
        fill="#FAFAFA" />
    <path
        d="M64.4792 55.3823H60.0604C59.9014 55.3823 59.7725 55.5237 59.7725 55.6982V56.172C59.7725 56.3464 59.9014 56.4878 60.0604 56.4878H64.4792C64.6382 56.4878 64.7671 56.3464 64.7671 56.172V55.6982C64.7671 55.5237 64.6382 55.3823 64.4792 55.3823Z"
        fill="#FAFAFA" />
    <path
        d="M65.7654 58.0457H53.8778C53.7187 58.0457 53.5898 58.1871 53.5898 58.3615V58.8353C53.5898 59.0097 53.7187 59.1512 53.8778 59.1512H65.7654C65.9245 59.1512 66.0534 59.0097 66.0534 58.8353V58.3615C66.0534 58.1871 65.9245 58.0457 65.7654 58.0457Z"
        fill="#FAFAFA" />
    <path
        d="M65.7654 60.7064H53.8778C53.7187 60.7064 53.5898 60.8478 53.5898 61.0223V61.4961C53.5898 61.6705 53.7187 61.8119 53.8778 61.8119H65.7654C65.9245 61.8119 66.0534 61.6705 66.0534 61.4961V61.0223C66.0534 60.8478 65.9245 60.7064 65.7654 60.7064Z"
        fill="#FAFAFA" />
    <path
        d="M63.6573 63.3698H53.8778C53.7187 63.3698 53.5898 63.5112 53.5898 63.6856V64.1594C53.5898 64.3338 53.7187 64.4753 53.8778 64.4753H63.6573C63.8163 64.4753 63.9452 64.3338 63.9452 64.1594V63.6856C63.9452 63.5112 63.8163 63.3698 63.6573 63.3698Z"
        fill="#FAFAFA" />
    <path
        d="M58.4406 66.0304H53.8778C53.7187 66.0304 53.5898 66.1718 53.5898 66.3463V66.82C53.5898 66.9945 53.7187 67.1359 53.8778 67.1359H58.4406C58.5996 67.1359 58.7285 66.9945 58.7285 66.82V66.3463C58.7285 66.1718 58.5996 66.0304 58.4406 66.0304Z"
        fill="#FAFAFA" />
    <path
        d="M69.906 44.6432H51.7549L59.78 51.6483L72.085 56.7341V47.0282C72.0837 46.3952 71.8535 45.7885 71.445 45.3414C71.0366 44.8943 70.4831 44.6432 69.906 44.6432Z"
        fill="#407BFF" />
    <path opacity="0.4"
        d="M69.906 44.6432H51.7549L59.78 51.6483L72.085 56.7341V47.0282C72.0837 46.3952 71.8535 45.7885 71.445 45.3414C71.0366 44.8943 70.4831 44.6432 69.906 44.6432Z"
        fill="black" />
    <path
        d="M69.1132 48.2513H55.8323C55.6329 48.2513 55.4712 48.4287 55.4712 48.6475V49.3863C55.4712 49.6051 55.6329 49.7825 55.8323 49.7825H69.1132C69.3127 49.7825 69.4744 49.6051 69.4744 49.3863V48.6475C69.4744 48.4287 69.3127 48.2513 69.1132 48.2513Z"
        fill="#FAFAFA" />
    <path
        d="M101.297 63.6054V49.6006C101.297 48.5273 100.504 47.6572 99.5254 47.6572H77.358C76.3797 47.6572 75.5866 48.5273 75.5866 49.6006V63.6054C75.5866 64.6787 76.3797 65.5487 77.358 65.5487H99.5254C100.504 65.5487 101.297 64.6787 101.297 63.6054Z"
        fill="#407BFF" />
    <path
        d="M105.344 59.1672V45.1623C105.344 44.0891 104.551 43.219 103.573 43.219H81.4054C80.4271 43.219 79.634 44.0891 79.634 45.1623V59.1672C79.634 60.2404 80.4271 61.1105 81.4054 61.1105H103.573C104.551 61.1105 105.344 60.2404 105.344 59.1672Z"
        fill="#407BFF" />
    <path opacity="0.5"
        d="M105.344 59.1672V45.1623C105.344 44.0891 104.551 43.219 103.573 43.219H81.4054C80.4271 43.219 79.634 44.0891 79.634 45.1623V59.1672C79.634 60.2404 80.4271 61.1105 81.4054 61.1105H103.573C104.551 61.1105 105.344 60.2404 105.344 59.1672Z"
        fill="white" />
    <path
        d="M103.095 54.3678V45.7459C103.095 45.2684 102.742 44.8813 102.307 44.8813H95.0622C94.627 44.8813 94.2741 45.2684 94.2741 45.7459V54.3678C94.2741 54.8453 94.627 55.2324 95.0622 55.2324H102.307C102.742 55.2324 103.095 54.8453 103.095 54.3678Z"
        fill="#407BFF" />
    <path opacity="0.7"
        d="M103.095 54.3678V45.7459C103.095 45.2684 102.742 44.8813 102.307 44.8813H95.0622C94.627 44.8813 94.2741 45.2684 94.2741 45.7459V54.3678C94.2741 54.8453 94.627 55.2324 95.0622 55.2324H102.307C102.742 55.2324 103.095 54.8453 103.095 54.3678Z"
        fill="white" />
    <path
        d="M92.8931 58.5382V51.9319C92.8931 51.5653 92.6221 51.2681 92.2879 51.2681H86.7369C86.4027 51.2681 86.1318 51.5653 86.1318 51.9319V58.5382C86.1318 58.9048 86.4027 59.202 86.7369 59.202H92.2879C92.6221 59.202 92.8931 58.9048 92.8931 58.5382Z"
        fill="#407BFF" />
    <path opacity="0.3"
        d="M92.8931 58.5382V51.9319C92.8931 51.5653 92.6221 51.2681 92.2879 51.2681H86.7369C86.4027 51.2681 86.1318 51.5653 86.1318 51.9319V58.5382C86.1318 58.9048 86.4027 59.202 86.7369 59.202H92.2879C92.6221 59.202 92.8931 58.9048 92.8931 58.5382Z"
        fill="white" />
    <path
        d="M89.5112 16.652V13.0839C89.5112 11.9928 88.705 11.1084 87.7105 11.1084L28.1428 11.1084C27.1483 11.1084 26.3421 11.9928 26.3421 13.0839V16.652C26.3421 17.743 27.1483 18.6274 28.1428 18.6274L87.7105 18.6274C88.705 18.6274 89.5112 17.743 89.5112 16.652Z"
        fill="#407BFF" />
    <path opacity="0.5"
        d="M89.5112 16.652V13.0839C89.5112 11.9928 88.705 11.1084 87.7105 11.1084L28.1428 11.1084C27.1483 11.1084 26.3421 11.9928 26.3421 13.0839V16.652C26.3421 17.743 27.1483 18.6274 28.1428 18.6274L87.7105 18.6274C88.705 18.6274 89.5112 17.743 89.5112 16.652Z"
        fill="#47DCBF" />
    <path d="M78.2412 19.8858V17.2974H61.1002V19.8858H78.2412Z" fill="#407BFF" />
    <path opacity="0.5" d="M78.2412 19.8858V17.2974H61.1002V19.8858H78.2412Z" fill="white" />
    <path
        d="M95.6577 5.54358V1.97545C95.6577 0.884442 94.8515 0 93.857 0L34.2893 0C33.2948 0 32.4886 0.884442 32.4886 1.97545V5.54358C32.4886 6.6346 33.2948 7.51904 34.2893 7.51904L93.857 7.51904C94.8515 7.51904 95.6577 6.6346 95.6577 5.54358Z"
        fill="#407BFF" />
    <path
        d="M31.8078 39.5385C31.5931 40.0739 31.3564 40.652 31.149 41.2168C30.9416 41.7816 30.7269 42.3625 30.539 42.9407C30.1535 44.0678 29.8444 45.2246 29.6143 46.4017L29.5435 46.83L29.5191 46.9906C29.5191 47.0361 29.5191 47.095 29.5045 47.1486C29.4952 47.4092 29.5001 47.6702 29.5191 47.9302C29.5655 48.495 29.6484 49.0999 29.7631 49.7049C29.9681 50.9174 30.2292 52.1675 30.4951 53.3988L29.2434 53.9342C28.6599 52.7673 28.163 51.5508 27.7574 50.2964C27.5438 49.6436 27.3709 48.9755 27.2402 48.2969C27.1669 47.9214 27.1212 47.5401 27.1035 47.1566C27.1035 47.0495 27.1035 46.9478 27.1035 46.8327C27.1035 46.7176 27.1035 46.5891 27.1206 46.5142L27.1694 45.9788C27.2423 45.2893 27.3539 44.6055 27.5037 43.9311C27.6403 43.2619 27.816 42.6114 27.9917 41.969C28.1674 41.3266 28.387 40.6949 28.6188 40.0739C28.7334 39.7634 28.8628 39.4555 28.975 39.1477C29.0872 38.8399 29.219 38.5454 29.3752 38.2162L31.8078 39.5385Z"
        fill="#E4897B" />
    <path
        d="M30.4292 53.0376L31.3808 54.0574L29.3043 55.1282C29.3043 55.1282 28.8017 54.1618 29.1506 53.2892L30.4292 53.0376Z"
        fill="#E4897B" />
    <path d="M32.1492 55.5751L30.3949 56.3621L29.3066 55.1174L31.3806 54.0574L32.1492 55.5751Z"
        fill="#E4897B" />
    <path opacity="0.4"
        d="M67.6879 54.4776C64.2355 54.0523 60.9756 52.5137 58.3202 50.0563C55.6648 47.5988 53.7331 44.3328 52.7695 40.6712C51.8058 37.0096 51.8534 33.1168 52.9062 29.4848C53.959 25.8528 55.9697 22.6448 58.6842 20.2663C61.3986 17.8879 64.695 16.4457 68.1565 16.1221C71.6181 15.7985 75.0893 16.6081 78.1315 18.4485C81.1737 20.2888 83.6502 23.0774 85.2479 26.4616C86.8456 29.8458 87.4929 33.6737 87.1078 37.4614C86.852 39.9779 86.1466 42.4145 85.032 44.6318C83.9174 46.8492 82.4155 48.8038 80.612 50.3841C78.8085 51.9644 76.7388 53.1392 74.5212 53.8416C72.3036 54.544 69.9816 54.7601 67.6879 54.4776Z"
        fill="#FAFAFA" />
    <path opacity="0.4"
        d="M80.4685 20.14L53.7505 43.559C53.6383 43.2913 53.5285 43.0237 53.426 42.756C52.7562 41.0081 52.3277 39.1605 52.1548 37.274L75.2323 17.0457C77.127 17.739 78.8984 18.7858 80.4685 20.14Z"
        fill="#FAFAFA" />
    <path opacity="0.4"
        d="M86.6344 30.4L61.5146 52.4164C59.1282 51.0516 57.0602 49.1026 55.4707 46.7202L82.8987 22.6775C84.6667 24.9037 85.9448 27.5459 86.6344 30.4Z"
        fill="#FAFAFA" />
    <path
        d="M49.871 27.959L49.6392 27.8733C50.0406 26.5737 50.5452 25.3153 51.1471 24.1125L51.3594 24.2409C50.7654 25.4303 50.2674 26.6744 49.871 27.959ZM52.8331 21.7114L52.6355 21.5535C54.6407 18.579 57.2651 16.1736 60.2898 14.5377L60.3996 14.7786C57.4092 16.3976 54.815 18.7773 52.8331 21.7194V21.7114ZM79.5731 15.1453C78.7757 14.6761 77.9508 14.2657 77.1038 13.9167L77.1916 13.665C78.047 14.0222 78.88 14.4407 79.6853 14.9178L79.5731 15.1453Z"
        fill="#407BFF" />
    <path opacity="0.3"
        d="M49.871 27.959L49.6392 27.8733C50.0406 26.5737 50.5452 25.3153 51.1471 24.1125L51.3594 24.2409C50.7654 25.4303 50.2674 26.6744 49.871 27.959ZM52.8331 21.7114L52.6355 21.5535C54.6407 18.579 57.2651 16.1736 60.2898 14.5377L60.3996 14.7786C57.4092 16.3976 54.815 18.7773 52.8331 21.7194V21.7114ZM79.5731 15.1453C78.7757 14.6761 77.9508 14.2657 77.1038 13.9167L77.1916 13.665C78.047 14.0222 78.88 14.4407 79.6853 14.9178L79.5731 15.1453Z"
        fill="black" />
    <path
        d="M87.8083 25.4801C85.5489 20.3395 81.5729 16.3498 76.7047 14.3381C71.8364 12.3265 66.4491 12.4471 61.6597 14.6751C56.8704 16.9031 53.0462 21.0675 50.9799 26.305C48.9137 31.5425 48.7639 37.4514 50.5617 42.8068C48.9317 43.4332 47.3213 44.1051 45.7207 44.7984C43.4125 45.803 41.1254 46.8523 38.8594 47.9462C36.5951 49.0464 34.3405 50.1679 32.1079 51.3404C30.988 51.9159 29.8827 52.5235 28.7676 53.1124C28.1875 53.3858 27.6619 53.7814 27.2206 54.2768C26.9818 54.5511 26.7715 54.8536 26.5935 55.1788C26.3764 55.5635 26.212 55.9811 26.1055 56.4182C25.9219 57.2059 26.0013 58.0397 26.3294 58.7687C26.6574 59.4978 27.2124 60.074 27.8941 60.3932C28.2726 60.5673 28.6719 60.6809 29.0799 60.7305C29.4245 60.7733 29.7723 60.7733 30.1169 60.7305C30.7431 60.6471 31.3482 60.4297 31.8981 60.0907C33.0034 59.4777 34.1161 58.8862 35.2141 58.2571C37.4101 57.0285 39.6061 55.7463 41.7752 54.4454C43.9444 53.1445 46.116 51.782 48.2339 50.3848C49.6979 49.4131 51.1765 48.42 52.6259 47.3814C55.409 52.2014 59.7758 55.6619 64.8214 57.0461C69.867 58.4302 75.2045 57.6317 79.7281 54.8162C84.2517 52.0006 87.6144 47.3837 89.1196 41.9223C90.6248 36.4609 90.157 30.5735 87.8131 25.4801H87.8083ZM76.716 51.0513C73.8804 52.5867 70.6935 53.1653 67.5581 52.7139C64.4228 52.2624 61.4799 50.8012 59.1015 48.515C56.7231 46.2288 55.0161 43.2203 54.1963 39.8698C53.3764 36.5193 53.4806 32.9774 54.4956 29.6919C55.5107 26.4064 57.3909 23.5248 59.8987 21.4116C62.4065 19.2983 65.4291 18.0483 68.5845 17.8195C71.7398 17.5908 74.8862 18.3936 77.6256 20.1264C80.3651 21.8592 82.5747 24.4442 83.975 27.5546C84.905 29.6203 85.4549 31.8667 85.5934 34.1655C85.7319 36.4643 85.4562 38.7706 84.7821 40.9525C84.1081 43.1344 83.0488 45.1493 81.6648 46.8821C80.2808 48.6149 78.5992 50.0316 76.716 51.0513Z"
        fill="#407BFF" />
    <path opacity="0.3"
        d="M87.8083 25.4801C85.5489 20.3395 81.5729 16.3498 76.7047 14.3381C71.8364 12.3265 66.4491 12.4471 61.6597 14.6751C56.8704 16.9031 53.0462 21.0675 50.9799 26.305C48.9137 31.5425 48.7639 37.4514 50.5617 42.8068C48.9317 43.4332 47.3213 44.1051 45.7207 44.7984C43.4125 45.803 41.1254 46.8523 38.8594 47.9462C36.5951 49.0464 34.3405 50.1679 32.1079 51.3404C30.988 51.9159 29.8827 52.5235 28.7676 53.1124C28.1875 53.3858 27.6619 53.7814 27.2206 54.2768C26.9818 54.5511 26.7715 54.8536 26.5935 55.1788C26.3764 55.5635 26.212 55.9811 26.1055 56.4182C25.9219 57.2059 26.0013 58.0397 26.3294 58.7687C26.6574 59.4978 27.2124 60.074 27.8941 60.3932C28.2726 60.5673 28.6719 60.6809 29.0799 60.7305C29.4245 60.7733 29.7723 60.7733 30.1169 60.7305C30.7431 60.6471 31.3482 60.4297 31.8981 60.0907C33.0034 59.4777 34.1161 58.8862 35.2141 58.2571C37.4101 57.0285 39.6061 55.7463 41.7752 54.4454C43.9444 53.1445 46.116 51.782 48.2339 50.3848C49.6979 49.4131 51.1765 48.42 52.6259 47.3814C55.409 52.2014 59.7758 55.6619 64.8214 57.0461C69.867 58.4302 75.2045 57.6317 79.7281 54.8162C84.2517 52.0006 87.6144 47.3837 89.1196 41.9223C90.6248 36.4609 90.157 30.5735 87.8131 25.4801H87.8083ZM76.716 51.0513C73.8804 52.5867 70.6935 53.1653 67.5581 52.7139C64.4228 52.2624 61.4799 50.8012 59.1015 48.515C56.7231 46.2288 55.0161 43.2203 54.1963 39.8698C53.3764 36.5193 53.4806 32.9774 54.4956 29.6919C55.5107 26.4064 57.3909 23.5248 59.8987 21.4116C62.4065 19.2983 65.4291 18.0483 68.5845 17.8195C71.7398 17.5908 74.8862 18.3936 77.6256 20.1264C80.3651 21.8592 82.5747 24.4442 83.975 27.5546C84.905 29.6203 85.4549 31.8667 85.5934 34.1655C85.7319 36.4643 85.4562 38.7706 84.7821 40.9525C84.1081 43.1344 83.0488 45.1493 81.6648 46.8821C80.2808 48.6149 78.5992 50.0316 76.716 51.0513Z"
        fill="black" />
    <path
        d="M38.5518 29.98C38.5518 30.1379 38.6274 30.2664 38.7226 30.2664C38.8177 30.2664 38.8934 30.1379 38.8934 29.98C38.8934 29.8221 38.8177 29.6936 38.7226 29.6936C38.6274 29.6936 38.5518 29.8328 38.5518 29.98Z"
        fill="#263238" />
    <path
        d="M38.6201 30.2664C38.7928 30.7511 39.0252 31.2077 39.3106 31.6235C39.2119 31.7009 39.099 31.7538 38.9797 31.7783C38.8604 31.8028 38.7377 31.7984 38.6201 31.7653V30.2664Z"
        fill="#DE5753" />
    <path
        d="M38.0465 29.0994C38.0329 29.0994 38.0195 29.096 38.0072 29.0895C37.995 29.083 37.9842 29.0736 37.9757 29.0619C37.963 29.0415 37.958 29.0164 37.9616 28.992C37.9652 28.9676 37.9773 28.9457 37.9953 28.9307C38.1027 28.8413 38.2283 28.7817 38.3613 28.757C38.4942 28.7323 38.6307 28.7432 38.759 28.7889C38.7705 28.7923 38.7812 28.7984 38.7905 28.8066C38.7998 28.8149 38.8073 28.8252 38.8127 28.8369C38.8181 28.8486 38.8212 28.8614 38.8218 28.8745C38.8224 28.8876 38.8205 28.9007 38.8162 28.9129C38.812 28.9251 38.8054 28.9362 38.7969 28.9455C38.7885 28.9547 38.7784 28.962 38.7672 28.9667C38.7561 28.9714 38.7442 28.9735 38.7322 28.9728C38.7203 28.9722 38.7086 28.9688 38.698 28.9628C38.5961 28.9286 38.4881 28.9216 38.3833 28.9426C38.2784 28.9635 38.1796 29.0118 38.0953 29.0833C38.0808 29.0938 38.0639 29.0994 38.0465 29.0994Z"
        fill="#263238" />
    <path
        d="M33.6228 31.1709C33.8668 32.6083 34.1352 35.2449 33.2178 36.2059C33.2178 36.2059 33.5765 37.6647 36.014 37.6647C38.698 37.6647 37.2926 36.2059 37.2926 36.2059C35.8286 35.8204 35.8701 34.632 36.1238 33.5131L33.6228 31.1709Z"
        fill="#E4897B" />
    <path
        d="M32.122 36.9634C32.4123 36.4682 31.9243 35.2663 31.9243 35.2663C31.9243 35.2663 36.2382 34.0752 38.0024 35.9034C38.3684 36.2808 37.9633 36.8376 37.9633 36.8376L32.122 36.9634Z"
        fill="#407BFF" />
    <path opacity="0.1"
        d="M32.122 36.9634C32.4123 36.4682 31.9243 35.2663 31.9243 35.2663C31.9243 35.2663 36.2382 34.0752 38.0024 35.9034C38.3684 36.2808 37.9633 36.8376 37.9633 36.8376L32.122 36.9634Z"
        fill="black" />
    <path
        d="M24.9852 91.5775C24.7583 91.5775 24.3947 91.1626 24.2874 91.0073C24.2827 90.9998 24.2803 90.991 24.2803 90.9819C24.2803 90.9728 24.2827 90.964 24.2874 90.9565C24.2913 90.949 24.297 90.9428 24.3039 90.9386C24.3107 90.9343 24.3185 90.9322 24.3264 90.9324C24.3532 90.9324 24.951 90.9913 25.1145 91.2242C25.1323 91.2487 25.145 91.2773 25.1517 91.3078C25.1585 91.3383 25.1591 91.37 25.1536 91.4008C25.1514 91.4407 25.1381 91.4788 25.1154 91.51C25.0926 91.5411 25.0616 91.5638 25.0267 91.5748L24.9852 91.5775ZM24.4191 91.0421C24.5972 91.267 24.8827 91.5213 25.0047 91.4891C25.0047 91.4891 25.0535 91.4758 25.0682 91.3901C25.0714 91.3722 25.0708 91.3538 25.0666 91.3362C25.0624 91.3186 25.0546 91.3022 25.0438 91.2884C24.863 91.1382 24.6455 91.0506 24.4191 91.0368V91.0421Z"
        fill="#407BFF" />
    <path
        d="M24.446 91.0369C24.4022 91.0417 24.3581 91.0417 24.3143 91.0369C24.3066 91.0362 24.2992 91.0331 24.2931 91.0278C24.287 91.0226 24.2825 91.0155 24.2801 91.0074C24.2767 91 24.2749 90.9917 24.2749 90.9833C24.2749 90.975 24.2767 90.9667 24.2801 90.9592C24.2972 90.9432 24.6559 90.5336 24.9267 90.5336C24.9591 90.5328 24.9913 90.5396 25.0212 90.5534C25.0511 90.5673 25.0779 90.5879 25.1 90.6139C25.1243 90.6362 25.1409 90.667 25.1471 90.701C25.1533 90.7351 25.1487 90.7705 25.1341 90.8013C25.0634 90.9512 24.69 91.0369 24.446 91.0369ZM24.4143 90.9432C24.6583 90.9432 25.0121 90.8602 25.0707 90.7424C25.0707 90.7424 25.0878 90.7076 25.0487 90.6648C25.0345 90.6479 25.0171 90.6345 24.9977 90.6258C24.9783 90.617 24.9574 90.6129 24.9365 90.6139C24.7365 90.6643 24.5547 90.7789 24.4143 90.9432Z"
        fill="#407BFF" />
    <path
        d="M41.0867 97.6538C40.9017 97.6524 40.7172 97.6336 40.5352 97.5976C40.5262 97.5957 40.518 97.5904 40.5122 97.5826C40.5064 97.5747 40.5033 97.5649 40.5035 97.5548C40.5021 97.5456 40.5032 97.5361 40.5067 97.5275C40.5102 97.519 40.5158 97.5117 40.523 97.5066C40.5499 97.4906 41.1745 97.0971 41.4746 97.1881C41.5024 97.195 41.5287 97.208 41.5518 97.2264C41.5748 97.2449 41.5943 97.2682 41.6088 97.2952C41.6279 97.3249 41.6382 97.3605 41.6382 97.3969C41.6382 97.4333 41.6279 97.4688 41.6088 97.4986C41.5381 97.619 41.316 97.6538 41.0867 97.6538ZM40.6743 97.528C41.0061 97.5816 41.46 97.5789 41.5429 97.4504C41.5551 97.4343 41.5649 97.4049 41.5429 97.3487C41.5243 97.3154 41.4945 97.2914 41.46 97.2818C41.2697 97.2282 40.8915 97.4049 40.6743 97.528Z"
        fill="#407BFF" />
    <path
        d="M40.5449 97.6003C40.5369 97.6029 40.5284 97.6029 40.5205 97.6003C40.5137 97.5956 40.5084 97.5887 40.5054 97.5806C40.5023 97.5724 40.5016 97.5634 40.5034 97.5548C40.5199 97.2762 40.6174 97.0107 40.7816 96.7973C40.8147 96.7659 40.8537 96.7427 40.8958 96.7293C40.9379 96.7159 40.9822 96.7126 41.0256 96.7197C41.1427 96.7197 41.1768 96.7973 41.1842 96.8482C41.2159 97.0703 40.7889 97.4959 40.5717 97.603L40.5449 97.6003ZM40.9816 96.7973C40.928 96.7969 40.8759 96.8178 40.8352 96.8562C40.6973 97.0253 40.6118 97.238 40.5912 97.4638C40.8108 97.3166 41.1036 96.9847 41.0792 96.8508C41.0792 96.8508 41.0792 96.8053 40.9963 96.7973H40.9816Z"
        fill="#407BFF" />
    <path d="M38.5737 97.5522H40.3671L40.5453 92.999H38.7519L38.5737 97.5522Z" fill="#E4897B" />
    <path d="M22.6035 89.7359L24.1017 90.812L27.4103 87.7471L25.9097 86.6683L22.6035 89.7359Z"
        fill="#E4897B" />
    <path
        d="M24.3486 90.7103L22.7919 89.3103C22.7644 89.2855 22.7299 89.272 22.6943 89.272C22.6587 89.272 22.6242 89.2855 22.5967 89.3103L21.3133 90.4158C21.2823 90.4429 21.2572 90.4773 21.24 90.5165C21.2228 90.5556 21.2139 90.5985 21.2139 90.642C21.2139 90.6855 21.2228 90.7284 21.24 90.7676C21.2572 90.8067 21.2823 90.8411 21.3133 90.8682C21.8647 91.3473 22.1551 91.5508 22.8407 92.1664C23.2628 92.5439 24.3047 93.7002 24.8928 94.2222C25.4808 94.7442 26.02 94.182 25.8248 93.9117C24.9489 92.6938 24.6048 91.6525 24.5048 91.0074C24.4875 90.8908 24.432 90.7851 24.3486 90.7103Z"
        fill="#263238" />
    <path
        d="M40.3549 97.3246H38.4029C38.3673 97.3247 38.3327 97.338 38.3049 97.3623C38.277 97.3866 38.2573 97.4204 38.2491 97.4584L37.8953 99.2064C37.8864 99.2487 37.8865 99.2927 37.8954 99.3351C37.9043 99.3774 37.9219 99.417 37.9468 99.4508C37.9717 99.4846 38.0033 99.5117 38.0392 99.5301C38.0751 99.5485 38.1144 99.5577 38.154 99.557C38.8591 99.5436 39.8791 99.4981 40.7672 99.4981C41.8042 99.4981 42.7021 99.5597 43.9173 99.5597C44.6493 99.5597 44.8591 98.7433 44.5492 98.671C43.1487 98.3337 42.0019 98.2989 40.7916 97.4772C40.6617 97.3828 40.5105 97.33 40.3549 97.3246Z"
        fill="#263238" />
    <path
        d="M29.6846 36.7922C28.1303 37.5953 27.2446 42.9756 27.2446 42.9756L31.0437 44.6378C31.5998 43.1482 32.0493 41.6134 32.3881 40.0472C32.9103 37.5685 31.2755 35.9624 29.6846 36.7922Z"
        fill="#263238" />
    <path
        d="M31.7003 39.8249C30.7609 40.8688 30.3314 42.9139 30.1436 44.2442L31.0537 44.6431C31.594 43.1957 32.0344 41.7059 32.3713 40.1862C32.2908 39.6188 32.0907 39.3913 31.7003 39.8249Z"
        fill="#203048" />
    <path
        d="M40.0499 36.7549C40.0499 36.7549 41.958 39.1212 40.1572 53.7524H30.5705C30.5046 52.1463 31.4294 44.2633 30.0093 36.6559C31.0687 36.4305 32.1406 36.2821 33.2179 36.2116C34.5749 36.1232 35.9356 36.1232 37.2927 36.2116C38.2232 36.3143 39.145 36.496 40.0499 36.7549Z"
        fill="#263238" />
    <path
        d="M40.9258 42.4348L39.3105 39.3806C38.9987 40.8056 38.8714 42.2717 38.9323 43.7357C38.9762 44.785 39.8522 48.6717 40.6403 49.2391C40.8494 46.9785 40.9447 44.707 40.9258 42.4348Z"
        fill="#203048" />
    <path
        d="M41.1503 38.8452C41.3943 40.1461 41.6383 41.4792 41.8994 42.7854C42.1605 44.0917 42.4313 45.4033 42.7461 46.6694C42.8266 46.9826 42.9022 47.3038 42.9901 47.6036L43.056 47.8338L43.0877 47.9489V47.9355C43.0706 47.9114 43.0511 47.9087 43.0657 47.9355C43.166 48.0557 43.2942 48.1436 43.4366 48.1898C43.6673 48.284 43.9048 48.3565 44.1466 48.4066C45.3002 48.6072 46.4683 48.6905 47.6358 48.6556L47.8676 50.1117C47.5407 50.2268 47.2357 50.3098 46.9136 50.3928C46.5915 50.4758 46.2743 50.5454 45.9498 50.5989C45.2784 50.7215 44.5976 50.7717 43.9173 50.7488C43.5391 50.7376 43.163 50.6838 42.7949 50.5882C42.3268 50.4759 41.887 50.252 41.5066 49.9324C41.2581 49.7123 41.0531 49.4391 40.9039 49.1293C40.8648 49.049 40.8307 48.958 40.799 48.8804L40.755 48.7546L40.6648 48.4869C40.5403 48.147 40.4378 47.8124 40.3256 47.4778C39.9132 46.1394 39.5692 44.7876 39.2666 43.4385C38.9641 42.0895 38.703 40.743 38.4858 39.3592L41.1503 38.8452Z"
        fill="#E4897B" />
    <path
        d="M37.6558 38.1894C37.1508 39.9855 39.1979 45.3417 39.1979 45.3417L43.2752 44.2174C43.2752 44.2174 43.119 41.4336 42.1894 39.2253C40.7888 35.8954 38.261 36.0346 37.6558 38.1894Z"
        fill="#263238" />
    <path
        d="M47.6019 48.6557L49.6319 48.5995L48.6559 50.9176C48.6559 50.9176 47.8288 51.038 47.1505 49.8147L46.4355 48.8779L47.2578 48.6985C47.371 48.6724 47.4862 48.658 47.6019 48.6557Z"
        fill="#E4897B" />
    <path d="M50.9128 49.0304L49.7513 50.9524L48.6558 50.9176L49.6318 48.5995L50.9128 49.0304Z"
        fill="#E4897B" />
    <path d="M40.5453 92.999L40.4526 95.3465H38.6592L38.7519 92.999H40.5453Z" fill="#CE6F64" />
    <path d="M25.9097 86.6683L27.4103 87.7471L25.7023 89.3264L24.2041 88.2503L25.9097 86.6683Z"
        fill="#CE6F64" />
    <path
        d="M33.7351 29.6399C33.8424 31.5859 33.8156 32.7343 34.7111 33.7327C36.058 35.2397 38.2515 34.3484 38.6761 32.3943C39.0592 30.6437 38.82 27.7528 37.0828 26.9766C36.6994 26.8068 36.2831 26.7467 35.8728 26.8018C35.4625 26.857 35.0717 27.0256 34.737 27.2918C34.4024 27.5581 34.1349 27.9132 33.9596 28.3239C33.7844 28.7347 33.7071 29.1875 33.7351 29.6399Z"
        fill="#E4897B" />
    <path
        d="M31.6468 29.2973C32.0884 31.072 33.1278 33.1171 34.4723 33.2482C36.1412 33.4088 36.8952 31.5164 37.1148 29.5623C38.1152 28.8102 37.5906 27.983 38.5934 27.8786C39.8818 27.7448 39.4694 25.1591 37.7736 24.7442C37.7736 24.7442 38.3421 25.9085 37.149 25.3197C36.0142 24.7281 34.7536 24.4883 33.5036 24.6264C33.5036 24.6264 35.0262 25.4615 33.5378 25.8336C32.0494 26.2057 31.6053 27.2121 32.2909 27.8198C32.2909 27.8224 31.3564 28.1303 31.6468 29.2973Z"
        fill="#263238" />
    <path
        d="M36.0971 29.9638C36.1298 30.4475 36.3074 30.9058 36.6021 31.2674C36.9925 31.7412 37.4 31.4467 37.4683 30.8712C37.5318 30.3546 37.4025 29.4847 36.9242 29.2223C36.446 28.96 36.0653 29.3803 36.0971 29.9638Z"
        fill="#E4897B" />
    <path
        d="M36.7562 53.7523C36.7562 53.7523 38.5032 67.6313 37.1271 73.1937C34.9457 82.0002 26.6058 89.4336 26.6058 89.4336L23.7778 87.3993C23.7778 87.3993 30.8807 81.1222 31.7493 73.7477C32.5301 67.1281 30.5708 59.1219 30.5708 53.7496L36.7562 53.7523Z"
        fill="#049276" />
    <path
        d="M37.4781 61.6861C37.013 61.1016 36.501 60.5641 35.9482 60.0801C36.2459 64.5851 36.4899 71.2583 36.2191 75.9988C36.5832 75.09 36.8866 74.1533 37.1268 73.1962C37.7978 70.4793 37.727 65.7869 37.4781 61.6861Z"
        fill="#407BFF" />
    <path opacity="0.3"
        d="M37.4781 61.6861C37.013 61.1016 36.501 60.5641 35.9482 60.0801C36.2459 64.5851 36.4899 71.2583 36.2191 75.9988C36.5832 75.09 36.8866 74.1533 37.1268 73.1962C37.7978 70.4793 37.727 65.7869 37.4781 61.6861Z"
        fill="black" />
    <path
        d="M27.7447 88.7402C27.7569 88.7402 26.6491 89.5433 26.6491 89.5433L23.5601 87.3216L24.5361 86.4355L27.7447 88.7402Z"
        fill="#407BFF" />
    <path opacity="0.3"
        d="M27.7447 88.7402C27.7569 88.7402 26.6491 89.5433 26.6491 89.5433L23.5601 87.3216L24.5361 86.4355L27.7447 88.7402Z"
        fill="black" />
    <path
        d="M40.1575 53.7522C40.1575 53.7522 42.8561 66.3062 43.0465 72.3049C43.2612 79.0289 41.1213 94.8914 41.1213 94.8914H38.0835C38.0835 94.8914 37.7102 78.9058 37.576 72.7813C37.4271 66.1028 33.855 53.7522 33.855 53.7522H40.1575Z"
        fill="#049276" />
    <path
        d="M41.7043 93.5664C41.7189 93.5664 41.5335 94.9476 41.5335 94.9476H37.8393L37.7393 93.7136L41.7043 93.5664Z"
        fill="#407BFF" />
    <path opacity="0.3"
        d="M41.7043 93.5664C41.7189 93.5664 41.5335 94.9476 41.5335 94.9476H37.8393L37.7393 93.7136L41.7043 93.5664Z"
        fill="black" />
    <path
        d="M86.864 41.6879C87.0714 41.902 87.2349 42.084 87.4057 42.2875C87.5765 42.4909 87.7375 42.689 87.8937 42.8951C88.2109 43.3046 88.5086 43.7356 88.7965 44.1692C89.3715 45.0391 89.8831 45.9574 90.3264 46.9156L90.4166 47.111C90.4607 47.2056 90.4975 47.3041 90.5264 47.4054C90.5854 47.6013 90.6215 47.8046 90.6338 48.0104C90.6497 48.3733 90.6042 48.7363 90.4996 49.0811C90.3214 49.6537 90.0566 50.1894 89.7164 50.6657C89.1032 51.5296 88.3801 52.2922 87.5692 52.9303L86.9616 52.1647C87.2471 51.798 87.5448 51.4045 87.8107 51.011C88.0814 50.6298 88.326 50.2272 88.5427 49.8065C88.7452 49.4394 88.895 49.0404 88.9868 48.6234C89.0184 48.4742 89.0241 48.3198 89.0039 48.1683C88.9952 48.1174 88.9804 48.0679 88.96 48.0211C88.9509 48.0006 88.9402 47.9809 88.9282 47.9622L88.8502 47.8177C88.3796 46.9759 87.8689 46.1619 87.3203 45.3791C87.0494 44.9856 86.7591 44.6082 86.4663 44.2361C86.3223 44.0488 86.1735 43.8668 86.0246 43.6847C85.8758 43.5027 85.7148 43.3207 85.5854 43.1788L86.864 41.6879Z"
        fill="#E4897B" />
    <path
        d="M87.1957 51.9397L85.373 51.6132L86.3271 53.3638C86.3271 53.3638 87.5007 53.3183 87.835 52.5607L87.1957 51.9397Z"
        fill="#E4897B" />
    <path d="M84.0264 52.4215L84.895 53.8429L86.3273 53.3638L85.3733 51.6132L84.0264 52.4215Z"
        fill="#E4897B" />
    <path
        d="M87.1079 97.6296C86.984 97.6412 86.8603 97.6042 86.759 97.5252C86.7284 97.4935 86.7059 97.4537 86.6935 97.4096C86.6811 97.3655 86.6793 97.3186 86.6882 97.2736C86.69 97.2448 86.6989 97.2172 86.7139 97.1936C86.729 97.17 86.7496 97.1514 86.7736 97.1397C86.9859 97.0353 87.5422 97.4261 87.6057 97.4716C87.6129 97.4765 87.6185 97.4839 87.6216 97.4926C87.6247 97.5013 87.6251 97.5108 87.6228 97.5198C87.6218 97.529 87.6183 97.5376 87.6125 97.5443C87.6068 97.5511 87.5993 97.5556 87.591 97.5573C87.433 97.6013 87.2709 97.6256 87.1079 97.6296ZM86.8639 97.2147C86.8461 97.2117 86.828 97.2117 86.8102 97.2147C86.7995 97.2202 86.7904 97.2288 86.7839 97.2397C86.7775 97.2506 86.7739 97.2632 86.7736 97.2762C86.7672 97.3061 86.7678 97.3373 86.7755 97.3668C86.7832 97.3964 86.7977 97.4232 86.8176 97.4449C86.9103 97.5359 87.1494 97.5493 87.469 97.4797C87.2859 97.347 87.08 97.2568 86.8639 97.2147Z"
        fill="#407BFF" />
    <path
        d="M87.596 97.5547H87.5741C87.4008 97.4449 87.0665 97.0193 87.108 96.7864C87.1159 96.7497 87.1345 96.7169 87.1609 96.6927C87.1873 96.6686 87.2201 96.6545 87.2544 96.6526C87.2874 96.6474 87.321 96.6505 87.3527 96.6616C87.3844 96.6727 87.4134 96.6916 87.4374 96.7168C87.6375 96.9096 87.6399 97.4878 87.6399 97.5199C87.6395 97.528 87.6372 97.5359 87.6334 97.5429C87.6296 97.5499 87.6243 97.5558 87.618 97.56L87.596 97.5547ZM87.2837 96.7516H87.2642C87.2105 96.7516 87.1983 96.7838 87.1934 96.8079C87.169 96.9444 87.3764 97.2709 87.5497 97.4235C87.5539 97.199 87.4952 96.9784 87.3813 96.7918C87.3667 96.7768 87.3493 96.7655 87.3304 96.7586C87.3114 96.7517 87.2914 96.7493 87.2715 96.7516H87.2837Z"
        fill="#407BFF" />
    <path
        d="M78.7923 97.6296C78.6365 97.6459 78.4804 97.6023 78.3506 97.5065C78.3213 97.478 78.2988 97.4422 78.2848 97.4021C78.2707 97.3621 78.2657 97.3189 78.2701 97.2762C78.2717 97.2502 78.2792 97.225 78.292 97.2031C78.3048 97.1811 78.3224 97.163 78.3433 97.1504C78.5702 97.0112 79.2973 97.4181 79.3803 97.469C79.3879 97.4744 79.394 97.482 79.3979 97.491C79.4017 97.5 79.4033 97.51 79.4023 97.5198C79.4008 97.5292 79.3968 97.5379 79.3907 97.5446C79.3845 97.5513 79.3766 97.5558 79.3681 97.5573C79.1787 97.6014 78.9859 97.6256 78.7923 97.6296ZM78.4677 97.2147C78.4398 97.2126 78.412 97.2191 78.3872 97.2334C78.3784 97.238 78.371 97.2452 78.3658 97.2542C78.3607 97.2632 78.3579 97.2736 78.3579 97.2843C78.3542 97.3121 78.3567 97.3406 78.3652 97.3672C78.3737 97.3937 78.3879 97.4177 78.4067 97.4369C78.519 97.5466 78.8191 97.5653 79.2241 97.4904C78.988 97.3524 78.7322 97.2592 78.4677 97.2147Z"
        fill="#407BFF" />
    <path
        d="M79.3609 97.5546H79.3414C79.1242 97.4475 78.6924 97.0193 78.7265 96.7864C78.7265 96.7328 78.7704 96.6659 78.89 96.6525C78.9337 96.6474 78.9779 96.6521 79.0198 96.6664C79.0618 96.6806 79.1006 96.7042 79.134 96.7355C79.3634 96.9443 79.4073 97.485 79.4073 97.5091C79.4082 97.5173 79.4071 97.5256 79.4041 97.5331C79.4011 97.5407 79.3963 97.5472 79.3902 97.5519C79.381 97.5563 79.3707 97.5572 79.3609 97.5546ZM78.9242 96.7516H78.8973C78.8192 96.7516 78.8144 96.7944 78.8119 96.8051C78.7924 96.9416 79.0852 97.2816 79.2999 97.4288C79.2787 97.2 79.1935 96.984 79.0559 96.8105C79.0189 96.7759 78.9727 96.7552 78.9242 96.7516Z"
        fill="#407BFF" />
    <path
        d="M82.245 35.5339C82.1742 36.7438 81.9839 39.2011 82.8306 39.881C82.8306 39.881 82.6769 41.1203 80.6785 41.4094C78.4825 41.7226 79.4853 40.3628 79.4853 40.3628C80.6492 39.8756 80.5004 38.904 80.1832 38.0153L82.245 35.5339Z"
        fill="#E4897B" />
    <path
        d="M77.6989 33.3953C77.6869 33.3953 77.6749 33.3925 77.664 33.3869C77.653 33.3814 77.6433 33.3733 77.6355 33.3632C77.5657 33.2724 77.4775 33.2008 77.3779 33.1543C77.2783 33.1078 77.1701 33.0877 77.0621 33.0955C77.0507 33.0978 77.039 33.0975 77.0277 33.0946C77.0164 33.0918 77.0057 33.0865 76.9963 33.0789C76.987 33.0714 76.9791 33.0619 76.9732 33.0509C76.9673 33.04 76.9635 33.0278 76.9621 33.0152C76.9593 32.99 76.9657 32.9647 76.9798 32.9446C76.994 32.9246 77.0148 32.9115 77.0377 32.9081C77.1755 32.8953 77.314 32.9194 77.4415 32.9781C77.5689 33.0368 77.6816 33.1285 77.7697 33.2454C77.7803 33.2594 77.787 33.2763 77.7892 33.2943C77.7914 33.3123 77.7889 33.3306 77.782 33.3471C77.7751 33.3636 77.7641 33.3776 77.7503 33.3876C77.7365 33.3975 77.7204 33.403 77.7038 33.4033L77.6989 33.3953Z"
        fill="#263238" />
    <path
        d="M77.3186 34.5811C77.2321 34.965 77.0983 35.3342 76.9209 35.6785C77.0023 35.7266 77.0925 35.7544 77.1848 35.76C77.2772 35.7655 77.3695 35.7487 77.4553 35.7106L77.3186 34.5811Z"
        fill="#DE5753" />
    <path
        d="M77.4163 34.2866C77.4358 34.4472 77.3748 34.5864 77.2797 34.6025C77.1845 34.6186 77.0894 34.4954 77.0723 34.3348C77.0552 34.1742 77.1138 34.035 77.2089 34.0216C77.3041 34.0082 77.3992 34.1153 77.4163 34.2866Z"
        fill="#263238" />
    <path d="M77.2527 34.0242L76.8892 33.9626C76.8892 33.9626 77.1039 34.2384 77.2527 34.0242Z"
        fill="#263238" />
    <path d="M81.3714 97.5117H79.5414L79.4194 92.8676H81.2494L81.3714 97.5117Z" fill="#E4897B" />
    <path d="M89.6798 97.5117H87.8498L87.2617 92.8676H89.0917L89.6798 97.5117Z" fill="#E4897B" />
    <path
        d="M87.7375 97.2869H89.7919C89.827 97.2865 89.8609 97.3002 89.8874 97.3253C89.9139 97.3504 89.9312 97.3853 89.9359 97.4234L90.1799 99.2088C90.1844 99.2538 90.1801 99.2993 90.1674 99.3424C90.1547 99.3855 90.1339 99.4252 90.1062 99.4588C90.0786 99.4924 90.0448 99.5192 90.007 99.5375C89.9692 99.5558 89.9284 99.5651 89.8871 99.5648C89.1722 99.5514 88.8257 99.5059 87.9229 99.5059C87.3666 99.5059 86.5541 99.5675 85.7879 99.5675C85.0217 99.5675 84.9803 98.735 85.2999 98.6601C86.7322 98.3228 86.9591 97.857 87.4398 97.41C87.5237 97.3336 87.6285 97.2903 87.7375 97.2869Z"
        fill="#263238" />
    <path
        d="M79.4804 97.2869H81.5325C81.5678 97.2864 81.602 97.3 81.6289 97.3251C81.6558 97.3502 81.6736 97.3851 81.6789 97.4234L81.9229 99.2088C81.9273 99.2538 81.9231 99.2993 81.9104 99.3424C81.8977 99.3855 81.8768 99.4252 81.8492 99.4588C81.8215 99.4924 81.7877 99.5192 81.75 99.5375C81.7122 99.5558 81.6713 99.5651 81.6301 99.5648C80.9151 99.5514 80.5687 99.5059 79.6659 99.5059C79.1096 99.5059 77.9579 99.5675 77.1917 99.5675C76.4255 99.5675 76.3841 98.735 76.7037 98.6601C78.136 98.3228 78.6996 97.857 79.1827 97.41C79.2667 97.3336 79.3715 97.2903 79.4804 97.2869Z"
        fill="#263238" />
    <path d="M79.4194 92.8676L79.4829 95.2633H81.3129L81.2494 92.8676H79.4194Z" fill="#CE6F64" />
    <path d="M89.0917 92.8676H87.2617L87.5667 95.2633H89.3943L89.0917 92.8676Z" fill="#CE6F64" />
    <path
        d="M82.2691 33.0285C82.3935 35.0146 82.4838 35.8525 81.6981 36.9955C80.5147 38.7113 78.2651 38.4463 77.6014 36.5404C77.0036 34.8246 76.9011 31.8668 78.5652 30.8282C78.9313 30.598 79.3449 30.4743 79.7668 30.4687C80.1887 30.4631 80.6049 30.5759 80.9759 30.7963C81.3469 31.0167 81.6605 31.3375 81.8868 31.7281C82.1131 32.1188 82.2447 32.5664 82.2691 33.0285Z"
        fill="#E4897B" />
    <path
        d="M83.3234 34.8727C84.3384 35.4937 85.0924 33.9626 85.0924 33.9626C85.0924 33.9626 83.2721 34.1794 83.4356 32.9909C83.6503 31.4143 82.6206 29.4978 80.0391 29.744C79.8952 29.7574 79.7585 29.7761 79.6243 29.8002C79.3541 29.6597 79.0485 29.6234 78.757 29.6973C78.4656 29.7711 78.2055 29.9508 78.0188 30.2071C77.2868 30.274 76.2986 31.2323 76.9696 32.4984C77.0167 32.3529 77.0897 32.2192 77.1843 32.1049C77.2404 32.8464 77.8309 34.0242 78.5678 34.1018C78.7264 35.1163 78.1115 36.2914 78.3238 37.3514C78.6386 38.8798 80.9883 39.2251 80.9883 39.2251C80.9073 39.0343 80.8771 38.8221 80.9013 38.6133C80.9254 38.4044 81.003 38.2073 81.1249 38.0447C82.7207 38.8477 83.7723 38.0634 83.7723 38.0634C82.6841 37.6191 83.0135 36.8267 83.0135 36.8267C83.3892 37.0098 83.815 37.0259 84.2014 36.8716C84.5877 36.7174 84.9044 36.4048 85.085 35.9996C84.7236 36.0185 84.3649 35.9221 84.0522 35.7221C83.7396 35.5221 83.4865 35.2271 83.3234 34.8727Z"
        fill="#263238" />
    <path
        d="M79.2051 34.4069C79.2094 34.5975 79.1793 34.7872 79.1164 34.965C79.0536 35.1428 78.9594 35.3052 78.8391 35.4428C78.517 35.8096 78.1217 35.5526 78.0144 35.0842C77.9192 34.6612 77.9729 33.9626 78.3926 33.7699C78.4849 33.73 78.5849 33.7162 78.6834 33.7295C78.7819 33.7429 78.8758 33.7831 78.9565 33.8464C79.0373 33.9097 79.1023 33.9941 79.1457 34.092C79.1891 34.1899 79.2095 34.2982 79.2051 34.4069Z"
        fill="#E4897B" />
    <path
        d="M80.7251 52.9115C80.7251 52.9115 81.1887 66.124 82.2916 73.8813C83.1797 80.1503 87.1252 94.7976 87.1252 94.7976H89.6189C89.6189 94.7976 87.562 80.6509 87.1106 74.4541C85.9687 58.771 88.9333 55.4036 86.1346 52.1379L80.7251 52.9115Z"
        fill="#263238" />
    <path
        d="M82.8085 57.0899C82.8085 57.0899 81.6813 56.8758 81.0225 59.2313C81.2665 63.6935 81.6837 69.6145 82.2913 73.8813C82.4255 74.8315 82.6304 75.9772 82.8817 77.2326C82.4059 69.6948 82.8085 57.0899 82.8085 57.0899Z"
        fill="#161F33" />
    <path
        d="M78.7803 53.1899C78.7803 53.1899 76.7258 67.8077 76.8454 73.9241C76.9698 80.2868 79.095 94.8029 79.095 94.8029H81.5668C81.5668 94.8029 81.1764 80.6642 81.3935 74.4166C81.6375 67.6042 84.1727 52.4216 84.1727 52.4216L78.7803 53.1899Z"
        fill="#263238" />
    <path d="M89.9799 94.926H86.6639L86.4053 93.7054L89.9555 93.7322L89.9799 94.926Z" fill="#407BFF" />
    <path opacity="0.2" d="M89.9799 94.926H86.6639L86.4053 93.7054L89.9555 93.7322L89.9799 94.926Z"
        fill="black" />
    <path
        d="M86.0097 39.8838C86.9638 39.9855 88.4131 42.9594 88.4131 42.9594L86.0048 44.9857C86.0048 44.9857 84.0114 43.0664 84.248 41.9877C84.4945 40.8661 85.0947 39.7901 86.0097 39.8838Z"
        fill="#049276" />
    <path
        d="M85.2905 41.1631C85.0473 41.0912 84.7955 41.0605 84.5439 41.0721C84.4158 41.3647 84.3169 41.6717 84.2487 41.9875C84.0047 43.0582 86.0055 44.9855 86.0055 44.9855L86.1836 44.8356L85.2905 41.1631Z"
        fill="#407BFF" />
    <path opacity="0.3"
        d="M85.2905 41.1631C85.0473 41.0912 84.7955 41.0605 84.5439 41.0721C84.4158 41.3647 84.3169 41.6717 84.2487 41.9875C84.0047 43.0582 86.0055 44.9855 86.0055 44.9855L86.1836 44.8356L85.2905 41.1631Z"
        fill="black" />
    <path
        d="M77.9628 44.0193C77.2674 45.9493 76.5354 47.9114 75.9523 49.8467C75.9132 49.9698 75.8815 50.0876 75.8473 50.208L75.7644 50.5051C75.7417 50.5926 75.7417 50.6853 75.7644 50.7728C75.9021 51.1075 76.1206 51.3944 76.3963 51.6026C77.1259 52.1768 77.9207 52.6439 78.7607 52.9919L78.5411 53.9769C77.5078 53.8274 76.5085 53.4699 75.5936 52.9223C75.0305 52.5923 74.5719 52.0827 74.2784 51.4607C74.1099 51.0633 74.0513 50.6202 74.1101 50.1866C74.1156 50.1335 74.1238 50.0808 74.1345 50.0287L74.1589 49.9163L74.2003 49.7128C74.2296 49.5763 74.2589 49.4451 74.2906 49.3113C74.5346 48.2406 74.8469 47.2234 75.1763 46.2143C75.5057 45.2051 75.8498 44.2094 76.2377 43.2163L77.9628 44.0193Z"
        fill="#E4897B" />
    <path
        d="M76.4813 41.3103C76.4813 41.3103 75.6566 41.7681 78.7798 53.1898L86.1437 52.1352C85.6264 48.8642 85.3824 46.8379 86.0095 39.8836C84.9535 39.8007 83.8935 39.8007 82.8375 39.8836C81.7133 39.9553 80.5953 40.1164 79.4923 40.3654C78.0795 40.7108 76.4813 41.3103 76.4813 41.3103Z"
        fill="#049276" />
    <path
        d="M86.198 51.6454L86.6201 52.3172C86.6518 52.3708 86.5981 52.435 86.5152 52.4484L78.7926 53.5566C78.7267 53.5566 78.6657 53.5378 78.6559 53.4923L78.5047 52.7776C78.4925 52.7295 78.5461 52.6786 78.6193 52.6679L86.076 51.5972C86.0984 51.5933 86.1213 51.5956 86.1426 51.604C86.164 51.6125 86.183 51.6267 86.198 51.6454Z"
        fill="#407BFF" />
    <path opacity="0.2"
        d="M86.198 51.6454L86.6201 52.3172C86.6518 52.3708 86.5981 52.435 86.5152 52.4484L78.7926 53.5566C78.7267 53.5566 78.6657 53.5378 78.6559 53.4923L78.5047 52.7776C78.4925 52.7295 78.5461 52.6786 78.6193 52.6679L86.076 51.5972C86.0984 51.5933 86.1213 51.5956 86.1426 51.604C86.164 51.6125 86.183 51.6267 86.198 51.6454Z"
        fill="black" />
    <path
        d="M85.3047 52.7027L85.5048 52.6732C85.5439 52.6732 85.5707 52.6411 85.5658 52.6144L85.3609 51.6882C85.3531 51.6724 85.3406 51.66 85.3255 51.6532C85.3104 51.6464 85.2936 51.6455 85.2779 51.6507L85.0778 51.6775C85.0363 51.6775 85.0095 51.7096 85.0168 51.739L85.2218 52.6625C85.2267 52.692 85.2657 52.708 85.3047 52.7027Z"
        fill="#263238" />
    <path
        d="M80.4638 53.388L80.6639 53.3585C80.703 53.3585 80.7323 53.3264 80.7249 53.2996L80.52 52.3735C80.512 52.3578 80.4995 52.3455 80.4846 52.3382C80.4696 52.331 80.4529 52.3293 80.437 52.3333L80.2369 52.3628C80.1979 52.3628 80.1686 52.3949 80.1759 52.4216L80.3809 53.3478C80.3858 53.388 80.4248 53.404 80.4638 53.388Z"
        fill="#263238" />
    <path
        d="M76.8257 45.1864C77.0282 46.2196 77.3137 47.5285 77.7309 49.1854L77.8212 44.9856L76.8257 45.1864Z"
        fill="#407BFF" />
    <path opacity="0.3"
        d="M76.8257 45.1864C77.0282 46.2196 77.3137 47.5285 77.7309 49.1854L77.8212 44.9856L76.8257 45.1864Z"
        fill="black" />
    <path
        d="M76.4814 41.3103C75.5664 41.7145 74.7734 45.1488 74.7734 45.1488L77.921 46.8298C77.921 46.8298 79.4412 42.6299 78.7604 41.8108C78.0796 40.9918 77.5355 40.8472 76.4814 41.3103Z"
        fill="#049276" />
    <path d="M81.9891 94.926H78.6732L78.4146 93.7054L82.1063 93.7322L81.9891 94.926Z" fill="#407BFF" />
    <path opacity="0.2" d="M81.9891 94.926H78.6732L78.4146 93.7054L82.1063 93.7322L81.9891 94.926Z"
        fill="black" />
    <path
        d="M78.812 52.6599L78.546 52.5394C78.4806 52.5103 78.4094 52.5006 78.3395 52.5114C78.2696 52.5222 78.2035 52.553 78.148 52.6009C78.0925 52.6487 78.0496 52.7118 78.0235 52.7838C77.9974 52.8557 77.9891 52.9339 77.9995 53.0105L78.1922 54.4051C78.2015 54.4749 78.2247 54.5416 78.2603 54.6003C78.2959 54.6591 78.343 54.7084 78.3981 54.7448C78.4532 54.7811 78.5149 54.8036 78.5789 54.8106C78.6429 54.8176 78.7075 54.8089 78.7681 54.7852C78.8648 54.7467 78.9554 54.6916 79.0365 54.6219C79.1247 54.5417 79.1945 54.4398 79.2403 54.3245C79.2861 54.2091 79.3065 54.0837 79.3 53.9581L79.2731 53.3799C79.2685 53.2237 79.2224 53.0723 79.1405 52.9444C79.0585 52.8165 78.9444 52.7176 78.812 52.6599Z"
        fill="#E4897B" />
</svg>