<svg width="268" height="96" viewBox="0 0 268 96" fill="none" xmlns="http://www.w3.org/2000/svg">
    <path
        d="M30.6344 5.33203L20.5886 29.7839C20.4746 30.1258 20.2751 30.3966 19.9901 30.5961C19.7051 30.7956 19.4059 30.8953 19.0924 30.8953C18.551 30.8953 18.152 30.7528 17.8955 30.4678C17.639 30.1828 17.5108 29.8409 17.5108 29.4419C17.4823 29.2424 17.5108 29.0286 17.5962 28.8007L28.668 1.86944C28.8105 1.47046 29.0242 1.18547 29.3092 1.01448C29.6227 0.814992 29.9647 0.729496 30.3351 0.757996C30.7056 0.757996 31.0334 0.857741 31.3183 1.05723C31.6318 1.25672 31.8456 1.52746 31.9596 1.86944L42.9885 28.5442C43.074 28.7722 43.1168 29.0002 43.1168 29.2281C43.1168 29.7411 42.9458 30.1543 42.6038 30.4678C42.2618 30.7528 41.8771 30.8953 41.4496 30.8953C41.1076 30.8953 40.7941 30.7956 40.5092 30.5961C40.2242 30.3966 40.0104 30.1116 39.8679 29.7411L29.6939 5.28928L30.6344 5.33203ZM22.726 22.8159L24.1794 19.4816H36.8756L37.5168 22.8159H22.726ZM49.5954 0.886238C50.0799 0.886238 50.4931 1.05723 50.8351 1.39921C51.1771 1.7127 51.3481 2.12593 51.3481 2.63891V29.0571C51.3481 29.5416 51.1629 29.9549 50.7924 30.2968C50.4504 30.6388 50.0372 30.8098 49.5527 30.8098C49.0112 30.8098 48.5837 30.6388 48.2702 30.2968C47.9568 29.9549 47.8 29.5416 47.8 29.0571V2.63891C47.8 2.12593 47.971 1.7127 48.313 1.39921C48.655 1.05723 49.0825 0.886238 49.5954 0.886238ZM69.3022 0.886238C69.8152 0.886238 70.2285 1.05723 70.5419 1.39921C70.8839 1.7127 71.0549 2.12593 71.0549 2.63891V29.0571C71.0549 29.5416 70.8839 29.9549 70.5419 30.2968C70.2 30.6388 69.7725 30.8098 69.2595 30.8098C68.775 30.8098 68.3618 30.6388 68.0198 30.2968C67.6778 29.9549 67.5068 29.5416 67.5068 29.0571V2.63891C67.5068 2.12593 67.6778 1.7127 68.0198 1.39921C68.3903 1.05723 68.8178 0.886238 69.3022 0.886238ZM49.4244 13.9244H69.345L69.3022 17.2587H49.2962L49.4244 13.9244ZM105.541 15.848C105.541 18.0424 105.185 20.0801 104.472 21.961C103.76 23.8134 102.762 25.4378 101.48 26.8343C100.197 28.2307 98.6727 29.3136 96.9057 30.0831C95.1388 30.8526 93.2152 31.2373 91.1348 31.2373C89.0259 31.2373 87.088 30.8526 85.321 30.0831C83.5826 29.3136 82.0722 28.2307 80.7898 26.8343C79.5073 25.4378 78.5099 23.8134 77.7974 21.961C77.0849 20.0801 76.7287 18.0424 76.7287 15.848C76.7287 13.6251 77.0849 11.5875 77.7974 9.73507C78.5099 7.85416 79.5073 6.22973 80.7898 4.8618C82.0722 3.46537 83.5826 2.38242 85.321 1.61295C87.088 0.843491 89.0259 0.458759 91.1348 0.458759C93.2152 0.458759 95.1388 0.843491 96.9057 1.61295C98.6727 2.38242 100.197 3.46537 101.48 4.8618C102.762 6.22973 103.76 7.85416 104.472 9.73507C105.185 11.5875 105.541 13.6251 105.541 15.848ZM101.865 15.848C101.865 13.5111 101.394 11.445 100.454 9.64957C99.5419 7.85416 98.2879 6.44347 96.692 5.41752C95.0961 4.39157 93.2437 3.8786 91.1348 3.8786C89.0259 3.8786 87.1592 4.39157 85.5348 5.41752C83.9389 6.44347 82.6849 7.85416 81.773 9.64957C80.861 11.445 80.405 13.5111 80.405 15.848C80.405 18.1564 80.861 20.2226 81.773 22.0465C82.6849 23.8419 83.9389 25.2526 85.5348 26.2785C87.1592 27.3045 89.0259 27.8175 91.1348 27.8175C93.2437 27.8175 95.0961 27.3045 96.692 26.2785C98.2879 25.2526 99.5419 23.8419 100.454 22.0465C101.394 20.2226 101.865 18.1564 101.865 15.848ZM113.179 30.8098C112.637 30.8098 112.167 30.6388 111.768 30.2968C111.398 29.9549 111.212 29.5416 111.212 29.0571V2.59616C111.212 2.11168 111.369 1.7127 111.683 1.39921C112.024 1.05723 112.438 0.886238 112.922 0.886238H124.721C126.317 0.886238 127.756 1.25672 129.038 1.99769C130.321 2.71015 131.332 3.7076 132.073 4.99004C132.843 6.24398 133.227 7.69742 133.227 9.35034C133.227 10.5473 132.999 11.673 132.544 12.7274C132.088 13.7534 131.461 14.6511 130.663 15.4205C129.865 16.1615 128.953 16.7315 127.927 17.1305L126.986 16.4465C127.955 16.6745 128.824 17.0877 129.594 17.6862C130.363 18.2562 130.99 18.9971 131.475 19.9091C131.959 20.7925 132.216 21.8327 132.244 23.0297C132.301 24.0841 132.373 24.9248 132.458 25.5518C132.544 26.1788 132.672 26.6775 132.843 27.048C133.014 27.39 133.256 27.6607 133.569 27.8602C133.968 28.1167 134.225 28.4587 134.339 28.8862C134.481 29.3136 134.41 29.7269 134.125 30.1258C133.954 30.3823 133.712 30.5676 133.398 30.6816C133.085 30.7671 132.772 30.7956 132.458 30.7671C132.145 30.7386 131.874 30.6531 131.646 30.5106C131.19 30.2541 130.748 29.8836 130.321 29.3991C129.893 28.8862 129.537 28.1594 129.252 27.219C128.967 26.2785 128.824 24.9961 128.824 23.3717C128.824 22.4597 128.682 21.7045 128.397 21.106C128.112 20.5076 127.727 20.0231 127.243 19.6526C126.758 19.2821 126.217 19.0256 125.618 18.8831C125.02 18.7406 124.407 18.6694 123.78 18.6694H114.247L114.76 17.8999V29.0571C114.76 29.5416 114.618 29.9549 114.333 30.2968C114.048 30.6388 113.663 30.8098 113.179 30.8098ZM114.247 15.5915H124.721C125.547 15.5345 126.317 15.2496 127.029 14.7366C127.77 14.2236 128.368 13.5111 128.824 12.5992C129.309 11.6587 129.551 10.6043 129.551 9.43583C129.551 7.9254 129.067 6.67146 128.098 5.67401C127.157 4.67656 125.96 4.17783 124.507 4.17783H114.418L114.76 3.36562V16.361L114.247 15.5915ZM142.067 30.8098C141.525 30.8098 141.055 30.6388 140.656 30.2968C140.286 29.9549 140.101 29.5416 140.101 29.0571V2.59616C140.101 2.11168 140.257 1.7127 140.571 1.39921C140.913 1.05723 141.326 0.886238 141.81 0.886238H153.609C155.205 0.886238 156.644 1.25672 157.926 1.99769C159.209 2.71015 160.221 3.7076 160.962 4.99004C161.731 6.24398 162.116 7.69742 162.116 9.35034C162.116 10.5473 161.888 11.673 161.432 12.7274C160.976 13.7534 160.349 14.6511 159.551 15.4205C158.753 16.1615 157.841 16.7315 156.815 17.1305L155.875 16.4465C156.844 16.6745 157.713 17.0877 158.482 17.6862C159.252 18.2562 159.879 18.9971 160.363 19.9091C160.848 20.7925 161.104 21.8327 161.133 23.0297C161.19 24.0841 161.261 24.9248 161.346 25.5518C161.432 26.1788 161.56 26.6775 161.731 27.048C161.902 27.39 162.144 27.6607 162.458 27.8602C162.857 28.1167 163.113 28.4587 163.227 28.8862C163.37 29.3136 163.298 29.7269 163.013 30.1258C162.842 30.3823 162.6 30.5676 162.287 30.6816C161.973 30.7671 161.66 30.7956 161.346 30.7671C161.033 30.7386 160.762 30.6531 160.534 30.5106C160.078 30.2541 159.636 29.8836 159.209 29.3991C158.781 28.8862 158.425 28.1594 158.14 27.219C157.855 26.2785 157.713 24.9961 157.713 23.3717C157.713 22.4597 157.57 21.7045 157.285 21.106C157 20.5076 156.616 20.0231 156.131 19.6526C155.647 19.2821 155.105 19.0256 154.507 18.8831C153.908 18.7406 153.295 18.6694 152.668 18.6694H143.136L143.649 17.8999V29.0571C143.649 29.5416 143.506 29.9549 143.221 30.2968C142.936 30.6388 142.551 30.8098 142.067 30.8098ZM143.136 15.5915H153.609C154.435 15.5345 155.205 15.2496 155.917 14.7366C156.658 14.2236 157.257 13.5111 157.713 12.5992C158.197 11.6587 158.439 10.6043 158.439 9.43583C158.439 7.9254 157.955 6.67146 156.986 5.67401C156.046 4.67656 154.849 4.17783 153.395 4.17783H143.307L143.649 3.36562V16.361L143.136 15.5915ZM195.545 15.848C195.545 18.0424 195.189 20.0801 194.477 21.961C193.764 23.8134 192.767 25.4378 191.484 26.8343C190.202 28.2307 188.677 29.3136 186.91 30.0831C185.143 30.8526 183.22 31.2373 181.139 31.2373C179.03 31.2373 177.092 30.8526 175.326 30.0831C173.587 29.3136 172.077 28.2307 170.794 26.8343C169.512 25.4378 168.514 23.8134 167.802 21.961C167.089 20.0801 166.733 18.0424 166.733 15.848C166.733 13.6251 167.089 11.5875 167.802 9.73507C168.514 7.85416 169.512 6.22973 170.794 4.8618C172.077 3.46537 173.587 2.38242 175.326 1.61295C177.092 0.843491 179.03 0.458759 181.139 0.458759C183.22 0.458759 185.143 0.843491 186.91 1.61295C188.677 2.38242 190.202 3.46537 191.484 4.8618C192.767 6.22973 193.764 7.85416 194.477 9.73507C195.189 11.5875 195.545 13.6251 195.545 15.848ZM191.869 15.848C191.869 13.5111 191.399 11.445 190.458 9.64957C189.546 7.85416 188.292 6.44347 186.696 5.41752C185.101 4.39157 183.248 3.8786 181.139 3.8786C179.03 3.8786 177.164 4.39157 175.539 5.41752C173.943 6.44347 172.689 7.85416 171.777 9.64957C170.866 11.445 170.41 13.5111 170.41 15.848C170.41 18.1564 170.866 20.2226 171.777 22.0465C172.689 23.8419 173.943 25.2526 175.539 26.2785C177.164 27.3045 179.03 27.8175 181.139 27.8175C183.248 27.8175 185.101 27.3045 186.696 26.2785C188.292 25.2526 189.546 23.8419 190.458 22.0465C191.399 20.2226 191.869 18.1564 191.869 15.848ZM220.94 31.2373C218.917 31.2373 217.121 30.7813 215.554 29.8694C213.987 28.9289 212.747 27.732 211.835 26.2785C210.952 24.7966 210.51 23.2434 210.51 21.619C210.51 20.3081 210.752 19.0684 211.237 17.8999C211.749 16.7315 212.505 15.6913 213.502 14.7793C214.528 13.8389 215.825 13.0837 217.392 12.5137L219.743 14.9076C217.606 15.3636 216.11 16.1615 215.255 17.3015C214.428 18.4129 214.015 19.6811 214.015 21.106C214.015 22.246 214.286 23.3432 214.827 24.3976C215.369 25.4521 216.195 26.307 217.307 26.9625C218.447 27.618 219.857 27.9457 221.539 27.9457C223.22 27.9457 224.688 27.6465 225.942 27.048C227.196 26.4495 228.25 25.6373 229.105 24.6114C229.96 23.5854 230.658 22.4455 231.2 21.1915C231.741 19.9376 232.112 18.6694 232.311 17.387C232.368 17.045 232.511 16.7742 232.739 16.5747C232.967 16.3753 233.323 16.2755 233.807 16.2755C234.292 16.2755 234.677 16.475 234.962 16.874C235.275 17.273 235.389 17.7432 235.304 18.2847C235.076 19.8806 234.605 21.448 233.893 22.9869C233.18 24.5259 232.24 25.9223 231.072 27.1762C229.903 28.4017 228.478 29.3849 226.797 30.1258C225.115 30.8668 223.163 31.2373 220.94 31.2373ZM236.159 30.7671C235.931 30.7671 235.731 30.7386 235.56 30.6816C235.418 30.5961 235.289 30.5248 235.175 30.4678C233.323 28.9574 231.57 27.5325 229.917 26.193C228.293 24.8536 226.711 23.4714 225.172 22.0465C223.633 20.5931 222.08 18.9686 220.513 17.1732C219.515 16.0333 218.603 14.9503 217.777 13.9244C216.979 12.8984 216.338 11.8867 215.853 10.8893C215.369 9.89181 215.127 8.86586 215.127 7.81141C215.127 6.44347 215.469 5.20378 216.153 4.09234C216.836 2.98089 217.805 2.09743 219.059 1.44196C220.342 0.786494 221.852 0.458759 223.591 0.458759C225.614 0.458759 227.338 0.829242 228.763 1.57021C230.188 2.28267 231.171 3.18038 231.713 4.26333C231.741 4.29183 231.784 4.42007 231.841 4.64806C231.927 4.84755 231.969 5.07554 231.969 5.33203C231.969 5.67401 231.827 6.00174 231.542 6.31523C231.285 6.60022 230.915 6.74271 230.43 6.74271C230.145 6.74271 229.903 6.68571 229.704 6.57172C229.504 6.42923 229.347 6.28673 229.233 6.14424C228.663 5.31778 227.937 4.66231 227.053 4.17783C226.17 3.69335 225.016 3.45112 223.591 3.45112C221.995 3.45112 220.784 3.8501 219.957 4.64806C219.131 5.44602 218.717 6.47197 218.717 7.72591C218.717 8.58087 218.974 9.49283 219.487 10.4618C220.028 11.4022 220.684 12.3427 221.453 13.2831C222.251 14.1951 223.021 15.0643 223.762 15.8908C224.816 17.0592 225.942 18.2277 227.139 19.3961C228.336 20.5361 229.533 21.6333 230.73 22.6877C231.927 23.7137 233.052 24.6684 234.107 25.5518C235.19 26.4068 236.116 27.1335 236.885 27.732C237.142 27.96 237.327 28.1879 237.441 28.4159C237.555 28.6439 237.612 28.9147 237.612 29.2281C237.612 29.5131 237.484 29.8409 237.227 30.2113C236.999 30.5818 236.643 30.7671 236.159 30.7671ZM4.5299 93.0571C4.5299 93.5416 4.34466 93.9549 3.97418 94.2968C3.6322 94.6388 3.21897 94.8098 2.73449 94.8098C2.19301 94.8098 1.76553 94.6388 1.45205 94.2968C1.13856 93.9549 0.981822 93.5416 0.981822 93.0571V66.6389C0.981822 66.1259 1.15281 65.7127 1.4948 65.3992C1.83678 65.0572 2.26426 64.8862 2.77724 64.8862C3.26171 64.8862 3.67494 65.0572 4.01693 65.3992C4.35891 65.7127 4.5299 66.1259 4.5299 66.6389V93.0571ZM34.188 64.8862C34.6724 64.8862 35.0572 65.043 35.3422 65.3565C35.6272 65.6415 35.7696 66.0119 35.7696 66.4679V93.0144C35.7696 93.5559 35.5987 93.9976 35.2567 94.3396C34.9147 94.6531 34.5015 94.8098 34.017 94.8098C33.7605 94.8098 33.504 94.7671 33.2475 94.6816C32.991 94.5676 32.7915 94.4251 32.649 94.2541L14.3529 70.0587L15.2079 69.5458V93.2281C15.2079 93.6841 15.0511 94.0688 14.7376 94.3823C14.4527 94.6673 14.0679 94.8098 13.5835 94.8098C13.1275 94.8098 12.757 94.6673 12.472 94.3823C12.187 94.0688 12.0445 93.6841 12.0445 93.2281V66.5962C12.0445 66.0832 12.2013 65.67 12.5148 65.3565C12.8567 65.043 13.2557 64.8862 13.7117 64.8862C13.9682 64.8862 14.2247 64.9432 14.4812 65.0572C14.7661 65.1427 14.9799 65.2852 15.1224 65.4847L33.162 89.3381L32.6063 90.022V66.4679C32.6063 66.0119 32.7488 65.6415 33.0338 65.3565C33.3473 65.043 33.732 64.8862 34.188 64.8862ZM64.9865 64.8435C65.471 64.8435 65.8843 65.0002 66.2262 65.3137C66.5682 65.5987 66.7392 65.9834 66.7392 66.4679C66.7392 66.6959 66.6822 66.9524 66.5682 67.2374L55.411 93.6984C55.24 94.0688 54.9978 94.3538 54.6843 94.5533C54.3993 94.7243 54.0858 94.8098 53.7438 94.8098C53.4303 94.7813 53.1311 94.6816 52.8461 94.5106C52.5611 94.3111 52.3474 94.0404 52.2049 93.6984L41.0904 67.2801C41.0334 67.1661 40.9907 67.0521 40.9622 66.9381C40.9337 66.7956 40.9194 66.6532 40.9194 66.5107C40.9194 65.9692 41.1047 65.556 41.4752 65.271C41.8741 64.9575 42.2589 64.8007 42.6294 64.8007C43.3988 64.8007 43.9545 65.1997 44.2965 65.9977L54.5133 90.364H53.5301L63.4049 65.9122C63.7469 65.1997 64.2741 64.8435 64.9865 64.8435ZM73.5765 64.8862H88.7948C89.2793 64.8862 89.6925 65.043 90.0345 65.3565C90.3765 65.67 90.5475 66.0689 90.5475 66.5534C90.5475 67.0379 90.3765 67.4369 90.0345 67.7504C89.6925 68.0353 89.2793 68.1778 88.7948 68.1778H75.03L75.4147 67.4511V78.2664L74.9872 77.7961H86.8712C87.3556 77.7961 87.7689 77.9529 88.1109 78.2664C88.4528 78.5798 88.6238 78.9788 88.6238 79.4633C88.6238 79.9478 88.4528 80.3468 88.1109 80.6602C87.7689 80.9452 87.3556 81.0877 86.8712 81.0877H75.1155L75.4147 80.703V91.7747L75.1582 91.4755H88.7948C89.2793 91.4755 89.6925 91.6465 90.0345 91.9884C90.3765 92.3304 90.5475 92.7152 90.5475 93.1426C90.5475 93.6271 90.3765 94.0261 90.0345 94.3396C89.6925 94.6531 89.2793 94.8098 88.7948 94.8098H73.5765C73.0921 94.8098 72.6788 94.6388 72.3369 94.2968C72.0234 93.9549 71.8666 93.5416 71.8666 93.0571V66.5962C71.8666 66.1117 72.0234 65.7127 72.3369 65.3992C72.6788 65.0572 73.0921 64.8862 73.5765 64.8862ZM98.2127 94.8098C97.6713 94.8098 97.201 94.6388 96.802 94.2968C96.4316 93.9549 96.2463 93.5416 96.2463 93.0571V66.5962C96.2463 66.1117 96.4031 65.7127 96.7166 65.3992C97.0585 65.0572 97.4718 64.8862 97.9562 64.8862H109.755C111.351 64.8862 112.79 65.2567 114.072 65.9977C115.355 66.7102 116.366 67.7076 117.107 68.99C117.877 70.244 118.262 71.6974 118.262 73.3503C118.262 74.5473 118.034 75.673 117.578 76.7274C117.122 77.7534 116.495 78.6511 115.697 79.4205C114.899 80.1615 113.987 80.7315 112.961 81.1305L112.02 80.4465C112.989 80.6745 113.858 81.0877 114.628 81.6862C115.397 82.2562 116.024 82.9971 116.509 83.9091C116.993 84.7925 117.25 85.8327 117.278 87.0297C117.335 88.0841 117.407 88.9248 117.492 89.5518C117.578 90.1788 117.706 90.6775 117.877 91.048C118.048 91.39 118.29 91.6607 118.604 91.8602C119.002 92.1167 119.259 92.4587 119.373 92.8862C119.515 93.3136 119.444 93.7269 119.159 94.1258C118.988 94.3823 118.746 94.5676 118.433 94.6816C118.119 94.7671 117.806 94.7956 117.492 94.7671C117.179 94.7386 116.908 94.6531 116.68 94.5106C116.224 94.2541 115.782 93.8836 115.355 93.3991C114.927 92.8862 114.571 92.1594 114.286 91.219C114.001 90.2785 113.858 88.9961 113.858 87.3717C113.858 86.4597 113.716 85.7045 113.431 85.106C113.146 84.5076 112.761 84.0231 112.277 83.6526C111.792 83.2821 111.251 83.0256 110.652 82.8831C110.054 82.7406 109.441 82.6694 108.814 82.6694H99.2814L99.7944 81.8999V93.0571C99.7944 93.5416 99.6519 93.9549 99.3669 94.2968C99.0819 94.6388 98.6972 94.8098 98.2127 94.8098ZM99.2814 79.5915H109.755C110.581 79.5345 111.351 79.2496 112.063 78.7366C112.804 78.2236 113.403 77.5111 113.858 76.5992C114.343 75.6587 114.585 74.6043 114.585 73.4358C114.585 71.9254 114.101 70.6715 113.132 69.674C112.191 68.6766 110.994 68.1778 109.541 68.1778H99.4524L99.7944 67.3656V80.361L99.2814 79.5915ZM133.855 95.2373C131.746 95.2373 129.894 94.9238 128.298 94.2968C126.702 93.6699 125.163 92.6724 123.681 91.3045C123.482 91.105 123.311 90.8913 123.168 90.6633C123.054 90.4068 122.997 90.136 122.997 89.8511C122.997 89.3951 123.154 88.9961 123.467 88.6541C123.809 88.2836 124.223 88.0984 124.707 88.0984C125.106 88.0984 125.462 88.2551 125.776 88.5686C126.887 89.6516 128.084 90.478 129.367 91.048C130.678 91.618 132.145 91.903 133.77 91.903C135.024 91.903 136.149 91.7035 137.147 91.3045C138.173 90.9055 138.985 90.3498 139.583 89.6373C140.182 88.9248 140.481 88.0984 140.481 87.1579C140.453 86.018 140.111 85.0775 139.455 84.3366C138.828 83.5956 137.945 82.9829 136.805 82.4984C135.693 81.9854 134.397 81.5579 132.915 81.216C131.604 80.9025 130.393 80.5177 129.281 80.0618C128.198 79.6058 127.258 79.0501 126.46 78.3946C125.662 77.7106 125.035 76.8984 124.579 75.958C124.151 74.989 123.938 73.8633 123.938 72.5809C123.938 70.9564 124.365 69.5315 125.22 68.3061C126.075 67.0806 127.258 66.1402 128.768 65.4847C130.279 64.8007 132.017 64.4588 133.983 64.4588C135.722 64.4588 137.361 64.7437 138.899 65.3137C140.467 65.8837 141.721 66.6674 142.661 67.6649C143.231 68.2063 143.516 68.7336 143.516 69.2465C143.516 69.674 143.331 70.073 142.961 70.4435C142.619 70.7855 142.22 70.9564 141.764 70.9564C141.45 70.9564 141.165 70.8425 140.909 70.6145C140.424 70.073 139.811 69.5885 139.07 69.161C138.329 68.7336 137.517 68.3916 136.634 68.1351C135.75 67.8786 134.867 67.7504 133.983 67.7504C132.672 67.7504 131.518 67.9498 130.521 68.3488C129.523 68.7193 128.74 69.2608 128.17 69.9732C127.628 70.6572 127.357 71.4837 127.357 72.4526C127.357 73.5356 127.671 74.4333 128.298 75.1458C128.925 75.8297 129.766 76.3997 130.82 76.8557C131.875 77.2831 133.043 77.6679 134.325 78.0099C135.722 78.3518 137.004 78.7508 138.173 79.2068C139.37 79.6343 140.396 80.1758 141.251 80.8312C142.106 81.4867 142.761 82.3274 143.217 83.3534C143.701 84.3508 143.944 85.5905 143.944 87.0724C143.944 88.6399 143.502 90.0363 142.619 91.2617C141.735 92.4872 140.524 93.4561 138.985 94.1686C137.475 94.8526 135.765 95.2088 133.855 95.2373ZM153.229 93.0571C153.229 93.5416 153.044 93.9549 152.674 94.2968C152.332 94.6388 151.918 94.8098 151.434 94.8098C150.892 94.8098 150.465 94.6388 150.152 94.2968C149.838 93.9549 149.681 93.5416 149.681 93.0571V66.6389C149.681 66.1259 149.852 65.7127 150.194 65.3992C150.536 65.0572 150.964 64.8862 151.477 64.8862C151.961 64.8862 152.374 65.0572 152.716 65.3992C153.058 65.7127 153.229 66.1259 153.229 66.6389V93.0571ZM187.718 79.848C187.718 82.0424 187.362 84.0801 186.649 85.961C185.937 87.8134 184.939 89.4378 183.657 90.8343C182.374 92.2307 180.85 93.3136 179.083 94.0831C177.316 94.8526 175.392 95.2373 173.312 95.2373C171.203 95.2373 169.265 94.8526 167.498 94.0831C165.76 93.3136 164.249 92.2307 162.967 90.8343C161.684 89.4378 160.687 87.8134 159.975 85.961C159.262 84.0801 158.906 82.0424 158.906 79.848C158.906 77.6251 159.262 75.5875 159.975 73.7351C160.687 71.8542 161.684 70.2297 162.967 68.8618C164.249 67.4654 165.76 66.3824 167.498 65.613C169.265 64.8435 171.203 64.4588 173.312 64.4588C175.392 64.4588 177.316 64.8435 179.083 65.613C180.85 66.3824 182.374 67.4654 183.657 68.8618C184.939 70.2297 185.937 71.8542 186.649 73.7351C187.362 75.5875 187.718 77.6251 187.718 79.848ZM184.042 79.848C184.042 77.5111 183.571 75.445 182.631 73.6496C181.719 71.8542 180.465 70.4435 178.869 69.4175C177.273 68.3916 175.421 67.8786 173.312 67.8786C171.203 67.8786 169.336 68.3916 167.712 69.4175C166.116 70.4435 164.862 71.8542 163.95 73.6496C163.038 75.445 162.582 77.5111 162.582 79.848C162.582 82.1564 163.038 84.2226 163.95 86.0465C164.862 87.8419 166.116 89.2526 167.712 90.2785C169.336 91.3045 171.203 91.8175 173.312 91.8175C175.421 91.8175 177.273 91.3045 178.869 90.2785C180.465 89.2526 181.719 87.8419 182.631 86.0465C183.571 84.2226 184.042 82.1564 184.042 79.848ZM215.533 64.8862C216.017 64.8862 216.402 65.043 216.687 65.3565C216.972 65.6415 217.115 66.0119 217.115 66.4679V93.0144C217.115 93.5559 216.944 93.9976 216.602 94.3396C216.26 94.6531 215.846 94.8098 215.362 94.8098C215.105 94.8098 214.849 94.7671 214.592 94.6816C214.336 94.5676 214.136 94.4251 213.994 94.2541L195.698 70.0587L196.553 69.5458V93.2281C196.553 93.6841 196.396 94.0688 196.083 94.3823C195.798 94.6673 195.413 94.8098 194.928 94.8098C194.472 94.8098 194.102 94.6673 193.817 94.3823C193.532 94.0688 193.389 93.6841 193.389 93.2281V66.5962C193.389 66.0832 193.546 65.67 193.86 65.3565C194.202 65.043 194.601 64.8862 195.057 64.8862C195.313 64.8862 195.57 64.9432 195.826 65.0572C196.111 65.1427 196.325 65.2852 196.467 65.4847L214.507 89.3381L213.951 90.022V66.4679C213.951 66.0119 214.094 65.6415 214.379 65.3565C214.692 65.043 215.077 64.8862 215.533 64.8862ZM226.325 64.8862H241.544C242.028 64.8862 242.441 65.043 242.783 65.3565C243.125 65.67 243.296 66.0689 243.296 66.5534C243.296 67.0379 243.125 67.4369 242.783 67.7504C242.441 68.0353 242.028 68.1778 241.544 68.1778H227.779L228.164 67.4511V78.2664L227.736 77.7961H239.62C240.104 77.7961 240.518 77.9529 240.86 78.2664C241.202 78.5798 241.373 78.9788 241.373 79.4633C241.373 79.9478 241.202 80.3468 240.86 80.6602C240.518 80.9452 240.104 81.0877 239.62 81.0877H227.864L228.164 80.703V91.7747L227.907 91.4755H241.544C242.028 91.4755 242.441 91.6465 242.783 91.9884C243.125 92.3304 243.296 92.7152 243.296 93.1426C243.296 93.6271 243.125 94.0261 242.783 94.3396C242.441 94.6531 242.028 94.8098 241.544 94.8098H226.325C225.841 94.8098 225.428 94.6388 225.086 94.2968C224.772 93.9549 224.615 93.5416 224.615 93.0571V66.5962C224.615 66.1117 224.772 65.7127 225.086 65.3992C225.428 65.0572 225.841 64.8862 226.325 64.8862ZM257.716 95.2373C255.607 95.2373 253.754 94.9238 252.159 94.2968C250.563 93.6699 249.024 92.6724 247.542 91.3045C247.342 91.105 247.171 90.8913 247.029 90.6633C246.915 90.4068 246.858 90.136 246.858 89.8511C246.858 89.3951 247.015 88.9961 247.328 88.6541C247.67 88.2836 248.083 88.0984 248.568 88.0984C248.967 88.0984 249.323 88.2551 249.636 88.5686C250.748 89.6516 251.945 90.478 253.227 91.048C254.538 91.618 256.006 91.903 257.63 91.903C258.884 91.903 260.01 91.7035 261.007 91.3045C262.033 90.9055 262.845 90.3498 263.444 89.6373C264.042 88.9248 264.342 88.0984 264.342 87.1579C264.313 86.018 263.971 85.0775 263.316 84.3366C262.689 83.5956 261.805 82.9829 260.665 82.4984C259.554 81.9854 258.257 81.5579 256.775 81.216C255.464 80.9025 254.253 80.5177 253.142 80.0618C252.059 79.6058 251.118 79.0501 250.32 78.3946C249.522 77.7106 248.895 76.8984 248.439 75.958C248.012 74.989 247.798 73.8633 247.798 72.5809C247.798 70.9564 248.226 69.5315 249.081 68.3061C249.936 67.0806 251.118 66.1402 252.629 65.4847C254.139 64.8007 255.878 64.4588 257.844 64.4588C259.582 64.4588 261.221 64.7437 262.76 65.3137C264.327 65.8837 265.581 66.6674 266.522 67.6649C267.092 68.2063 267.377 68.7336 267.377 69.2465C267.377 69.674 267.192 70.073 266.821 70.4435C266.479 70.7855 266.08 70.9564 265.624 70.9564C265.311 70.9564 265.026 70.8425 264.769 70.6145C264.285 70.073 263.672 69.5885 262.931 69.161C262.19 68.7336 261.378 68.3916 260.494 68.1351C259.611 67.8786 258.727 67.7504 257.844 67.7504C256.533 67.7504 255.379 67.9498 254.381 68.3488C253.384 68.7193 252.6 69.2608 252.03 69.9732C251.489 70.6572 251.218 71.4837 251.218 72.4526C251.218 73.5356 251.532 74.4333 252.159 75.1458C252.785 75.8297 253.626 76.3997 254.681 76.8557C255.735 77.2831 256.904 77.6679 258.186 78.0099C259.582 78.3518 260.865 78.7508 262.033 79.2068C263.23 79.6343 264.256 80.1758 265.111 80.8312C265.966 81.4867 266.622 82.3274 267.078 83.3534C267.562 84.3508 267.804 85.5905 267.804 87.0724C267.804 88.6399 267.363 90.0363 266.479 91.2617C265.596 92.4872 264.384 93.4561 262.845 94.1686C261.335 94.8526 259.625 95.2088 257.716 95.2373Z"
        fill="#004AAD" />
</svg>