<svg width="339" height="22" viewBox="0 0 339 22" fill="none" xmlns="http://www.w3.org/2000/svg">
    <path
        d="M9.18183 3.71395L2.42698 20.1556C2.35032 20.3855 2.21619 20.5676 2.02456 20.7017C1.83293 20.8358 1.63172 20.9029 1.42093 20.9029C1.05684 20.9029 0.788564 20.8071 0.616099 20.6155C0.443635 20.4238 0.357403 20.1939 0.357403 19.9256C0.33824 19.7915 0.357403 19.6477 0.414891 19.4944L7.8596 1.38568C7.95542 1.1174 8.09914 0.925777 8.29077 0.810801C8.50156 0.676661 8.73151 0.619173 8.98062 0.638337C9.22974 0.638337 9.45011 0.705406 9.64174 0.839544C9.85253 0.973684 9.99625 1.15573 10.0729 1.38568L17.4889 19.322C17.5464 19.4753 17.5751 19.6286 17.5751 19.7819C17.5751 20.1268 17.4601 20.4047 17.2302 20.6155C17.0002 20.8071 16.7415 20.9029 16.4541 20.9029C16.2241 20.9029 16.0133 20.8358 15.8217 20.7017C15.6301 20.5676 15.4864 20.3759 15.3906 20.1268L8.54946 3.68521L9.18183 3.71395ZM3.86418 15.4703L4.84148 13.2282H13.3785L13.8096 15.4703H3.86418ZM21.9314 0.724568C22.2572 0.724568 22.535 0.839544 22.765 1.0695C22.9949 1.28029 23.1099 1.55815 23.1099 1.90307V19.6669C23.1099 19.9927 22.9853 20.2705 22.7362 20.5005C22.5063 20.7304 22.2284 20.8454 21.9027 20.8454C21.5386 20.8454 21.2511 20.7304 21.0403 20.5005C20.8295 20.2705 20.7241 19.9927 20.7241 19.6669V1.90307C20.7241 1.55815 20.8391 1.28029 21.0691 1.0695C21.299 0.839544 21.5865 0.724568 21.9314 0.724568ZM35.1824 0.724568C35.5273 0.724568 35.8052 0.839544 36.016 1.0695C36.2459 1.28029 36.3609 1.55815 36.3609 1.90307V19.6669C36.3609 19.9927 36.2459 20.2705 36.016 20.5005C35.786 20.7304 35.4986 20.8454 35.1537 20.8454C34.8279 20.8454 34.55 20.7304 34.3201 20.5005C34.0901 20.2705 33.9752 19.9927 33.9752 19.6669V1.90307C33.9752 1.55815 34.0901 1.28029 34.3201 1.0695C34.5692 0.839544 34.8566 0.724568 35.1824 0.724568ZM21.8164 9.49151H35.2112L35.1824 11.7335H21.7302L21.8164 9.49151ZM59.5495 10.785C59.5495 12.2605 59.31 13.6307 58.8309 14.8954C58.3519 16.141 57.6812 17.2332 56.8188 18.1722C55.9565 19.1112 54.9313 19.8394 53.7432 20.3568C52.5551 20.8742 51.2617 21.1329 49.8628 21.1329C48.4447 21.1329 47.1417 20.8742 45.9536 20.3568C44.7847 19.8394 43.769 19.1112 42.9067 18.1722C42.0444 17.2332 41.3737 16.141 40.8946 14.8954C40.4156 13.6307 40.176 12.2605 40.176 10.785C40.176 9.2903 40.4156 7.92017 40.8946 6.67459C41.3737 5.40985 42.0444 4.31758 42.9067 3.39777C43.769 2.45879 44.7847 1.73061 45.9536 1.21322C47.1417 0.695824 48.4447 0.437128 49.8628 0.437128C51.2617 0.437128 52.5551 0.695824 53.7432 1.21322C54.9313 1.73061 55.9565 2.45879 56.8188 3.39777C57.6812 4.31758 58.3519 5.40985 58.8309 6.67459C59.31 7.92017 59.5495 9.2903 59.5495 10.785ZM57.0775 10.785C57.0775 9.21365 56.7613 7.82435 56.129 6.6171C55.5158 5.40985 54.6726 4.4613 53.5995 3.77144C52.5264 3.08158 51.2808 2.73665 49.8628 2.73665C48.4447 2.73665 47.1896 3.08158 46.0973 3.77144C45.0242 4.4613 44.181 5.40985 43.5678 6.6171C42.9546 7.82435 42.648 9.21365 42.648 10.785C42.648 12.3372 42.9546 13.7265 43.5678 14.9529C44.181 16.1601 45.0242 17.1087 46.0973 17.7985C47.1896 18.4884 48.4447 18.8333 49.8628 18.8333C51.2808 18.8333 52.5264 18.4884 53.5995 17.7985C54.6726 17.1087 55.5158 16.1601 56.129 14.9529C56.7613 13.7265 57.0775 12.3372 57.0775 10.785ZM64.6853 20.8454C64.3212 20.8454 64.005 20.7304 63.7367 20.5005C63.4876 20.2705 63.3631 19.9927 63.3631 19.6669V1.87433C63.3631 1.54856 63.4684 1.28029 63.6792 1.0695C63.9092 0.839544 64.1871 0.724568 64.5128 0.724568H72.4462C73.5193 0.724568 74.487 0.973683 75.3493 1.47191C76.2117 1.95098 76.8919 2.62168 77.3902 3.484C77.9076 4.32716 78.1663 5.30446 78.1663 6.41589C78.1663 7.22073 78.0129 7.97766 77.7063 8.68668C77.3997 9.37653 76.9782 9.98016 76.4416 10.4976C75.9051 10.9958 75.2918 11.379 74.602 11.6473L73.9696 11.1874C74.6211 11.3407 75.2056 11.6186 75.723 12.021C76.2404 12.4042 76.662 12.9025 76.9877 13.5157C77.3135 14.1097 77.486 14.8092 77.5051 15.614C77.5435 16.323 77.5914 16.8883 77.6489 17.3099C77.7063 17.7315 77.7926 18.0668 77.9076 18.3159C78.0225 18.5459 78.1854 18.7279 78.3962 18.8621C78.6645 19.0345 78.8369 19.2645 78.9136 19.5519C79.0094 19.8394 78.9615 20.1172 78.7699 20.3855C78.6549 20.558 78.492 20.6825 78.2812 20.7592C78.0704 20.8167 77.8596 20.8358 77.6489 20.8167C77.4381 20.7975 77.256 20.74 77.1027 20.6442C76.7961 20.4717 76.4991 20.2226 76.2117 19.8969C75.9242 19.5519 75.6847 19.0633 75.4931 18.4309C75.3014 17.7985 75.2056 16.9362 75.2056 15.8439C75.2056 15.2307 75.1098 14.7229 74.9182 14.3205C74.7265 13.9181 74.4678 13.5923 74.1421 13.3432C73.8163 13.0941 73.4522 12.9216 73.0498 12.8258C72.6474 12.73 72.2354 12.6821 71.8138 12.6821H65.4039L65.7488 12.1647V19.6669C65.7488 19.9927 65.653 20.2705 65.4614 20.5005C65.2697 20.7304 65.011 20.8454 64.6853 20.8454ZM65.4039 10.6125H72.4462C73.0019 10.5742 73.5193 10.3826 73.9984 10.0376C74.4966 9.69272 74.899 9.21365 75.2056 8.60044C75.5314 7.96807 75.6943 7.25905 75.6943 6.47338C75.6943 5.45776 75.3685 4.6146 74.717 3.9439C74.0846 3.27321 73.2798 2.93786 72.3025 2.93786H65.5189L65.7488 2.39172V11.1299L65.4039 10.6125ZM84.11 20.8454C83.7459 20.8454 83.4297 20.7304 83.1614 20.5005C82.9123 20.2705 82.7878 19.9927 82.7878 19.6669V1.87433C82.7878 1.54856 82.8932 1.28029 83.1039 1.0695C83.3339 0.839544 83.6118 0.724568 83.9375 0.724568H91.8709C92.944 0.724568 93.9117 0.973683 94.774 1.47191C95.6364 1.95098 96.3166 2.62168 96.8149 3.484C97.3323 4.32716 97.591 5.30446 97.591 6.41589C97.591 7.22073 97.4377 7.97766 97.131 8.68668C96.8244 9.37653 96.4029 9.98016 95.8663 10.4976C95.3298 10.9958 94.7165 11.379 94.0267 11.6473L93.3943 11.1874C94.0458 11.3407 94.6303 11.6186 95.1477 12.021C95.6651 12.4042 96.0867 12.9025 96.4124 13.5157C96.7382 14.1097 96.9107 14.8092 96.9298 15.614C96.9682 16.323 97.0161 16.8883 97.0736 17.3099C97.131 17.7315 97.2173 18.0668 97.3323 18.3159C97.4472 18.5459 97.6101 18.7279 97.8209 18.8621C98.0892 19.0345 98.2616 19.2645 98.3383 19.5519C98.4341 19.8394 98.3862 20.1172 98.1946 20.3855C98.0796 20.558 97.9167 20.6825 97.7059 20.7592C97.4951 20.8167 97.2843 20.8358 97.0736 20.8167C96.8628 20.7975 96.6807 20.74 96.5274 20.6442C96.2208 20.4717 95.9238 20.2226 95.6364 19.8969C95.3489 19.5519 95.1094 19.0633 94.9178 18.4309C94.7261 17.7985 94.6303 16.9362 94.6303 15.8439C94.6303 15.2307 94.5345 14.7229 94.3429 14.3205C94.1512 13.9181 93.8925 13.5923 93.5668 13.3432C93.241 13.0941 92.8769 12.9216 92.4745 12.8258C92.0721 12.73 91.6601 12.6821 91.2385 12.6821H84.8286L85.1735 12.1647V19.6669C85.1735 19.9927 85.0777 20.2705 84.8861 20.5005C84.6944 20.7304 84.4357 20.8454 84.11 20.8454ZM84.8286 10.6125H91.8709C92.4266 10.5742 92.944 10.3826 93.4231 10.0376C93.9213 9.69272 94.3237 9.21365 94.6303 8.60044C94.9561 7.96807 95.119 7.25905 95.119 6.47338C95.119 5.45776 94.7932 4.6146 94.1417 3.9439C93.5093 3.27321 92.7045 2.93786 91.7272 2.93786H84.9436L85.1735 2.39172V11.1299L84.8286 10.6125ZM120.069 10.785C120.069 12.2605 119.83 13.6307 119.351 14.8954C118.872 16.141 118.201 17.2332 117.339 18.1722C116.476 19.1112 115.451 19.8394 114.263 20.3568C113.075 20.8742 111.781 21.1329 110.383 21.1329C108.964 21.1329 107.661 20.8742 106.473 20.3568C105.304 19.8394 104.289 19.1112 103.426 18.1722C102.564 17.2332 101.893 16.141 101.414 14.8954C100.935 13.6307 100.696 12.2605 100.696 10.785C100.696 9.2903 100.935 7.92017 101.414 6.67459C101.893 5.40985 102.564 4.31758 103.426 3.39777C104.289 2.45879 105.304 1.73061 106.473 1.21322C107.661 0.695824 108.964 0.437128 110.383 0.437128C111.781 0.437128 113.075 0.695824 114.263 1.21322C115.451 1.73061 116.476 2.45879 117.339 3.39777C118.201 4.31758 118.872 5.40985 119.351 6.67459C119.83 7.92017 120.069 9.2903 120.069 10.785ZM117.597 10.785C117.597 9.21365 117.281 7.82435 116.649 6.6171C116.036 5.40985 115.192 4.4613 114.119 3.77144C113.046 3.08158 111.801 2.73665 110.383 2.73665C108.964 2.73665 107.709 3.08158 106.617 3.77144C105.544 4.4613 104.701 5.40985 104.088 6.6171C103.474 7.82435 103.168 9.21365 103.168 10.785C103.168 12.3372 103.474 13.7265 104.088 14.9529C104.701 16.1601 105.544 17.1087 106.617 17.7985C107.709 18.4884 108.964 18.8333 110.383 18.8333C111.801 18.8333 113.046 18.4884 114.119 17.7985C115.192 17.1087 116.036 16.1601 116.649 14.9529C117.281 13.7265 117.597 12.3372 117.597 10.785ZM137.145 21.1329C135.784 21.1329 134.577 20.8263 133.523 20.213C132.469 19.5807 131.636 18.7758 131.023 17.7985C130.429 16.8021 130.131 15.7577 130.131 14.6654C130.131 13.784 130.294 12.9504 130.62 12.1647C130.965 11.379 131.473 10.6796 132.144 10.0664C132.833 9.43402 133.705 8.92621 134.759 8.54295L136.34 10.1526C134.903 10.4592 133.897 10.9958 133.322 11.7623C132.766 12.5096 132.489 13.3624 132.489 14.3205C132.489 15.087 132.671 15.8248 133.035 16.5338C133.399 17.2428 133.954 17.8177 134.702 18.2585C135.468 18.6992 136.417 18.9196 137.547 18.9196C138.678 18.9196 139.665 18.7184 140.508 18.3159C141.351 17.9135 142.06 17.3674 142.635 16.6775C143.21 15.9877 143.68 15.2212 144.044 14.378C144.408 13.5348 144.657 12.6821 144.791 11.8198C144.829 11.5898 144.925 11.4078 145.078 11.2736C145.232 11.1395 145.471 11.0724 145.797 11.0724C146.123 11.0724 146.381 11.2066 146.573 11.4749C146.784 11.7431 146.861 12.0593 146.803 12.4234C146.65 13.4965 146.334 14.5505 145.854 15.5853C145.375 16.62 144.743 17.559 143.957 18.4022C143.172 19.2262 142.214 19.8873 141.083 20.3855C139.952 20.8837 138.64 21.1329 137.145 21.1329ZM147.378 20.8167C147.225 20.8167 147.09 20.7975 146.976 20.7592C146.88 20.7017 146.793 20.6538 146.717 20.6155C145.471 19.5998 144.293 18.6417 143.181 17.7411C142.089 16.8404 141.025 15.911 139.991 14.9529C138.956 13.9756 137.912 12.8833 136.858 11.6761C136.187 10.9096 135.574 10.1814 135.018 9.49151C134.481 8.80165 134.05 8.12138 133.724 7.45068C133.399 6.77999 133.236 6.09013 133.236 5.38111C133.236 4.4613 133.466 3.62772 133.926 2.88037C134.386 2.13303 135.037 1.53898 135.88 1.09824C136.743 0.657499 137.758 0.437128 138.927 0.437128C140.288 0.437128 141.447 0.686243 142.405 1.18447C143.363 1.66354 144.024 2.26717 144.389 2.99535C144.408 3.01451 144.436 3.10075 144.475 3.25405C144.532 3.38819 144.561 3.54149 144.561 3.71395C144.561 3.9439 144.465 4.16428 144.274 4.37507C144.101 4.56669 143.852 4.66251 143.526 4.66251C143.335 4.66251 143.172 4.62418 143.038 4.54753C142.903 4.45172 142.798 4.3559 142.721 4.26009C142.338 3.70437 141.849 3.26363 141.255 2.93786C140.661 2.6121 139.885 2.44921 138.927 2.44921C137.854 2.44921 137.04 2.71749 136.484 3.25405C135.928 3.7906 135.65 4.48046 135.65 5.32362C135.65 5.8985 135.823 6.51171 136.168 7.16324C136.532 7.79561 136.973 8.42798 137.49 9.06035C138.027 9.67356 138.544 10.258 139.042 10.8137C139.751 11.5994 140.508 12.3851 141.313 13.1708C142.118 13.9373 142.923 14.675 143.727 15.384C144.532 16.0739 145.289 16.7159 145.998 17.3099C146.726 17.8848 147.349 18.3734 147.867 18.7758C148.039 18.9291 148.164 19.0824 148.24 19.2357C148.317 19.3891 148.355 19.5711 148.355 19.7819C148.355 19.9735 148.269 20.1939 148.097 20.443C147.943 20.6921 147.704 20.8167 147.378 20.8167ZM161.918 19.6669C161.918 19.9927 161.793 20.2705 161.544 20.5005C161.314 20.7304 161.036 20.8454 160.711 20.8454C160.347 20.8454 160.059 20.7304 159.848 20.5005C159.638 20.2705 159.532 19.9927 159.532 19.6669V1.90307C159.532 1.55815 159.647 1.28029 159.877 1.0695C160.107 0.839544 160.395 0.724568 160.739 0.724568C161.065 0.724568 161.343 0.839544 161.573 1.0695C161.803 1.28029 161.918 1.55815 161.918 1.90307V19.6669ZM181.86 0.724568C182.186 0.724568 182.445 0.829963 182.636 1.04075C182.828 1.23238 182.924 1.4815 182.924 1.7881V19.6382C182.924 20.0023 182.809 20.2993 182.579 20.5292C182.349 20.74 182.071 20.8454 181.745 20.8454C181.573 20.8454 181.4 20.8167 181.228 20.7592C181.055 20.6825 180.921 20.5867 180.825 20.4717L168.523 4.2026L169.098 3.85767V19.7819C169.098 20.0885 168.992 20.3472 168.782 20.558C168.59 20.7496 168.331 20.8454 168.006 20.8454C167.699 20.8454 167.45 20.7496 167.258 20.558C167.067 20.3472 166.971 20.0885 166.971 19.7819V1.87433C166.971 1.5294 167.076 1.25154 167.287 1.04075C167.517 0.829963 167.785 0.724568 168.092 0.724568C168.264 0.724568 168.437 0.762893 168.609 0.839544C168.801 0.897033 168.945 0.992846 169.04 1.12698L181.17 17.1662L180.797 17.6261V1.7881C180.797 1.4815 180.893 1.23238 181.084 1.04075C181.295 0.829963 181.554 0.724568 181.86 0.724568ZM202.569 0.695824C202.895 0.695824 203.173 0.801219 203.403 1.01201C203.633 1.20364 203.748 1.46233 203.748 1.7881C203.748 1.9414 203.71 2.11386 203.633 2.30549L196.131 20.0981C196.016 20.3472 195.853 20.5388 195.642 20.673C195.451 20.7879 195.24 20.8454 195.01 20.8454C194.799 20.8263 194.598 20.7592 194.406 20.6442C194.215 20.5101 194.071 20.328 193.975 20.0981L186.502 2.33424C186.463 2.25759 186.434 2.18094 186.415 2.10428C186.396 2.00847 186.387 1.91266 186.387 1.81684C186.387 1.45275 186.511 1.17489 186.76 0.983265C187.028 0.772475 187.287 0.667081 187.536 0.667081C188.054 0.667081 188.427 0.935358 188.657 1.47191L195.527 17.856H194.866L201.506 1.41443C201.736 0.935358 202.09 0.695824 202.569 0.695824ZM208.345 0.724568H218.578C218.904 0.724568 219.182 0.829963 219.412 1.04075C219.642 1.25154 219.757 1.51982 219.757 1.84559C219.757 2.17135 219.642 2.43963 219.412 2.65042C219.182 2.84205 218.904 2.93786 218.578 2.93786H209.323L209.581 2.44921V9.72146L209.294 9.40528H217.285C217.611 9.40528 217.888 9.51067 218.118 9.72146C218.348 9.93225 218.463 10.2005 218.463 10.5263C218.463 10.8521 218.348 11.1203 218.118 11.3311C217.888 11.5228 217.611 11.6186 217.285 11.6186H209.38L209.581 11.3599V18.8046L209.409 18.6034H218.578C218.904 18.6034 219.182 18.7184 219.412 18.9483C219.642 19.1783 219.757 19.437 219.757 19.7244C219.757 20.0502 219.642 20.3184 219.412 20.5292C219.182 20.74 218.904 20.8454 218.578 20.8454H208.345C208.02 20.8454 207.742 20.7304 207.512 20.5005C207.301 20.2705 207.196 19.9927 207.196 19.6669V1.87433C207.196 1.54856 207.301 1.28029 207.512 1.0695C207.742 0.839544 208.02 0.724568 208.345 0.724568ZM224.911 20.8454C224.547 20.8454 224.231 20.7304 223.962 20.5005C223.713 20.2705 223.589 19.9927 223.589 19.6669V1.87433C223.589 1.54856 223.694 1.28029 223.905 1.0695C224.135 0.839544 224.413 0.724568 224.739 0.724568H232.672C233.745 0.724568 234.713 0.973683 235.575 1.47191C236.437 1.95098 237.118 2.62168 237.616 3.484C238.133 4.32716 238.392 5.30446 238.392 6.41589C238.392 7.22073 238.239 7.97766 237.932 8.68668C237.625 9.37653 237.204 9.98016 236.667 10.4976C236.131 10.9958 235.518 11.379 234.828 11.6473L234.195 11.1874C234.847 11.3407 235.431 11.6186 235.949 12.021C236.466 12.4042 236.888 12.9025 237.213 13.5157C237.539 14.1097 237.712 14.8092 237.731 15.614C237.769 16.323 237.817 16.8883 237.875 17.3099C237.932 17.7315 238.018 18.0668 238.133 18.3159C238.248 18.5459 238.411 18.7279 238.622 18.8621C238.89 19.0345 239.063 19.2645 239.139 19.5519C239.235 19.8394 239.187 20.1172 238.996 20.3855C238.881 20.558 238.718 20.6825 238.507 20.7592C238.296 20.8167 238.085 20.8358 237.875 20.8167C237.664 20.7975 237.482 20.74 237.328 20.6442C237.022 20.4717 236.725 20.2226 236.437 19.8969C236.15 19.5519 235.91 19.0633 235.719 18.4309C235.527 17.7985 235.431 16.9362 235.431 15.8439C235.431 15.2307 235.336 14.7229 235.144 14.3205C234.952 13.9181 234.694 13.5923 234.368 13.3432C234.042 13.0941 233.678 12.9216 233.276 12.8258C232.873 12.73 232.461 12.6821 232.04 12.6821H225.63L225.975 12.1647V19.6669C225.975 19.9927 225.879 20.2705 225.687 20.5005C225.495 20.7304 225.237 20.8454 224.911 20.8454ZM225.63 10.6125H232.672C233.228 10.5742 233.745 10.3826 234.224 10.0376C234.722 9.69272 235.125 9.21365 235.431 8.60044C235.757 7.96807 235.92 7.25905 235.92 6.47338C235.92 5.45776 235.594 4.6146 234.943 3.9439C234.31 3.27321 233.505 2.93786 232.528 2.93786H225.745L225.975 2.39172V11.1299L225.63 10.6125ZM248.877 21.1329C247.459 21.1329 246.214 20.9221 245.141 20.5005C244.067 20.0789 243.033 19.4082 242.036 18.4884C241.902 18.3543 241.787 18.2105 241.691 18.0572C241.615 17.8848 241.576 17.7027 241.576 17.5111C241.576 17.2045 241.682 16.9362 241.892 16.7063C242.122 16.4572 242.4 16.3326 242.726 16.3326C242.994 16.3326 243.234 16.438 243.445 16.6488C244.192 17.377 244.997 17.9327 245.859 18.3159C246.741 18.6992 247.728 18.8908 248.82 18.8908C249.663 18.8908 250.42 18.7567 251.091 18.4884C251.78 18.2201 252.327 17.8465 252.729 17.3674C253.131 16.8883 253.333 16.3326 253.333 15.7002C253.313 14.9337 253.083 14.3014 252.643 13.8031C252.221 13.3049 251.627 12.8929 250.861 12.5671C250.113 12.2222 249.241 11.9348 248.245 11.7048C247.363 11.494 246.549 11.2353 245.802 10.9287C245.073 10.6221 244.441 10.2484 243.905 9.80769C243.368 9.34779 242.946 8.80165 242.64 8.16928C242.352 7.51775 242.209 6.76082 242.209 5.8985C242.209 4.80623 242.496 3.84809 243.071 3.02409C243.646 2.2001 244.441 1.56773 245.457 1.12698C246.472 0.66708 247.641 0.437128 248.964 0.437128C250.132 0.437128 251.234 0.628754 252.269 1.01201C253.323 1.39526 254.166 1.92224 254.799 2.59293C255.182 2.95702 255.373 3.31153 255.373 3.65646C255.373 3.9439 255.249 4.21218 255 4.4613C254.77 4.69125 254.502 4.80623 254.195 4.80623C253.984 4.80623 253.793 4.72958 253.62 4.57627C253.294 4.21218 252.882 3.88642 252.384 3.59898C251.886 3.31154 251.34 3.08158 250.746 2.90912C250.152 2.73665 249.558 2.65042 248.964 2.65042C248.082 2.65042 247.306 2.78456 246.635 3.05284C245.965 3.30195 245.438 3.66605 245.054 4.14511C244.69 4.60502 244.508 5.16074 244.508 5.81227C244.508 6.54045 244.719 7.14408 245.141 7.62315C245.562 8.08305 246.127 8.4663 246.836 8.77291C247.545 9.06035 248.331 9.31905 249.193 9.549C250.132 9.77895 250.995 10.0472 251.78 10.3538C252.585 10.6413 253.275 11.0054 253.85 11.4461C254.425 11.8868 254.866 12.4521 255.172 13.142C255.498 13.8127 255.661 14.6463 255.661 15.6427C255.661 16.6967 255.364 17.6357 254.77 18.4597C254.176 19.2837 253.361 19.9352 252.327 20.4143C251.311 20.8742 250.161 21.1137 248.877 21.1329ZM261.905 19.6669C261.905 19.9927 261.78 20.2705 261.531 20.5005C261.301 20.7304 261.023 20.8454 260.697 20.8454C260.333 20.8454 260.046 20.7304 259.835 20.5005C259.624 20.2705 259.519 19.9927 259.519 19.6669V1.90307C259.519 1.55815 259.634 1.28029 259.864 1.0695C260.094 0.839544 260.381 0.724568 260.726 0.724568C261.052 0.724568 261.33 0.839544 261.56 1.0695C261.79 1.28029 261.905 1.55815 261.905 1.90307V19.6669ZM285.095 10.785C285.095 12.2605 284.855 13.6307 284.376 14.8954C283.897 16.141 283.227 17.2332 282.364 18.1722C281.502 19.1112 280.477 19.8394 279.289 20.3568C278.101 20.8742 276.807 21.1329 275.408 21.1329C273.99 21.1329 272.687 20.8742 271.499 20.3568C270.33 19.8394 269.315 19.1112 268.452 18.1722C267.59 17.2332 266.919 16.141 266.44 14.8954C265.961 13.6307 265.722 12.2605 265.722 10.785C265.722 9.2903 265.961 7.92017 266.44 6.67459C266.919 5.40985 267.59 4.31758 268.452 3.39777C269.315 2.45879 270.33 1.73061 271.499 1.21322C272.687 0.695824 273.99 0.437128 275.408 0.437128C276.807 0.437128 278.101 0.695824 279.289 1.21322C280.477 1.73061 281.502 2.45879 282.364 3.39777C283.227 4.31758 283.897 5.40985 284.376 6.67459C284.855 7.92017 285.095 9.2903 285.095 10.785ZM282.623 10.785C282.623 9.21365 282.307 7.82435 281.674 6.6171C281.061 5.40985 280.218 4.4613 279.145 3.77144C278.072 3.08158 276.826 2.73665 275.408 2.73665C273.99 2.73665 272.735 3.08158 271.643 3.77144C270.57 4.4613 269.727 5.40985 269.113 6.6171C268.5 7.82435 268.194 9.21365 268.194 10.785C268.194 12.3372 268.5 13.7265 269.113 14.9529C269.727 16.1601 270.57 17.1087 271.643 17.7985C272.735 18.4884 273.99 18.8333 275.408 18.8333C276.826 18.8333 278.072 18.4884 279.145 17.7985C280.218 17.1087 281.061 16.1601 281.674 14.9529C282.307 13.7265 282.623 12.3372 282.623 10.785ZM303.798 0.724568C304.124 0.724568 304.382 0.829963 304.574 1.04075C304.766 1.23238 304.861 1.4815 304.861 1.7881V19.6382C304.861 20.0023 304.747 20.2993 304.517 20.5292C304.287 20.74 304.009 20.8454 303.683 20.8454C303.511 20.8454 303.338 20.8167 303.166 20.7592C302.993 20.6825 302.859 20.5867 302.763 20.4717L290.461 4.2026L291.036 3.85767V19.7819C291.036 20.0885 290.93 20.3472 290.719 20.558C290.528 20.7496 290.269 20.8454 289.943 20.8454C289.637 20.8454 289.388 20.7496 289.196 20.558C289.004 20.3472 288.909 20.0885 288.909 19.7819V1.87433C288.909 1.5294 289.014 1.25154 289.225 1.04075C289.455 0.829963 289.723 0.724568 290.03 0.724568C290.202 0.724568 290.374 0.762893 290.547 0.839544C290.739 0.897033 290.882 0.992846 290.978 1.12698L303.108 17.1662L302.734 17.6261V1.7881C302.734 1.4815 302.83 1.23238 303.022 1.04075C303.233 0.829963 303.491 0.724568 303.798 0.724568ZM311.055 0.724568H321.288C321.614 0.724568 321.891 0.829963 322.121 1.04075C322.351 1.25154 322.466 1.51982 322.466 1.84559C322.466 2.17135 322.351 2.43963 322.121 2.65042C321.891 2.84205 321.614 2.93786 321.288 2.93786H312.032L312.291 2.44921V9.72146L312.003 9.40528H319.994C320.32 9.40528 320.598 9.51067 320.828 9.72146C321.058 9.93225 321.173 10.2005 321.173 10.5263C321.173 10.8521 321.058 11.1203 320.828 11.3311C320.598 11.5228 320.32 11.6186 319.994 11.6186H312.09L312.291 11.3599V18.8046L312.118 18.6034H321.288C321.614 18.6034 321.891 18.7184 322.121 18.9483C322.351 19.1783 322.466 19.437 322.466 19.7244C322.466 20.0502 322.351 20.3184 322.121 20.5292C321.891 20.74 321.614 20.8454 321.288 20.8454H311.055C310.729 20.8454 310.451 20.7304 310.221 20.5005C310.011 20.2705 309.905 19.9927 309.905 19.6669V1.87433C309.905 1.54856 310.011 1.28029 310.221 1.0695C310.451 0.839544 310.729 0.724568 311.055 0.724568ZM332.162 21.1329C330.744 21.1329 329.498 20.9221 328.425 20.5005C327.352 20.0789 326.317 19.4082 325.321 18.4884C325.187 18.3543 325.072 18.2105 324.976 18.0572C324.899 17.8848 324.861 17.7027 324.861 17.5111C324.861 17.2045 324.966 16.9362 325.177 16.7063C325.407 16.4572 325.685 16.3326 326.011 16.3326C326.279 16.3326 326.519 16.438 326.729 16.6488C327.477 17.377 328.282 17.9327 329.144 18.3159C330.025 18.6992 331.012 18.8908 332.105 18.8908C332.948 18.8908 333.705 18.7567 334.375 18.4884C335.065 18.2201 335.611 17.8465 336.014 17.3674C336.416 16.8883 336.617 16.3326 336.617 15.7002C336.598 14.9337 336.368 14.3014 335.928 13.8031C335.506 13.3049 334.912 12.8929 334.145 12.5671C333.398 12.2222 332.526 11.9348 331.53 11.7048C330.648 11.494 329.834 11.2353 329.086 10.9287C328.358 10.6221 327.726 10.2484 327.189 9.80769C326.653 9.34779 326.231 8.80165 325.925 8.16928C325.637 7.51775 325.493 6.76082 325.493 5.8985C325.493 4.80623 325.781 3.84809 326.356 3.02409C326.931 2.2001 327.726 1.56773 328.742 1.12698C329.757 0.66708 330.926 0.437128 332.248 0.437128C333.417 0.437128 334.519 0.628754 335.554 1.01201C336.608 1.39526 337.451 1.92224 338.083 2.59293C338.467 2.95702 338.658 3.31153 338.658 3.65646C338.658 3.9439 338.534 4.21218 338.285 4.4613C338.055 4.69125 337.786 4.80623 337.48 4.80623C337.269 4.80623 337.077 4.72958 336.905 4.57627C336.579 4.21218 336.167 3.88642 335.669 3.59898C335.171 3.31154 334.625 3.08158 334.03 2.90912C333.436 2.73665 332.842 2.65042 332.248 2.65042C331.367 2.65042 330.591 2.78456 329.92 3.05284C329.249 3.30195 328.722 3.66605 328.339 4.14511C327.975 4.60502 327.793 5.16074 327.793 5.81227C327.793 6.54045 328.004 7.14408 328.425 7.62315C328.847 8.08305 329.412 8.4663 330.121 8.77291C330.83 9.06035 331.616 9.31905 332.478 9.549C333.417 9.77895 334.28 10.0472 335.065 10.3538C335.87 10.6413 336.56 11.0054 337.135 11.4461C337.71 11.8868 338.15 12.4521 338.457 13.142C338.783 13.8127 338.946 14.6463 338.946 15.6427C338.946 16.6967 338.649 17.6357 338.055 18.4597C337.461 19.2837 336.646 19.9352 335.611 20.4143C334.596 20.8742 333.446 21.1137 332.162 21.1329Z"
        fill="white" />
</svg>