<svg id="a4a61597-ab9a-4576-83a0-ea3e4cd603b0" data-name="Capa 1" xmlns="http://www.w3.org/2000/svg"
  viewBox="0 0 48 48">
  <defs>
    <style>
      .e14fdda0-a12b-438f-92a4-cd06eab9abd4 {
      fill: #004aac;
      }

      .a0d18d8c-8abb-4f50-b005-4f8c78c06e89 {
      fill: #fefefe;
      }

      .a10a33ab-e6fb-4aa9-9cc8-d685ca167151 {
      fill: #fdfefe;
      }

      .b2e2a3d5-a54b-414b-bcdc-121ed7509868 {
      fill: #fdfdfe;
      }
    </style>
  </defs>
  <title>iUpi-ico</title>
  <g>
    <path class="e14fdda0-a12b-438f-92a4-cd06eab9abd4"
      d="M23.91,48H.16c-.26,0-.34,0-.34-.43Q-.17,24-.18.46C-.18.05-.1,0,.18,0H47.65c.27,0,.35.05.35.45Q48,24,48,47.52c0,.41-.08.48-.37.48Z" />
    <g>
      <path class="a0d18d8c-8abb-4f50-b005-4f8c78c06e89"
        d="M29.46,20.26a5.52,5.52,0,0,1,7.5.42,6.22,6.22,0,0,1,0,7.71,5.4,5.4,0,0,1-7.38.55v3.68c0,1.31,0,1.31-1.27,1.31-1.89,0-1.89,0-1.89-1.87,0-4.05,0-8.1,0-12.15,0-.62.13-.88.78-.79a5.17,5.17,0,0,0,1.18,0C29.16,19,29.7,19.15,29.46,20.26Z" />
      <path class="a0d18d8c-8abb-4f50-b005-4f8c78c06e89"
        d="M10.6,20.55c0-1.38,0-2.76,0-4.14,0-.44.12-.64.57-.58h.17c.81.05,1.85-.34,2.37.15s.15,1.54.16,2.34c0,1.69,0,3.38,0,5.07A10.53,10.53,0,0,0,14,24.65a2.84,2.84,0,0,0,3,2.8,2.78,2.78,0,0,0,3.14-2.71,67.63,67.63,0,0,0,.1-6.83c0-2.08,0-2.09,2.11-2.08,1.35,0,1.12-.14,1.13,1.1q0,3.42,0,6.84c0,2.39-.64,4.54-2.93,5.68a7.41,7.41,0,0,1-7.28-.17,5.35,5.35,0,0,1-2.58-4.68c-.08-1.35,0-2.7,0-4.05Z" />
      <path class="a10a33ab-e6fb-4aa9-9cc8-d685ca167151"
        d="M7.57,24.66c0,1.57,0,3.15,0,4.72,0,.47-.12.66-.61.63-.81,0-1.86.26-2.38-.14s-.17-1.52-.17-2.33c0-2.56,0-5.11,0-7.67,0-.59.16-.81.75-.75.78.07,1.79-.32,2.28.15s.13,1.49.15,2.27C7.59,22.58,7.57,23.62,7.57,24.66Z" />
      <path class="b2e2a3d5-a54b-414b-bcdc-121ed7509868"
        d="M43.59,24.58c0,1.6,0,3.2,0,4.8,0,.46-.1.67-.61.63-.8-.05-1.85.25-2.36-.15s-.18-1.52-.18-2.32c0-2.56,0-5.11,0-7.67,0-.58.13-.81.74-.76a11.61,11.61,0,0,0,1.77,0c.51,0,.67.12.66.65C43.57,21.37,43.59,23,43.59,24.58Z" />
      <path class="b2e2a3d5-a54b-414b-bcdc-121ed7509868"
        d="M42,17.59a1.77,1.77,0,1,1,0-3.52,1.8,1.8,0,0,1,2,1.73A1.84,1.84,0,0,1,42,17.59Z" />
      <path class="b2e2a3d5-a54b-414b-bcdc-121ed7509868"
        d="M6,17.59a1.77,1.77,0,1,1,0-3.52,1.77,1.77,0,0,1,1.94,1.76A1.82,1.82,0,0,1,6,17.59Z" />
      <path class="e14fdda0-a12b-438f-92a4-cd06eab9abd4"
        d="M35.12,24.58a2.78,2.78,0,1,1-5.55,0,2.79,2.79,0,1,1,5.55,0Z" />
    </g>
  </g>
</svg>